<svg xmlns="http://www.w3.org/2000/svg" width="1480" height="962" viewBox="0 0 1480 962">
<style>text{font-family:"Microsoft YaHei","Noto Sans CJK SC",Arial,sans-serif;letter-spacing:0}.title{font-size:20px;font-weight:700}.label{font-size:15px;font-weight:600}.small{font-size:12px}.line{stroke:#6c757d;stroke-width:2;fill:none}</style>
<rect width="100%" height="100%" fill="#ffffff"/>
<rect x="560.0" y="24.0" width="360.0" height="64.0" rx="4" fill="#ffc9c9" stroke="#a51111" stroke-width="2"/>
<text x="740.0" y="49.0" text-anchor="middle" class="label" fill="#212529">Aircraft target / 飞机目标</text>
<text x="740.0" y="77.0" text-anchor="middle" class="small" fill="#a51111">SEVERE | PDF tree level</text>
<path class="line" d="M 740.0 88.0 V 104.0"/>
<path class="line" d="M 199.2 104.0 H 1280.8"/>
<path class="line" d="M 199.2 104.0 V 132.0"/>
<rect x="28.0" y="132.0" width="342.5" height="64.0" rx="4" fill="#ffc9c9" stroke="#a51111" stroke-width="2"/>
<text x="199.2" y="157.0" text-anchor="middle" class="label" fill="#212529">Airframe structure</text>
<text x="199.2" y="185.0" text-anchor="middle" class="small" fill="#a51111">SEVERE | airframe</text>
<path class="line" d="M 199.2 196.0 V 242.0"/>
<rect x="38.0" y="258.0" width="322.5" height="56.0" rx="4" fill="#ffd8a8" stroke="#8a3b00" stroke-width="2"/>
<text x="199.2" y="281.0" text-anchor="middle" class="label" fill="#212529">RADM  Nose/radome</text>
<text x="199.2" y="303.0" text-anchor="middle" class="small" fill="#8a3b00">MODERATE | major</text>
<path class="line" d="M 199.2 242.0 V 258.0"/>
<rect x="38.0" y="326.0" width="322.5" height="56.0" rx="4" fill="#ffc9c9" stroke="#a51111" stroke-width="2"/>
<text x="199.2" y="349.0" text-anchor="middle" class="label" fill="#212529">AL2024  Aluminium 2024 skin</text>
<text x="199.2" y="371.0" text-anchor="middle" class="small" fill="#a51111">SEVERE | major</text>
<path class="line" d="M 199.2 314.0 V 326.0"/>
<rect x="38.0" y="394.0" width="322.5" height="56.0" rx="4" fill="#fff3bf" stroke="#7a5b00" stroke-width="2"/>
<text x="199.2" y="417.0" text-anchor="middle" class="label" fill="#212529">AL7075  Aluminium 7075 frame</text>
<text x="199.2" y="439.0" text-anchor="middle" class="small" fill="#7a5b00">MILD | major</text>
<path class="line" d="M 199.2 382.0 V 394.0"/>
<path class="line" d="M 559.8 104.0 V 132.0"/>
<rect x="388.5" y="132.0" width="342.5" height="64.0" rx="4" fill="#fff3bf" stroke="#7a5b00" stroke-width="2"/>
<text x="559.8" y="157.0" text-anchor="middle" class="label" fill="#212529">Avionics system</text>
<text x="559.8" y="185.0" text-anchor="middle" class="small" fill="#7a5b00">MILD | avionics</text>
<path class="line" d="M 559.8 196.0 V 242.0"/>
<rect x="398.5" y="258.0" width="322.5" height="56.0" rx="4" fill="#e9ecef" stroke="#343a40" stroke-width="2"/>
<text x="559.8" y="281.0" text-anchor="middle" class="label" fill="#212529">H1  Navigation subsystem</text>
<text x="559.8" y="303.0" text-anchor="middle" class="small" fill="#343a40">NONE | major</text>
<path class="line" d="M 559.8 242.0 V 258.0"/>
<rect x="398.5" y="326.0" width="322.5" height="56.0" rx="4" fill="#fff3bf" stroke="#7a5b00" stroke-width="2"/>
<text x="559.8" y="349.0" text-anchor="middle" class="label" fill="#212529">H2  Mission subsystem</text>
<text x="559.8" y="371.0" text-anchor="middle" class="small" fill="#7a5b00">MILD | major</text>
<path class="line" d="M 559.8 314.0 V 326.0"/>
<rect x="398.5" y="394.0" width="322.5" height="56.0" rx="4" fill="#fff3bf" stroke="#7a5b00" stroke-width="2"/>
<text x="559.8" y="417.0" text-anchor="middle" class="label" fill="#212529">H4  Communication subsystem</text>
<text x="559.8" y="439.0" text-anchor="middle" class="small" fill="#7a5b00">MILD | secondary</text>
<path class="line" d="M 559.8 382.0 V 394.0"/>
<path class="line" d="M 920.2 104.0 V 132.0"/>
<rect x="749.0" y="132.0" width="342.5" height="64.0" rx="4" fill="#e9ecef" stroke="#343a40" stroke-width="2"/>
<text x="920.2" y="157.0" text-anchor="middle" class="label" fill="#212529">Power system</text>
<text x="920.2" y="185.0" text-anchor="middle" class="small" fill="#343a40">NONE | power</text>
<path class="line" d="M 920.2 196.0 V 242.0"/>
<rect x="759.0" y="258.0" width="322.5" height="56.0" rx="4" fill="#e9ecef" stroke="#343a40" stroke-width="2"/>
<text x="920.2" y="281.0" text-anchor="middle" class="label" fill="#212529">H5  Battery</text>
<text x="920.2" y="303.0" text-anchor="middle" class="small" fill="#343a40">NONE | major</text>
<path class="line" d="M 920.2 242.0 V 258.0"/>
<rect x="759.0" y="326.0" width="322.5" height="56.0" rx="4" fill="#e9ecef" stroke="#343a40" stroke-width="2"/>
<text x="920.2" y="349.0" text-anchor="middle" class="label" fill="#212529">H6  Power transmission subsystem</text>
<text x="920.2" y="371.0" text-anchor="middle" class="small" fill="#343a40">NONE | major</text>
<path class="line" d="M 920.2 314.0 V 326.0"/>
<path class="line" d="M 1280.8 104.0 V 132.0"/>
<rect x="1109.5" y="132.0" width="342.5" height="64.0" rx="4" fill="#ffc9c9" stroke="#a51111" stroke-width="2"/>
<text x="1280.8" y="157.0" text-anchor="middle" class="label" fill="#212529">Cockpit system</text>
<text x="1280.8" y="185.0" text-anchor="middle" class="small" fill="#a51111">SEVERE | cockpit</text>
<path class="line" d="M 1280.8 196.0 V 242.0"/>
<rect x="1119.5" y="258.0" width="322.5" height="56.0" rx="4" fill="#ffc9c9" stroke="#a51111" stroke-width="2"/>
<text x="1280.8" y="281.0" text-anchor="middle" class="label" fill="#212529">WINS  PMMA windows</text>
<text x="1280.8" y="303.0" text-anchor="middle" class="small" fill="#a51111">SEVERE | major</text>
<path class="line" d="M 1280.8 242.0 V 258.0"/>
<rect x="1119.5" y="326.0" width="322.5" height="56.0" rx="4" fill="#e9ecef" stroke="#343a40" stroke-width="2"/>
<text x="1280.8" y="349.0" text-anchor="middle" class="label" fill="#212529">BED  Nylon mattress</text>
<text x="1280.8" y="371.0" text-anchor="middle" class="small" fill="#343a40">NONE | major</text>
<path class="line" d="M 1280.8 314.0 V 326.0"/>
<rect x="1119.5" y="394.0" width="322.5" height="56.0" rx="4" fill="#ffd8a8" stroke="#8a3b00" stroke-width="2"/>
<text x="1280.8" y="417.0" text-anchor="middle" class="label" fill="#212529">CURT  Nylon curtain</text>
<text x="1280.8" y="439.0" text-anchor="middle" class="small" fill="#8a3b00">MODERATE | major</text>
<path class="line" d="M 1280.8 382.0 V 394.0"/>
<rect x="1119.5" y="462.0" width="322.5" height="56.0" rx="4" fill="#ffc9c9" stroke="#a51111" stroke-width="2"/>
<text x="1280.8" y="485.0" text-anchor="middle" class="label" fill="#212529">SEAT  Polyurethane seats</text>
<text x="1280.8" y="507.0" text-anchor="middle" class="small" fill="#a51111">SEVERE | major</text>
<path class="line" d="M 1280.8 450.0 V 462.0"/>
<rect x="1119.5" y="530.0" width="322.5" height="56.0" rx="4" fill="#fff3bf" stroke="#7a5b00" stroke-width="2"/>
<text x="1280.8" y="553.0" text-anchor="middle" class="label" fill="#212529">U4  U4 instrument equipment</text>
<text x="1280.8" y="575.0" text-anchor="middle" class="small" fill="#7a5b00">MILD | major</text>
<path class="line" d="M 1280.8 518.0 V 530.0"/>
<rect x="1119.5" y="598.0" width="322.5" height="56.0" rx="4" fill="#ffc9c9" stroke="#a51111" stroke-width="2"/>
<text x="1280.8" y="621.0" text-anchor="middle" class="label" fill="#212529">H3  Display subsystem</text>
<text x="1280.8" y="643.0" text-anchor="middle" class="small" fill="#a51111">SEVERE | major</text>
<path class="line" d="M 1280.8 586.0 V 598.0"/>
<rect x="1119.5" y="666.0" width="322.5" height="56.0" rx="4" fill="#fff3bf" stroke="#7a5b00" stroke-width="2"/>
<text x="1280.8" y="689.0" text-anchor="middle" class="label" fill="#212529">H7  Flight-control subsystem</text>
<text x="1280.8" y="711.0" text-anchor="middle" class="small" fill="#7a5b00">MILD | major</text>
<path class="line" d="M 1280.8 654.0 V 666.0"/>
<rect x="1119.5" y="734.0" width="322.5" height="56.0" rx="4" fill="#ffd8a8" stroke="#8a3b00" stroke-width="2"/>
<text x="1280.8" y="757.0" text-anchor="middle" class="label" fill="#212529">AL5052  Aluminium 5052 duct</text>
<text x="1280.8" y="779.0" text-anchor="middle" class="small" fill="#8a3b00">MODERATE | secondary</text>
<path class="line" d="M 1280.8 722.0 V 734.0"/>
<rect x="1119.5" y="802.0" width="322.5" height="56.0" rx="4" fill="#ffd8a8" stroke="#8a3b00" stroke-width="2"/>
<text x="1280.8" y="825.0" text-anchor="middle" class="label" fill="#212529">O2TANK  Oxygen tank</text>
<text x="1280.8" y="847.0" text-anchor="middle" class="small" fill="#8a3b00">MODERATE | secondary</text>
<path class="line" d="M 1280.8 790.0 V 802.0"/>
<rect x="28" y="920" width="22" height="18" fill="#f1f3f5" stroke="#495057"/>
<text x="58" y="934" class="small">unknown</text>
<rect x="156" y="920" width="22" height="18" fill="#e9ecef" stroke="#343a40"/>
<text x="186" y="934" class="small">none</text>
<rect x="284" y="920" width="22" height="18" fill="#fff3bf" stroke="#7a5b00"/>
<text x="314" y="934" class="small">mild</text>
<rect x="412" y="920" width="22" height="18" fill="#ffd8a8" stroke="#8a3b00"/>
<text x="442" y="934" class="small">moderate</text>
<rect x="540" y="920" width="22" height="18" fill="#ffc9c9" stroke="#a51111"/>
<text x="570" y="934" class="small">severe</text>
<text x="1452" y="934" text-anchor="end" class="small">Strict all-severe: 4/17</text>
</svg>