<?xml version="1.0" encoding="utf-8" standalone="no"?>
<!DOCTYPE svg PUBLIC "-//W3C//DTD SVG 1.1//EN"
  "http://www.w3.org/Graphics/SVG/1.1/DTD/svg11.dtd">
<svg xmlns:xlink="http://www.w3.org/1999/xlink" width="936pt" height="648pt" viewBox="0 0 936 648" xmlns="http://www.w3.org/2000/svg" version="1.1">
 <metadata>
  <rdf:RDF xmlns:dc="http://purl.org/dc/elements/1.1/" xmlns:cc="http://creativecommons.org/ns#" xmlns:rdf="http://www.w3.org/1999/02/22-rdf-syntax-ns#">
   <cc:Work>
    <dc:type rdf:resource="http://purl.org/dc/dcmitype/StillImage"/>
    <dc:date>2026-07-22T09:33:24.142239</dc:date>
    <dc:format>image/svg+xml</dc:format>
    <dc:creator>
     <cc:Agent>
      <dc:title>Matplotlib v3.5.2, https://matplotlib.org/</dc:title>
     </cc:Agent>
    </dc:creator>
   </cc:Work>
  </rdf:RDF>
 </metadata>
 <defs>
  <style type="text/css">*{stroke-linejoin: round; stroke-linecap: butt}</style>
 </defs>
 <g id="figure_1">
  <g id="patch_1">
   <path d="M 0 648 
L 936 648 
L 936 0 
L 0 0 
z
" style="fill: #ffffff"/>
  </g>
  <g id="axes_1">
   <g id="patch_2">
    <path d="M 49.128365 290.40375 
L 932.99976 290.40375 
L 932.99976 18.118365 
L 49.128365 18.118365 
z
" style="fill: #ffffff"/>
   </g>
   <g id="matplotlib.axis_1">
    <g id="xtick_1">
     <g id="line2d_1">
      <path d="M 89.304338 290.40375 
L 89.304338 18.118365 
" clip-path="url(#paa3df960ff)" style="fill: none; stroke: #d8dde3; stroke-width: 0.6; stroke-linecap: square"/>
     </g>
     <g id="line2d_2">
      <defs>
       <path id="m3b7f6c0b8a" d="M 0 0 
L 0 3.5 
" style="stroke: #000000; stroke-width: 0.8"/>
      </defs>
      <g>
       <use xlink:href="#m3b7f6c0b8a" x="89.304338" y="290.40375" style="stroke: #000000; stroke-width: 0.8"/>
      </g>
     </g>
     <g id="text_1">
      <!-- 0 -->
      <g transform="translate(86.123087 305.002187)scale(0.1 -0.1)">
       <defs>
        <path id="DejaVuSans-30" d="M 2034 4250 
Q 1547 4250 1301 3770 
Q 1056 3291 1056 2328 
Q 1056 1369 1301 889 
Q 1547 409 2034 409 
Q 2525 409 2770 889 
Q 3016 1369 3016 2328 
Q 3016 3291 2770 3770 
Q 2525 4250 2034 4250 
z
M 2034 4750 
Q 2819 4750 3233 4129 
Q 3647 3509 3647 2328 
Q 3647 1150 3233 529 
Q 2819 -91 2034 -91 
Q 1250 -91 836 529 
Q 422 1150 422 2328 
Q 422 3509 836 4129 
Q 1250 4750 2034 4750 
z
" transform="scale(0.015625)"/>
       </defs>
       <use xlink:href="#DejaVuSans-30"/>
      </g>
     </g>
    </g>
    <g id="xtick_2">
     <g id="line2d_3">
      <path d="M 202.436208 290.40375 
L 202.436208 18.118365 
" clip-path="url(#paa3df960ff)" style="fill: none; stroke: #d8dde3; stroke-width: 0.6; stroke-linecap: square"/>
     </g>
     <g id="line2d_4">
      <g>
       <use xlink:href="#m3b7f6c0b8a" x="202.436208" y="290.40375" style="stroke: #000000; stroke-width: 0.8"/>
      </g>
     </g>
     <g id="text_2">
      <!-- 200 -->
      <g transform="translate(192.892458 305.002187)scale(0.1 -0.1)">
       <defs>
        <path id="DejaVuSans-32" d="M 1228 531 
L 3431 531 
L 3431 0 
L 469 0 
L 469 531 
Q 828 903 1448 1529 
Q 2069 2156 2228 2338 
Q 2531 2678 2651 2914 
Q 2772 3150 2772 3378 
Q 2772 3750 2511 3984 
Q 2250 4219 1831 4219 
Q 1534 4219 1204 4116 
Q 875 4013 500 3803 
L 500 4441 
Q 881 4594 1212 4672 
Q 1544 4750 1819 4750 
Q 2544 4750 2975 4387 
Q 3406 4025 3406 3419 
Q 3406 3131 3298 2873 
Q 3191 2616 2906 2266 
Q 2828 2175 2409 1742 
Q 1991 1309 1228 531 
z
" transform="scale(0.015625)"/>
       </defs>
       <use xlink:href="#DejaVuSans-32"/>
       <use xlink:href="#DejaVuSans-30" x="63.623047"/>
       <use xlink:href="#DejaVuSans-30" x="127.246094"/>
      </g>
     </g>
    </g>
    <g id="xtick_3">
     <g id="line2d_5">
      <path d="M 315.568079 290.40375 
L 315.568079 18.118365 
" clip-path="url(#paa3df960ff)" style="fill: none; stroke: #d8dde3; stroke-width: 0.6; stroke-linecap: square"/>
     </g>
     <g id="line2d_6">
      <g>
       <use xlink:href="#m3b7f6c0b8a" x="315.568079" y="290.40375" style="stroke: #000000; stroke-width: 0.8"/>
      </g>
     </g>
     <g id="text_3">
      <!-- 400 -->
      <g transform="translate(306.024329 305.002187)scale(0.1 -0.1)">
       <defs>
        <path id="DejaVuSans-34" d="M 2419 4116 
L 825 1625 
L 2419 1625 
L 2419 4116 
z
M 2253 4666 
L 3047 4666 
L 3047 1625 
L 3713 1625 
L 3713 1100 
L 3047 1100 
L 3047 0 
L 2419 0 
L 2419 1100 
L 313 1100 
L 313 1709 
L 2253 4666 
z
" transform="scale(0.015625)"/>
       </defs>
       <use xlink:href="#DejaVuSans-34"/>
       <use xlink:href="#DejaVuSans-30" x="63.623047"/>
       <use xlink:href="#DejaVuSans-30" x="127.246094"/>
      </g>
     </g>
    </g>
    <g id="xtick_4">
     <g id="line2d_7">
      <path d="M 428.699949 290.40375 
L 428.699949 18.118365 
" clip-path="url(#paa3df960ff)" style="fill: none; stroke: #d8dde3; stroke-width: 0.6; stroke-linecap: square"/>
     </g>
     <g id="line2d_8">
      <g>
       <use xlink:href="#m3b7f6c0b8a" x="428.699949" y="290.40375" style="stroke: #000000; stroke-width: 0.8"/>
      </g>
     </g>
     <g id="text_4">
      <!-- 600 -->
      <g transform="translate(419.156199 305.002187)scale(0.1 -0.1)">
       <defs>
        <path id="DejaVuSans-36" d="M 2113 2584 
Q 1688 2584 1439 2293 
Q 1191 2003 1191 1497 
Q 1191 994 1439 701 
Q 1688 409 2113 409 
Q 2538 409 2786 701 
Q 3034 994 3034 1497 
Q 3034 2003 2786 2293 
Q 2538 2584 2113 2584 
z
M 3366 4563 
L 3366 3988 
Q 3128 4100 2886 4159 
Q 2644 4219 2406 4219 
Q 1781 4219 1451 3797 
Q 1122 3375 1075 2522 
Q 1259 2794 1537 2939 
Q 1816 3084 2150 3084 
Q 2853 3084 3261 2657 
Q 3669 2231 3669 1497 
Q 3669 778 3244 343 
Q 2819 -91 2113 -91 
Q 1303 -91 875 529 
Q 447 1150 447 2328 
Q 447 3434 972 4092 
Q 1497 4750 2381 4750 
Q 2619 4750 2861 4703 
Q 3103 4656 3366 4563 
z
" transform="scale(0.015625)"/>
       </defs>
       <use xlink:href="#DejaVuSans-36"/>
       <use xlink:href="#DejaVuSans-30" x="63.623047"/>
       <use xlink:href="#DejaVuSans-30" x="127.246094"/>
      </g>
     </g>
    </g>
    <g id="xtick_5">
     <g id="line2d_9">
      <path d="M 541.83182 290.40375 
L 541.83182 18.118365 
" clip-path="url(#paa3df960ff)" style="fill: none; stroke: #d8dde3; stroke-width: 0.6; stroke-linecap: square"/>
     </g>
     <g id="line2d_10">
      <g>
       <use xlink:href="#m3b7f6c0b8a" x="541.83182" y="290.40375" style="stroke: #000000; stroke-width: 0.8"/>
      </g>
     </g>
     <g id="text_5">
      <!-- 800 -->
      <g transform="translate(532.28807 305.002187)scale(0.1 -0.1)">
       <defs>
        <path id="DejaVuSans-38" d="M 2034 2216 
Q 1584 2216 1326 1975 
Q 1069 1734 1069 1313 
Q 1069 891 1326 650 
Q 1584 409 2034 409 
Q 2484 409 2743 651 
Q 3003 894 3003 1313 
Q 3003 1734 2745 1975 
Q 2488 2216 2034 2216 
z
M 1403 2484 
Q 997 2584 770 2862 
Q 544 3141 544 3541 
Q 544 4100 942 4425 
Q 1341 4750 2034 4750 
Q 2731 4750 3128 4425 
Q 3525 4100 3525 3541 
Q 3525 3141 3298 2862 
Q 3072 2584 2669 2484 
Q 3125 2378 3379 2068 
Q 3634 1759 3634 1313 
Q 3634 634 3220 271 
Q 2806 -91 2034 -91 
Q 1263 -91 848 271 
Q 434 634 434 1313 
Q 434 1759 690 2068 
Q 947 2378 1403 2484 
z
M 1172 3481 
Q 1172 3119 1398 2916 
Q 1625 2713 2034 2713 
Q 2441 2713 2670 2916 
Q 2900 3119 2900 3481 
Q 2900 3844 2670 4047 
Q 2441 4250 2034 4250 
Q 1625 4250 1398 4047 
Q 1172 3844 1172 3481 
z
" transform="scale(0.015625)"/>
       </defs>
       <use xlink:href="#DejaVuSans-38"/>
       <use xlink:href="#DejaVuSans-30" x="63.623047"/>
       <use xlink:href="#DejaVuSans-30" x="127.246094"/>
      </g>
     </g>
    </g>
    <g id="xtick_6">
     <g id="line2d_11">
      <path d="M 654.96369 290.40375 
L 654.96369 18.118365 
" clip-path="url(#paa3df960ff)" style="fill: none; stroke: #d8dde3; stroke-width: 0.6; stroke-linecap: square"/>
     </g>
     <g id="line2d_12">
      <g>
       <use xlink:href="#m3b7f6c0b8a" x="654.96369" y="290.40375" style="stroke: #000000; stroke-width: 0.8"/>
      </g>
     </g>
     <g id="text_6">
      <!-- 1000 -->
      <g transform="translate(642.23869 305.002187)scale(0.1 -0.1)">
       <defs>
        <path id="DejaVuSans-31" d="M 794 531 
L 1825 531 
L 1825 4091 
L 703 3866 
L 703 4441 
L 1819 4666 
L 2450 4666 
L 2450 531 
L 3481 531 
L 3481 0 
L 794 0 
L 794 531 
z
" transform="scale(0.015625)"/>
       </defs>
       <use xlink:href="#DejaVuSans-31"/>
       <use xlink:href="#DejaVuSans-30" x="63.623047"/>
       <use xlink:href="#DejaVuSans-30" x="127.246094"/>
       <use xlink:href="#DejaVuSans-30" x="190.869141"/>
      </g>
     </g>
    </g>
    <g id="xtick_7">
     <g id="line2d_13">
      <path d="M 768.095561 290.40375 
L 768.095561 18.118365 
" clip-path="url(#paa3df960ff)" style="fill: none; stroke: #d8dde3; stroke-width: 0.6; stroke-linecap: square"/>
     </g>
     <g id="line2d_14">
      <g>
       <use xlink:href="#m3b7f6c0b8a" x="768.095561" y="290.40375" style="stroke: #000000; stroke-width: 0.8"/>
      </g>
     </g>
     <g id="text_7">
      <!-- 1200 -->
      <g transform="translate(755.370561 305.002187)scale(0.1 -0.1)">
       <use xlink:href="#DejaVuSans-31"/>
       <use xlink:href="#DejaVuSans-32" x="63.623047"/>
       <use xlink:href="#DejaVuSans-30" x="127.246094"/>
       <use xlink:href="#DejaVuSans-30" x="190.869141"/>
      </g>
     </g>
    </g>
    <g id="xtick_8">
     <g id="line2d_15">
      <path d="M 881.227431 290.40375 
L 881.227431 18.118365 
" clip-path="url(#paa3df960ff)" style="fill: none; stroke: #d8dde3; stroke-width: 0.6; stroke-linecap: square"/>
     </g>
     <g id="line2d_16">
      <g>
       <use xlink:href="#m3b7f6c0b8a" x="881.227431" y="290.40375" style="stroke: #000000; stroke-width: 0.8"/>
      </g>
     </g>
     <g id="text_8">
      <!-- 1400 -->
      <g transform="translate(868.502431 305.002187)scale(0.1 -0.1)">
       <use xlink:href="#DejaVuSans-31"/>
       <use xlink:href="#DejaVuSans-34" x="63.623047"/>
       <use xlink:href="#DejaVuSans-30" x="127.246094"/>
       <use xlink:href="#DejaVuSans-30" x="190.869141"/>
      </g>
     </g>
    </g>
    <g id="text_9">
     <!-- Simulation time (s) -->
     <g transform="translate(443.450781 318.680313)scale(0.1 -0.1)">
      <defs>
       <path id="DejaVuSans-53" d="M 3425 4513 
L 3425 3897 
Q 3066 4069 2747 4153 
Q 2428 4238 2131 4238 
Q 1616 4238 1336 4038 
Q 1056 3838 1056 3469 
Q 1056 3159 1242 3001 
Q 1428 2844 1947 2747 
L 2328 2669 
Q 3034 2534 3370 2195 
Q 3706 1856 3706 1288 
Q 3706 609 3251 259 
Q 2797 -91 1919 -91 
Q 1588 -91 1214 -16 
Q 841 59 441 206 
L 441 856 
Q 825 641 1194 531 
Q 1563 422 1919 422 
Q 2459 422 2753 634 
Q 3047 847 3047 1241 
Q 3047 1584 2836 1778 
Q 2625 1972 2144 2069 
L 1759 2144 
Q 1053 2284 737 2584 
Q 422 2884 422 3419 
Q 422 4038 858 4394 
Q 1294 4750 2059 4750 
Q 2388 4750 2728 4690 
Q 3069 4631 3425 4513 
z
" transform="scale(0.015625)"/>
       <path id="DejaVuSans-69" d="M 603 3500 
L 1178 3500 
L 1178 0 
L 603 0 
L 603 3500 
z
M 603 4863 
L 1178 4863 
L 1178 4134 
L 603 4134 
L 603 4863 
z
" transform="scale(0.015625)"/>
       <path id="DejaVuSans-6d" d="M 3328 2828 
Q 3544 3216 3844 3400 
Q 4144 3584 4550 3584 
Q 5097 3584 5394 3201 
Q 5691 2819 5691 2113 
L 5691 0 
L 5113 0 
L 5113 2094 
Q 5113 2597 4934 2840 
Q 4756 3084 4391 3084 
Q 3944 3084 3684 2787 
Q 3425 2491 3425 1978 
L 3425 0 
L 2847 0 
L 2847 2094 
Q 2847 2600 2669 2842 
Q 2491 3084 2119 3084 
Q 1678 3084 1418 2786 
Q 1159 2488 1159 1978 
L 1159 0 
L 581 0 
L 581 3500 
L 1159 3500 
L 1159 2956 
Q 1356 3278 1631 3431 
Q 1906 3584 2284 3584 
Q 2666 3584 2933 3390 
Q 3200 3197 3328 2828 
z
" transform="scale(0.015625)"/>
       <path id="DejaVuSans-75" d="M 544 1381 
L 544 3500 
L 1119 3500 
L 1119 1403 
Q 1119 906 1312 657 
Q 1506 409 1894 409 
Q 2359 409 2629 706 
Q 2900 1003 2900 1516 
L 2900 3500 
L 3475 3500 
L 3475 0 
L 2900 0 
L 2900 538 
Q 2691 219 2414 64 
Q 2138 -91 1772 -91 
Q 1169 -91 856 284 
Q 544 659 544 1381 
z
M 1991 3584 
L 1991 3584 
z
" transform="scale(0.015625)"/>
       <path id="DejaVuSans-6c" d="M 603 4863 
L 1178 4863 
L 1178 0 
L 603 0 
L 603 4863 
z
" transform="scale(0.015625)"/>
       <path id="DejaVuSans-61" d="M 2194 1759 
Q 1497 1759 1228 1600 
Q 959 1441 959 1056 
Q 959 750 1161 570 
Q 1363 391 1709 391 
Q 2188 391 2477 730 
Q 2766 1069 2766 1631 
L 2766 1759 
L 2194 1759 
z
M 3341 1997 
L 3341 0 
L 2766 0 
L 2766 531 
Q 2569 213 2275 61 
Q 1981 -91 1556 -91 
Q 1019 -91 701 211 
Q 384 513 384 1019 
Q 384 1609 779 1909 
Q 1175 2209 1959 2209 
L 2766 2209 
L 2766 2266 
Q 2766 2663 2505 2880 
Q 2244 3097 1772 3097 
Q 1472 3097 1187 3025 
Q 903 2953 641 2809 
L 641 3341 
Q 956 3463 1253 3523 
Q 1550 3584 1831 3584 
Q 2591 3584 2966 3190 
Q 3341 2797 3341 1997 
z
" transform="scale(0.015625)"/>
       <path id="DejaVuSans-74" d="M 1172 4494 
L 1172 3500 
L 2356 3500 
L 2356 3053 
L 1172 3053 
L 1172 1153 
Q 1172 725 1289 603 
Q 1406 481 1766 481 
L 2356 481 
L 2356 0 
L 1766 0 
Q 1100 0 847 248 
Q 594 497 594 1153 
L 594 3053 
L 172 3053 
L 172 3500 
L 594 3500 
L 594 4494 
L 1172 4494 
z
" transform="scale(0.015625)"/>
       <path id="DejaVuSans-6f" d="M 1959 3097 
Q 1497 3097 1228 2736 
Q 959 2375 959 1747 
Q 959 1119 1226 758 
Q 1494 397 1959 397 
Q 2419 397 2687 759 
Q 2956 1122 2956 1747 
Q 2956 2369 2687 2733 
Q 2419 3097 1959 3097 
z
M 1959 3584 
Q 2709 3584 3137 3096 
Q 3566 2609 3566 1747 
Q 3566 888 3137 398 
Q 2709 -91 1959 -91 
Q 1206 -91 779 398 
Q 353 888 353 1747 
Q 353 2609 779 3096 
Q 1206 3584 1959 3584 
z
" transform="scale(0.015625)"/>
       <path id="DejaVuSans-6e" d="M 3513 2113 
L 3513 0 
L 2938 0 
L 2938 2094 
Q 2938 2591 2744 2837 
Q 2550 3084 2163 3084 
Q 1697 3084 1428 2787 
Q 1159 2491 1159 1978 
L 1159 0 
L 581 0 
L 581 3500 
L 1159 3500 
L 1159 2956 
Q 1366 3272 1645 3428 
Q 1925 3584 2291 3584 
Q 2894 3584 3203 3211 
Q 3513 2838 3513 2113 
z
" transform="scale(0.015625)"/>
       <path id="DejaVuSans-20" transform="scale(0.015625)"/>
       <path id="DejaVuSans-65" d="M 3597 1894 
L 3597 1613 
L 953 1613 
Q 991 1019 1311 708 
Q 1631 397 2203 397 
Q 2534 397 2845 478 
Q 3156 559 3463 722 
L 3463 178 
Q 3153 47 2828 -22 
Q 2503 -91 2169 -91 
Q 1331 -91 842 396 
Q 353 884 353 1716 
Q 353 2575 817 3079 
Q 1281 3584 2069 3584 
Q 2775 3584 3186 3129 
Q 3597 2675 3597 1894 
z
M 3022 2063 
Q 3016 2534 2758 2815 
Q 2500 3097 2075 3097 
Q 1594 3097 1305 2825 
Q 1016 2553 972 2059 
L 3022 2063 
z
" transform="scale(0.015625)"/>
       <path id="DejaVuSans-28" d="M 1984 4856 
Q 1566 4138 1362 3434 
Q 1159 2731 1159 2009 
Q 1159 1288 1364 580 
Q 1569 -128 1984 -844 
L 1484 -844 
Q 1016 -109 783 600 
Q 550 1309 550 2009 
Q 550 2706 781 3412 
Q 1013 4119 1484 4856 
L 1984 4856 
z
" transform="scale(0.015625)"/>
       <path id="DejaVuSans-73" d="M 2834 3397 
L 2834 2853 
Q 2591 2978 2328 3040 
Q 2066 3103 1784 3103 
Q 1356 3103 1142 2972 
Q 928 2841 928 2578 
Q 928 2378 1081 2264 
Q 1234 2150 1697 2047 
L 1894 2003 
Q 2506 1872 2764 1633 
Q 3022 1394 3022 966 
Q 3022 478 2636 193 
Q 2250 -91 1575 -91 
Q 1294 -91 989 -36 
Q 684 19 347 128 
L 347 722 
Q 666 556 975 473 
Q 1284 391 1588 391 
Q 1994 391 2212 530 
Q 2431 669 2431 922 
Q 2431 1156 2273 1281 
Q 2116 1406 1581 1522 
L 1381 1569 
Q 847 1681 609 1914 
Q 372 2147 372 2553 
Q 372 3047 722 3315 
Q 1072 3584 1716 3584 
Q 2034 3584 2315 3537 
Q 2597 3491 2834 3397 
z
" transform="scale(0.015625)"/>
       <path id="DejaVuSans-29" d="M 513 4856 
L 1013 4856 
Q 1481 4119 1714 3412 
Q 1947 2706 1947 2009 
Q 1947 1309 1714 600 
Q 1481 -109 1013 -844 
L 513 -844 
Q 928 -128 1133 580 
Q 1338 1288 1338 2009 
Q 1338 2731 1133 3434 
Q 928 4138 513 4856 
z
" transform="scale(0.015625)"/>
      </defs>
      <use xlink:href="#DejaVuSans-53"/>
      <use xlink:href="#DejaVuSans-69" x="63.476562"/>
      <use xlink:href="#DejaVuSans-6d" x="91.259766"/>
      <use xlink:href="#DejaVuSans-75" x="188.671875"/>
      <use xlink:href="#DejaVuSans-6c" x="252.050781"/>
      <use xlink:href="#DejaVuSans-61" x="279.833984"/>
      <use xlink:href="#DejaVuSans-74" x="341.113281"/>
      <use xlink:href="#DejaVuSans-69" x="380.322266"/>
      <use xlink:href="#DejaVuSans-6f" x="408.105469"/>
      <use xlink:href="#DejaVuSans-6e" x="469.287109"/>
      <use xlink:href="#DejaVuSans-20" x="532.666016"/>
      <use xlink:href="#DejaVuSans-74" x="564.453125"/>
      <use xlink:href="#DejaVuSans-69" x="603.662109"/>
      <use xlink:href="#DejaVuSans-6d" x="631.445312"/>
      <use xlink:href="#DejaVuSans-65" x="728.857422"/>
      <use xlink:href="#DejaVuSans-20" x="790.380859"/>
      <use xlink:href="#DejaVuSans-28" x="822.167969"/>
      <use xlink:href="#DejaVuSans-73" x="861.181641"/>
      <use xlink:href="#DejaVuSans-29" x="913.28125"/>
     </g>
    </g>
   </g>
   <g id="matplotlib.axis_2">
    <g id="ytick_1">
     <g id="line2d_17">
      <path d="M 49.128365 278.027142 
L 932.99976 278.027142 
" clip-path="url(#paa3df960ff)" style="fill: none; stroke: #d8dde3; stroke-width: 0.6; stroke-linecap: square"/>
     </g>
     <g id="line2d_18">
      <defs>
       <path id="m2875fc8e91" d="M 0 0 
L -3.5 0 
" style="stroke: #000000; stroke-width: 0.8"/>
      </defs>
      <g>
       <use xlink:href="#m2875fc8e91" x="49.128365" y="278.027142" style="stroke: #000000; stroke-width: 0.8"/>
      </g>
     </g>
     <g id="text_10">
      <!-- 0 -->
      <g transform="translate(35.765865 281.82636)scale(0.1 -0.1)">
       <use xlink:href="#DejaVuSans-30"/>
      </g>
     </g>
    </g>
    <g id="ytick_2">
     <g id="line2d_19">
      <path d="M 49.128365 232.461756 
L 932.99976 232.461756 
" clip-path="url(#paa3df960ff)" style="fill: none; stroke: #d8dde3; stroke-width: 0.6; stroke-linecap: square"/>
     </g>
     <g id="line2d_20">
      <g>
       <use xlink:href="#m2875fc8e91" x="49.128365" y="232.461756" style="stroke: #000000; stroke-width: 0.8"/>
      </g>
     </g>
     <g id="text_11">
      <!-- 1000 -->
      <g transform="translate(16.678365 236.260974)scale(0.1 -0.1)">
       <use xlink:href="#DejaVuSans-31"/>
       <use xlink:href="#DejaVuSans-30" x="63.623047"/>
       <use xlink:href="#DejaVuSans-30" x="127.246094"/>
       <use xlink:href="#DejaVuSans-30" x="190.869141"/>
      </g>
     </g>
    </g>
    <g id="ytick_3">
     <g id="line2d_21">
      <path d="M 49.128365 186.89637 
L 932.99976 186.89637 
" clip-path="url(#paa3df960ff)" style="fill: none; stroke: #d8dde3; stroke-width: 0.6; stroke-linecap: square"/>
     </g>
     <g id="line2d_22">
      <g>
       <use xlink:href="#m2875fc8e91" x="49.128365" y="186.89637" style="stroke: #000000; stroke-width: 0.8"/>
      </g>
     </g>
     <g id="text_12">
      <!-- 2000 -->
      <g transform="translate(16.678365 190.695589)scale(0.1 -0.1)">
       <use xlink:href="#DejaVuSans-32"/>
       <use xlink:href="#DejaVuSans-30" x="63.623047"/>
       <use xlink:href="#DejaVuSans-30" x="127.246094"/>
       <use xlink:href="#DejaVuSans-30" x="190.869141"/>
      </g>
     </g>
    </g>
    <g id="ytick_4">
     <g id="line2d_23">
      <path d="M 49.128365 141.330984 
L 932.99976 141.330984 
" clip-path="url(#paa3df960ff)" style="fill: none; stroke: #d8dde3; stroke-width: 0.6; stroke-linecap: square"/>
     </g>
     <g id="line2d_24">
      <g>
       <use xlink:href="#m2875fc8e91" x="49.128365" y="141.330984" style="stroke: #000000; stroke-width: 0.8"/>
      </g>
     </g>
     <g id="text_13">
      <!-- 3000 -->
      <g transform="translate(16.678365 145.130203)scale(0.1 -0.1)">
       <defs>
        <path id="DejaVuSans-33" d="M 2597 2516 
Q 3050 2419 3304 2112 
Q 3559 1806 3559 1356 
Q 3559 666 3084 287 
Q 2609 -91 1734 -91 
Q 1441 -91 1130 -33 
Q 819 25 488 141 
L 488 750 
Q 750 597 1062 519 
Q 1375 441 1716 441 
Q 2309 441 2620 675 
Q 2931 909 2931 1356 
Q 2931 1769 2642 2001 
Q 2353 2234 1838 2234 
L 1294 2234 
L 1294 2753 
L 1863 2753 
Q 2328 2753 2575 2939 
Q 2822 3125 2822 3475 
Q 2822 3834 2567 4026 
Q 2313 4219 1838 4219 
Q 1578 4219 1281 4162 
Q 984 4106 628 3988 
L 628 4550 
Q 988 4650 1302 4700 
Q 1616 4750 1894 4750 
Q 2613 4750 3031 4423 
Q 3450 4097 3450 3541 
Q 3450 3153 3228 2886 
Q 3006 2619 2597 2516 
z
" transform="scale(0.015625)"/>
       </defs>
       <use xlink:href="#DejaVuSans-33"/>
       <use xlink:href="#DejaVuSans-30" x="63.623047"/>
       <use xlink:href="#DejaVuSans-30" x="127.246094"/>
       <use xlink:href="#DejaVuSans-30" x="190.869141"/>
      </g>
     </g>
    </g>
    <g id="ytick_5">
     <g id="line2d_25">
      <path d="M 49.128365 95.765598 
L 932.99976 95.765598 
" clip-path="url(#paa3df960ff)" style="fill: none; stroke: #d8dde3; stroke-width: 0.6; stroke-linecap: square"/>
     </g>
     <g id="line2d_26">
      <g>
       <use xlink:href="#m2875fc8e91" x="49.128365" y="95.765598" style="stroke: #000000; stroke-width: 0.8"/>
      </g>
     </g>
     <g id="text_14">
      <!-- 4000 -->
      <g transform="translate(16.678365 99.564817)scale(0.1 -0.1)">
       <use xlink:href="#DejaVuSans-34"/>
       <use xlink:href="#DejaVuSans-30" x="63.623047"/>
       <use xlink:href="#DejaVuSans-30" x="127.246094"/>
       <use xlink:href="#DejaVuSans-30" x="190.869141"/>
      </g>
     </g>
    </g>
    <g id="ytick_6">
     <g id="line2d_27">
      <path d="M 49.128365 50.200212 
L 932.99976 50.200212 
" clip-path="url(#paa3df960ff)" style="fill: none; stroke: #d8dde3; stroke-width: 0.6; stroke-linecap: square"/>
     </g>
     <g id="line2d_28">
      <g>
       <use xlink:href="#m2875fc8e91" x="49.128365" y="50.200212" style="stroke: #000000; stroke-width: 0.8"/>
      </g>
     </g>
     <g id="text_15">
      <!-- 5000 -->
      <g transform="translate(16.678365 53.999431)scale(0.1 -0.1)">
       <defs>
        <path id="DejaVuSans-35" d="M 691 4666 
L 3169 4666 
L 3169 4134 
L 1269 4134 
L 1269 2991 
Q 1406 3038 1543 3061 
Q 1681 3084 1819 3084 
Q 2600 3084 3056 2656 
Q 3513 2228 3513 1497 
Q 3513 744 3044 326 
Q 2575 -91 1722 -91 
Q 1428 -91 1123 -41 
Q 819 9 494 109 
L 494 744 
Q 775 591 1075 516 
Q 1375 441 1709 441 
Q 2250 441 2565 725 
Q 2881 1009 2881 1497 
Q 2881 1984 2565 2268 
Q 2250 2553 1709 2553 
Q 1456 2553 1204 2497 
Q 953 2441 691 2322 
L 691 4666 
z
" transform="scale(0.015625)"/>
       </defs>
       <use xlink:href="#DejaVuSans-35"/>
       <use xlink:href="#DejaVuSans-30" x="63.623047"/>
       <use xlink:href="#DejaVuSans-30" x="127.246094"/>
       <use xlink:href="#DejaVuSans-30" x="190.869141"/>
      </g>
     </g>
    </g>
    <g id="text_16">
     <!-- HRR (kW) -->
     <g transform="translate(10.598678 178.299339)rotate(-90)scale(0.1 -0.1)">
      <defs>
       <path id="DejaVuSans-48" d="M 628 4666 
L 1259 4666 
L 1259 2753 
L 3553 2753 
L 3553 4666 
L 4184 4666 
L 4184 0 
L 3553 0 
L 3553 2222 
L 1259 2222 
L 1259 0 
L 628 0 
L 628 4666 
z
" transform="scale(0.015625)"/>
       <path id="DejaVuSans-52" d="M 2841 2188 
Q 3044 2119 3236 1894 
Q 3428 1669 3622 1275 
L 4263 0 
L 3584 0 
L 2988 1197 
Q 2756 1666 2539 1819 
Q 2322 1972 1947 1972 
L 1259 1972 
L 1259 0 
L 628 0 
L 628 4666 
L 2053 4666 
Q 2853 4666 3247 4331 
Q 3641 3997 3641 3322 
Q 3641 2881 3436 2590 
Q 3231 2300 2841 2188 
z
M 1259 4147 
L 1259 2491 
L 2053 2491 
Q 2509 2491 2742 2702 
Q 2975 2913 2975 3322 
Q 2975 3731 2742 3939 
Q 2509 4147 2053 4147 
L 1259 4147 
z
" transform="scale(0.015625)"/>
       <path id="DejaVuSans-6b" d="M 581 4863 
L 1159 4863 
L 1159 1991 
L 2875 3500 
L 3609 3500 
L 1753 1863 
L 3688 0 
L 2938 0 
L 1159 1709 
L 1159 0 
L 581 0 
L 581 4863 
z
" transform="scale(0.015625)"/>
       <path id="DejaVuSans-57" d="M 213 4666 
L 850 4666 
L 1831 722 
L 2809 4666 
L 3519 4666 
L 4500 722 
L 5478 4666 
L 6119 4666 
L 4947 0 
L 4153 0 
L 3169 4050 
L 2175 0 
L 1381 0 
L 213 4666 
z
" transform="scale(0.015625)"/>
      </defs>
      <use xlink:href="#DejaVuSans-48"/>
      <use xlink:href="#DejaVuSans-52" x="75.195312"/>
      <use xlink:href="#DejaVuSans-52" x="144.677734"/>
      <use xlink:href="#DejaVuSans-20" x="214.160156"/>
      <use xlink:href="#DejaVuSans-28" x="245.947266"/>
      <use xlink:href="#DejaVuSans-6b" x="284.960938"/>
      <use xlink:href="#DejaVuSans-57" x="342.871094"/>
      <use xlink:href="#DejaVuSans-29" x="441.748047"/>
     </g>
    </g>
   </g>
   <g id="line2d_29">
    <path d="M 89.304338 278.027142 
L 90.158047 256.092688 
L 91.004466 209.305181 
L 91.851608 197.631634 
L 92.700218 195.622724 
L 93.547943 195.444723 
L 94.39669 197.027806 
L 95.24497 196.85797 
L 96.09377 196.158095 
L 96.941894 195.671525 
L 97.789353 192.968135 
L 98.638224 186.416434 
L 99.486256 180.107633 
L 100.335583 170.708287 
L 101.183423 174.008478 
L 102.031782 173.712969 
L 102.881112 168.009814 
L 103.729298 164.730208 
L 104.577164 156.285899 
L 105.425718 153.031564 
L 106.275718 148.708079 
L 107.122672 150.962427 
L 107.97165 156.782735 
L 108.821575 162.040866 
L 109.669611 172.353042 
L 110.516902 180.630724 
L 111.36713 191.513255 
L 112.217872 197.95467 
L 113.067086 210.568239 
L 113.912183 223.654564 
L 114.762847 219.733288 
L 115.610821 217.883662 
L 116.459318 213.949041 
L 117.307818 210.746118 
L 118.155882 208.376736 
L 119.004541 207.497264 
L 119.852709 206.939366 
L 120.700702 205.381477 
L 121.549031 202.965764 
L 122.396946 200.461181 
L 123.247744 204.426864 
" clip-path="url(#paa3df960ff)" style="fill: none; stroke: #00796b; stroke-width: 1.4; stroke-linecap: square"/>
   </g>
   <g id="line2d_30">
    <path d="M 89.304338 278.027142 
L 90.162842 248.656705 
L 91.002895 188.718165 
L 91.851193 175.468872 
L 92.698763 175.16013 
L 93.548805 175.92186 
L 94.397111 175.758608 
L 95.245936 176.002661 
L 96.093167 171.337686 
L 96.941033 163.931406 
L 97.790048 150.62517 
L 98.639461 147.895739 
L 99.486319 143.24108 
L 100.335081 136.564448 
L 101.183889 130.873509 
L 102.032626 126.359005 
L 102.881553 125.386238 
L 104.57764 141.170411 
L 105.427383 149.461143 
L 106.277655 156.092688 
L 107.123468 157.177299 
L 110.516688 209.948473 
L 111.368835 206.103624 
L 112.21776 203.031178 
L 113.06621 200.913841 
L 113.914915 199.416895 
L 114.761294 196.071452 
L 115.608973 191.817441 
L 116.457167 184.968448 
L 117.307598 187.903465 
L 118.152999 193.673401 
L 119.002577 191.898292 
L 119.851438 186.448763 
L 120.700473 174.765196 
L 121.547177 157.420126 
L 122.39697 161.53695 
L 123.246537 180.921558 
L 124.09335 172.376545 
L 124.941783 132.41012 
L 125.789607 156.045501 
L 126.638723 159.595276 
L 127.48949 153.76945 
L 128.337461 150.966687 
L 129.183395 142.520792 
L 130.033753 153.648356 
L 130.881211 158.572147 
L 131.730774 143.176391 
L 132.579617 138.672818 
L 133.42824 145.10768 
L 134.275861 136.403279 
L 135.123354 129.721621 
L 135.973327 109.430124 
L 136.820893 105.652407 
L 137.669791 108.5308 
L 138.518346 103.999874 
L 139.366075 96.393662 
L 140.215242 97.457956 
L 141.062608 73.42524 
L 141.912082 77.427462 
L 143.608676 104.358473 
L 144.458308 110.134178 
L 145.306901 117.623418 
L 146.153487 132.81911 
L 147.002321 138.667569 
L 147.851048 158.991954 
L 148.701437 164.576284 
L 149.547143 159.352039 
L 150.395904 149.08501 
L 151.246441 135.831183 
L 152.093487 133.057618 
L 152.941156 131.429721 
L 153.790861 130.164621 
L 154.639345 125.386138 
L 155.486765 128.106505 
L 156.335469 136.479555 
L 157.185185 132.023671 
L 158.034014 130.573935 
L 158.881773 132.118911 
L 159.72973 128.289601 
L 160.579882 126.127396 
L 161.427048 123.342512 
L 163.124982 121.402944 
L 163.973425 119.626846 
L 164.820421 115.53862 
L 165.669532 118.270743 
L 166.517959 119.857722 
L 168.21634 121.001331 
L 169.062702 120.396236 
L 169.913154 115.441675 
L 170.761745 119.014552 
L 171.609493 112.547043 
L 172.456426 111.261329 
L 173.305724 114.882642 
L 174.155243 112.343183 
L 175.0038 112.05552 
L 175.851208 109.111659 
L 176.700546 111.749981 
L 177.548645 109.140333 
L 178.398078 110.598922 
L 179.244599 105.407785 
L 180.093489 106.456983 
L 180.942109 104.539833 
L 181.79109 103.661865 
L 182.639132 104.555412 
L 183.488854 104.132615 
L 185.186121 102.756203 
L 186.034265 104.449454 
L 186.881102 102.845302 
L 187.731328 102.057622 
L 188.578442 100.5162 
L 189.426173 101.846736 
L 190.276319 100.107669 
L 191.124316 94.865303 
L 191.973264 97.148599 
L 192.820378 95.076098 
L 193.669025 99.534352 
L 194.517933 100.454431 
L 195.366569 99.974254 
L 196.214051 100.889116 
L 197.064237 102.332933 
L 198.762064 97.159648 
L 199.610214 93.756483 
L 200.456813 92.586492 
L 201.306298 88.377827 
L 202.155319 88.46446 
L 203.003689 89.520666 
L 203.852019 88.491225 
L 204.699287 94.940017 
L 205.549105 93.754957 
L 206.396451 97.651946 
L 207.244856 99.127594 
L 208.095183 96.046613 
L 208.942835 95.209728 
L 209.791047 94.856482 
L 211.489241 87.712135 
L 212.336384 92.783612 
L 213.184545 96.748434 
L 214.032768 98.510931 
L 214.881879 97.436727 
L 215.730232 92.70549 
L 217.428065 88.424996 
L 218.275524 88.89277 
L 219.125082 81.823688 
L 219.972129 87.625797 
L 220.820759 84.333894 
L 221.670249 86.131531 
L 222.518393 84.354791 
L 223.367086 87.399702 
L 224.215309 88.252782 
L 225.062899 88.491544 
L 225.911365 90.449603 
L 226.761167 83.502704 
L 226.761167 83.502704 
" clip-path="url(#paa3df960ff)" style="fill: none; stroke: #c85a17; stroke-width: 1.4; stroke-linecap: square"/>
   </g>
   <g id="line2d_31">
    <path d="M 89.304338 278.027142 
L 90.158299 242.710858 
L 91.002198 169.15592 
L 91.85055 152.901976 
L 92.699049 148.533582 
L 93.547895 152.50337 
L 94.396407 152.857108 
L 95.245194 146.595217 
L 96.941143 118.715707 
L 97.79054 114.301378 
L 98.638353 111.671823 
L 99.487274 108.383774 
L 100.335094 109.444482 
L 101.183816 113.823607 
L 102.032149 124.002759 
L 102.882687 141.892709 
L 103.732636 151.4671 
L 104.580076 152.648232 
L 105.430446 161.609663 
L 106.274979 173.861544 
L 107.126917 194.78819 
L 107.974654 199.528658 
L 108.825176 196.376221 
L 109.668577 194.153163 
L 111.368353 188.890484 
L 112.214979 186.963551 
L 113.065588 187.18026 
L 113.913549 185.268583 
L 114.761805 182.589133 
L 115.610372 184.799414 
L 116.458649 186.617437 
L 117.306849 181.83242 
L 118.155608 180.014475 
L 119.002955 182.307575 
L 119.851926 181.269122 
L 120.700346 181.099869 
L 121.54968 178.881191 
L 122.396182 175.544952 
L 123.244419 107.989962 
L 124.095083 155.453611 
L 124.943753 171.747196 
L 125.791614 170.271019 
L 126.638485 153.731235 
L 127.486801 144.812275 
L 128.3374 119.197229 
L 129.183438 155.132302 
L 130.032294 163.415337 
L 130.880321 157.39389 
L 131.729605 143.949376 
L 132.577757 68.005083 
L 134.274256 125.484582 
L 135.125667 132.402724 
L 136.820099 98.837748 
L 137.669118 111.119762 
L 138.51699 109.566948 
L 139.365272 91.698559 
L 140.215867 91.927352 
L 141.062414 111.03521 
L 141.91209 107.399498 
L 142.760316 106.791141 
L 143.608054 116.851687 
L 144.457255 124.639289 
L 145.306115 123.111359 
L 147.003249 144.030309 
L 147.852914 164.57319 
L 148.701115 160.25104 
L 149.547483 154.310102 
L 150.396651 153.910247 
L 151.246028 150.018029 
L 152.095128 148.960347 
L 152.94369 144.007486 
L 153.78973 135.902073 
L 154.639701 137.704439 
L 155.488201 134.354983 
L 156.337584 136.812283 
L 157.183907 136.913329 
L 158.033487 131.911621 
L 158.880919 135.190269 
L 159.728978 132.160745 
L 160.578242 131.995415 
L 161.426838 128.963226 
L 162.2769 128.212992 
L 163.125095 125.370874 
L 163.972209 125.073792 
L 164.820613 123.463876 
L 165.669176 127.494758 
L 166.517065 125.314938 
L 167.367031 125.111046 
L 168.214688 121.550931 
L 169.062719 118.713301 
L 169.910908 122.223846 
L 170.759776 118.624677 
L 171.610449 122.042782 
L 172.45749 121.955907 
L 173.30702 121.48606 
L 174.155045 120.459827 
L 175.002284 122.636745 
L 175.852498 120.629681 
L 176.700908 122.41759 
L 177.547536 123.01651 
L 178.39637 122.897785 
L 179.244865 117.673727 
L 180.093654 118.468934 
L 180.9432 119.06821 
L 181.789885 118.072812 
L 182.638476 119.299737 
L 183.486897 114.834607 
L 184.336681 114.630128 
L 185.185753 113.769598 
L 186.033252 113.217961 
L 186.883053 105.669932 
L 187.731639 109.458648 
L 188.578035 107.361128 
L 189.427966 108.886552 
L 190.274996 107.777914 
L 191.124158 112.535332 
L 192.821136 105.325412 
L 193.668697 106.824162 
L 194.517769 107.760039 
L 195.366388 105.257852 
L 196.216404 105.932206 
L 197.063434 105.687898 
L 197.912591 102.421799 
L 198.760604 103.188477 
L 199.609342 103.405118 
L 200.456745 104.738584 
L 201.307158 105.158383 
L 202.154498 99.2346 
L 203.003067 99.799301 
L 203.852393 98.299576 
L 204.699077 98.186651 
L 206.396955 102.842682 
L 207.244346 103.634708 
L 208.092949 101.881972 
L 208.941902 104.04281 
L 209.791618 97.461091 
L 210.639027 99.308471 
L 211.487329 99.446201 
L 212.336067 98.511446 
L 213.186128 94.996172 
L 214.032853 96.422332 
L 214.880878 90.04418 
L 215.729412 87.126651 
L 216.580005 90.286561 
L 217.427171 90.498927 
L 218.275405 97.916845 
L 219.123306 99.386711 
L 219.973062 102.900399 
L 220.8224 93.282476 
L 221.668971 93.439084 
L 223.365887 90.077539 
L 224.2145 91.000534 
L 225.063374 92.918741 
L 225.91235 89.447533 
L 226.759877 89.197648 
L 227.610187 90.385383 
L 228.458292 92.411202 
L 230.155106 88.920852 
L 231.852197 83.739913 
L 232.699917 74.19309 
L 233.547863 78.168533 
L 234.397115 82.734071 
L 236.093115 92.947055 
L 236.942498 86.92856 
L 237.792316 82.448986 
L 238.638508 84.01639 
L 239.487897 79.03926 
L 240.336403 80.290367 
L 241.184009 75.435079 
L 242.034416 76.014439 
L 244.579917 90.225207 
L 245.426596 88.158922 
L 246.275911 88.471172 
L 247.123399 85.596397 
L 248.821797 83.657654 
L 249.670716 82.742956 
L 251.367399 76.095053 
L 252.214836 70.70742 
L 253.06362 73.395126 
L 253.911486 76.508108 
L 254.761373 86.280972 
L 255.609256 86.083746 
L 256.458973 82.751964 
L 257.3071 80.705623 
L 258.155414 84.40453 
L 259.851532 77.305734 
L 260.699568 70.114382 
L 261.547763 66.453048 
L 262.396546 71.338587 
L 263.246608 75.380861 
L 264.093802 77.059052 
L 264.944106 83.215624 
L 265.791611 82.372947 
L 266.639857 80.760994 
L 267.488465 73.748572 
L 268.335658 73.861816 
L 269.185166 69.205206 
L 270.03288 68.682681 
L 270.881352 72.546771 
L 271.729858 77.940146 
L 272.579195 78.586381 
L 273.426921 82.249105 
L 274.275517 75.963032 
L 275.125539 77.493263 
L 275.972077 72.416031 
L 276.821895 69.846075 
L 277.670972 74.822762 
L 278.517459 67.382696 
L 279.36631 67.742795 
L 280.215489 71.32237 
L 281.064289 79.290813 
L 281.912122 80.493434 
L 282.760702 75.67437 
L 283.609864 78.237214 
L 284.459264 71.950289 
L 285.306514 68.285688 
L 286.154414 66.943951 
L 287.004493 67.286462 
L 287.852479 66.415252 
L 288.700741 68.317629 
L 289.549338 71.899305 
L 290.396356 77.588477 
L 291.247006 72.748749 
L 292.094839 75.564959 
L 292.943119 74.164552 
L 293.792196 72.080022 
L 294.639254 66.229459 
L 295.487364 68.341369 
L 296.337578 65.301333 
L 297.185547 61.56154 
L 298.03321 72.076541 
L 298.883356 74.018087 
L 299.731845 74.827565 
L 300.578847 74.127959 
L 301.428597 72.219457 
L 302.275259 70.688291 
L 303.124212 67.404667 
L 303.97282 66.288366 
L 304.821965 63.851096 
L 305.670301 66.902783 
L 306.517648 61.59617 
L 307.366448 57.924502 
L 308.216425 70.043199 
L 309.063822 72.545108 
L 309.91157 73.540065 
L 311.609691 67.223094 
L 312.459215 64.409317 
L 313.305577 63.308599 
L 314.155689 63.675409 
L 315.004699 70.142473 
L 315.852464 69.035972 
L 316.70071 68.160105 
L 317.550132 78.39651 
L 318.397773 77.045784 
L 321.791106 63.863007 
L 322.639183 63.095235 
L 323.488101 65.638179 
L 324.336279 66.980271 
L 325.184389 69.537364 
L 326.034643 68.870251 
L 326.883511 73.72922 
L 327.731774 70.415656 
L 328.579556 68.874087 
L 329.42744 68.10878 
L 330.276534 67.890117 
L 331.124831 62.888623 
L 331.97401 67.264495 
L 332.822397 69.870183 
L 333.671491 75.747694 
L 334.519585 75.088978 
L 335.36804 71.711043 
L 336.215284 65.891956 
L 337.065052 62.430422 
L 337.913213 58.411086 
L 338.761266 67.828981 
L 339.610813 63.935046 
L 340.458385 62.733714 
L 341.306546 65.389493 
L 342.154464 68.472561 
L 343.002987 74.990817 
L 344.701345 67.187968 
L 345.549455 62.469558 
L 346.398567 64.518652 
L 347.246004 64.922407 
L 348.095409 68.308101 
L 348.943066 70.469209 
L 349.791884 77.846067 
L 351.487515 64.863819 
L 352.337939 64.915749 
L 353.185065 62.981904 
L 354.034176 61.786515 
L 354.882162 59.033126 
L 355.731912 55.215416 
L 356.578862 55.222853 
L 357.428958 75.323321 
L 358.275841 70.353463 
L 359.125093 71.637637 
L 359.972734 70.689882 
L 360.822965 62.970467 
L 361.670351 58.802542 
L 362.518218 62.929823 
L 363.366345 63.178565 
L 364.216146 66.386445 
L 365.064516 65.445 
L 365.912072 68.036956 
L 366.76189 67.564424 
L 367.609463 69.543233 
L 368.458676 59.049529 
L 369.306701 57.002167 
L 370.156209 54.613065 
L 371.003436 60.078824 
L 371.852185 64.754662 
L 372.699707 63.198882 
L 373.549972 67.459505 
L 374.396878 62.477978 
L 375.247075 56.550687 
L 376.095422 62.160178 
L 376.94424 52.127314 
L 377.792055 57.868101 
L 378.640183 56.205634 
L 379.488519 57.066401 
L 380.336697 57.695404 
L 381.186702 52.144405 
L 382.033811 55.10898 
L 382.88351 63.010697 
L 383.730444 60.902008 
L 384.580488 62.614725 
L 385.429254 60.435401 
L 386.277087 56.502648 
L 387.974444 63.650125 
L 388.822967 63.798655 
L 389.669663 65.227043 
L 390.518842 59.95012 
L 391.367297 60.947756 
L 392.215368 62.91609 
L 393.065067 60.499156 
L 393.913624 56.29733 
L 394.761977 50.4999 
L 395.609256 51.850449 
L 396.457366 49.699954 
L 397.30603 62.198243 
L 398.156759 64.278294 
L 399.004491 66.706451 
L 399.852533 59.010576 
L 400.699987 63.860756 
L 401.550614 57.336913 
L 402.398548 57.230418 
L 403.245414 59.67275 
L 404.095527 63.219327 
L 404.9425 63.01406 
L 405.791023 61.060198 
L 406.640445 61.873171 
L 407.48817 61.386077 
L 408.337315 56.796257 
L 409.186359 58.955309 
L 410.035261 59.178794 
L 410.88216 65.067241 
L 411.731996 60.820478 
L 412.579348 57.351435 
L 413.429285 55.451345 
L 414.276846 58.087972 
L 415.125505 58.025138 
L 415.974441 57.677465 
L 416.82293 52.994888 
L 417.671973 54.94376 
L 418.519461 51.193651 
L 419.367984 47.986213 
L 420.215885 57.355732 
L 421.064894 62.314809 
L 421.912348 63.874234 
L 422.760939 58.829745 
L 423.610672 57.11866 
L 424.457951 58.706682 
L 425.307928 50.134165 
L 426.156038 52.09729 
L 427.005041 50.995073 
L 427.853151 57.431083 
L 429.548506 65.457563 
L 430.397719 65.868622 
L 431.246763 62.125649 
L 432.094839 59.688329 
L 432.943707 54.461214 
L 433.791607 52.217036 
L 434.641273 54.780313 
L 435.488206 55.891702 
L 436.337731 60.624397 
L 437.18622 54.414801 
L 438.033362 57.88989 
L 438.883718 57.410533 
L 439.731551 57.703824 
L 440.579316 55.883268 
L 441.428286 53.400269 
L 442.276911 49.481377 
L 443.125575 55.255983 
L 443.973578 56.859365 
L 444.821829 52.561839 
L 445.670352 58.561096 
L 446.520119 53.768474 
L 447.368467 62.240145 
L 448.216922 58.997384 
L 449.064342 51.192995 
L 449.912277 51.928398 
L 450.761665 51.352725 
L 451.610363 55.222096 
L 452.459469 54.602434 
L 453.307375 57.931414 
L 454.156142 60.620551 
L 455.005179 63.824395 
L 455.852045 63.010984 
L 457.548887 53.143823 
L 458.398479 50.830012 
L 459.245588 47.877571 
L 460.094943 60.170228 
L 460.944291 65.918689 
L 461.79299 50.978811 
L 462.640166 55.434044 
L 463.488033 52.748994 
L 464.337835 53.317308 
L 465.185153 52.831025 
L 466.033534 48.798302 
L 466.882889 55.387736 
L 467.732 60.487377 
L 468.580382 60.37484 
L 469.427802 58.618622 
L 470.276223 49.465151 
L 471.125849 53.887732 
L 471.973133 55.332752 
L 472.822555 51.915125 
L 473.671423 50.796663 
L 474.518979 44.898001 
L 475.368367 51.926051 
L 476.215544 53.704291 
L 477.065306 57.538868 
L 477.913212 59.271105 
L 478.761215 57.644339 
L 479.609534 57.53294 
L 480.457882 51.81663 
L 481.307168 52.911271 
L 482.156896 49.142585 
L 483.004146 50.462063 
L 483.853292 47.472395 
L 484.700259 59.907822 
L 485.548889 60.25282 
L 486.399307 59.067528 
L 487.246558 49.673508 
L 488.096359 49.693206 
L 488.94267 46.148091 
L 489.792336 48.088484 
L 490.641441 60.080319 
L 491.488827 59.093842 
L 492.337418 53.856014 
L 493.186942 51.122392 
L 494.035816 49.351466 
L 494.882817 50.955991 
L 496.58121 48.254994 
L 497.428975 56.224858 
L 498.277741 58.804666 
L 499.124674 56.428659 
L 500.822207 48.718936 
L 502.519598 38.588625 
L 503.36885 42.286448 
L 504.217198 60.894463 
L 505.065687 65.719145 
L 505.912796 62.361276 
L 506.76146 52.8149 
L 508.458472 42.211967 
L 509.308443 44.299627 
L 510.156378 45.172614 
L 511.004833 58.06704 
L 511.853051 58.275255 
L 512.702399 58.013154 
L 513.550543 56.577375 
L 514.397997 46.655457 
L 515.247968 44.032067 
L 516.095111 49.890381 
L 516.943708 57.117088 
L 517.792853 53.377878 
L 518.640307 51.119093 
L 519.48883 47.643689 
L 520.338557 48.822629 
L 521.185842 53.835318 
L 522.034297 52.972715 
L 522.882752 54.76575 
L 523.73072 68.571971 
L 524.580765 63.058796 
L 525.428909 62.670775 
L 526.277432 57.1856 
L 527.125056 53.849116 
L 527.973856 46.201845 
L 528.823312 44.61858 
L 529.670664 40.263618 
L 530.519668 43.924783 
L 531.367257 52.781783 
L 532.217268 53.015624 
L 533.06548 54.065442 
L 533.912589 52.065167 
L 534.761836 58.743558 
L 535.610534 51.669185 
L 536.458192 48.247735 
L 537.308168 55.243207 
L 538.15621 51.171142 
L 539.00539 52.658907 
L 539.85346 53.864703 
L 540.701259 55.70365 
L 541.549267 60.708233 
L 542.397513 57.46754 
L 543.248146 53.168838 
L 544.943223 47.53635 
L 545.792091 49.985408 
L 546.641135 48.991212 
L 547.490314 54.86465 
L 548.337281 52.82142 
L 549.185425 51.429917 
L 550.034361 52.668516 
L 550.884061 56.859525 
L 551.73234 47.037678 
L 552.580004 50.569848 
L 553.429013 49.12398 
L 554.278537 50.172969 
L 555.126263 58.246335 
L 555.974339 55.291948 
L 556.822517 53.056856 
L 557.672352 52.868157 
L 558.518771 53.86284 
L 559.367503 50.552847 
L 560.217649 48.02411 
L 561.914175 42.067816 
L 562.762737 45.38288 
L 563.610497 59.735503 
L 564.459195 61.734839 
L 565.307339 52.529127 
L 566.15662 52.994168 
L 567.004696 49.891475 
L 567.853706 51.642265 
L 568.702506 48.68987 
L 569.551198 47.050354 
L 570.398963 41.297273 
L 571.247141 44.861375 
L 572.095076 38.291931 
L 572.944498 38.721002 
L 573.792195 57.226709 
L 574.641131 57.777859 
L 575.490418 54.731922 
L 576.337561 49.929244 
L 577.186774 46.589593 
L 578.036123 42.485774 
L 578.884476 40.669136 
L 579.732032 48.481946 
L 580.581007 54.175897 
L 581.428631 56.590338 
L 582.277945 56.283706 
L 583.126089 57.594964 
L 583.973685 51.93834 
L 584.822621 47.10327 
L 585.672077 44.183321 
L 586.520085 54.278765 
L 587.369366 49.637493 
L 588.21699 56.268879 
L 589.065858 58.954712 
L 589.913 55.301166 
L 590.761942 58.824919 
L 591.611189 50.434559 
L 592.459056 49.301936 
L 593.307997 45.645961 
L 594.155757 48.998238 
L 595.004455 58.438201 
L 595.854155 54.45889 
L 596.701365 51.987209 
L 597.550267 55.252611 
L 599.247935 44.293352 
L 600.095491 45.155814 
L 600.944947 39.100502 
L 601.792611 39.714623 
L 602.641614 53.996839 
L 603.490759 56.609959 
L 604.338315 51.067062 
L 605.186668 49.006176 
L 606.035949 47.874833 
L 606.884438 49.855884 
L 608.581558 39.325841 
L 609.430081 44.804751 
L 610.277982 57.000404 
L 611.125368 56.654057 
L 611.97406 54.911819 
L 612.823002 55.260986 
L 613.671214 42.699484 
L 614.519256 42.027933 
L 615.369261 42.03972 
L 616.21758 41.420765 
L 617.065583 42.805611 
L 617.914281 46.775563 
L 618.763392 55.430098 
L 619.611706 58.186307 
L 620.459505 57.404141 
L 621.307513 56.096656 
L 622.156969 51.34835 
L 623.005492 47.845516 
L 623.853806 49.65833 
L 624.701362 55.356678 
L 625.551406 54.489286 
L 626.398758 57.078758 
L 627.24645 52.98993 
L 628.095663 50.669317 
L 628.945227 51.676567 
L 629.793127 45.977445 
L 630.641441 46.699205 
L 631.48993 47.14555 
L 632.338561 50.799155 
L 633.187909 57.940846 
L 634.035052 52.269523 
L 634.882959 51.277729 
L 635.732998 50.981089 
L 636.580005 51.949732 
L 637.429184 48.104806 
L 638.27722 48.569195 
L 639.126676 44.065134 
L 639.975511 51.679246 
L 640.822382 38.684404 
L 641.671765 46.208242 
L 642.520321 60.004489 
L 643.36902 53.494111 
L 644.216683 50.545949 
L 645.066173 49.625614 
L 645.914142 48.2369 
L 646.761698 48.519815 
L 647.610464 51.388298 
L 648.459677 48.797336 
L 649.307651 56.380487 
L 650.156966 54.164382 
L 651.005008 54.160856 
L 651.854357 53.527137 
L 652.70219 54.053636 
L 653.551544 47.74339 
L 654.39824 45.419747 
L 656.095971 47.659691 
L 656.945421 51.649752 
L 658.640759 56.257948 
L 659.48987 54.397363 
L 660.338359 48.918781 
L 661.186622 44.183859 
L 662.885354 54.792314 
L 663.732598 59.109079 
L 664.579956 60.490749 
L 665.429746 54.881522 
L 666.278405 46.687545 
L 667.126045 48.796607 
L 667.975609 51.315443 
L 668.824098 52.396787 
L 669.671795 42.581096 
L 670.520906 44.265079 
L 671.369169 47.2914 
L 672.217149 52.984854 
L 673.066656 55.384418 
L 673.913957 52.97323 
L 674.763861 56.681105 
L 675.61235 50.329777 
L 676.458802 48.342425 
L 677.309101 51.478289 
L 678.156459 51.578939 
L 679.005514 53.352676 
L 679.853211 50.278521 
L 680.702039 49.38219 
L 681.550019 50.794348 
L 682.399922 51.156844 
L 683.248298 47.817871 
L 684.095826 45.338463 
L 684.94488 44.540991 
L 685.79286 48.590537 
L 686.642085 54.98589 
L 687.490743 52.119217 
L 688.339515 56.429588 
L 689.187326 55.408381 
L 690.03655 49.465725 
L 690.884247 47.959188 
L 691.733415 50.377935 
L 692.58213 48.114475 
L 693.430449 48.221458 
L 695.126636 55.956989 
L 695.974672 56.715251 
L 696.824349 51.548223 
L 697.672442 52.317308 
L 698.521271 50.236564 
L 699.368006 46.465277 
L 700.218079 38.007726 
L 701.066059 44.152997 
L 701.914039 49.389877 
L 702.762471 66.750394 
L 703.611582 59.189078 
L 704.458884 58.134472 
L 705.307938 50.927139 
L 706.157163 45.727213 
L 707.00503 49.77172 
L 707.85284 46.736614 
L 708.703422 46.960568 
L 709.551062 48.636431 
L 710.40023 54.821818 
L 711.248323 59.291901 
L 712.096247 55.461552 
L 712.944 52.559538 
L 713.793621 45.302626 
L 714.641148 42.175911 
L 715.489354 48.223932 
L 716.338918 48.608312 
L 717.18735 52.211309 
L 718.036688 58.760258 
L 718.885007 57.255839 
L 719.732308 50.399296 
L 720.581476 48.443894 
L 721.42906 46.077183 
L 722.277889 42.517045 
L 723.126887 54.039274 
L 723.975432 54.960546 
L 724.824148 52.434611 
L 725.672297 55.080251 
L 726.521522 52.702071 
L 727.370293 61.62632 
L 728.21833 49.642792 
L 729.066084 40.059203 
L 729.915138 38.152218 
L 730.763684 47.165134 
L 731.612512 53.552407 
L 733.308812 59.949491 
L 734.156735 55.489501 
L 735.004828 53.233249 
L 735.853996 51.322191 
L 736.703616 54.6948 
L 737.551822 45.423725 
L 738.400538 55.397919 
L 739.247443 52.647893 
L 740.09695 59.310596 
L 741.793985 55.227382 
L 742.641229 46.24027 
L 743.489605 40.172829 
L 744.338999 44.936549 
L 745.187997 46.876978 
L 746.036713 50.255405 
L 746.883561 55.051021 
L 747.732955 57.929619 
L 748.581784 54.87841 
L 749.429481 53.852109 
L 750.278649 46.343075 
L 751.12776 46.174387 
L 751.974948 43.072897 
L 752.824116 40.6671 
L 753.673057 46.371991 
L 754.520132 49.965186 
L 755.368904 53.035259 
L 756.218072 58.669815 
L 757.066052 50.087679 
L 757.915785 47.388928 
L 758.763539 45.87227 
L 759.610784 51.332621 
L 760.459895 54.252469 
L 761.308384 54.498609 
L 762.157721 51.693645 
L 763.005475 51.002728 
L 763.853172 52.153008 
L 764.703528 47.430999 
L 765.551112 48.36271 
L 766.398696 48.454935 
L 767.248203 47.074194 
L 768.097427 48.456083 
L 768.945068 53.563575 
L 769.793048 52.514688 
L 770.642216 45.983815 
L 771.490252 46.085393 
L 772.338402 44.668656 
L 773.188249 39.569165 
L 774.03555 41.806444 
L 774.884208 53.477156 
L 775.733716 59.361379 
L 776.580847 52.17035 
L 777.429845 51.478216 
L 778.279013 51.441359 
L 779.975143 36.810915 
L 780.824197 30.494973 
L 782.520779 52.140213 
L 783.369268 58.881616 
L 784.218153 57.213996 
L 785.066303 55.927221 
L 785.915414 52.78736 
L 786.76362 49.175993 
L 787.610922 42.590077 
L 789.308296 47.880506 
L 790.156841 56.420525 
L 791.006914 50.454207 
L 791.854781 57.806775 
L 792.703609 49.425254 
L 793.55091 46.870166 
L 794.400078 48.746959 
L 795.249076 45.087662 
L 796.095755 44.473996 
L 796.945149 56.166694 
L 797.793412 53.037842 
L 798.642127 54.027746 
L 799.490673 50.309081 
L 800.33854 51.694009 
L 801.187029 49.94619 
L 802.036876 40.657444 
L 802.88446 42.140616 
L 803.732835 49.285437 
L 804.582116 54.511741 
L 805.429927 55.377625 
L 806.278416 47.878145 
L 807.127244 53.426638 
L 807.976186 52.800096 
L 808.824675 48.773068 
L 809.671863 42.838076 
L 810.521936 46.116291 
L 812.217386 54.33122 
L 813.067007 55.740485 
L 813.914534 46.901501 
L 814.763419 49.649304 
L 815.611456 47.604183 
L 816.460001 42.993495 
L 817.309056 47.410681 
L 818.158337 55.192552 
L 819.005581 58.273414 
L 819.855315 54.749032 
L 820.702559 47.268877 
L 821.551388 47.162135 
L 822.399424 50.1767 
L 823.247687 46.829162 
L 824.946079 44.491402 
L 825.794172 42.661 
L 826.642775 43.164994 
L 827.490076 59.667164 
L 828.338508 57.049801 
L 829.187167 52.357615 
L 830.035769 48.542279 
L 830.883749 49.365714 
L 831.733596 41.267793 
L 832.581915 46.071154 
L 833.43097 46.842877 
L 834.278836 62.071768 
L 835.127156 58.261868 
L 835.975305 53.156626 
L 836.82419 50.679264 
L 837.672793 49.195564 
L 838.52049 43.348704 
L 839.369205 51.291817 
L 840.218486 57.395119 
L 841.065674 66.510014 
L 843.61148 44.656827 
L 844.461214 45.545403 
L 845.309986 39.766167 
L 846.15723 44.59145 
L 847.006398 51.576045 
L 847.854378 60.446705 
L 848.703659 57.355281 
L 849.551469 49.225336 
L 850.400863 50.372422 
L 851.247542 45.454071 
L 852.09654 41.456889 
L 852.944973 45.272525 
L 853.79448 48.433396 
L 854.642969 55.238409 
L 855.490214 63.439413 
L 856.339099 55.743483 
L 857.187248 44.835029 
L 858.036755 45.476143 
L 858.885527 54.24984 
L 859.733055 60.200625 
L 860.581996 57.512882 
L 861.429693 55.880872 
L 862.279597 46.023447 
L 863.126954 41.676765 
L 863.975839 41.147864 
L 864.824781 48.13065 
L 865.672987 50.374418 
L 866.521193 57.957901 
L 867.369626 60.848565 
L 868.218567 56.755062 
L 869.067679 47.238211 
L 869.914867 46.204702 
L 870.764317 42.672614 
L 871.612071 47.390937 
L 872.460051 48.992597 
L 873.309049 49.558178 
L 874.157312 51.254477 
L 875.006989 49.082871 
L 875.854516 50.252649 
L 876.702779 49.252867 
L 877.551268 46.482961 
L 878.399474 50.130657 
L 879.247906 47.116976 
L 880.097131 53.86366 
L 880.945563 52.300179 
L 881.794109 45.318514 
L 882.641636 47.348744 
L 883.490974 45.104275 
L 884.340538 45.903109 
L 885.18733 47.018062 
L 886.037799 46.346296 
L 886.886231 47.11164 
L 887.734098 51.074334 
L 889.430793 43.530656 
L 890.278603 43.746404 
L 891.126866 44.756128 
L 891.976317 44.774751 
L 892.823787 49.37022 
L 892.823787 49.37022 
" clip-path="url(#paa3df960ff)" style="fill: none; stroke: #31557c; stroke-width: 1.4; stroke-linecap: square"/>
   </g>
   <g id="patch_3">
    <path d="M 49.128365 290.40375 
L 49.128365 18.118365 
" style="fill: none; stroke: #000000; stroke-width: 0.8; stroke-linejoin: miter; stroke-linecap: square"/>
   </g>
   <g id="patch_4">
    <path d="M 932.99976 290.40375 
L 932.99976 18.118365 
" style="fill: none; stroke: #000000; stroke-width: 0.8; stroke-linejoin: miter; stroke-linecap: square"/>
   </g>
   <g id="patch_5">
    <path d="M 49.128365 290.40375 
L 932.99976 290.40375 
" style="fill: none; stroke: #000000; stroke-width: 0.8; stroke-linejoin: miter; stroke-linecap: square"/>
   </g>
   <g id="patch_6">
    <path d="M 49.128365 18.118365 
L 932.99976 18.118365 
" style="fill: none; stroke: #000000; stroke-width: 0.8; stroke-linejoin: miter; stroke-linecap: square"/>
   </g>
   <g id="text_17">
    <!-- Whole-domain heat release rate -->
    <g transform="translate(394.355312 12.118365)scale(0.12 -0.12)">
     <defs>
      <path id="DejaVuSans-68" d="M 3513 2113 
L 3513 0 
L 2938 0 
L 2938 2094 
Q 2938 2591 2744 2837 
Q 2550 3084 2163 3084 
Q 1697 3084 1428 2787 
Q 1159 2491 1159 1978 
L 1159 0 
L 581 0 
L 581 4863 
L 1159 4863 
L 1159 2956 
Q 1366 3272 1645 3428 
Q 1925 3584 2291 3584 
Q 2894 3584 3203 3211 
Q 3513 2838 3513 2113 
z
" transform="scale(0.015625)"/>
      <path id="DejaVuSans-2d" d="M 313 2009 
L 1997 2009 
L 1997 1497 
L 313 1497 
L 313 2009 
z
" transform="scale(0.015625)"/>
      <path id="DejaVuSans-64" d="M 2906 2969 
L 2906 4863 
L 3481 4863 
L 3481 0 
L 2906 0 
L 2906 525 
Q 2725 213 2448 61 
Q 2172 -91 1784 -91 
Q 1150 -91 751 415 
Q 353 922 353 1747 
Q 353 2572 751 3078 
Q 1150 3584 1784 3584 
Q 2172 3584 2448 3432 
Q 2725 3281 2906 2969 
z
M 947 1747 
Q 947 1113 1208 752 
Q 1469 391 1925 391 
Q 2381 391 2643 752 
Q 2906 1113 2906 1747 
Q 2906 2381 2643 2742 
Q 2381 3103 1925 3103 
Q 1469 3103 1208 2742 
Q 947 2381 947 1747 
z
" transform="scale(0.015625)"/>
      <path id="DejaVuSans-72" d="M 2631 2963 
Q 2534 3019 2420 3045 
Q 2306 3072 2169 3072 
Q 1681 3072 1420 2755 
Q 1159 2438 1159 1844 
L 1159 0 
L 581 0 
L 581 3500 
L 1159 3500 
L 1159 2956 
Q 1341 3275 1631 3429 
Q 1922 3584 2338 3584 
Q 2397 3584 2469 3576 
Q 2541 3569 2628 3553 
L 2631 2963 
z
" transform="scale(0.015625)"/>
     </defs>
     <use xlink:href="#DejaVuSans-57"/>
     <use xlink:href="#DejaVuSans-68" x="98.876953"/>
     <use xlink:href="#DejaVuSans-6f" x="162.255859"/>
     <use xlink:href="#DejaVuSans-6c" x="223.4375"/>
     <use xlink:href="#DejaVuSans-65" x="251.220703"/>
     <use xlink:href="#DejaVuSans-2d" x="312.744141"/>
     <use xlink:href="#DejaVuSans-64" x="348.828125"/>
     <use xlink:href="#DejaVuSans-6f" x="412.304688"/>
     <use xlink:href="#DejaVuSans-6d" x="473.486328"/>
     <use xlink:href="#DejaVuSans-61" x="570.898438"/>
     <use xlink:href="#DejaVuSans-69" x="632.177734"/>
     <use xlink:href="#DejaVuSans-6e" x="659.960938"/>
     <use xlink:href="#DejaVuSans-20" x="723.339844"/>
     <use xlink:href="#DejaVuSans-68" x="755.126953"/>
     <use xlink:href="#DejaVuSans-65" x="818.505859"/>
     <use xlink:href="#DejaVuSans-61" x="880.029297"/>
     <use xlink:href="#DejaVuSans-74" x="941.308594"/>
     <use xlink:href="#DejaVuSans-20" x="980.517578"/>
     <use xlink:href="#DejaVuSans-72" x="1012.304688"/>
     <use xlink:href="#DejaVuSans-65" x="1051.167969"/>
     <use xlink:href="#DejaVuSans-6c" x="1112.691406"/>
     <use xlink:href="#DejaVuSans-65" x="1140.474609"/>
     <use xlink:href="#DejaVuSans-61" x="1201.998047"/>
     <use xlink:href="#DejaVuSans-73" x="1263.277344"/>
     <use xlink:href="#DejaVuSans-65" x="1315.376953"/>
     <use xlink:href="#DejaVuSans-20" x="1376.900391"/>
     <use xlink:href="#DejaVuSans-72" x="1408.6875"/>
     <use xlink:href="#DejaVuSans-61" x="1449.800781"/>
     <use xlink:href="#DejaVuSans-74" x="1511.080078"/>
     <use xlink:href="#DejaVuSans-65" x="1550.289062"/>
    </g>
   </g>
   <g id="legend_1">
    <g id="patch_7">
     <path d="M 54.728365 59.745865 
L 199.732115 59.745865 
Q 201.332115 59.745865 201.332115 58.145865 
L 201.332115 23.718365 
Q 201.332115 22.118365 199.732115 22.118365 
L 54.728365 22.118365 
Q 53.128365 22.118365 53.128365 23.718365 
L 53.128365 58.145865 
Q 53.128365 59.745865 54.728365 59.745865 
z
" style="fill: #ffffff; opacity: 0.8; stroke: #cccccc; stroke-linejoin: miter"/>
    </g>
    <g id="line2d_32">
     <path d="M 56.328365 28.597115 
L 64.328365 28.597115 
L 72.328365 28.597115 
" style="fill: none; stroke: #00796b; stroke-width: 1.4; stroke-linecap: square"/>
    </g>
    <g id="text_18">
     <!-- Q100 audited thickness -->
     <g transform="translate(78.728365 31.397115)scale(0.08 -0.08)">
      <defs>
       <path id="DejaVuSans-51" d="M 2522 4238 
Q 1834 4238 1429 3725 
Q 1025 3213 1025 2328 
Q 1025 1447 1429 934 
Q 1834 422 2522 422 
Q 3209 422 3611 934 
Q 4013 1447 4013 2328 
Q 4013 3213 3611 3725 
Q 3209 4238 2522 4238 
z
M 3406 84 
L 4238 -825 
L 3475 -825 
L 2784 -78 
Q 2681 -84 2626 -87 
Q 2572 -91 2522 -91 
Q 1538 -91 948 567 
Q 359 1225 359 2328 
Q 359 3434 948 4092 
Q 1538 4750 2522 4750 
Q 3503 4750 4090 4092 
Q 4678 3434 4678 2328 
Q 4678 1516 4351 937 
Q 4025 359 3406 84 
z
" transform="scale(0.015625)"/>
       <path id="DejaVuSans-63" d="M 3122 3366 
L 3122 2828 
Q 2878 2963 2633 3030 
Q 2388 3097 2138 3097 
Q 1578 3097 1268 2742 
Q 959 2388 959 1747 
Q 959 1106 1268 751 
Q 1578 397 2138 397 
Q 2388 397 2633 464 
Q 2878 531 3122 666 
L 3122 134 
Q 2881 22 2623 -34 
Q 2366 -91 2075 -91 
Q 1284 -91 818 406 
Q 353 903 353 1747 
Q 353 2603 823 3093 
Q 1294 3584 2113 3584 
Q 2378 3584 2631 3529 
Q 2884 3475 3122 3366 
z
" transform="scale(0.015625)"/>
      </defs>
      <use xlink:href="#DejaVuSans-51"/>
      <use xlink:href="#DejaVuSans-31" x="78.710938"/>
      <use xlink:href="#DejaVuSans-30" x="142.333984"/>
      <use xlink:href="#DejaVuSans-30" x="205.957031"/>
      <use xlink:href="#DejaVuSans-20" x="269.580078"/>
      <use xlink:href="#DejaVuSans-61" x="301.367188"/>
      <use xlink:href="#DejaVuSans-75" x="362.646484"/>
      <use xlink:href="#DejaVuSans-64" x="426.025391"/>
      <use xlink:href="#DejaVuSans-69" x="489.501953"/>
      <use xlink:href="#DejaVuSans-74" x="517.285156"/>
      <use xlink:href="#DejaVuSans-65" x="556.494141"/>
      <use xlink:href="#DejaVuSans-64" x="618.017578"/>
      <use xlink:href="#DejaVuSans-20" x="681.494141"/>
      <use xlink:href="#DejaVuSans-74" x="713.28125"/>
      <use xlink:href="#DejaVuSans-68" x="752.490234"/>
      <use xlink:href="#DejaVuSans-69" x="815.869141"/>
      <use xlink:href="#DejaVuSans-63" x="843.652344"/>
      <use xlink:href="#DejaVuSans-6b" x="898.632812"/>
      <use xlink:href="#DejaVuSans-6e" x="956.542969"/>
      <use xlink:href="#DejaVuSans-65" x="1019.921875"/>
      <use xlink:href="#DejaVuSans-73" x="1081.445312"/>
      <use xlink:href="#DejaVuSans-73" x="1133.544922"/>
     </g>
    </g>
    <g id="line2d_33">
     <path d="M 56.328365 40.339615 
L 64.328365 40.339615 
L 72.328365 40.339615 
" style="fill: none; stroke: #c85a17; stroke-width: 1.4; stroke-linecap: square"/>
    </g>
    <g id="text_19">
     <!-- Q200 audited thickness -->
     <g transform="translate(78.728365 43.139615)scale(0.08 -0.08)">
      <use xlink:href="#DejaVuSans-51"/>
      <use xlink:href="#DejaVuSans-32" x="78.710938"/>
      <use xlink:href="#DejaVuSans-30" x="142.333984"/>
      <use xlink:href="#DejaVuSans-30" x="205.957031"/>
      <use xlink:href="#DejaVuSans-20" x="269.580078"/>
      <use xlink:href="#DejaVuSans-61" x="301.367188"/>
      <use xlink:href="#DejaVuSans-75" x="362.646484"/>
      <use xlink:href="#DejaVuSans-64" x="426.025391"/>
      <use xlink:href="#DejaVuSans-69" x="489.501953"/>
      <use xlink:href="#DejaVuSans-74" x="517.285156"/>
      <use xlink:href="#DejaVuSans-65" x="556.494141"/>
      <use xlink:href="#DejaVuSans-64" x="618.017578"/>
      <use xlink:href="#DejaVuSans-20" x="681.494141"/>
      <use xlink:href="#DejaVuSans-74" x="713.28125"/>
      <use xlink:href="#DejaVuSans-68" x="752.490234"/>
      <use xlink:href="#DejaVuSans-69" x="815.869141"/>
      <use xlink:href="#DejaVuSans-63" x="843.652344"/>
      <use xlink:href="#DejaVuSans-6b" x="898.632812"/>
      <use xlink:href="#DejaVuSans-6e" x="956.542969"/>
      <use xlink:href="#DejaVuSans-65" x="1019.921875"/>
      <use xlink:href="#DejaVuSans-73" x="1081.445312"/>
      <use xlink:href="#DejaVuSans-73" x="1133.544922"/>
     </g>
    </g>
    <g id="line2d_34">
     <path d="M 56.328365 52.082115 
L 64.328365 52.082115 
L 72.328365 52.082115 
" style="fill: none; stroke: #31557c; stroke-width: 1.4; stroke-linecap: square"/>
    </g>
    <g id="text_20">
     <!-- Q400 preserved old thickness -->
     <g transform="translate(78.728365 54.882115)scale(0.08 -0.08)">
      <defs>
       <path id="DejaVuSans-70" d="M 1159 525 
L 1159 -1331 
L 581 -1331 
L 581 3500 
L 1159 3500 
L 1159 2969 
Q 1341 3281 1617 3432 
Q 1894 3584 2278 3584 
Q 2916 3584 3314 3078 
Q 3713 2572 3713 1747 
Q 3713 922 3314 415 
Q 2916 -91 2278 -91 
Q 1894 -91 1617 61 
Q 1341 213 1159 525 
z
M 3116 1747 
Q 3116 2381 2855 2742 
Q 2594 3103 2138 3103 
Q 1681 3103 1420 2742 
Q 1159 2381 1159 1747 
Q 1159 1113 1420 752 
Q 1681 391 2138 391 
Q 2594 391 2855 752 
Q 3116 1113 3116 1747 
z
" transform="scale(0.015625)"/>
       <path id="DejaVuSans-76" d="M 191 3500 
L 800 3500 
L 1894 563 
L 2988 3500 
L 3597 3500 
L 2284 0 
L 1503 0 
L 191 3500 
z
" transform="scale(0.015625)"/>
      </defs>
      <use xlink:href="#DejaVuSans-51"/>
      <use xlink:href="#DejaVuSans-34" x="78.710938"/>
      <use xlink:href="#DejaVuSans-30" x="142.333984"/>
      <use xlink:href="#DejaVuSans-30" x="205.957031"/>
      <use xlink:href="#DejaVuSans-20" x="269.580078"/>
      <use xlink:href="#DejaVuSans-70" x="301.367188"/>
      <use xlink:href="#DejaVuSans-72" x="364.84375"/>
      <use xlink:href="#DejaVuSans-65" x="403.707031"/>
      <use xlink:href="#DejaVuSans-73" x="465.230469"/>
      <use xlink:href="#DejaVuSans-65" x="517.330078"/>
      <use xlink:href="#DejaVuSans-72" x="578.853516"/>
      <use xlink:href="#DejaVuSans-76" x="619.966797"/>
      <use xlink:href="#DejaVuSans-65" x="679.146484"/>
      <use xlink:href="#DejaVuSans-64" x="740.669922"/>
      <use xlink:href="#DejaVuSans-20" x="804.146484"/>
      <use xlink:href="#DejaVuSans-6f" x="835.933594"/>
      <use xlink:href="#DejaVuSans-6c" x="897.115234"/>
      <use xlink:href="#DejaVuSans-64" x="924.898438"/>
      <use xlink:href="#DejaVuSans-20" x="988.375"/>
      <use xlink:href="#DejaVuSans-74" x="1020.162109"/>
      <use xlink:href="#DejaVuSans-68" x="1059.371094"/>
      <use xlink:href="#DejaVuSans-69" x="1122.75"/>
      <use xlink:href="#DejaVuSans-63" x="1150.533203"/>
      <use xlink:href="#DejaVuSans-6b" x="1205.513672"/>
      <use xlink:href="#DejaVuSans-6e" x="1263.423828"/>
      <use xlink:href="#DejaVuSans-65" x="1326.802734"/>
      <use xlink:href="#DejaVuSans-73" x="1388.326172"/>
      <use xlink:href="#DejaVuSans-73" x="1440.425781"/>
     </g>
    </g>
   </g>
  </g>
  <g id="axes_2">
   <g id="patch_8">
    <path d="M 49.128365 614.64351 
L 932.99976 614.64351 
L 932.99976 342.358125 
L 49.128365 342.358125 
z
" style="fill: #ffffff"/>
   </g>
   <g id="matplotlib.axis_3">
    <g id="xtick_9">
     <g id="line2d_35">
      <path d="M 89.304338 614.64351 
L 89.304338 342.358125 
" clip-path="url(#pf599824e99)" style="fill: none; stroke: #d8dde3; stroke-width: 0.6; stroke-linecap: square"/>
     </g>
     <g id="line2d_36">
      <g>
       <use xlink:href="#m3b7f6c0b8a" x="89.304338" y="614.64351" style="stroke: #000000; stroke-width: 0.8"/>
      </g>
     </g>
     <g id="text_21">
      <!-- 0 -->
      <g transform="translate(86.123087 629.241948)scale(0.1 -0.1)">
       <use xlink:href="#DejaVuSans-30"/>
      </g>
     </g>
    </g>
    <g id="xtick_10">
     <g id="line2d_37">
      <path d="M 223.895808 614.64351 
L 223.895808 342.358125 
" clip-path="url(#pf599824e99)" style="fill: none; stroke: #d8dde3; stroke-width: 0.6; stroke-linecap: square"/>
     </g>
     <g id="line2d_38">
      <g>
       <use xlink:href="#m3b7f6c0b8a" x="223.895808" y="614.64351" style="stroke: #000000; stroke-width: 0.8"/>
      </g>
     </g>
     <g id="text_22">
      <!-- 50 -->
      <g transform="translate(217.533308 629.241948)scale(0.1 -0.1)">
       <use xlink:href="#DejaVuSans-35"/>
       <use xlink:href="#DejaVuSans-30" x="63.623047"/>
      </g>
     </g>
    </g>
    <g id="xtick_11">
     <g id="line2d_39">
      <path d="M 358.487278 614.64351 
L 358.487278 342.358125 
" clip-path="url(#pf599824e99)" style="fill: none; stroke: #d8dde3; stroke-width: 0.6; stroke-linecap: square"/>
     </g>
     <g id="line2d_40">
      <g>
       <use xlink:href="#m3b7f6c0b8a" x="358.487278" y="614.64351" style="stroke: #000000; stroke-width: 0.8"/>
      </g>
     </g>
     <g id="text_23">
      <!-- 100 -->
      <g transform="translate(348.943528 629.241948)scale(0.1 -0.1)">
       <use xlink:href="#DejaVuSans-31"/>
       <use xlink:href="#DejaVuSans-30" x="63.623047"/>
       <use xlink:href="#DejaVuSans-30" x="127.246094"/>
      </g>
     </g>
    </g>
    <g id="xtick_12">
     <g id="line2d_41">
      <path d="M 493.078749 614.64351 
L 493.078749 342.358125 
" clip-path="url(#pf599824e99)" style="fill: none; stroke: #d8dde3; stroke-width: 0.6; stroke-linecap: square"/>
     </g>
     <g id="line2d_42">
      <g>
       <use xlink:href="#m3b7f6c0b8a" x="493.078749" y="614.64351" style="stroke: #000000; stroke-width: 0.8"/>
      </g>
     </g>
     <g id="text_24">
      <!-- 150 -->
      <g transform="translate(483.534999 629.241948)scale(0.1 -0.1)">
       <use xlink:href="#DejaVuSans-31"/>
       <use xlink:href="#DejaVuSans-35" x="63.623047"/>
       <use xlink:href="#DejaVuSans-30" x="127.246094"/>
      </g>
     </g>
    </g>
    <g id="xtick_13">
     <g id="line2d_43">
      <path d="M 627.670219 614.64351 
L 627.670219 342.358125 
" clip-path="url(#pf599824e99)" style="fill: none; stroke: #d8dde3; stroke-width: 0.6; stroke-linecap: square"/>
     </g>
     <g id="line2d_44">
      <g>
       <use xlink:href="#m3b7f6c0b8a" x="627.670219" y="614.64351" style="stroke: #000000; stroke-width: 0.8"/>
      </g>
     </g>
     <g id="text_25">
      <!-- 200 -->
      <g transform="translate(618.126469 629.241948)scale(0.1 -0.1)">
       <use xlink:href="#DejaVuSans-32"/>
       <use xlink:href="#DejaVuSans-30" x="63.623047"/>
       <use xlink:href="#DejaVuSans-30" x="127.246094"/>
      </g>
     </g>
    </g>
    <g id="xtick_14">
     <g id="line2d_45">
      <path d="M 762.26169 614.64351 
L 762.26169 342.358125 
" clip-path="url(#pf599824e99)" style="fill: none; stroke: #d8dde3; stroke-width: 0.6; stroke-linecap: square"/>
     </g>
     <g id="line2d_46">
      <g>
       <use xlink:href="#m3b7f6c0b8a" x="762.26169" y="614.64351" style="stroke: #000000; stroke-width: 0.8"/>
      </g>
     </g>
     <g id="text_26">
      <!-- 250 -->
      <g transform="translate(752.71794 629.241948)scale(0.1 -0.1)">
       <use xlink:href="#DejaVuSans-32"/>
       <use xlink:href="#DejaVuSans-35" x="63.623047"/>
       <use xlink:href="#DejaVuSans-30" x="127.246094"/>
      </g>
     </g>
    </g>
    <g id="xtick_15">
     <g id="line2d_47">
      <path d="M 896.85316 614.64351 
L 896.85316 342.358125 
" clip-path="url(#pf599824e99)" style="fill: none; stroke: #d8dde3; stroke-width: 0.6; stroke-linecap: square"/>
     </g>
     <g id="line2d_48">
      <g>
       <use xlink:href="#m3b7f6c0b8a" x="896.85316" y="614.64351" style="stroke: #000000; stroke-width: 0.8"/>
      </g>
     </g>
     <g id="text_27">
      <!-- 300 -->
      <g transform="translate(887.30941 629.241948)scale(0.1 -0.1)">
       <use xlink:href="#DejaVuSans-33"/>
       <use xlink:href="#DejaVuSans-30" x="63.623047"/>
       <use xlink:href="#DejaVuSans-30" x="127.246094"/>
      </g>
     </g>
    </g>
    <g id="text_28">
     <!-- Simulation time (s) -->
     <g transform="translate(443.450781 642.920072)scale(0.1 -0.1)">
      <use xlink:href="#DejaVuSans-53"/>
      <use xlink:href="#DejaVuSans-69" x="63.476562"/>
      <use xlink:href="#DejaVuSans-6d" x="91.259766"/>
      <use xlink:href="#DejaVuSans-75" x="188.671875"/>
      <use xlink:href="#DejaVuSans-6c" x="252.050781"/>
      <use xlink:href="#DejaVuSans-61" x="279.833984"/>
      <use xlink:href="#DejaVuSans-74" x="341.113281"/>
      <use xlink:href="#DejaVuSans-69" x="380.322266"/>
      <use xlink:href="#DejaVuSans-6f" x="408.105469"/>
      <use xlink:href="#DejaVuSans-6e" x="469.287109"/>
      <use xlink:href="#DejaVuSans-20" x="532.666016"/>
      <use xlink:href="#DejaVuSans-74" x="564.453125"/>
      <use xlink:href="#DejaVuSans-69" x="603.662109"/>
      <use xlink:href="#DejaVuSans-6d" x="631.445312"/>
      <use xlink:href="#DejaVuSans-65" x="728.857422"/>
      <use xlink:href="#DejaVuSans-20" x="790.380859"/>
      <use xlink:href="#DejaVuSans-28" x="822.167969"/>
      <use xlink:href="#DejaVuSans-73" x="861.181641"/>
      <use xlink:href="#DejaVuSans-29" x="913.28125"/>
     </g>
    </g>
   </g>
   <g id="matplotlib.axis_4">
    <g id="ytick_7">
     <g id="line2d_49">
      <path d="M 49.128365 602.266902 
L 932.99976 602.266902 
" clip-path="url(#pf599824e99)" style="fill: none; stroke: #d8dde3; stroke-width: 0.6; stroke-linecap: square"/>
     </g>
     <g id="line2d_50">
      <g>
       <use xlink:href="#m2875fc8e91" x="49.128365" y="602.266902" style="stroke: #000000; stroke-width: 0.8"/>
      </g>
     </g>
     <g id="text_29">
      <!-- 0 -->
      <g transform="translate(35.765865 606.06612)scale(0.1 -0.1)">
       <use xlink:href="#DejaVuSans-30"/>
      </g>
     </g>
    </g>
    <g id="ytick_8">
     <g id="line2d_51">
      <path d="M 49.128365 548.563501 
L 932.99976 548.563501 
" clip-path="url(#pf599824e99)" style="fill: none; stroke: #d8dde3; stroke-width: 0.6; stroke-linecap: square"/>
     </g>
     <g id="line2d_52">
      <g>
       <use xlink:href="#m2875fc8e91" x="49.128365" y="548.563501" style="stroke: #000000; stroke-width: 0.8"/>
      </g>
     </g>
     <g id="text_30">
      <!-- 1000 -->
      <g transform="translate(16.678365 552.36272)scale(0.1 -0.1)">
       <use xlink:href="#DejaVuSans-31"/>
       <use xlink:href="#DejaVuSans-30" x="63.623047"/>
       <use xlink:href="#DejaVuSans-30" x="127.246094"/>
       <use xlink:href="#DejaVuSans-30" x="190.869141"/>
      </g>
     </g>
    </g>
    <g id="ytick_9">
     <g id="line2d_53">
      <path d="M 49.128365 494.8601 
L 932.99976 494.8601 
" clip-path="url(#pf599824e99)" style="fill: none; stroke: #d8dde3; stroke-width: 0.6; stroke-linecap: square"/>
     </g>
     <g id="line2d_54">
      <g>
       <use xlink:href="#m2875fc8e91" x="49.128365" y="494.8601" style="stroke: #000000; stroke-width: 0.8"/>
      </g>
     </g>
     <g id="text_31">
      <!-- 2000 -->
      <g transform="translate(16.678365 498.659319)scale(0.1 -0.1)">
       <use xlink:href="#DejaVuSans-32"/>
       <use xlink:href="#DejaVuSans-30" x="63.623047"/>
       <use xlink:href="#DejaVuSans-30" x="127.246094"/>
       <use xlink:href="#DejaVuSans-30" x="190.869141"/>
      </g>
     </g>
    </g>
    <g id="ytick_10">
     <g id="line2d_55">
      <path d="M 49.128365 441.1567 
L 932.99976 441.1567 
" clip-path="url(#pf599824e99)" style="fill: none; stroke: #d8dde3; stroke-width: 0.6; stroke-linecap: square"/>
     </g>
     <g id="line2d_56">
      <g>
       <use xlink:href="#m2875fc8e91" x="49.128365" y="441.1567" style="stroke: #000000; stroke-width: 0.8"/>
      </g>
     </g>
     <g id="text_32">
      <!-- 3000 -->
      <g transform="translate(16.678365 444.955919)scale(0.1 -0.1)">
       <use xlink:href="#DejaVuSans-33"/>
       <use xlink:href="#DejaVuSans-30" x="63.623047"/>
       <use xlink:href="#DejaVuSans-30" x="127.246094"/>
       <use xlink:href="#DejaVuSans-30" x="190.869141"/>
      </g>
     </g>
    </g>
    <g id="ytick_11">
     <g id="line2d_57">
      <path d="M 49.128365 387.453299 
L 932.99976 387.453299 
" clip-path="url(#pf599824e99)" style="fill: none; stroke: #d8dde3; stroke-width: 0.6; stroke-linecap: square"/>
     </g>
     <g id="line2d_58">
      <g>
       <use xlink:href="#m2875fc8e91" x="49.128365" y="387.453299" style="stroke: #000000; stroke-width: 0.8"/>
      </g>
     </g>
     <g id="text_33">
      <!-- 4000 -->
      <g transform="translate(16.678365 391.252518)scale(0.1 -0.1)">
       <use xlink:href="#DejaVuSans-34"/>
       <use xlink:href="#DejaVuSans-30" x="63.623047"/>
       <use xlink:href="#DejaVuSans-30" x="127.246094"/>
       <use xlink:href="#DejaVuSans-30" x="190.869141"/>
      </g>
     </g>
    </g>
    <g id="text_34">
     <!-- HRR (kW) -->
     <g transform="translate(10.598678 502.539099)rotate(-90)scale(0.1 -0.1)">
      <use xlink:href="#DejaVuSans-48"/>
      <use xlink:href="#DejaVuSans-52" x="75.195312"/>
      <use xlink:href="#DejaVuSans-52" x="144.677734"/>
      <use xlink:href="#DejaVuSans-20" x="214.160156"/>
      <use xlink:href="#DejaVuSans-28" x="245.947266"/>
      <use xlink:href="#DejaVuSans-6b" x="284.960938"/>
      <use xlink:href="#DejaVuSans-57" x="342.871094"/>
      <use xlink:href="#DejaVuSans-29" x="441.748047"/>
     </g>
    </g>
   </g>
   <g id="line2d_59">
    <path d="M 89.304338 602.266902 
L 93.366925 576.414937 
L 97.394819 521.271143 
L 101.426151 507.512691 
L 105.464473 505.144989 
L 109.498581 504.935197 
L 113.537554 506.801019 
L 117.574301 506.600851 
L 121.613523 505.775977 
L 125.649534 505.202505 
L 129.682374 502.016288 
L 133.721935 494.294448 
L 137.757504 486.85889 
L 141.799237 475.780813 
L 145.833891 479.670421 
L 149.871019 479.322133 
L 153.912766 472.60039 
L 157.949064 468.735045 
L 161.983845 458.782575 
L 166.021901 454.947014 
L 170.066835 449.85135 
L 174.097271 452.508326 
L 178.137346 459.368146 
L 182.181919 465.565384 
L 186.217507 477.719323 
L 190.249553 487.475405 
L 194.295574 500.301565 
L 198.344037 507.893422 
L 202.385232 522.759785 
L 206.406833 538.183337 
L 210.454928 533.561719 
L 214.490219 531.381748 
L 218.528004 526.7444 
L 222.565799 522.969432 
L 226.601519 520.176877 
L 230.640076 519.140332 
L 234.676289 518.482792 
L 238.711672 516.646662 
L 242.748657 513.799501 
L 246.783669 510.847597 
L 250.832401 515.521555 
" clip-path="url(#pf599824e99)" style="fill: none; stroke: #00796b; stroke-width: 1.4; stroke-linecap: square"/>
   </g>
   <g id="line2d_60">
    <path d="M 89.304338 602.266902 
L 93.389744 567.650882 
L 97.387343 497.00727 
L 101.424179 481.391642 
L 105.457549 481.027759 
L 109.502682 481.925534 
L 113.539556 481.733126 
L 117.578899 482.020767 
L 121.610657 476.522623 
L 125.645437 467.793576 
L 129.685682 452.110835 
L 133.727824 448.893926 
L 137.757805 443.407941 
L 141.796849 435.538857 
L 145.836112 428.831512 
L 149.875032 423.510713 
L 153.914863 422.36421 
L 157.94953 431.37744 
L 166.029823 450.738912 
L 170.076049 458.554856 
L 174.101061 459.83318 
L 182.185483 491.986931 
L 186.222848 509.276837 
L 190.248535 522.029327 
L 194.303685 517.497786 
L 198.343504 513.876598 
L 202.381063 511.381103 
L 206.419835 509.616801 
L 210.447536 505.67386 
L 214.481428 500.660078 
L 218.517767 492.58785 
L 222.564752 496.047064 
L 226.587802 502.847515 
L 230.63073 500.75537 
L 234.670243 494.33255 
L 238.710584 480.56229 
L 242.739836 460.119376 
L 246.783782 464.971467 
L 250.826659 487.818183 
L 254.856425 477.747023 
L 258.893903 430.642562 
L 262.928484 458.499241 
L 266.969208 462.68301 
L 271.017795 455.816686 
L 275.053073 452.513347 
L 279.078661 442.559008 
L 283.125296 455.673964 
L 287.158133 461.477148 
L 291.200991 443.331698 
L 295.240418 438.023783 
L 299.2788 445.607917 
L 303.312415 435.348903 
L 307.345416 427.473895 
L 311.390223 403.558321 
L 315.423575 399.105901 
L 319.463268 402.498377 
L 323.501321 397.158223 
L 327.53545 388.193536 
L 331.576419 389.447913 
L 335.608823 361.122935 
L 339.651251 365.839958 
L 343.687331 381.447734 
L 347.724911 397.580869 
L 351.768095 404.388119 
L 355.806335 413.214944 
L 359.835023 431.124599 
L 363.87441 438.017596 
L 367.913284 461.971934 
L 371.960073 468.553629 
L 375.984573 462.39633 
L 380.023609 450.295601 
L 384.071098 434.67463 
L 388.101978 431.405704 
L 392.135819 429.487064 
L 396.17935 427.996016 
L 400.217068 422.364092 
L 404.249724 425.570319 
L 408.288491 435.438802 
L 412.332077 430.187093 
L 416.371436 428.478433 
L 420.405707 430.299344 
L 424.440921 425.786115 
L 428.486579 423.237739 
L 432.518025 419.955473 
L 440.598062 417.669496 
L 444.635591 415.576186 
L 448.666228 410.757799 
L 452.706934 413.977881 
L 456.744382 415.848296 
L 460.779515 416.454575 
L 464.826546 417.196154 
L 468.854168 416.482989 
L 472.901253 410.643539 
L 476.939482 414.854536 
L 480.9737 407.231923 
L 485.004041 405.71658 
L 489.045635 409.984663 
L 493.088278 406.991654 
L 497.126345 406.652614 
L 501.158948 403.182977 
L 505.20073 406.292506 
L 509.236616 403.216773 
L 513.278856 404.935867 
L 517.307232 398.817589 
L 521.346888 400.054174 
L 525.385251 397.794619 
L 529.425337 396.759846 
L 533.460954 397.812981 
L 537.504567 397.314672 
L 545.581428 395.692432 
L 549.61753 397.688099 
L 553.647414 395.797444 
L 557.693422 394.869084 
L 561.724625 393.052362 
L 565.758762 394.620534 
L 569.804393 392.570868 
L 573.839795 386.392211 
L 577.87972 389.083305 
L 581.910923 386.640654 
L 585.949421 391.895156 
L 589.989157 392.979562 
L 594.027601 392.413625 
L 598.060553 393.491881 
L 602.106373 395.193565 
L 606.143632 392.243567 
L 610.185899 389.096328 
L 614.222028 385.085355 
L 618.250781 383.706402 
L 622.293263 378.746066 
L 626.333537 378.848172 
L 630.370716 380.093017 
L 634.407707 378.879718 
L 638.439636 386.480269 
L 642.483706 385.083556 
L 646.516013 389.67655 
L 650.553353 391.415751 
L 654.599846 387.784504 
L 658.633606 386.79815 
L 662.670031 386.381814 
L 666.704707 382.017511 
L 670.751307 377.961481 
L 674.782644 383.938729 
L 678.818827 388.611671 
L 682.855306 390.688951 
L 686.896011 389.422893 
L 690.933109 383.846654 
L 694.976264 381.465504 
L 699.012662 378.80166 
L 703.045507 379.352979 
L 707.088339 371.021353 
L 711.119219 377.859724 
L 715.157636 373.979884 
L 719.200145 376.09858 
L 723.236247 374.004512 
L 727.27496 377.593248 
L 731.311439 378.598688 
L 735.344903 378.880094 
L 739.382539 381.187863 
L 743.426529 373.000243 
L 743.426529 373.000243 
" clip-path="url(#pf599824e99)" style="fill: none; stroke: #c85a17; stroke-width: 1.4; stroke-linecap: square"/>
   </g>
   <g id="line2d_61">
    <path d="M 89.304338 602.266902 
L 93.368123 560.643101 
L 97.384027 473.951192 
L 101.421118 454.794281 
L 105.458908 449.645688 
L 109.49835 454.324484 
L 113.536203 454.741399 
L 117.575365 447.361129 
L 121.611755 431.93139 
L 125.645956 414.502317 
L 129.688024 409.299585 
L 133.722551 406.200388 
L 137.762349 402.325092 
L 141.796911 403.575243 
L 145.835765 408.736483 
L 149.872763 420.73364 
L 153.920257 441.81875 
L 157.964949 453.103134 
L 161.997702 454.495218 
L 166.044399 465.057167 
L 170.063317 479.497244 
L 174.117476 504.161406 
L 178.15164 509.748525 
L 182.199058 506.033061 
L 186.212589 503.412963 
L 190.259432 500.135751 
L 194.301394 497.210365 
L 198.330268 494.939281 
L 202.378104 495.194694 
L 206.413334 492.941589 
L 210.449969 489.783588 
L 214.488082 492.388627 
L 218.52482 494.53135 
L 222.561188 488.891725 
L 226.600216 486.749093 
L 230.632528 489.451744 
L 234.672563 488.227822 
L 238.709979 488.02834 
L 242.751747 485.413404 
L 246.780035 481.481311 
L 250.816576 401.860944 
L 254.864673 457.801639 
L 258.903278 477.005272 
L 262.938034 475.265448 
L 266.968077 455.771645 
L 271.005 445.259752 
L 275.052785 415.069838 
L 279.078865 457.422944 
L 283.118354 467.185336 
L 287.153901 460.088454 
L 291.195425 444.242739 
L 295.231567 354.734733 
L 299.275594 390.976575 
L 303.304775 422.480118 
L 307.356423 430.633846 
L 311.388991 411.471581 
L 315.419795 391.074138 
L 319.460064 405.549729 
L 323.494872 403.719581 
L 327.53163 382.659884 
L 331.579396 382.92954 
L 335.607899 405.450077 
L 339.651291 401.165023 
L 343.687783 400.448013 
L 347.721953 412.30538 
L 351.763086 421.483855 
L 355.802596 419.683035 
L 359.835427 432.568973 
L 363.878824 444.338127 
L 367.922167 468.549983 
L 371.958539 463.455893 
L 375.986188 456.453899 
L 380.027163 455.98263 
L 384.069133 451.395259 
L 388.109784 450.148674 
L 392.147878 444.311227 
L 396.173967 434.758181 
L 400.218763 436.882452 
L 404.256561 432.934779 
L 408.298559 435.830955 
L 412.325993 435.950048 
L 416.368932 430.055031 
L 420.401643 433.919248 
L 424.437341 430.348649 
L 428.478773 430.153791 
L 432.517029 426.58005 
L 436.562256 425.695824 
L 440.5986 422.346101 
L 444.629803 421.99596 
L 448.667144 420.098512 
L 452.705238 424.849313 
L 456.740128 422.280175 
L 460.784898 422.039868 
L 464.818685 417.843914 
L 468.854249 414.499481 
L 472.890567 418.637011 
L 476.930114 414.395028 
L 480.978249 418.42361 
L 485.009102 418.321219 
L 489.051799 417.767457 
L 493.087336 416.557938 
L 497.119131 419.123655 
L 501.165085 416.758128 
L 505.202452 418.865358 
L 509.23134 419.571246 
L 513.270726 419.431317 
L 517.308497 413.274238 
L 521.347668 414.21147 
L 525.390446 414.917777 
L 529.419603 413.744599 
L 533.457832 415.190655 
L 537.495253 409.928049 
L 541.539161 409.68705 
L 545.579678 408.672829 
L 549.612712 408.022668 
L 553.656701 399.126555 
L 557.694902 403.591939 
L 561.722687 401.1198 
L 565.767295 402.917666 
L 569.798094 401.611025 
L 573.839042 407.218122 
L 581.91453 398.720504 
L 585.947859 400.486932 
L 589.988376 401.589957 
L 594.026739 398.640878 
L 598.071751 399.435672 
L 602.102551 399.14773 
L 606.143471 395.298303 
L 610.178954 396.201911 
L 614.217882 396.457244 
L 618.250458 398.028868 
L 622.297355 398.523643 
L 626.329634 391.541868 
L 630.367755 392.207425 
L 634.409483 390.439847 
L 638.43864 390.306754 
L 642.482468 393.213983 
L 646.518409 395.794356 
L 650.550931 396.727839 
L 654.589213 394.662062 
L 658.629165 397.208828 
L 662.67275 389.451608 
L 666.705353 391.628932 
L 670.742208 391.791261 
L 674.781137 390.689558 
L 678.826364 386.546453 
L 682.85571 388.227326 
L 686.891247 380.710032 
L 690.929206 377.27143 
L 694.976964 380.995702 
L 699.008409 381.245997 
L 703.044942 389.98876 
L 707.079887 391.721146 
L 711.12366 395.862382 
L 715.165442 384.52669 
L 719.194061 384.711268 
L 727.269253 380.749348 
L 731.30759 381.837191 
L 735.347164 384.097991 
L 739.387223 380.006823 
L 743.420391 379.712309 
L 747.466803 381.112174 
L 751.502717 383.499805 
L 759.577424 379.386076 
L 763.608385 376.439951 
L 767.653451 373.279817 
L 771.687534 362.027924 
L 775.722694 366.713384 
L 779.764072 372.094331 
L 783.798613 378.443834 
L 787.834903 384.131363 
L 791.876901 377.03796 
L 795.920971 371.75833 
L 799.947786 373.605673 
L 803.98981 367.739624 
L 808.027635 369.21418 
L 812.06118 363.491733 
L 816.108049 364.174567 
L 820.139387 369.792163 
L 824.178208 375.969455 
L 828.221443 380.92339 
L 832.250573 378.488064 
L 836.292247 378.856083 
L 840.325227 375.467871 
L 848.407472 373.182867 
L 852.447262 372.104803 
L 856.480726 368.088777 
L 860.52135 364.269579 
L 864.554087 357.91971 
L 868.593231 361.087443 
L 872.628014 364.756406 
L 876.672407 376.274711 
L 880.707271 376.042261 
L 884.750857 372.11542 
L 888.786878 369.7036 
L 892.823787 374.063135 
L 892.823787 374.063135 
" clip-path="url(#pf599824e99)" style="fill: none; stroke: #31557c; stroke-width: 1.4; stroke-linecap: square"/>
   </g>
   <g id="patch_9">
    <path d="M 49.128365 614.64351 
L 49.128365 342.358125 
" style="fill: none; stroke: #000000; stroke-width: 0.8; stroke-linejoin: miter; stroke-linecap: square"/>
   </g>
   <g id="patch_10">
    <path d="M 932.99976 614.64351 
L 932.99976 342.358125 
" style="fill: none; stroke: #000000; stroke-width: 0.8; stroke-linejoin: miter; stroke-linecap: square"/>
   </g>
   <g id="patch_11">
    <path d="M 49.128365 614.64351 
L 932.99976 614.64351 
" style="fill: none; stroke: #000000; stroke-width: 0.8; stroke-linejoin: miter; stroke-linecap: square"/>
   </g>
   <g id="patch_12">
    <path d="M 49.128365 342.358125 
L 932.99976 342.358125 
" style="fill: none; stroke: #000000; stroke-width: 0.8; stroke-linejoin: miter; stroke-linecap: square"/>
   </g>
   <g id="text_35">
    <!-- Whole-domain heat release rate: first 300 s -->
    <g transform="translate(360.311875 336.358125)scale(0.12 -0.12)">
     <defs>
      <path id="DejaVuSans-3a" d="M 750 794 
L 1409 794 
L 1409 0 
L 750 0 
L 750 794 
z
M 750 3309 
L 1409 3309 
L 1409 2516 
L 750 2516 
L 750 3309 
z
" transform="scale(0.015625)"/>
      <path id="DejaVuSans-66" d="M 2375 4863 
L 2375 4384 
L 1825 4384 
Q 1516 4384 1395 4259 
Q 1275 4134 1275 3809 
L 1275 3500 
L 2222 3500 
L 2222 3053 
L 1275 3053 
L 1275 0 
L 697 0 
L 697 3053 
L 147 3053 
L 147 3500 
L 697 3500 
L 697 3744 
Q 697 4328 969 4595 
Q 1241 4863 1831 4863 
L 2375 4863 
z
" transform="scale(0.015625)"/>
     </defs>
     <use xlink:href="#DejaVuSans-57"/>
     <use xlink:href="#DejaVuSans-68" x="98.876953"/>
     <use xlink:href="#DejaVuSans-6f" x="162.255859"/>
     <use xlink:href="#DejaVuSans-6c" x="223.4375"/>
     <use xlink:href="#DejaVuSans-65" x="251.220703"/>
     <use xlink:href="#DejaVuSans-2d" x="312.744141"/>
     <use xlink:href="#DejaVuSans-64" x="348.828125"/>
     <use xlink:href="#DejaVuSans-6f" x="412.304688"/>
     <use xlink:href="#DejaVuSans-6d" x="473.486328"/>
     <use xlink:href="#DejaVuSans-61" x="570.898438"/>
     <use xlink:href="#DejaVuSans-69" x="632.177734"/>
     <use xlink:href="#DejaVuSans-6e" x="659.960938"/>
     <use xlink:href="#DejaVuSans-20" x="723.339844"/>
     <use xlink:href="#DejaVuSans-68" x="755.126953"/>
     <use xlink:href="#DejaVuSans-65" x="818.505859"/>
     <use xlink:href="#DejaVuSans-61" x="880.029297"/>
     <use xlink:href="#DejaVuSans-74" x="941.308594"/>
     <use xlink:href="#DejaVuSans-20" x="980.517578"/>
     <use xlink:href="#DejaVuSans-72" x="1012.304688"/>
     <use xlink:href="#DejaVuSans-65" x="1051.167969"/>
     <use xlink:href="#DejaVuSans-6c" x="1112.691406"/>
     <use xlink:href="#DejaVuSans-65" x="1140.474609"/>
     <use xlink:href="#DejaVuSans-61" x="1201.998047"/>
     <use xlink:href="#DejaVuSans-73" x="1263.277344"/>
     <use xlink:href="#DejaVuSans-65" x="1315.376953"/>
     <use xlink:href="#DejaVuSans-20" x="1376.900391"/>
     <use xlink:href="#DejaVuSans-72" x="1408.6875"/>
     <use xlink:href="#DejaVuSans-61" x="1449.800781"/>
     <use xlink:href="#DejaVuSans-74" x="1511.080078"/>
     <use xlink:href="#DejaVuSans-65" x="1550.289062"/>
     <use xlink:href="#DejaVuSans-3a" x="1611.8125"/>
     <use xlink:href="#DejaVuSans-20" x="1645.503906"/>
     <use xlink:href="#DejaVuSans-66" x="1677.291016"/>
     <use xlink:href="#DejaVuSans-69" x="1712.496094"/>
     <use xlink:href="#DejaVuSans-72" x="1740.279297"/>
     <use xlink:href="#DejaVuSans-73" x="1781.392578"/>
     <use xlink:href="#DejaVuSans-74" x="1833.492188"/>
     <use xlink:href="#DejaVuSans-20" x="1872.701172"/>
     <use xlink:href="#DejaVuSans-33" x="1904.488281"/>
     <use xlink:href="#DejaVuSans-30" x="1968.111328"/>
     <use xlink:href="#DejaVuSans-30" x="2031.734375"/>
     <use xlink:href="#DejaVuSans-20" x="2095.357422"/>
     <use xlink:href="#DejaVuSans-73" x="2127.144531"/>
    </g>
   </g>
   <g id="legend_2">
    <g id="patch_13">
     <path d="M 54.728365 383.985625 
L 199.732115 383.985625 
Q 201.332115 383.985625 201.332115 382.385625 
L 201.332115 347.958125 
Q 201.332115 346.358125 199.732115 346.358125 
L 54.728365 346.358125 
Q 53.128365 346.358125 53.128365 347.958125 
L 53.128365 382.385625 
Q 53.128365 383.985625 54.728365 383.985625 
z
" style="fill: #ffffff; opacity: 0.8; stroke: #cccccc; stroke-linejoin: miter"/>
    </g>
    <g id="line2d_62">
     <path d="M 56.328365 352.836875 
L 64.328365 352.836875 
L 72.328365 352.836875 
" style="fill: none; stroke: #00796b; stroke-width: 1.4; stroke-linecap: square"/>
    </g>
    <g id="text_36">
     <!-- Q100 audited thickness -->
     <g transform="translate(78.728365 355.636875)scale(0.08 -0.08)">
      <use xlink:href="#DejaVuSans-51"/>
      <use xlink:href="#DejaVuSans-31" x="78.710938"/>
      <use xlink:href="#DejaVuSans-30" x="142.333984"/>
      <use xlink:href="#DejaVuSans-30" x="205.957031"/>
      <use xlink:href="#DejaVuSans-20" x="269.580078"/>
      <use xlink:href="#DejaVuSans-61" x="301.367188"/>
      <use xlink:href="#DejaVuSans-75" x="362.646484"/>
      <use xlink:href="#DejaVuSans-64" x="426.025391"/>
      <use xlink:href="#DejaVuSans-69" x="489.501953"/>
      <use xlink:href="#DejaVuSans-74" x="517.285156"/>
      <use xlink:href="#DejaVuSans-65" x="556.494141"/>
      <use xlink:href="#DejaVuSans-64" x="618.017578"/>
      <use xlink:href="#DejaVuSans-20" x="681.494141"/>
      <use xlink:href="#DejaVuSans-74" x="713.28125"/>
      <use xlink:href="#DejaVuSans-68" x="752.490234"/>
      <use xlink:href="#DejaVuSans-69" x="815.869141"/>
      <use xlink:href="#DejaVuSans-63" x="843.652344"/>
      <use xlink:href="#DejaVuSans-6b" x="898.632812"/>
      <use xlink:href="#DejaVuSans-6e" x="956.542969"/>
      <use xlink:href="#DejaVuSans-65" x="1019.921875"/>
      <use xlink:href="#DejaVuSans-73" x="1081.445312"/>
      <use xlink:href="#DejaVuSans-73" x="1133.544922"/>
     </g>
    </g>
    <g id="line2d_63">
     <path d="M 56.328365 364.579375 
L 64.328365 364.579375 
L 72.328365 364.579375 
" style="fill: none; stroke: #c85a17; stroke-width: 1.4; stroke-linecap: square"/>
    </g>
    <g id="text_37">
     <!-- Q200 audited thickness -->
     <g transform="translate(78.728365 367.379375)scale(0.08 -0.08)">
      <use xlink:href="#DejaVuSans-51"/>
      <use xlink:href="#DejaVuSans-32" x="78.710938"/>
      <use xlink:href="#DejaVuSans-30" x="142.333984"/>
      <use xlink:href="#DejaVuSans-30" x="205.957031"/>
      <use xlink:href="#DejaVuSans-20" x="269.580078"/>
      <use xlink:href="#DejaVuSans-61" x="301.367188"/>
      <use xlink:href="#DejaVuSans-75" x="362.646484"/>
      <use xlink:href="#DejaVuSans-64" x="426.025391"/>
      <use xlink:href="#DejaVuSans-69" x="489.501953"/>
      <use xlink:href="#DejaVuSans-74" x="517.285156"/>
      <use xlink:href="#DejaVuSans-65" x="556.494141"/>
      <use xlink:href="#DejaVuSans-64" x="618.017578"/>
      <use xlink:href="#DejaVuSans-20" x="681.494141"/>
      <use xlink:href="#DejaVuSans-74" x="713.28125"/>
      <use xlink:href="#DejaVuSans-68" x="752.490234"/>
      <use xlink:href="#DejaVuSans-69" x="815.869141"/>
      <use xlink:href="#DejaVuSans-63" x="843.652344"/>
      <use xlink:href="#DejaVuSans-6b" x="898.632812"/>
      <use xlink:href="#DejaVuSans-6e" x="956.542969"/>
      <use xlink:href="#DejaVuSans-65" x="1019.921875"/>
      <use xlink:href="#DejaVuSans-73" x="1081.445312"/>
      <use xlink:href="#DejaVuSans-73" x="1133.544922"/>
     </g>
    </g>
    <g id="line2d_64">
     <path d="M 56.328365 376.321875 
L 64.328365 376.321875 
L 72.328365 376.321875 
" style="fill: none; stroke: #31557c; stroke-width: 1.4; stroke-linecap: square"/>
    </g>
    <g id="text_38">
     <!-- Q400 preserved old thickness -->
     <g transform="translate(78.728365 379.121875)scale(0.08 -0.08)">
      <use xlink:href="#DejaVuSans-51"/>
      <use xlink:href="#DejaVuSans-34" x="78.710938"/>
      <use xlink:href="#DejaVuSans-30" x="142.333984"/>
      <use xlink:href="#DejaVuSans-30" x="205.957031"/>
      <use xlink:href="#DejaVuSans-20" x="269.580078"/>
      <use xlink:href="#DejaVuSans-70" x="301.367188"/>
      <use xlink:href="#DejaVuSans-72" x="364.84375"/>
      <use xlink:href="#DejaVuSans-65" x="403.707031"/>
      <use xlink:href="#DejaVuSans-73" x="465.230469"/>
      <use xlink:href="#DejaVuSans-65" x="517.330078"/>
      <use xlink:href="#DejaVuSans-72" x="578.853516"/>
      <use xlink:href="#DejaVuSans-76" x="619.966797"/>
      <use xlink:href="#DejaVuSans-65" x="679.146484"/>
      <use xlink:href="#DejaVuSans-64" x="740.669922"/>
      <use xlink:href="#DejaVuSans-20" x="804.146484"/>
      <use xlink:href="#DejaVuSans-6f" x="835.933594"/>
      <use xlink:href="#DejaVuSans-6c" x="897.115234"/>
      <use xlink:href="#DejaVuSans-64" x="924.898438"/>
      <use xlink:href="#DejaVuSans-20" x="988.375"/>
      <use xlink:href="#DejaVuSans-74" x="1020.162109"/>
      <use xlink:href="#DejaVuSans-68" x="1059.371094"/>
      <use xlink:href="#DejaVuSans-69" x="1122.75"/>
      <use xlink:href="#DejaVuSans-63" x="1150.533203"/>
      <use xlink:href="#DejaVuSans-6b" x="1205.513672"/>
      <use xlink:href="#DejaVuSans-6e" x="1263.423828"/>
      <use xlink:href="#DejaVuSans-65" x="1326.802734"/>
      <use xlink:href="#DejaVuSans-73" x="1388.326172"/>
      <use xlink:href="#DejaVuSans-73" x="1440.425781"/>
     </g>
    </g>
   </g>
  </g>
 </g>
 <defs>
  <clipPath id="paa3df960ff">
   <rect x="49.128365" y="18.118365" width="883.871395" height="272.285385"/>
  </clipPath>
  <clipPath id="pf599824e99">
   <rect x="49.128365" y="342.358125" width="883.871395" height="272.285385"/>
  </clipPath>
 </defs>
</svg>
