<?xml version="1.0" encoding="utf-8" standalone="no"?>
<!DOCTYPE svg PUBLIC "-//W3C//DTD SVG 1.1//EN"
  "http://www.w3.org/Graphics/SVG/1.1/DTD/svg11.dtd">
<svg xmlns:xlink="http://www.w3.org/1999/xlink" width="1008pt" height="432pt" viewBox="0 0 1008 432" xmlns="http://www.w3.org/2000/svg" version="1.1">
 <metadata>
  <rdf:RDF xmlns:dc="http://purl.org/dc/elements/1.1/" xmlns:cc="http://creativecommons.org/ns#" xmlns:rdf="http://www.w3.org/1999/02/22-rdf-syntax-ns#">
   <cc:Work>
    <dc:type rdf:resource="http://purl.org/dc/dcmitype/StillImage"/>
    <dc:date>2026-07-23T05:54:15.667593</dc:date>
    <dc:format>image/svg+xml</dc:format>
    <dc:creator>
     <cc:Agent>
      <dc:title>Matplotlib v3.11.0, https://matplotlib.org/</dc:title>
     </cc:Agent>
    </dc:creator>
   </cc:Work>
  </rdf:RDF>
 </metadata>
 <defs>
  <style type="text/css">*{stroke-linejoin: round; stroke-linecap: butt}</style>
 </defs>
 <g id="figure_1">
  <g id="patch_1">
   <path d="M 0 432 
L 1008 432 
L 1008 0 
L 0 0 
z
" style="fill: #ffffff"/>
  </g>
  <g id="axes_1">
   <g id="patch_2">
    <path d="M 46.790865 411.99976 
L 1004.99976 411.99976 
L 1004.99976 19.56024 
L 46.790865 19.56024 
z
" style="fill: #ffffff"/>
   </g>
   <g id="patch_3">
    <path d="M 90.345815 411.99976 
L 131.826719 411.99976 
L 131.826719 97.80876 
L 90.345815 97.80876 
z
" clip-path="url(#p8c725fe90a)" style="fill: #c85a17"/>
   </g>
   <g id="patch_4">
    <path d="M 142.196945 411.99976 
L 183.67785 411.99976 
L 183.67785 110.526015 
L 142.196945 110.526015 
z
" clip-path="url(#p8c725fe90a)" style="fill: #c85a17"/>
   </g>
   <g id="patch_5">
    <path d="M 194.048076 411.99976 
L 235.528981 411.99976 
L 235.528981 116.510606 
L 194.048076 116.510606 
z
" clip-path="url(#p8c725fe90a)" style="fill: #c85a17"/>
   </g>
   <g id="patch_6">
    <path d="M 245.899207 411.99976 
L 287.380111 411.99976 
L 287.380111 290.811803 
L 245.899207 290.811803 
z
" clip-path="url(#p8c725fe90a)" style="fill: #c85a17"/>
   </g>
   <g id="patch_7">
    <path d="M 297.750338 411.99976 
L 339.231242 411.99976 
L 339.231242 97.80876 
L 297.750338 97.80876 
z
" clip-path="url(#p8c725fe90a)" style="fill: #c85a17"/>
   </g>
   <g id="patch_8">
    <path d="M 349.601468 411.99976 
L 391.082373 411.99976 
L 391.082373 90.328022 
L 349.601468 90.328022 
z
" clip-path="url(#p8c725fe90a)" style="fill: #c85a17"/>
   </g>
   <g id="patch_9">
    <path d="M 401.452599 411.99976 
L 442.933503 411.99976 
L 442.933503 411.99976 
L 401.452599 411.99976 
z
" clip-path="url(#p8c725fe90a)" style="fill: #c8ced6"/>
   </g>
   <g id="patch_10">
    <path d="M 453.30373 411.99976 
L 494.784634 411.99976 
L 494.784634 411.99976 
L 453.30373 411.99976 
z
" clip-path="url(#p8c725fe90a)" style="fill: #c8ced6"/>
   </g>
   <g id="patch_11">
    <path d="M 505.15486 411.99976 
L 546.635765 411.99976 
L 546.635765 411.99976 
L 505.15486 411.99976 
z
" clip-path="url(#p8c725fe90a)" style="fill: #c8ced6"/>
   </g>
   <g id="patch_12">
    <path d="M 557.005991 411.99976 
L 598.486895 411.99976 
L 598.486895 411.99976 
L 557.005991 411.99976 
z
" clip-path="url(#p8c725fe90a)" style="fill: #c8ced6"/>
   </g>
   <g id="patch_13">
    <path d="M 608.857122 411.99976 
L 650.338026 411.99976 
L 650.338026 411.99976 
L 608.857122 411.99976 
z
" clip-path="url(#p8c725fe90a)" style="fill: #c8ced6"/>
   </g>
   <g id="patch_14">
    <path d="M 660.708252 411.99976 
L 702.189157 411.99976 
L 702.189157 411.99976 
L 660.708252 411.99976 
z
" clip-path="url(#p8c725fe90a)" style="fill: #c8ced6"/>
   </g>
   <g id="patch_15">
    <path d="M 712.559383 411.99976 
L 754.040287 411.99976 
L 754.040287 411.99976 
L 712.559383 411.99976 
z
" clip-path="url(#p8c725fe90a)" style="fill: #c8ced6"/>
   </g>
   <g id="patch_16">
    <path d="M 764.410514 411.99976 
L 805.891418 411.99976 
L 805.891418 411.99976 
L 764.410514 411.99976 
z
" clip-path="url(#p8c725fe90a)" style="fill: #c8ced6"/>
   </g>
   <g id="patch_17">
    <path d="M 816.261644 411.99976 
L 857.742549 411.99976 
L 857.742549 411.99976 
L 816.261644 411.99976 
z
" clip-path="url(#p8c725fe90a)" style="fill: #c8ced6"/>
   </g>
   <g id="patch_18">
    <path d="M 868.112775 411.99976 
L 909.59368 411.99976 
L 909.59368 315.124202 
L 868.112775 315.124202 
z
" clip-path="url(#p8c725fe90a)" style="fill: #c85a17"/>
   </g>
   <g id="patch_19">
    <path d="M 919.963906 411.99976 
L 961.44481 411.99976 
L 961.44481 240.690858 
L 919.963906 240.690858 
z
" clip-path="url(#p8c725fe90a)" style="fill: #c85a17"/>
   </g>
   <g id="matplotlib.axis_1">
    <g id="xtick_1">
     <g id="line2d_1">
      <defs>
       <path id="mcfb3b8ac7e" d="M 0 0 
L 0 3.5 
" style="stroke: #000000; stroke-width: 0.8"/>
      </defs>
      <g>
       <use xlink:href="#mcfb3b8ac7e" x="111.086267" y="411.99976" style="stroke: #000000; stroke-width: 0.8"/>
      </g>
     </g>
     <g id="text_1">
      <!-- RADM -->
      <g transform="translate(97.391736 427.79976) scale(0.1 -0.1)">
       <defs>
        <path id="NotoSansCJKjp-Regular-33" d="M 1235 2464 
L 1235 4211 
L 2022 4211 
C 2758 4211 3162 3994 3162 3379 
C 3162 2765 2758 2464 2022 2464 
L 1235 2464 
z
M 3219 0 
L 3885 0 
L 2694 2054 
C 3328 2208 3750 2643 3750 3379 
C 3750 4352 3066 4691 2112 4691 
L 646 4691 
L 646 0 
L 1235 0 
L 1235 1990 
L 2080 1990 
L 3219 0 
z
" transform="scale(0.015625)"/>
        <path id="NotoSansCJKjp-Regular-22" d="M 26 0 
L 621 0 
L 1075 1434 
L 2790 1434 
L 3238 0 
L 3866 0 
L 2272 4691 
L 1613 4691 
L 26 0 
z
M 1222 1901 
L 1453 2624 
C 1619 3155 1773 3661 1920 4211 
L 1946 4211 
C 2099 3667 2246 3155 2419 2624 
L 2643 1901 
L 1222 1901 
z
" transform="scale(0.015625)"/>
        <path id="NotoSansCJKjp-Regular-25" d="M 646 0 
L 1843 0 
C 3258 0 4026 877 4026 2362 
C 4026 3859 3258 4691 1818 4691 
L 646 4691 
L 646 0 
z
M 1235 486 
L 1235 4211 
L 1766 4211 
C 2874 4211 3418 3552 3418 2362 
C 3418 1178 2874 486 1766 486 
L 1235 486 
z
" transform="scale(0.015625)"/>
        <path id="NotoSansCJKjp-Regular-2e" d="M 646 0 
L 1178 0 
L 1178 2598 
C 1178 3002 1139 3571 1101 3981 
L 1126 3981 
L 1504 2912 
L 2394 474 
L 2790 474 
L 3674 2912 
L 4051 3981 
L 4077 3981 
C 4045 3571 4000 3002 4000 2598 
L 4000 0 
L 4550 0 
L 4550 4691 
L 3840 4691 
L 2944 2182 
C 2835 1862 2739 1530 2618 1203 
L 2592 1203 
C 2477 1530 2374 1862 2253 2182 
L 1357 4691 
L 646 4691 
L 646 0 
z
" transform="scale(0.015625)"/>
       </defs>
       <use xlink:href="#NotoSansCJKjp-Regular-33"/>
       <use xlink:href="#NotoSansCJKjp-Regular-22" transform="translate(63.09375 0)"/>
       <use xlink:href="#NotoSansCJKjp-Regular-25" transform="translate(123.890625 0)"/>
       <use xlink:href="#NotoSansCJKjp-Regular-2e" transform="translate(192.6875 0)"/>
      </g>
     </g>
    </g>
    <g id="xtick_2">
     <g id="line2d_2">
      <g>
       <use xlink:href="#mcfb3b8ac7e" x="162.937398" y="411.99976" style="stroke: #000000; stroke-width: 0.8"/>
      </g>
     </g>
     <g id="text_2">
      <!-- WINS -->
      <g transform="translate(150.488179 427.79976) scale(0.1 -0.1)">
       <defs>
        <path id="NotoSansCJKjp-Regular-38" d="M 1158 0 
L 1862 0 
L 2560 2829 
C 2637 3200 2726 3539 2797 3898 
L 2822 3898 
C 2899 3539 2970 3200 3053 2829 
L 3763 0 
L 4480 0 
L 5446 4691 
L 4883 4691 
L 4378 2138 
C 4294 1632 4205 1126 4122 614 
L 4083 614 
C 3968 1126 3866 1638 3750 2138 
L 3098 4691 
L 2554 4691 
L 1907 2138 
C 1792 1632 1677 1126 1574 614 
L 1549 614 
C 1453 1126 1363 1632 1267 2138 
L 774 4691 
L 166 4691 
L 1158 0 
z
" transform="scale(0.015625)"/>
        <path id="NotoSansCJKjp-Regular-2a" d="M 646 0 
L 1235 0 
L 1235 4691 
L 646 4691 
L 646 0 
z
" transform="scale(0.015625)"/>
        <path id="NotoSansCJKjp-Regular-2f" d="M 646 0 
L 1203 0 
L 1203 2464 
C 1203 2957 1158 3456 1133 3930 
L 1158 3930 
L 1664 2963 
L 3373 0 
L 3981 0 
L 3981 4691 
L 3418 4691 
L 3418 2253 
C 3418 1766 3462 1235 3501 768 
L 3469 768 
L 2963 1734 
L 1248 4691 
L 646 4691 
L 646 0 
z
" transform="scale(0.015625)"/>
        <path id="NotoSansCJKjp-Regular-34" d="M 1946 -83 
C 2925 -83 3539 506 3539 1248 
C 3539 1946 3117 2266 2573 2502 
L 1907 2790 
C 1542 2944 1126 3117 1126 3578 
C 1126 3994 1472 4256 2003 4256 
C 2438 4256 2784 4090 3072 3821 
L 3379 4198 
C 3053 4538 2560 4774 2003 4774 
C 1152 4774 525 4256 525 3533 
C 525 2848 1043 2515 1478 2330 
L 2150 2035 
C 2598 1837 2938 1683 2938 1197 
C 2938 742 2573 435 1952 435 
C 1466 435 992 666 659 1018 
L 307 608 
C 710 186 1280 -83 1946 -83 
z
" transform="scale(0.015625)"/>
       </defs>
       <use xlink:href="#NotoSansCJKjp-Regular-38"/>
       <use xlink:href="#NotoSansCJKjp-Regular-2a" transform="translate(87.796875 0)"/>
       <use xlink:href="#NotoSansCJKjp-Regular-2f" transform="translate(117.09375 0)"/>
       <use xlink:href="#NotoSansCJKjp-Regular-34" transform="translate(189.390625 0)"/>
      </g>
     </g>
    </g>
    <g id="xtick_3">
     <g id="line2d_3">
      <g>
       <use xlink:href="#mcfb3b8ac7e" x="214.788528" y="411.99976" style="stroke: #000000; stroke-width: 0.8"/>
      </g>
     </g>
     <g id="text_3">
      <!-- BED -->
      <g transform="translate(205.118216 427.79976) scale(0.1 -0.1)">
       <defs>
        <path id="NotoSansCJKjp-Regular-23" d="M 646 0 
L 2138 0 
C 3187 0 3917 454 3917 1376 
C 3917 2016 3520 2387 2963 2496 
L 2963 2528 
C 3405 2669 3648 3078 3648 3546 
C 3648 4371 2982 4691 2035 4691 
L 646 4691 
L 646 0 
z
M 1235 2701 
L 1235 4224 
L 1958 4224 
C 2694 4224 3066 4019 3066 3469 
C 3066 2989 2739 2701 1933 2701 
L 1235 2701 
z
M 1235 474 
L 1235 2240 
L 2054 2240 
C 2880 2240 3334 1978 3334 1395 
C 3334 762 2861 474 2054 474 
L 1235 474 
z
" transform="scale(0.015625)"/>
        <path id="NotoSansCJKjp-Regular-26" d="M 646 0 
L 3418 0 
L 3418 506 
L 1235 506 
L 1235 2214 
L 3014 2214 
L 3014 2720 
L 1235 2720 
L 1235 4192 
L 3347 4192 
L 3347 4691 
L 646 4691 
L 646 0 
z
" transform="scale(0.015625)"/>
       </defs>
       <use xlink:href="#NotoSansCJKjp-Regular-23"/>
       <use xlink:href="#NotoSansCJKjp-Regular-26" transform="translate(65.703125 0)"/>
       <use xlink:href="#NotoSansCJKjp-Regular-25" transform="translate(124.609375 0)"/>
      </g>
     </g>
    </g>
    <g id="xtick_4">
     <g id="line2d_4">
      <g>
       <use xlink:href="#mcfb3b8ac7e" x="266.639659" y="411.99976" style="stroke: #000000; stroke-width: 0.8"/>
      </g>
     </g>
     <g id="text_4">
      <!-- CURT -->
      <g transform="translate(253.824815 427.79976) scale(0.1 -0.1)">
       <defs>
        <path id="NotoSansCJKjp-Regular-24" d="M 2413 -83 
C 3021 -83 3482 160 3853 589 
L 3526 966 
C 3226 634 2886 435 2438 435 
C 1542 435 979 1178 979 2362 
C 979 3533 1574 4256 2458 4256 
C 2861 4256 3168 4077 3418 3814 
L 3738 4198 
C 3469 4499 3021 4774 2451 4774 
C 1261 4774 371 3859 371 2342 
C 371 819 1242 -83 2413 -83 
z
" transform="scale(0.015625)"/>
        <path id="NotoSansCJKjp-Regular-36" d="M 2310 -83 
C 3264 -83 3994 429 3994 1933 
L 3994 4691 
L 3424 4691 
L 3424 1920 
C 3424 794 2931 435 2310 435 
C 1696 435 1216 794 1216 1920 
L 1216 4691 
L 627 4691 
L 627 1933 
C 627 429 1350 -83 2310 -83 
z
" transform="scale(0.015625)"/>
        <path id="NotoSansCJKjp-Regular-35" d="M 1619 0 
L 2214 0 
L 2214 4192 
L 3635 4192 
L 3635 4691 
L 198 4691 
L 198 4192 
L 1619 4192 
L 1619 0 
z
" transform="scale(0.015625)"/>
       </defs>
       <use xlink:href="#NotoSansCJKjp-Regular-24"/>
       <use xlink:href="#NotoSansCJKjp-Regular-36" transform="translate(62.296875 0)"/>
       <use xlink:href="#NotoSansCJKjp-Regular-33" transform="translate(134.390625 0)"/>
       <use xlink:href="#NotoSansCJKjp-Regular-35" transform="translate(196.390625 0)"/>
      </g>
     </g>
    </g>
    <g id="xtick_5">
     <g id="line2d_5">
      <g>
       <use xlink:href="#mcfb3b8ac7e" x="318.49079" y="411.99976" style="stroke: #000000; stroke-width: 0.8"/>
      </g>
     </g>
     <g id="text_5">
      <!-- U4 -->
      <g transform="translate(312.111102 427.79976) scale(0.1 -0.1)">
       <defs>
        <path id="NotoSansCJKjp-Regular-f6b5" d="M 2176 0 
L 2726 0 
L 2726 1261 
L 3354 1261 
L 3354 1728 
L 2726 1728 
L 2726 4563 
L 2080 4563 
L 128 1645 
L 128 1261 
L 2176 1261 
L 2176 0 
z
M 2176 1728 
L 736 1728 
L 1805 3290 
C 1939 3520 2067 3718 2182 3936 
L 2208 3936 
C 2195 3699 2176 3296 2176 3066 
L 2176 1728 
z
" transform="scale(0.015625)"/>
       </defs>
       <use xlink:href="#NotoSansCJKjp-Regular-36"/>
       <use xlink:href="#NotoSansCJKjp-Regular-f6b5" transform="translate(72.09375 0)"/>
      </g>
     </g>
    </g>
    <g id="xtick_6">
     <g id="line2d_6">
      <g>
       <use xlink:href="#mcfb3b8ac7e" x="370.34192" y="411.99976" style="stroke: #000000; stroke-width: 0.8"/>
      </g>
     </g>
     <g id="text_6">
      <!-- SEAT -->
      <g transform="translate(358.686452 427.79976) scale(0.1 -0.1)">
       <use xlink:href="#NotoSansCJKjp-Regular-34"/>
       <use xlink:href="#NotoSansCJKjp-Regular-26" transform="translate(59.59375 0)"/>
       <use xlink:href="#NotoSansCJKjp-Regular-22" transform="translate(118.5 0)"/>
       <use xlink:href="#NotoSansCJKjp-Regular-35" transform="translate(173.203125 0)"/>
      </g>
     </g>
    </g>
    <g id="xtick_7">
     <g id="line2d_7">
      <g>
       <use xlink:href="#mcfb3b8ac7e" x="422.193051" y="411.99976" style="stroke: #000000; stroke-width: 0.8"/>
      </g>
     </g>
     <g id="text_7">
      <!-- AL2024 -->
      <g transform="translate(405.338364 427.79976) scale(0.1 -0.1)">
       <defs>
        <path id="NotoSansCJKjp-Regular-2d" d="M 646 0 
L 3290 0 
L 3290 506 
L 1235 506 
L 1235 4691 
L 646 4691 
L 646 0 
z
" transform="scale(0.015625)"/>
        <path id="NotoSansCJKjp-Regular-f6b3" d="M 282 0 
L 3232 0 
L 3232 506 
L 1907 506 
C 1670 506 1382 480 1139 461 
C 2221 1594 3008 2451 3008 3309 
C 3008 4115 2477 4646 1638 4646 
C 1043 4646 634 4378 256 3955 
L 595 3629 
C 858 3930 1184 4173 1568 4173 
C 2150 4173 2432 3802 2432 3283 
C 2432 2534 1658 1715 282 346 
L 282 0 
z
" transform="scale(0.015625)"/>
        <path id="NotoSansCJKjp-Regular-f6b1" d="M 1779 -83 
C 2688 -83 3238 768 3238 2298 
C 3238 3821 2688 4646 1779 4646 
C 864 4646 320 3827 320 2298 
C 320 768 864 -83 1779 -83 
z
M 1779 390 
C 1248 390 883 960 883 2298 
C 883 3635 1248 4179 1779 4179 
C 2310 4179 2675 3635 2675 2298 
C 2675 960 2310 390 1779 390 
z
" transform="scale(0.015625)"/>
       </defs>
       <use xlink:href="#NotoSansCJKjp-Regular-22"/>
       <use xlink:href="#NotoSansCJKjp-Regular-2d" transform="translate(60.796875 0)"/>
       <use xlink:href="#NotoSansCJKjp-Regular-f6b3" transform="translate(115.09375 0)"/>
       <use xlink:href="#NotoSansCJKjp-Regular-f6b1" transform="translate(170.59375 0)"/>
       <use xlink:href="#NotoSansCJKjp-Regular-f6b3" transform="translate(226.09375 0)"/>
       <use xlink:href="#NotoSansCJKjp-Regular-f6b5" transform="translate(281.59375 0)"/>
      </g>
     </g>
    </g>
    <g id="xtick_8">
     <g id="line2d_8">
      <g>
       <use xlink:href="#mcfb3b8ac7e" x="474.044182" y="411.99976" style="stroke: #000000; stroke-width: 0.8"/>
      </g>
     </g>
     <g id="text_8">
      <!-- AL5052 -->
      <g transform="translate(457.189494 427.79976) scale(0.1 -0.1)">
       <defs>
        <path id="NotoSansCJKjp-Regular-f6b6" d="M 1677 -83 
C 2464 -83 3213 474 3213 1459 
C 3213 2445 2573 2886 1798 2886 
C 1517 2886 1306 2822 1094 2701 
L 1216 4058 
L 2982 4058 
L 2982 4563 
L 704 4563 
L 550 2368 
L 864 2170 
C 1133 2349 1331 2451 1645 2451 
C 2234 2451 2618 2074 2618 1440 
C 2618 806 2176 403 1619 403 
C 1075 403 730 653 467 922 
L 173 538 
C 493 224 941 -83 1677 -83 
z
" transform="scale(0.015625)"/>
       </defs>
       <use xlink:href="#NotoSansCJKjp-Regular-22"/>
       <use xlink:href="#NotoSansCJKjp-Regular-2d" transform="translate(60.796875 0)"/>
       <use xlink:href="#NotoSansCJKjp-Regular-f6b6" transform="translate(115.09375 0)"/>
       <use xlink:href="#NotoSansCJKjp-Regular-f6b1" transform="translate(170.59375 0)"/>
       <use xlink:href="#NotoSansCJKjp-Regular-f6b6" transform="translate(226.09375 0)"/>
       <use xlink:href="#NotoSansCJKjp-Regular-f6b3" transform="translate(281.59375 0)"/>
      </g>
     </g>
    </g>
    <g id="xtick_9">
     <g id="line2d_9">
      <g>
       <use xlink:href="#mcfb3b8ac7e" x="525.895313" y="411.99976" style="stroke: #000000; stroke-width: 0.8"/>
      </g>
     </g>
     <g id="text_9">
      <!-- AL7075 -->
      <g transform="translate(509.040625 427.79976) scale(0.1 -0.1)">
       <defs>
        <path id="NotoSansCJKjp-Regular-f6b8" d="M 1267 0 
L 1875 0 
C 1952 1779 2176 2822 3251 4205 
L 3251 4563 
L 314 4563 
L 314 4058 
L 2592 4058 
C 1690 2810 1350 1722 1267 0 
z
" transform="scale(0.015625)"/>
       </defs>
       <use xlink:href="#NotoSansCJKjp-Regular-22"/>
       <use xlink:href="#NotoSansCJKjp-Regular-2d" transform="translate(60.796875 0)"/>
       <use xlink:href="#NotoSansCJKjp-Regular-f6b8" transform="translate(115.09375 0)"/>
       <use xlink:href="#NotoSansCJKjp-Regular-f6b1" transform="translate(170.59375 0)"/>
       <use xlink:href="#NotoSansCJKjp-Regular-f6b8" transform="translate(226.09375 0)"/>
       <use xlink:href="#NotoSansCJKjp-Regular-f6b6" transform="translate(281.59375 0)"/>
      </g>
     </g>
    </g>
    <g id="xtick_10">
     <g id="line2d_10">
      <g>
       <use xlink:href="#mcfb3b8ac7e" x="577.746443" y="411.99976" style="stroke: #000000; stroke-width: 0.8"/>
      </g>
     </g>
     <g id="text_10">
      <!-- O2TANK -->
      <g transform="translate(558.606599 427.79976) scale(0.1 -0.1)">
       <defs>
        <path id="NotoSansCJKjp-Regular-30" d="M 2374 -83 
C 3552 -83 4378 858 4378 2362 
C 4378 3866 3552 4774 2374 4774 
C 1197 4774 371 3866 371 2362 
C 371 858 1197 -83 2374 -83 
z
M 2374 435 
C 1530 435 979 1190 979 2362 
C 979 3533 1530 4256 2374 4256 
C 3219 4256 3770 3533 3770 2362 
C 3770 1190 3219 435 2374 435 
z
" transform="scale(0.015625)"/>
        <path id="NotoSansCJKjp-Regular-2c" d="M 646 0 
L 1235 0 
L 1235 1485 
L 2042 2445 
L 3450 0 
L 4109 0 
L 2413 2912 
L 3885 4691 
L 3213 4691 
L 1248 2336 
L 1235 2336 
L 1235 4691 
L 646 4691 
L 646 0 
z
" transform="scale(0.015625)"/>
       </defs>
       <use xlink:href="#NotoSansCJKjp-Regular-30"/>
       <use xlink:href="#NotoSansCJKjp-Regular-f6b3" transform="translate(74.203125 0)"/>
       <use xlink:href="#NotoSansCJKjp-Regular-35" transform="translate(129.703125 0)"/>
       <use xlink:href="#NotoSansCJKjp-Regular-22" transform="translate(185.109375 0)"/>
       <use xlink:href="#NotoSansCJKjp-Regular-2f" transform="translate(245.90625 0)"/>
       <use xlink:href="#NotoSansCJKjp-Regular-2c" transform="translate(318.203125 0)"/>
      </g>
     </g>
    </g>
    <g id="xtick_11">
     <g id="line2d_11">
      <g>
       <use xlink:href="#mcfb3b8ac7e" x="629.597574" y="411.99976" style="stroke: #000000; stroke-width: 0.8"/>
      </g>
     </g>
     <g id="text_11">
      <!-- H1 -->
      <g transform="translate(623.18273 427.79976) scale(0.1 -0.1)">
       <defs>
        <path id="NotoSansCJKjp-Regular-29" d="M 646 0 
L 1235 0 
L 1235 2214 
L 3424 2214 
L 3424 0 
L 4019 0 
L 4019 4691 
L 3424 4691 
L 3424 2726 
L 1235 2726 
L 1235 4691 
L 646 4691 
L 646 0 
z
" transform="scale(0.015625)"/>
        <path id="NotoSansCJKjp-Regular-f6b2" d="M 563 0 
L 3136 0 
L 3136 486 
L 2195 486 
L 2195 4563 
L 1747 4563 
C 1491 4410 1190 4301 774 4224 
L 774 3853 
L 1613 3853 
L 1613 486 
L 563 486 
L 563 0 
z
" transform="scale(0.015625)"/>
       </defs>
       <use xlink:href="#NotoSansCJKjp-Regular-29"/>
       <use xlink:href="#NotoSansCJKjp-Regular-f6b2" transform="translate(72.796875 0)"/>
      </g>
     </g>
    </g>
    <g id="xtick_12">
     <g id="line2d_12">
      <g>
       <use xlink:href="#mcfb3b8ac7e" x="681.448705" y="411.99976" style="stroke: #000000; stroke-width: 0.8"/>
      </g>
     </g>
     <g id="text_12">
      <!-- H2 -->
      <g transform="translate(675.033861 427.79976) scale(0.1 -0.1)">
       <use xlink:href="#NotoSansCJKjp-Regular-29"/>
       <use xlink:href="#NotoSansCJKjp-Regular-f6b3" transform="translate(72.796875 0)"/>
      </g>
     </g>
    </g>
    <g id="xtick_13">
     <g id="line2d_13">
      <g>
       <use xlink:href="#mcfb3b8ac7e" x="733.299835" y="411.99976" style="stroke: #000000; stroke-width: 0.8"/>
      </g>
     </g>
     <g id="text_13">
      <!-- H3 -->
      <g transform="translate(726.884991 427.79976) scale(0.1 -0.1)">
       <defs>
        <path id="NotoSansCJKjp-Regular-f6b4" d="M 1683 -83 
C 2522 -83 3194 403 3194 1216 
C 3194 1843 2752 2246 2202 2381 
L 2202 2406 
C 2694 2586 3034 2938 3034 3494 
C 3034 4224 2458 4646 1664 4646 
C 1126 4646 710 4403 358 4077 
L 672 3706 
C 941 3981 1267 4173 1645 4173 
C 2138 4173 2438 3891 2438 3450 
C 2438 2970 2112 2598 1139 2598 
L 1139 2144 
C 2227 2144 2598 1786 2598 1242 
C 2598 723 2208 403 1645 403 
C 1114 403 762 659 486 941 
L 186 563 
C 493 224 954 -83 1683 -83 
z
" transform="scale(0.015625)"/>
       </defs>
       <use xlink:href="#NotoSansCJKjp-Regular-29"/>
       <use xlink:href="#NotoSansCJKjp-Regular-f6b4" transform="translate(72.796875 0)"/>
      </g>
     </g>
    </g>
    <g id="xtick_14">
     <g id="line2d_14">
      <g>
       <use xlink:href="#mcfb3b8ac7e" x="785.150966" y="411.99976" style="stroke: #000000; stroke-width: 0.8"/>
      </g>
     </g>
     <g id="text_14">
      <!-- H4 -->
      <g transform="translate(778.736122 427.79976) scale(0.1 -0.1)">
       <use xlink:href="#NotoSansCJKjp-Regular-29"/>
       <use xlink:href="#NotoSansCJKjp-Regular-f6b5" transform="translate(72.796875 0)"/>
      </g>
     </g>
    </g>
    <g id="xtick_15">
     <g id="line2d_15">
      <g>
       <use xlink:href="#mcfb3b8ac7e" x="837.002097" y="411.99976" style="stroke: #000000; stroke-width: 0.8"/>
      </g>
     </g>
     <g id="text_15">
      <!-- H5 -->
      <g transform="translate(830.587253 427.79976) scale(0.1 -0.1)">
       <use xlink:href="#NotoSansCJKjp-Regular-29"/>
       <use xlink:href="#NotoSansCJKjp-Regular-f6b6" transform="translate(72.796875 0)"/>
      </g>
     </g>
    </g>
    <g id="xtick_16">
     <g id="line2d_16">
      <g>
       <use xlink:href="#mcfb3b8ac7e" x="888.853227" y="411.99976" style="stroke: #000000; stroke-width: 0.8"/>
      </g>
     </g>
     <g id="text_16">
      <!-- H6 -->
      <g transform="translate(882.438384 427.79976) scale(0.1 -0.1)">
       <defs>
        <path id="NotoSansCJKjp-Regular-f6b7" d="M 1920 -83 
C 2650 -83 3264 506 3264 1376 
C 3264 2310 2752 2784 1958 2784 
C 1594 2784 1184 2566 896 2202 
C 922 3661 1459 4160 2106 4160 
C 2394 4160 2675 4026 2854 3802 
L 3181 4166 
C 2925 4442 2573 4646 2080 4646 
C 1171 4646 346 3942 346 2112 
C 346 646 1018 -83 1920 -83 
z
M 909 1741 
C 1222 2189 1574 2349 1869 2349 
C 2432 2349 2720 1971 2720 1376 
C 2720 774 2368 378 1914 378 
C 1338 378 986 851 909 1741 
z
" transform="scale(0.015625)"/>
       </defs>
       <use xlink:href="#NotoSansCJKjp-Regular-29"/>
       <use xlink:href="#NotoSansCJKjp-Regular-f6b7" transform="translate(72.796875 0)"/>
      </g>
     </g>
    </g>
    <g id="xtick_17">
     <g id="line2d_17">
      <g>
       <use xlink:href="#mcfb3b8ac7e" x="940.704358" y="411.99976" style="stroke: #000000; stroke-width: 0.8"/>
      </g>
     </g>
     <g id="text_17">
      <!-- H7 -->
      <g transform="translate(934.289514 427.79976) scale(0.1 -0.1)">
       <use xlink:href="#NotoSansCJKjp-Regular-29"/>
       <use xlink:href="#NotoSansCJKjp-Regular-f6b8" transform="translate(72.796875 0)"/>
      </g>
     </g>
    </g>
   </g>
   <g id="matplotlib.axis_2">
    <g id="ytick_1">
     <g id="line2d_18">
      <path d="M 46.790865 411.99976 
L 1004.99976 411.99976 
" clip-path="url(#p8c725fe90a)" style="fill: none; stroke: #d8dde3; stroke-width: 0.6; stroke-linecap: square"/>
     </g>
     <g id="line2d_19">
      <defs>
       <path id="mc0412b75f6" d="M 0 0 
L -3.5 0 
" style="stroke: #000000; stroke-width: 0.8"/>
      </defs>
      <g>
       <use xlink:href="#mc0412b75f6" x="46.790865" y="411.99976" style="stroke: #000000; stroke-width: 0.8"/>
      </g>
     </g>
     <g id="text_18">
      <!-- 0 -->
      <g transform="translate(34.240865 416.39976) scale(0.1 -0.1)">
       <defs>
        <path id="NotoSansCJKjp-Regular-11" d="M 1779 -83 
C 2669 -83 3238 723 3238 2362 
C 3238 3987 2669 4774 1779 4774 
C 883 4774 320 3987 320 2362 
C 320 723 883 -83 1779 -83 
z
M 1779 390 
C 1248 390 883 986 883 2362 
C 883 3731 1248 4314 1779 4314 
C 2310 4314 2675 3731 2675 2362 
C 2675 986 2310 390 1779 390 
z
" transform="scale(0.015625)"/>
       </defs>
       <use xlink:href="#NotoSansCJKjp-Regular-11"/>
      </g>
     </g>
    </g>
    <g id="ytick_2">
     <g id="line2d_20">
      <path d="M 46.790865 337.192379 
L 1004.99976 337.192379 
" clip-path="url(#p8c725fe90a)" style="fill: none; stroke: #d8dde3; stroke-width: 0.6; stroke-linecap: square"/>
     </g>
     <g id="line2d_21">
      <g>
       <use xlink:href="#mc0412b75f6" x="46.790865" y="337.192379" style="stroke: #000000; stroke-width: 0.8"/>
      </g>
     </g>
     <g id="text_19">
      <!-- 200 -->
      <g transform="translate(23.140865 341.592379) scale(0.1 -0.1)">
       <defs>
        <path id="NotoSansCJKjp-Regular-13" d="M 282 0 
L 3232 0 
L 3232 506 
L 1933 506 
C 1696 506 1408 480 1165 461 
C 2266 1504 3008 2458 3008 3398 
C 3008 4230 2477 4774 1638 4774 
C 1043 4774 634 4506 256 4090 
L 595 3757 
C 858 4070 1184 4301 1568 4301 
C 2150 4301 2432 3910 2432 3373 
C 2432 2566 1754 1632 282 346 
L 282 0 
z
" transform="scale(0.015625)"/>
       </defs>
       <use xlink:href="#NotoSansCJKjp-Regular-13"/>
       <use xlink:href="#NotoSansCJKjp-Regular-11" transform="translate(55.5 0)"/>
       <use xlink:href="#NotoSansCJKjp-Regular-11" transform="translate(111 0)"/>
      </g>
     </g>
    </g>
    <g id="ytick_3">
     <g id="line2d_22">
      <path d="M 46.790865 262.384998 
L 1004.99976 262.384998 
" clip-path="url(#p8c725fe90a)" style="fill: none; stroke: #d8dde3; stroke-width: 0.6; stroke-linecap: square"/>
     </g>
     <g id="line2d_23">
      <g>
       <use xlink:href="#mc0412b75f6" x="46.790865" y="262.384998" style="stroke: #000000; stroke-width: 0.8"/>
      </g>
     </g>
     <g id="text_20">
      <!-- 400 -->
      <g transform="translate(23.140865 266.784998) scale(0.1 -0.1)">
       <defs>
        <path id="NotoSansCJKjp-Regular-15" d="M 2176 0 
L 2726 0 
L 2726 1293 
L 3354 1293 
L 3354 1760 
L 2726 1760 
L 2726 4691 
L 2080 4691 
L 128 1677 
L 128 1293 
L 2176 1293 
L 2176 0 
z
M 2176 1760 
L 736 1760 
L 1805 3360 
C 1939 3590 2067 3827 2182 4051 
L 2208 4051 
C 2195 3814 2176 3430 2176 3200 
L 2176 1760 
z
" transform="scale(0.015625)"/>
       </defs>
       <use xlink:href="#NotoSansCJKjp-Regular-15"/>
       <use xlink:href="#NotoSansCJKjp-Regular-11" transform="translate(55.5 0)"/>
       <use xlink:href="#NotoSansCJKjp-Regular-11" transform="translate(111 0)"/>
      </g>
     </g>
    </g>
    <g id="ytick_4">
     <g id="line2d_24">
      <path d="M 46.790865 187.577617 
L 1004.99976 187.577617 
" clip-path="url(#p8c725fe90a)" style="fill: none; stroke: #d8dde3; stroke-width: 0.6; stroke-linecap: square"/>
     </g>
     <g id="line2d_25">
      <g>
       <use xlink:href="#mc0412b75f6" x="46.790865" y="187.577617" style="stroke: #000000; stroke-width: 0.8"/>
      </g>
     </g>
     <g id="text_21">
      <!-- 600 -->
      <g transform="translate(23.140865 191.977617) scale(0.1 -0.1)">
       <defs>
        <path id="NotoSansCJKjp-Regular-17" d="M 1926 -83 
C 2656 -83 3277 531 3277 1440 
C 3277 2426 2765 2912 1971 2912 
C 1606 2912 1197 2701 909 2349 
C 934 3802 1466 4294 2118 4294 
C 2400 4294 2682 4154 2861 3936 
L 3194 4294 
C 2931 4576 2579 4774 2093 4774 
C 1184 4774 358 4077 358 2240 
C 358 691 1030 -83 1926 -83 
z
M 922 1882 
C 1229 2317 1587 2477 1875 2477 
C 2445 2477 2720 2074 2720 1440 
C 2720 800 2374 378 1926 378 
C 1338 378 986 909 922 1882 
z
" transform="scale(0.015625)"/>
       </defs>
       <use xlink:href="#NotoSansCJKjp-Regular-17"/>
       <use xlink:href="#NotoSansCJKjp-Regular-11" transform="translate(55.5 0)"/>
       <use xlink:href="#NotoSansCJKjp-Regular-11" transform="translate(111 0)"/>
      </g>
     </g>
    </g>
    <g id="ytick_5">
     <g id="line2d_26">
      <path d="M 46.790865 112.770237 
L 1004.99976 112.770237 
" clip-path="url(#p8c725fe90a)" style="fill: none; stroke: #d8dde3; stroke-width: 0.6; stroke-linecap: square"/>
     </g>
     <g id="line2d_27">
      <g>
       <use xlink:href="#mc0412b75f6" x="46.790865" y="112.770237" style="stroke: #000000; stroke-width: 0.8"/>
      </g>
     </g>
     <g id="text_22">
      <!-- 800 -->
      <g transform="translate(23.140865 117.170237) scale(0.1 -0.1)">
       <defs>
        <path id="NotoSansCJKjp-Regular-19" d="M 1792 -83 
C 2669 -83 3258 448 3258 1126 
C 3258 1773 2880 2125 2470 2362 
L 2470 2394 
C 2746 2611 3091 3034 3091 3526 
C 3091 4250 2605 4762 1805 4762 
C 1075 4762 518 4282 518 3571 
C 518 3078 813 2726 1152 2490 
L 1152 2464 
C 723 2234 294 1792 294 1165 
C 294 442 922 -83 1792 -83 
z
M 2112 2547 
C 1555 2765 1050 3014 1050 3571 
C 1050 4026 1363 4326 1798 4326 
C 2298 4326 2592 3962 2592 3494 
C 2592 3149 2426 2829 2112 2547 
z
M 1798 352 
C 1235 352 813 717 813 1216 
C 813 1664 1082 2035 1459 2278 
C 2125 2010 2701 1779 2701 1146 
C 2701 678 2342 352 1798 352 
z
" transform="scale(0.015625)"/>
       </defs>
       <use xlink:href="#NotoSansCJKjp-Regular-19"/>
       <use xlink:href="#NotoSansCJKjp-Regular-11" transform="translate(55.5 0)"/>
       <use xlink:href="#NotoSansCJKjp-Regular-11" transform="translate(111 0)"/>
      </g>
     </g>
    </g>
    <g id="ytick_6">
     <g id="line2d_28">
      <path d="M 46.790865 37.962856 
L 1004.99976 37.962856 
" clip-path="url(#p8c725fe90a)" style="fill: none; stroke: #d8dde3; stroke-width: 0.6; stroke-linecap: square"/>
     </g>
     <g id="line2d_29">
      <g>
       <use xlink:href="#mc0412b75f6" x="46.790865" y="37.962856" style="stroke: #000000; stroke-width: 0.8"/>
      </g>
     </g>
     <g id="text_23">
      <!-- 1000 -->
      <g transform="translate(17.590865 42.362856) scale(0.1 -0.1)">
       <defs>
        <path id="NotoSansCJKjp-Regular-12" d="M 563 0 
L 3136 0 
L 3136 486 
L 2195 486 
L 2195 4691 
L 1747 4691 
C 1491 4544 1190 4435 774 4358 
L 774 3987 
L 1613 3987 
L 1613 486 
L 563 486 
L 563 0 
z
" transform="scale(0.015625)"/>
       </defs>
       <use xlink:href="#NotoSansCJKjp-Regular-12"/>
       <use xlink:href="#NotoSansCJKjp-Regular-11" transform="translate(55.5 0)"/>
       <use xlink:href="#NotoSansCJKjp-Regular-11" transform="translate(111 0)"/>
       <use xlink:href="#NotoSansCJKjp-Regular-11" transform="translate(166.5 0)"/>
      </g>
     </g>
    </g>
    <g id="text_24">
     <!-- SURF 输入 HRRPUA 上限（kW/m2） -->
     <g transform="translate(11.80024 297.719844) rotate(-90) scale(0.1 -0.1)">
      <defs>
       <path id="NotoSansCJKjp-Regular-27" d="M 646 0 
L 1235 0 
L 1235 2106 
L 3027 2106 
L 3027 2605 
L 1235 2605 
L 1235 4192 
L 3347 4192 
L 3347 4691 
L 646 4691 
L 646 0 
z
" transform="scale(0.015625)"/>
       <path id="NotoSansCJKjp-Regular-1" transform="scale(0.015625)"/>
       <path id="NotoSansCJKjp-Regular-9c1f" d="M 4698 2861 
L 4698 544 
L 5075 544 
L 5075 2861 
L 4698 2861 
z
M 5510 3098 
L 5510 32 
C 5510 -38 5485 -58 5414 -64 
C 5331 -64 5075 -64 4781 -58 
C 4845 -173 4896 -346 4909 -454 
C 5286 -454 5542 -448 5696 -384 
C 5856 -314 5901 -198 5901 32 
L 5901 3098 
L 5510 3098 
z
M 454 2112 
C 506 2163 691 2202 896 2202 
L 1402 2202 
L 1402 1318 
C 973 1216 576 1126 269 1069 
L 378 614 
L 1402 877 
L 1402 -506 
L 1824 -506 
L 1824 986 
L 2355 1126 
L 2317 1530 
L 1824 1414 
L 1824 2202 
L 2336 2202 
L 2336 2643 
L 1824 2643 
L 1824 3616 
L 1402 3616 
L 1402 2643 
L 845 2643 
C 1011 3091 1171 3622 1299 4173 
L 2349 4173 
L 2349 4608 
L 1389 4608 
C 1440 4838 1478 5069 1510 5293 
L 1062 5370 
C 1037 5120 1005 4858 960 4608 
L 301 4608 
L 301 4173 
L 877 4173 
C 762 3642 640 3206 582 3040 
C 493 2752 416 2547 307 2515 
C 358 2406 429 2202 454 2112 
z
M 4218 5395 
C 3795 4723 3002 4090 2227 3731 
C 2342 3635 2470 3488 2541 3373 
C 2714 3462 2886 3565 3053 3674 
L 3053 3405 
L 5421 3405 
L 5421 3718 
C 5581 3622 5754 3526 5926 3437 
C 5984 3565 6118 3718 6234 3814 
C 5562 4102 4954 4467 4467 5011 
L 4608 5222 
L 4218 5395 
z
M 3238 3802 
C 3597 4064 3936 4371 4218 4698 
C 4544 4339 4896 4051 5286 3802 
L 3238 3802 
z
M 3930 2598 
L 3930 2093 
L 3053 2093 
L 3053 2598 
L 3930 2598 
z
M 2656 2982 
L 2656 -486 
L 3053 -486 
L 3053 832 
L 3930 832 
L 3930 -6 
C 3930 -64 3917 -77 3866 -83 
C 3802 -83 3635 -83 3437 -77 
C 3494 -192 3546 -365 3558 -474 
C 3834 -474 4032 -474 4166 -403 
C 4301 -333 4333 -211 4333 -6 
L 4333 2982 
L 2656 2982 
z
M 3053 1722 
L 3930 1722 
L 3930 1197 
L 3053 1197 
L 3053 1722 
z
" transform="scale(0.015625)"/>
       <path id="NotoSansCJKjp-Regular-2a8c" d="M 2842 3731 
C 2451 1920 1651 627 230 -115 
C 358 -205 582 -403 666 -499 
C 1946 250 2758 1427 3238 3085 
C 3533 1869 4218 461 5798 -493 
C 5882 -371 6074 -173 6189 -83 
C 3661 1414 3514 3846 3514 4986 
L 1459 4986 
L 1459 4499 
L 3040 4499 
C 3053 4256 3078 3981 3123 3680 
L 2842 3731 
z
" transform="scale(0.015625)"/>
       <path id="NotoSansCJKjp-Regular-31" d="M 646 0 
L 1235 0 
L 1235 1869 
L 2010 1869 
C 3040 1869 3738 2323 3738 3315 
C 3738 4339 3034 4691 1984 4691 
L 646 4691 
L 646 0 
z
M 1235 2349 
L 1235 4211 
L 1907 4211 
C 2733 4211 3149 4000 3149 3315 
C 3149 2643 2758 2349 1933 2349 
L 1235 2349 
z
" transform="scale(0.015625)"/>
       <path id="NotoSansCJKjp-Regular-2515" d="M 2733 5280 
L 2733 275 
L 326 275 
L 326 -205 
L 6080 -205 
L 6080 275 
L 3238 275 
L 3238 2822 
L 5638 2822 
L 5638 3302 
L 3238 3302 
L 3238 5280 
L 2733 5280 
z
" transform="scale(0.015625)"/>
       <path id="NotoSansCJKjp-Regular-a87e" d="M 3309 3482 
L 5261 3482 
L 5261 2675 
L 3309 2675 
L 3309 3482 
z
M 3309 3885 
L 3309 4672 
L 5261 4672 
L 5261 3885 
L 3309 3885 
z
M 5632 2106 
C 5414 1862 5082 1562 4774 1325 
C 4634 1613 4518 1926 4422 2253 
L 5734 2253 
L 5734 5094 
L 2842 5094 
L 2842 179 
L 2118 45 
L 2278 -422 
C 2906 -282 3757 -90 4570 96 
L 4531 512 
L 3309 269 
L 3309 2253 
L 4000 2253 
C 4314 992 4896 -6 5850 -493 
C 5920 -371 6061 -186 6170 -96 
C 5670 128 5274 506 4966 986 
C 5299 1222 5696 1536 6003 1830 
L 5632 2106 
z
M 525 5101 
L 525 -512 
L 979 -512 
L 979 4666 
L 1920 4666 
C 1766 4224 1555 3635 1350 3168 
C 1856 2662 1990 2240 1990 1888 
C 1990 1696 1952 1530 1850 1459 
C 1779 1414 1702 1402 1619 1389 
C 1504 1389 1363 1389 1197 1408 
C 1274 1280 1318 1088 1325 966 
C 1485 960 1664 954 1805 973 
C 1939 992 2067 1024 2163 1094 
C 2349 1222 2438 1485 2432 1843 
C 2432 2240 2310 2694 1792 3226 
C 2035 3731 2298 4390 2502 4922 
L 2182 5120 
L 2106 5101 
L 525 5101 
z
" transform="scale(0.015625)"/>
       <path id="NotoSansCJKjp-Regular-e6ae" d="M 4448 2432 
C 4448 1184 4954 166 5722 -614 
L 6106 -416 
C 5370 346 4915 1293 4915 2432 
C 4915 3571 5370 4518 6106 5280 
L 5722 5478 
C 4954 4698 4448 3680 4448 2432 
z
" transform="scale(0.015625)"/>
       <path id="NotoSansCJKjp-Regular-4c" d="M 589 0 
L 1165 0 
L 1165 915 
L 1818 1677 
L 2835 0 
L 3469 0 
L 2157 2074 
L 3315 3475 
L 2662 3475 
L 1190 1645 
L 1165 1645 
L 1165 5094 
L 589 5094 
L 589 0 
z
" transform="scale(0.015625)"/>
       <path id="NotoSansCJKjp-Regular-10" d="M 70 -1146 
L 499 -1146 
L 2413 5082 
L 1990 5082 
L 70 -1146 
z
" transform="scale(0.015625)"/>
       <path id="NotoSansCJKjp-Regular-4e" d="M 589 0 
L 1178 0 
L 1178 2522 
C 1491 2880 1786 3053 2048 3053 
C 2490 3053 2694 2778 2694 2125 
L 2694 0 
L 3277 0 
L 3277 2522 
C 3603 2880 3885 3053 4154 3053 
C 4595 3053 4800 2778 4800 2125 
L 4800 0 
L 5382 0 
L 5382 2202 
C 5382 3085 5043 3565 4333 3565 
C 3904 3565 3546 3290 3181 2899 
C 3040 3309 2758 3565 2221 3565 
C 1805 3565 1446 3302 1139 2970 
L 1126 2970 
L 1069 3475 
L 589 3475 
L 589 0 
z
" transform="scale(0.015625)"/>
       <path id="NotoSansCJKjp-Regular-e6af" d="M 1952 2432 
C 1952 3680 1446 4698 678 5478 
L 294 5280 
C 1030 4518 1485 3571 1485 2432 
C 1485 1293 1030 346 294 -416 
L 678 -614 
C 1446 166 1952 1184 1952 2432 
z
" transform="scale(0.015625)"/>
      </defs>
      <use xlink:href="#NotoSansCJKjp-Regular-34"/>
      <use xlink:href="#NotoSansCJKjp-Regular-36" transform="translate(59.59375 0)"/>
      <use xlink:href="#NotoSansCJKjp-Regular-33" transform="translate(131.6875 0)"/>
      <use xlink:href="#NotoSansCJKjp-Regular-27" transform="translate(195.1875 0)"/>
      <use xlink:href="#NotoSansCJKjp-Regular-1" transform="translate(250.390625 0)"/>
      <use xlink:href="#NotoSansCJKjp-Regular-9c1f" transform="translate(272.796875 0)"/>
      <use xlink:href="#NotoSansCJKjp-Regular-2a8c" transform="translate(372.796875 0)"/>
      <use xlink:href="#NotoSansCJKjp-Regular-1" transform="translate(472.796875 0)"/>
      <use xlink:href="#NotoSansCJKjp-Regular-29" transform="translate(495.203125 0)"/>
      <use xlink:href="#NotoSansCJKjp-Regular-33" transform="translate(568 0)"/>
      <use xlink:href="#NotoSansCJKjp-Regular-33" transform="translate(631.5 0)"/>
      <use xlink:href="#NotoSansCJKjp-Regular-31" transform="translate(695 0)"/>
      <use xlink:href="#NotoSansCJKjp-Regular-36" transform="translate(758.296875 0)"/>
      <use xlink:href="#NotoSansCJKjp-Regular-22" transform="translate(828.59375 0)"/>
      <use xlink:href="#NotoSansCJKjp-Regular-1" transform="translate(889.390625 0)"/>
      <use xlink:href="#NotoSansCJKjp-Regular-2515" transform="translate(911.796875 0)"/>
      <use xlink:href="#NotoSansCJKjp-Regular-a87e" transform="translate(1011.796875 0)"/>
      <use xlink:href="#NotoSansCJKjp-Regular-e6ae" transform="translate(1111.796875 0)"/>
      <use xlink:href="#NotoSansCJKjp-Regular-4c" transform="translate(1211.796875 0)"/>
      <use xlink:href="#NotoSansCJKjp-Regular-38" transform="translate(1267 0)"/>
      <use xlink:href="#NotoSansCJKjp-Regular-10" transform="translate(1351.5 0)"/>
      <use xlink:href="#NotoSansCJKjp-Regular-4e" transform="translate(1390.703125 0)"/>
      <use xlink:href="#NotoSansCJKjp-Regular-f6b3" transform="translate(1483.296875 0)"/>
      <use xlink:href="#NotoSansCJKjp-Regular-e6af" transform="translate(1538.796875 0)"/>
     </g>
    </g>
   </g>
   <g id="patch_20">
    <path d="M 46.790865 411.99976 
L 46.790865 19.56024 
" style="fill: none; stroke: #000000; stroke-width: 0.8; stroke-linejoin: miter; stroke-linecap: square"/>
   </g>
   <g id="patch_21">
    <path d="M 1004.99976 411.99976 
L 1004.99976 19.56024 
" style="fill: none; stroke: #000000; stroke-width: 0.8; stroke-linejoin: miter; stroke-linecap: square"/>
   </g>
   <g id="patch_22">
    <path d="M 46.790865 411.99976 
L 1004.99976 411.99976 
" style="fill: none; stroke: #000000; stroke-width: 0.8; stroke-linejoin: miter; stroke-linecap: square"/>
   </g>
   <g id="patch_23">
    <path d="M 46.790865 19.56024 
L 1004.99976 19.56024 
" style="fill: none; stroke: #000000; stroke-width: 0.8; stroke-linejoin: miter; stroke-linecap: square"/>
   </g>
   <g id="text_25">
    <!-- 840 -->
    <g transform="translate(104.426267 95.352613) scale(0.08 -0.08)">
     <use xlink:href="#NotoSansCJKjp-Regular-19"/>
     <use xlink:href="#NotoSansCJKjp-Regular-15" transform="translate(55.5 0)"/>
     <use xlink:href="#NotoSansCJKjp-Regular-11" transform="translate(111 0)"/>
    </g>
   </g>
   <g id="text_26">
    <!-- 806 -->
    <g transform="translate(156.277398 108.069868) scale(0.08 -0.08)">
     <use xlink:href="#NotoSansCJKjp-Regular-19"/>
     <use xlink:href="#NotoSansCJKjp-Regular-11" transform="translate(55.5 0)"/>
     <use xlink:href="#NotoSansCJKjp-Regular-17" transform="translate(111 0)"/>
    </g>
   </g>
   <g id="text_27">
    <!-- 790 -->
    <g transform="translate(208.128528 114.054458) scale(0.08 -0.08)">
     <defs>
      <path id="NotoSansCJKjp-Regular-18" d="M 1267 0 
L 1875 0 
C 1952 1837 2150 2931 3251 4339 
L 3251 4691 
L 314 4691 
L 314 4192 
L 2592 4192 
C 1670 2912 1350 1779 1267 0 
z
" transform="scale(0.015625)"/>
      <path id="NotoSansCJKjp-Regular-1a" d="M 1504 -83 
C 2381 -83 3206 646 3206 2547 
C 3206 4038 2528 4774 1626 4774 
C 896 4774 282 4166 282 3251 
C 282 2285 794 1779 1574 1779 
C 1965 1779 2368 2003 2656 2349 
C 2611 896 2086 403 1485 403 
C 1178 403 896 538 691 762 
L 371 397 
C 634 122 992 -83 1504 -83 
z
M 2650 2842 
C 2336 2394 1984 2214 1670 2214 
C 1114 2214 832 2624 832 3251 
C 832 3898 1178 4320 1632 4320 
C 2227 4320 2586 3808 2650 2842 
z
" transform="scale(0.015625)"/>
     </defs>
     <use xlink:href="#NotoSansCJKjp-Regular-18"/>
     <use xlink:href="#NotoSansCJKjp-Regular-1a" transform="translate(55.5 0)"/>
     <use xlink:href="#NotoSansCJKjp-Regular-11" transform="translate(111 0)"/>
    </g>
   </g>
   <g id="text_28">
    <!-- 324 -->
    <g transform="translate(259.979659 288.355655) scale(0.08 -0.08)">
     <defs>
      <path id="NotoSansCJKjp-Regular-14" d="M 1683 -83 
C 2522 -83 3194 416 3194 1254 
C 3194 1901 2752 2310 2202 2445 
L 2202 2477 
C 2701 2650 3034 3034 3034 3603 
C 3034 4346 2458 4774 1664 4774 
C 1126 4774 710 4538 358 4218 
L 672 3846 
C 941 4115 1267 4301 1645 4301 
C 2138 4301 2438 4006 2438 3558 
C 2438 3053 2112 2662 1139 2662 
L 1139 2214 
C 2227 2214 2598 1843 2598 1274 
C 2598 736 2208 403 1645 403 
C 1114 403 762 659 486 941 
L 186 563 
C 493 224 954 -83 1683 -83 
z
" transform="scale(0.015625)"/>
     </defs>
     <use xlink:href="#NotoSansCJKjp-Regular-14"/>
     <use xlink:href="#NotoSansCJKjp-Regular-13" transform="translate(55.5 0)"/>
     <use xlink:href="#NotoSansCJKjp-Regular-15" transform="translate(111 0)"/>
    </g>
   </g>
   <g id="text_29">
    <!-- 840 -->
    <g transform="translate(311.83079 95.352613) scale(0.08 -0.08)">
     <use xlink:href="#NotoSansCJKjp-Regular-19"/>
     <use xlink:href="#NotoSansCJKjp-Regular-15" transform="translate(55.5 0)"/>
     <use xlink:href="#NotoSansCJKjp-Regular-11" transform="translate(111 0)"/>
    </g>
   </g>
   <g id="text_30">
    <!-- 860 -->
    <g transform="translate(363.68192 87.871875) scale(0.08 -0.08)">
     <use xlink:href="#NotoSansCJKjp-Regular-19"/>
     <use xlink:href="#NotoSansCJKjp-Regular-17" transform="translate(55.5 0)"/>
     <use xlink:href="#NotoSansCJKjp-Regular-11" transform="translate(111 0)"/>
    </g>
   </g>
   <g id="text_31">
    <!-- 0 -->
    <g transform="translate(419.973051 409.543612) scale(0.08 -0.08)">
     <use xlink:href="#NotoSansCJKjp-Regular-11"/>
    </g>
   </g>
   <g id="text_32">
    <!-- 0 -->
    <g transform="translate(471.824182 409.543612) scale(0.08 -0.08)">
     <use xlink:href="#NotoSansCJKjp-Regular-11"/>
    </g>
   </g>
   <g id="text_33">
    <!-- 0 -->
    <g transform="translate(523.675313 409.543612) scale(0.08 -0.08)">
     <use xlink:href="#NotoSansCJKjp-Regular-11"/>
    </g>
   </g>
   <g id="text_34">
    <!-- 0 -->
    <g transform="translate(575.526443 409.543612) scale(0.08 -0.08)">
     <use xlink:href="#NotoSansCJKjp-Regular-11"/>
    </g>
   </g>
   <g id="text_35">
    <!-- 0 -->
    <g transform="translate(627.377574 409.543612) scale(0.08 -0.08)">
     <use xlink:href="#NotoSansCJKjp-Regular-11"/>
    </g>
   </g>
   <g id="text_36">
    <!-- 0 -->
    <g transform="translate(679.228705 409.543612) scale(0.08 -0.08)">
     <use xlink:href="#NotoSansCJKjp-Regular-11"/>
    </g>
   </g>
   <g id="text_37">
    <!-- 0 -->
    <g transform="translate(731.079835 409.543612) scale(0.08 -0.08)">
     <use xlink:href="#NotoSansCJKjp-Regular-11"/>
    </g>
   </g>
   <g id="text_38">
    <!-- 0 -->
    <g transform="translate(782.930966 409.543612) scale(0.08 -0.08)">
     <use xlink:href="#NotoSansCJKjp-Regular-11"/>
    </g>
   </g>
   <g id="text_39">
    <!-- 0 -->
    <g transform="translate(834.782097 409.543612) scale(0.08 -0.08)">
     <use xlink:href="#NotoSansCJKjp-Regular-11"/>
    </g>
   </g>
   <g id="text_40">
    <!-- 259 -->
    <g transform="translate(882.193227 312.668054) scale(0.08 -0.08)">
     <defs>
      <path id="NotoSansCJKjp-Regular-16" d="M 1677 -83 
C 2464 -83 3213 499 3213 1523 
C 3213 2560 2573 3021 1798 3021 
C 1517 3021 1306 2950 1094 2835 
L 1216 4192 
L 2982 4192 
L 2982 4691 
L 704 4691 
L 550 2502 
L 864 2304 
C 1133 2483 1331 2579 1645 2579 
C 2234 2579 2618 2182 2618 1510 
C 2618 826 2176 403 1619 403 
C 1075 403 730 653 467 922 
L 173 538 
C 493 224 941 -83 1677 -83 
z
" transform="scale(0.015625)"/>
     </defs>
     <use xlink:href="#NotoSansCJKjp-Regular-13"/>
     <use xlink:href="#NotoSansCJKjp-Regular-16" transform="translate(55.5 0)"/>
     <use xlink:href="#NotoSansCJKjp-Regular-1a" transform="translate(111 0)"/>
    </g>
   </g>
   <g id="text_41">
    <!-- 458 -->
    <g transform="translate(934.044358 238.23471) scale(0.08 -0.08)">
     <use xlink:href="#NotoSansCJKjp-Regular-15"/>
     <use xlink:href="#NotoSansCJKjp-Regular-16" transform="translate(55.5 0)"/>
     <use xlink:href="#NotoSansCJKjp-Regular-19" transform="translate(111 0)"/>
    </g>
   </g>
   <g id="text_42">
    <!-- 当前材料 HRRPUA 输入上限（非时变实测输出） -->
    <g transform="translate(397.555313 13.56024) scale(0.12 -0.12)">
     <defs>
      <path id="NotoSansCJKjp-Regular-438e" d="M 774 4922 
C 1114 4467 1459 3846 1600 3430 
L 2061 3642 
C 1914 4045 1562 4646 1210 5094 
L 774 4922 
z
M 5126 5152 
C 4941 4659 4582 3981 4307 3552 
L 4723 3392 
C 5011 3802 5370 4435 5645 4979 
L 5126 5152 
z
M 736 243 
L 736 -237 
L 5056 -237 
L 5056 -518 
L 5562 -518 
L 5562 3110 
L 3456 3110 
L 3456 5376 
L 2931 5376 
L 2931 3110 
L 864 3110 
L 864 2630 
L 5056 2630 
L 5056 1702 
L 1075 1702 
L 1075 1242 
L 5056 1242 
L 5056 243 
L 736 243 
z
" transform="scale(0.015625)"/>
      <path id="NotoSansCJKjp-Regular-2be5" d="M 3866 3290 
L 3866 666 
L 4314 666 
L 4314 3290 
L 3866 3290 
z
M 5165 3482 
L 5165 90 
C 5165 -6 5133 -32 5030 -32 
C 4922 -38 4576 -38 4186 -26 
C 4256 -154 4333 -358 4358 -486 
C 4851 -493 5178 -480 5370 -403 
C 5568 -326 5638 -192 5638 83 
L 5638 3482 
L 5165 3482 
z
M 4627 5408 
C 4486 5094 4243 4672 4026 4365 
L 2106 4365 
L 2419 4480 
C 2298 4736 2022 5114 1779 5382 
L 1331 5222 
C 1562 4960 1798 4614 1920 4365 
L 339 4365 
L 339 3923 
L 6061 3923 
L 6061 4365 
L 4570 4365 
C 4755 4627 4960 4947 5139 5242 
L 4627 5408 
z
M 2618 1926 
L 2618 1280 
L 1197 1280 
L 1197 1926 
L 2618 1926 
z
M 2618 2304 
L 1197 2304 
L 1197 2938 
L 2618 2938 
L 2618 2304 
z
M 742 3347 
L 742 -480 
L 1197 -480 
L 1197 902 
L 2618 902 
L 2618 45 
C 2618 -38 2592 -64 2502 -64 
C 2419 -70 2125 -70 1798 -58 
C 1862 -179 1933 -365 1965 -486 
C 2394 -486 2682 -480 2854 -403 
C 3034 -333 3085 -205 3085 38 
L 3085 3347 
L 742 3347 
z
" transform="scale(0.015625)"/>
      <path id="NotoSansCJKjp-Regular-514d" d="M 4973 5370 
L 4973 4000 
L 3053 4000 
L 3053 3539 
L 4813 3539 
C 4326 2528 3488 1453 2682 902 
C 2797 806 2944 634 3021 506 
C 3731 1050 4461 1958 4973 2874 
L 4973 141 
C 4973 26 4928 -13 4813 -13 
C 4691 -19 4275 -26 3866 -13 
C 3930 -147 4006 -371 4032 -506 
C 4582 -506 4960 -493 5171 -410 
C 5389 -333 5472 -192 5472 147 
L 5472 3539 
L 6138 3539 
L 6138 4000 
L 5472 4000 
L 5472 5370 
L 4973 5370 
z
M 1453 5376 
L 1453 4006 
L 384 4006 
L 384 3539 
L 1389 3539 
C 1139 2650 653 1658 166 1120 
C 250 998 378 800 435 659 
C 813 1107 1178 1837 1453 2592 
L 1453 -506 
L 1933 -506 
L 1933 2797 
C 2202 2451 2534 1997 2675 1760 
L 2982 2170 
C 2822 2368 2163 3136 1933 3373 
L 1933 3539 
L 2816 3539 
L 2816 4006 
L 1933 4006 
L 1933 5376 
L 1453 5376 
z
" transform="scale(0.015625)"/>
      <path id="NotoSansCJKjp-Regular-4e62" d="M 346 4877 
C 512 4429 666 3840 691 3456 
L 1075 3552 
C 1030 3936 883 4525 698 4973 
L 346 4877 
z
M 2413 4992 
C 2323 4557 2138 3923 1990 3539 
L 2304 3437 
C 2470 3802 2675 4403 2835 4883 
L 2413 4992 
z
M 3302 4589 
C 3674 4365 4115 4013 4314 3770 
L 4570 4134 
C 4358 4378 3917 4704 3546 4922 
L 3302 4589 
z
M 2976 2976 
C 3354 2771 3821 2438 4045 2208 
L 4282 2592 
C 4058 2822 3584 3123 3200 3315 
L 2976 2976 
z
M 301 3226 
L 301 2778 
L 1203 2778 
C 973 2067 570 1222 198 774 
C 282 653 397 448 448 307 
C 762 736 1088 1440 1331 2131 
L 1331 -506 
L 1779 -506 
L 1779 2138 
C 2016 1766 2310 1280 2426 1037 
L 2746 1414 
C 2605 1626 1965 2483 1779 2688 
L 1779 2778 
L 2829 2778 
L 2829 3226 
L 1779 3226 
L 1779 5357 
L 1331 5357 
L 1331 3226 
L 301 3226 
z
M 2816 1299 
L 2899 858 
L 4896 1222 
L 4896 -506 
L 5357 -506 
L 5357 1306 
L 6182 1453 
L 6106 1894 
L 5357 1760 
L 5357 5376 
L 4896 5376 
L 4896 1677 
L 2816 1299 
z
" transform="scale(0.015625)"/>
      <path id="NotoSansCJKjp-Regular-aa9c" d="M 3693 5344 
L 3693 -512 
L 4173 -512 
L 4173 1043 
L 6131 1043 
L 6131 1498 
L 4173 1498 
L 4173 2522 
L 5888 2522 
L 5888 2963 
L 4173 2963 
L 4173 3949 
L 6022 3949 
L 6022 4403 
L 4173 4403 
L 4173 5344 
L 3693 5344 
z
M 2163 5344 
L 2163 4403 
L 493 4403 
L 493 3949 
L 2163 3949 
L 2163 2963 
L 563 2963 
L 563 2522 
L 2163 2522 
L 2163 2355 
C 2163 2163 2144 1914 2086 1651 
C 1382 1536 730 1434 256 1363 
L 352 890 
L 1933 1178 
C 1709 653 1286 122 493 -218 
C 602 -314 762 -467 838 -582 
C 1811 -122 2272 602 2477 1274 
L 3155 1402 
L 3136 1830 
L 2579 1734 
C 2618 1958 2630 2170 2630 2355 
L 2630 5344 
L 2163 5344 
z
" transform="scale(0.015625)"/>
      <path id="NotoSansCJKjp-Regular-4f11" d="M 3034 2893 
C 3373 2400 3808 1722 4013 1331 
L 4435 1574 
C 4218 1965 3776 2618 3430 3104 
L 3034 2893 
z
M 2074 2573 
L 2074 1114 
L 979 1114 
L 979 2573 
L 2074 2573 
z
M 2074 3002 
L 979 3002 
L 979 4403 
L 2074 4403 
L 2074 3002 
z
M 518 4838 
L 518 160 
L 979 160 
L 979 678 
L 2522 678 
L 2522 4838 
L 518 4838 
z
M 4890 5344 
L 4890 4096 
L 2816 4096 
L 2816 3622 
L 4890 3622 
L 4890 211 
C 4890 83 4838 38 4710 38 
C 4570 26 4096 26 3597 45 
C 3667 -96 3744 -314 3776 -448 
C 4416 -448 4826 -442 5056 -358 
C 5286 -282 5376 -141 5376 211 
L 5376 3622 
L 6157 3622 
L 6157 4096 
L 5376 4096 
L 5376 5344 
L 4890 5344 
z
" transform="scale(0.015625)"/>
      <path id="NotoSansCJKjp-Regular-2e69" d="M 1427 4026 
C 1235 3571 915 3110 563 2803 
C 672 2746 851 2618 941 2541 
C 1280 2880 1645 3392 1856 3910 
L 1427 4026 
z
M 4422 3782 
C 4813 3418 5280 2880 5510 2534 
L 5888 2784 
C 5664 3117 5197 3629 4781 3987 
L 4422 3782 
z
M 2765 5318 
C 2880 5139 3008 4909 3091 4723 
L 448 4723 
L 448 4294 
L 2221 4294 
L 2221 2349 
L 2701 2349 
L 2701 4294 
L 3686 4294 
L 3686 2355 
L 4166 2355 
L 4166 4294 
L 5952 4294 
L 5952 4723 
L 3629 4723 
C 3546 4922 3373 5222 3226 5434 
L 2765 5318 
z
M 851 2170 
L 851 1741 
L 1363 1741 
C 1702 1235 2163 819 2714 480 
C 1997 192 1171 6 333 -102 
C 416 -205 531 -403 570 -525 
C 1491 -378 2400 -141 3194 218 
C 3949 -154 4851 -397 5843 -525 
C 5901 -397 6016 -211 6118 -102 
C 5216 -6 4390 186 3686 474 
C 4352 851 4902 1344 5267 1978 
L 4960 2189 
L 4877 2170 
L 851 2170 
z
M 1894 1741 
L 4538 1741 
C 4211 1318 3744 973 3200 698 
C 2662 979 2221 1325 1894 1741 
z
" transform="scale(0.015625)"/>
      <path id="NotoSansCJKjp-Regular-3c93" d="M 3443 685 
C 4294 365 5146 -77 5664 -474 
L 5958 -96 
C 5427 282 4531 723 3674 1037 
L 3443 685 
z
M 1536 3565 
C 1882 3360 2291 3040 2477 2816 
L 2784 3162 
C 2586 3392 2170 3680 1824 3872 
L 1536 3565 
z
M 896 2566 
C 1261 2368 1690 2048 1894 1818 
L 2189 2182 
C 1978 2406 1542 2701 1184 2886 
L 896 2566 
z
M 576 4646 
L 576 3347 
L 1056 3347 
L 1056 4198 
L 5338 4198 
L 5338 3347 
L 5837 3347 
L 5837 4646 
L 3642 4646 
C 3546 4870 3379 5184 3219 5421 
L 2746 5274 
C 2861 5082 2982 4851 3072 4646 
L 576 4646 
z
M 454 1638 
L 454 1222 
L 2765 1222 
C 2406 602 1747 186 518 -70 
C 621 -179 742 -365 794 -493 
C 2234 -160 2950 397 3315 1222 
L 5984 1222 
L 5984 1638 
L 3462 1638 
C 3648 2259 3693 3002 3718 3878 
L 3219 3878 
C 3194 2970 3155 2234 2950 1638 
L 454 1638 
z
" transform="scale(0.015625)"/>
      <path id="NotoSansCJKjp-Regular-5b7e" d="M 3110 589 
C 3437 269 3814 -179 3994 -467 
L 4307 -250 
C 4122 26 3738 461 3411 774 
L 3110 589 
z
M 1997 5005 
L 1997 986 
L 2374 986 
L 2374 4634 
L 3763 4634 
L 3763 1005 
L 4154 1005 
L 4154 5005 
L 1997 5005 
z
M 5549 5293 
L 5549 45 
C 5549 -51 5510 -83 5421 -83 
C 5331 -90 5030 -90 4691 -83 
C 4749 -198 4813 -384 4832 -486 
C 5280 -493 5555 -480 5722 -410 
C 5882 -339 5946 -218 5946 45 
L 5946 5293 
L 5549 5293 
z
M 4672 4800 
L 4672 966 
L 5056 966 
L 5056 4800 
L 4672 4800 
z
M 2854 4179 
L 2854 1914 
C 2854 1139 2726 339 1658 -205 
C 1728 -262 1850 -422 1894 -499 
C 3046 83 3226 1050 3226 1907 
L 3226 4179 
L 2854 4179 
z
M 518 4966 
C 877 4768 1338 4461 1555 4256 
L 1850 4646 
C 1619 4838 1152 5120 806 5306 
L 518 4966 
z
M 243 3238 
C 595 3040 1062 2752 1293 2560 
L 1581 2944 
C 1338 3130 864 3405 518 3584 
L 243 3238 
z
M 371 -173 
L 806 -429 
C 1075 160 1395 947 1626 1619 
L 1242 1869 
C 986 1152 627 320 371 -173 
z
" transform="scale(0.015625)"/>
      <path id="NotoSansCJKjp-Regular-2b73" d="M 966 4768 
L 966 2560 
L 2918 2560 
L 2918 365 
L 1203 365 
L 1203 2144 
L 723 2144 
L 723 -512 
L 1203 -512 
L 1203 -109 
L 5222 -109 
L 5222 -499 
L 5715 -499 
L 5715 2144 
L 5222 2144 
L 5222 365 
L 3418 365 
L 3418 2560 
L 5459 2560 
L 5459 4768 
L 4960 4768 
L 4960 3021 
L 3418 3021 
L 3418 5344 
L 2918 5344 
L 2918 3021 
L 1446 3021 
L 1446 4768 
L 966 4768 
z
" transform="scale(0.015625)"/>
     </defs>
     <use xlink:href="#NotoSansCJKjp-Regular-438e"/>
     <use xlink:href="#NotoSansCJKjp-Regular-2be5" transform="translate(100 0)"/>
     <use xlink:href="#NotoSansCJKjp-Regular-514d" transform="translate(200 0)"/>
     <use xlink:href="#NotoSansCJKjp-Regular-4e62" transform="translate(300 0)"/>
     <use xlink:href="#NotoSansCJKjp-Regular-1" transform="translate(400 0)"/>
     <use xlink:href="#NotoSansCJKjp-Regular-29" transform="translate(422.40625 0)"/>
     <use xlink:href="#NotoSansCJKjp-Regular-33" transform="translate(495.203125 0)"/>
     <use xlink:href="#NotoSansCJKjp-Regular-33" transform="translate(558.703125 0)"/>
     <use xlink:href="#NotoSansCJKjp-Regular-31" transform="translate(622.203125 0)"/>
     <use xlink:href="#NotoSansCJKjp-Regular-36" transform="translate(685.5 0)"/>
     <use xlink:href="#NotoSansCJKjp-Regular-22" transform="translate(755.796875 0)"/>
     <use xlink:href="#NotoSansCJKjp-Regular-1" transform="translate(816.59375 0)"/>
     <use xlink:href="#NotoSansCJKjp-Regular-9c1f" transform="translate(839 0)"/>
     <use xlink:href="#NotoSansCJKjp-Regular-2a8c" transform="translate(939 0)"/>
     <use xlink:href="#NotoSansCJKjp-Regular-2515" transform="translate(1039 0)"/>
     <use xlink:href="#NotoSansCJKjp-Regular-a87e" transform="translate(1139 0)"/>
     <use xlink:href="#NotoSansCJKjp-Regular-e6ae" transform="translate(1239 0)"/>
     <use xlink:href="#NotoSansCJKjp-Regular-aa9c" transform="translate(1339 0)"/>
     <use xlink:href="#NotoSansCJKjp-Regular-4f11" transform="translate(1439 0)"/>
     <use xlink:href="#NotoSansCJKjp-Regular-2e69" transform="translate(1539 0)"/>
     <use xlink:href="#NotoSansCJKjp-Regular-3c93" transform="translate(1639 0)"/>
     <use xlink:href="#NotoSansCJKjp-Regular-5b7e" transform="translate(1739 0)"/>
     <use xlink:href="#NotoSansCJKjp-Regular-9c1f" transform="translate(1839 0)"/>
     <use xlink:href="#NotoSansCJKjp-Regular-2b73" transform="translate(1939 0)"/>
     <use xlink:href="#NotoSansCJKjp-Regular-e6af" transform="translate(2039 0)"/>
    </g>
   </g>
  </g>
 </g>
 <defs>
  <clipPath id="p8c725fe90a">
   <rect x="46.790865" y="19.56024" width="958.208895" height="392.43952"/>
  </clipPath>
 </defs>
</svg>
