<?xml version="1.0" encoding="utf-8" standalone="no"?>
<!DOCTYPE svg PUBLIC "-//W3C//DTD SVG 1.1//EN"
  "http://www.w3.org/Graphics/SVG/1.1/DTD/svg11.dtd">
<svg xmlns:xlink="http://www.w3.org/1999/xlink" width="936pt" height="648pt" viewBox="0 0 936 648" xmlns="http://www.w3.org/2000/svg" version="1.1">
 <metadata>
  <rdf:RDF xmlns:dc="http://purl.org/dc/elements/1.1/" xmlns:cc="http://creativecommons.org/ns#" xmlns:rdf="http://www.w3.org/1999/02/22-rdf-syntax-ns#">
   <cc:Work>
    <dc:type rdf:resource="http://purl.org/dc/dcmitype/StillImage"/>
    <dc:date>2026-07-22T21:14:52.986256</dc:date>
    <dc:format>image/svg+xml</dc:format>
    <dc:creator>
     <cc:Agent>
      <dc:title>Matplotlib v3.9.2, https://matplotlib.org/</dc:title>
     </cc:Agent>
    </dc:creator>
   </cc:Work>
  </rdf:RDF>
 </metadata>
 <defs>
  <style type="text/css">*{stroke-linejoin: round; stroke-linecap: butt}</style>
 </defs>
 <g id="figure_1">
  <g id="patch_1">
   <path d="M 0 648 
L 936 648 
L 936 0 
L 0 0 
z
" style="fill: #ffffff"/>
  </g>
  <g id="axes_1">
   <g id="patch_2">
    <path d="M 52.00024 289.26 
L 932.99976 289.26 
L 932.99976 18.55149 
L 52.00024 18.55149 
z
" style="fill: #ffffff"/>
   </g>
   <g id="matplotlib.axis_1">
    <g id="xtick_1">
     <g id="line2d_1">
      <path d="M 92.045673 289.26 
L 92.045673 18.55149 
" clip-path="url(#p2260b364f2)" style="fill: none; stroke: #d8dde3; stroke-width: 0.6; stroke-linecap: square"/>
     </g>
     <g id="line2d_2">
      <defs>
       <path id="me1abad6496" d="M 0 0 
L 0 3.5 
" style="stroke: #000000; stroke-width: 0.8"/>
      </defs>
      <g>
       <use xlink:href="#me1abad6496" x="92.045673" y="289.26" style="stroke: #000000; stroke-width: 0.8"/>
      </g>
     </g>
     <g id="text_1">
      <!-- 0 -->
      <g transform="translate(89.270673 304.219375) scale(0.1 -0.1)">
       <defs>
        <path id="NotoSansCJKjp-Regular-30" d="M 1779 -83 
C 2669 -83 3238 723 3238 2362 
C 3238 3987 2669 4774 1779 4774 
C 883 4774 320 3987 320 2362 
C 320 723 883 -83 1779 -83 
z
M 1779 390 
C 1248 390 883 986 883 2362 
C 883 3731 1248 4314 1779 4314 
C 2310 4314 2675 3731 2675 2362 
C 2675 986 2310 390 1779 390 
z
" transform="scale(0.015625)"/>
       </defs>
       <use xlink:href="#NotoSansCJKjp-Regular-30"/>
      </g>
     </g>
    </g>
    <g id="xtick_2">
     <g id="line2d_3">
      <path d="M 206.871267 289.26 
L 206.871267 18.55149 
" clip-path="url(#p2260b364f2)" style="fill: none; stroke: #d8dde3; stroke-width: 0.6; stroke-linecap: square"/>
     </g>
     <g id="line2d_4">
      <g>
       <use xlink:href="#me1abad6496" x="206.871267" y="289.26" style="stroke: #000000; stroke-width: 0.8"/>
      </g>
     </g>
     <g id="text_2">
      <!-- 100 -->
      <g transform="translate(198.546267 304.219375) scale(0.1 -0.1)">
       <defs>
        <path id="NotoSansCJKjp-Regular-31" d="M 563 0 
L 3136 0 
L 3136 486 
L 2195 486 
L 2195 4691 
L 1747 4691 
C 1491 4544 1190 4435 774 4358 
L 774 3987 
L 1613 3987 
L 1613 486 
L 563 486 
L 563 0 
z
" transform="scale(0.015625)"/>
       </defs>
       <use xlink:href="#NotoSansCJKjp-Regular-31"/>
       <use xlink:href="#NotoSansCJKjp-Regular-30" x="55.499985"/>
       <use xlink:href="#NotoSansCJKjp-Regular-30" x="110.999969"/>
      </g>
     </g>
    </g>
    <g id="xtick_3">
     <g id="line2d_5">
      <path d="M 321.69686 289.26 
L 321.69686 18.55149 
" clip-path="url(#p2260b364f2)" style="fill: none; stroke: #d8dde3; stroke-width: 0.6; stroke-linecap: square"/>
     </g>
     <g id="line2d_6">
      <g>
       <use xlink:href="#me1abad6496" x="321.69686" y="289.26" style="stroke: #000000; stroke-width: 0.8"/>
      </g>
     </g>
     <g id="text_3">
      <!-- 200 -->
      <g transform="translate(313.37186 304.219375) scale(0.1 -0.1)">
       <defs>
        <path id="NotoSansCJKjp-Regular-32" d="M 282 0 
L 3232 0 
L 3232 506 
L 1933 506 
C 1696 506 1408 480 1165 461 
C 2266 1504 3008 2458 3008 3398 
C 3008 4230 2477 4774 1638 4774 
C 1043 4774 634 4506 256 4090 
L 595 3757 
C 858 4070 1184 4301 1568 4301 
C 2150 4301 2432 3910 2432 3373 
C 2432 2566 1754 1632 282 346 
L 282 0 
z
" transform="scale(0.015625)"/>
       </defs>
       <use xlink:href="#NotoSansCJKjp-Regular-32"/>
       <use xlink:href="#NotoSansCJKjp-Regular-30" x="55.499985"/>
       <use xlink:href="#NotoSansCJKjp-Regular-30" x="110.999969"/>
      </g>
     </g>
    </g>
    <g id="xtick_4">
     <g id="line2d_7">
      <path d="M 436.522454 289.26 
L 436.522454 18.55149 
" clip-path="url(#p2260b364f2)" style="fill: none; stroke: #d8dde3; stroke-width: 0.6; stroke-linecap: square"/>
     </g>
     <g id="line2d_8">
      <g>
       <use xlink:href="#me1abad6496" x="436.522454" y="289.26" style="stroke: #000000; stroke-width: 0.8"/>
      </g>
     </g>
     <g id="text_4">
      <!-- 300 -->
      <g transform="translate(428.197454 304.219375) scale(0.1 -0.1)">
       <defs>
        <path id="NotoSansCJKjp-Regular-33" d="M 1683 -83 
C 2522 -83 3194 416 3194 1254 
C 3194 1901 2752 2310 2202 2445 
L 2202 2477 
C 2701 2650 3034 3034 3034 3603 
C 3034 4346 2458 4774 1664 4774 
C 1126 4774 710 4538 358 4218 
L 672 3846 
C 941 4115 1267 4301 1645 4301 
C 2138 4301 2438 4006 2438 3558 
C 2438 3053 2112 2662 1139 2662 
L 1139 2214 
C 2227 2214 2598 1843 2598 1274 
C 2598 736 2208 403 1645 403 
C 1114 403 762 659 486 941 
L 186 563 
C 493 224 954 -83 1683 -83 
z
" transform="scale(0.015625)"/>
       </defs>
       <use xlink:href="#NotoSansCJKjp-Regular-33"/>
       <use xlink:href="#NotoSansCJKjp-Regular-30" x="55.499985"/>
       <use xlink:href="#NotoSansCJKjp-Regular-30" x="110.999969"/>
      </g>
     </g>
    </g>
    <g id="xtick_5">
     <g id="line2d_9">
      <path d="M 551.348048 289.26 
L 551.348048 18.55149 
" clip-path="url(#p2260b364f2)" style="fill: none; stroke: #d8dde3; stroke-width: 0.6; stroke-linecap: square"/>
     </g>
     <g id="line2d_10">
      <g>
       <use xlink:href="#me1abad6496" x="551.348048" y="289.26" style="stroke: #000000; stroke-width: 0.8"/>
      </g>
     </g>
     <g id="text_5">
      <!-- 400 -->
      <g transform="translate(543.023048 304.219375) scale(0.1 -0.1)">
       <defs>
        <path id="NotoSansCJKjp-Regular-34" d="M 2176 0 
L 2726 0 
L 2726 1293 
L 3354 1293 
L 3354 1760 
L 2726 1760 
L 2726 4691 
L 2080 4691 
L 128 1677 
L 128 1293 
L 2176 1293 
L 2176 0 
z
M 2176 1760 
L 736 1760 
L 1805 3360 
C 1939 3590 2067 3827 2182 4051 
L 2208 4051 
C 2195 3814 2176 3430 2176 3200 
L 2176 1760 
z
" transform="scale(0.015625)"/>
       </defs>
       <use xlink:href="#NotoSansCJKjp-Regular-34"/>
       <use xlink:href="#NotoSansCJKjp-Regular-30" x="55.499985"/>
       <use xlink:href="#NotoSansCJKjp-Regular-30" x="110.999969"/>
      </g>
     </g>
    </g>
    <g id="xtick_6">
     <g id="line2d_11">
      <path d="M 666.173642 289.26 
L 666.173642 18.55149 
" clip-path="url(#p2260b364f2)" style="fill: none; stroke: #d8dde3; stroke-width: 0.6; stroke-linecap: square"/>
     </g>
     <g id="line2d_12">
      <g>
       <use xlink:href="#me1abad6496" x="666.173642" y="289.26" style="stroke: #000000; stroke-width: 0.8"/>
      </g>
     </g>
     <g id="text_6">
      <!-- 500 -->
      <g transform="translate(657.848642 304.219375) scale(0.1 -0.1)">
       <defs>
        <path id="NotoSansCJKjp-Regular-35" d="M 1677 -83 
C 2464 -83 3213 499 3213 1523 
C 3213 2560 2573 3021 1798 3021 
C 1517 3021 1306 2950 1094 2835 
L 1216 4192 
L 2982 4192 
L 2982 4691 
L 704 4691 
L 550 2502 
L 864 2304 
C 1133 2483 1331 2579 1645 2579 
C 2234 2579 2618 2182 2618 1510 
C 2618 826 2176 403 1619 403 
C 1075 403 730 653 467 922 
L 173 538 
C 493 224 941 -83 1677 -83 
z
" transform="scale(0.015625)"/>
       </defs>
       <use xlink:href="#NotoSansCJKjp-Regular-35"/>
       <use xlink:href="#NotoSansCJKjp-Regular-30" x="55.499985"/>
       <use xlink:href="#NotoSansCJKjp-Regular-30" x="110.999969"/>
      </g>
     </g>
    </g>
    <g id="xtick_7">
     <g id="line2d_13">
      <path d="M 780.999236 289.26 
L 780.999236 18.55149 
" clip-path="url(#p2260b364f2)" style="fill: none; stroke: #d8dde3; stroke-width: 0.6; stroke-linecap: square"/>
     </g>
     <g id="line2d_14">
      <g>
       <use xlink:href="#me1abad6496" x="780.999236" y="289.26" style="stroke: #000000; stroke-width: 0.8"/>
      </g>
     </g>
     <g id="text_7">
      <!-- 600 -->
      <g transform="translate(772.674236 304.219375) scale(0.1 -0.1)">
       <defs>
        <path id="NotoSansCJKjp-Regular-36" d="M 1926 -83 
C 2656 -83 3277 531 3277 1440 
C 3277 2426 2765 2912 1971 2912 
C 1606 2912 1197 2701 909 2349 
C 934 3802 1466 4294 2118 4294 
C 2400 4294 2682 4154 2861 3936 
L 3194 4294 
C 2931 4576 2579 4774 2093 4774 
C 1184 4774 358 4077 358 2240 
C 358 691 1030 -83 1926 -83 
z
M 922 1882 
C 1229 2317 1587 2477 1875 2477 
C 2445 2477 2720 2074 2720 1440 
C 2720 800 2374 378 1926 378 
C 1338 378 986 909 922 1882 
z
" transform="scale(0.015625)"/>
       </defs>
       <use xlink:href="#NotoSansCJKjp-Regular-36"/>
       <use xlink:href="#NotoSansCJKjp-Regular-30" x="55.499985"/>
       <use xlink:href="#NotoSansCJKjp-Regular-30" x="110.999969"/>
      </g>
     </g>
    </g>
    <g id="xtick_8">
     <g id="line2d_15">
      <path d="M 895.824829 289.26 
L 895.824829 18.55149 
" clip-path="url(#p2260b364f2)" style="fill: none; stroke: #d8dde3; stroke-width: 0.6; stroke-linecap: square"/>
     </g>
     <g id="line2d_16">
      <g>
       <use xlink:href="#me1abad6496" x="895.824829" y="289.26" style="stroke: #000000; stroke-width: 0.8"/>
      </g>
     </g>
     <g id="text_8">
      <!-- 700 -->
      <g transform="translate(887.499829 304.219375) scale(0.1 -0.1)">
       <defs>
        <path id="NotoSansCJKjp-Regular-37" d="M 1267 0 
L 1875 0 
C 1952 1837 2150 2931 3251 4339 
L 3251 4691 
L 314 4691 
L 314 4192 
L 2592 4192 
C 1670 2912 1350 1779 1267 0 
z
" transform="scale(0.015625)"/>
       </defs>
       <use xlink:href="#NotoSansCJKjp-Regular-37"/>
       <use xlink:href="#NotoSansCJKjp-Regular-30" x="55.499985"/>
       <use xlink:href="#NotoSansCJKjp-Regular-30" x="110.999969"/>
      </g>
     </g>
    </g>
    <g id="text_9">
     <!-- 模拟时间（s） -->
     <g transform="translate(460.160156 318.469375) scale(0.1 -0.1)">
      <defs>
       <path id="NotoSansCJKjp-Regular-6a21" d="M 3021 2669 
L 5248 2669 
L 5248 2208 
L 3021 2208 
L 3021 2669 
z
M 3021 3469 
L 5248 3469 
L 5248 3021 
L 3021 3021 
L 3021 3469 
z
M 4685 5376 
L 4685 4845 
L 3699 4845 
L 3699 5376 
L 3245 5376 
L 3245 4845 
L 2304 4845 
L 2304 4435 
L 3245 4435 
L 3245 3955 
L 3699 3955 
L 3699 4435 
L 4685 4435 
L 4685 3955 
L 5152 3955 
L 5152 4435 
L 6048 4435 
L 6048 4845 
L 5152 4845 
L 5152 5376 
L 4685 5376 
z
M 2573 3834 
L 2573 1850 
L 3878 1850 
C 3853 1658 3827 1485 3782 1318 
L 2176 1318 
L 2176 909 
L 3642 909 
C 3398 416 2938 77 1997 -128 
C 2086 -224 2208 -403 2253 -512 
C 3366 -243 3885 218 4141 896 
C 4461 192 5056 -288 5888 -512 
C 5952 -390 6080 -211 6182 -115 
C 5459 38 4909 390 4602 909 
L 6035 909 
L 6035 1318 
L 4262 1318 
C 4294 1485 4326 1664 4346 1850 
L 5715 1850 
L 5715 3834 
L 2573 3834 
z
M 1120 5376 
L 1120 4141 
L 320 4141 
L 320 3693 
L 1120 3693 
L 1120 3686 
C 947 2816 576 1798 205 1261 
C 288 1146 403 934 461 794 
C 704 1171 934 1754 1120 2381 
L 1120 -506 
L 1581 -506 
L 1581 2790 
C 1754 2451 1952 2042 2035 1830 
L 2342 2176 
C 2234 2374 1747 3174 1581 3424 
L 1581 3693 
L 2240 3693 
L 2240 4141 
L 1581 4141 
L 1581 5376 
L 1120 5376 
z
" transform="scale(0.015625)"/>
       <path id="NotoSansCJKjp-Regular-62df" d="M 3494 4134 
C 3789 3693 4077 3104 4179 2726 
L 4589 2918 
C 4480 3296 4173 3866 3878 4301 
L 3494 4134 
z
M 2675 5075 
L 2675 1158 
C 2413 1043 2176 934 1978 858 
L 2195 397 
C 2765 672 3488 1037 4173 1382 
L 4058 1798 
L 3130 1363 
L 3130 5075 
L 2675 5075 
z
M 5248 5126 
C 5229 2112 4922 614 2701 -102 
C 2803 -205 2957 -429 3008 -531 
C 3904 -198 4506 243 4915 851 
C 5254 378 5587 -154 5741 -518 
L 6163 -224 
C 5978 186 5562 794 5165 1286 
C 5600 2208 5715 3443 5741 5133 
L 5248 5126 
z
M 1178 5376 
L 1178 4083 
L 294 4083 
L 294 3629 
L 1178 3629 
L 1178 2259 
L 179 1984 
L 320 1517 
L 1178 1773 
L 1178 51 
C 1178 -38 1139 -64 1056 -70 
C 973 -70 704 -70 416 -64 
C 474 -192 544 -384 563 -499 
C 986 -499 1242 -486 1414 -416 
C 1574 -339 1638 -211 1638 58 
L 1638 1914 
L 2419 2150 
L 2355 2598 
L 1638 2387 
L 1638 3629 
L 2336 3629 
L 2336 4083 
L 1638 4083 
L 1638 5376 
L 1178 5376 
z
" transform="scale(0.015625)"/>
       <path id="NotoSansCJKjp-Regular-65f6" d="M 3034 2893 
C 3373 2400 3808 1722 4013 1331 
L 4435 1574 
C 4218 1965 3776 2618 3430 3104 
L 3034 2893 
z
M 2074 2573 
L 2074 1114 
L 979 1114 
L 979 2573 
L 2074 2573 
z
M 2074 3002 
L 979 3002 
L 979 4403 
L 2074 4403 
L 2074 3002 
z
M 518 4838 
L 518 160 
L 979 160 
L 979 678 
L 2522 678 
L 2522 4838 
L 518 4838 
z
M 4890 5344 
L 4890 4096 
L 2816 4096 
L 2816 3622 
L 4890 3622 
L 4890 211 
C 4890 83 4838 38 4710 38 
C 4570 26 4096 26 3597 45 
C 3667 -96 3744 -314 3776 -448 
C 4416 -448 4826 -442 5056 -358 
C 5286 -282 5376 -141 5376 211 
L 5376 3622 
L 6157 3622 
L 6157 4096 
L 5376 4096 
L 5376 5344 
L 4890 5344 
z
" transform="scale(0.015625)"/>
       <path id="NotoSansCJKjp-Regular-95f4" d="M 582 3936 
L 582 -512 
L 1075 -512 
L 1075 3936 
L 582 3936 
z
M 678 5062 
C 973 4781 1306 4378 1453 4122 
L 1850 4378 
C 1696 4646 1350 5024 1050 5293 
L 678 5062 
z
M 2426 1888 
L 3962 1888 
L 3962 1024 
L 2426 1024 
L 2426 1888 
z
M 2426 3142 
L 3962 3142 
L 3962 2291 
L 2426 2291 
L 2426 3142 
z
M 1990 3546 
L 1990 627 
L 4416 627 
L 4416 3546 
L 1990 3546 
z
M 2253 5018 
L 2253 4563 
L 5350 4563 
L 5350 70 
C 5350 -13 5325 -38 5242 -45 
C 5158 -45 4896 -51 4627 -38 
C 4691 -160 4755 -365 4781 -480 
C 5171 -480 5446 -480 5619 -403 
C 5786 -320 5843 -198 5843 70 
L 5843 5018 
L 2253 5018 
z
" transform="scale(0.015625)"/>
       <path id="NotoSansCJKjp-Regular-ff08" d="M 4448 2432 
C 4448 1184 4954 166 5722 -614 
L 6106 -416 
C 5370 346 4915 1293 4915 2432 
C 4915 3571 5370 4518 6106 5280 
L 5722 5478 
C 4954 4698 4448 3680 4448 2432 
z
" transform="scale(0.015625)"/>
       <path id="NotoSansCJKjp-Regular-73" d="M 1498 -83 
C 2317 -83 2758 384 2758 947 
C 2758 1606 2208 1811 1702 2003 
C 1312 2150 954 2278 954 2605 
C 954 2880 1158 3110 1600 3110 
C 1907 3110 2150 2976 2387 2803 
L 2669 3168 
C 2406 3386 2022 3565 1594 3565 
C 832 3565 397 3130 397 2579 
C 397 1984 922 1754 1408 1574 
C 1792 1434 2202 1267 2202 915 
C 2202 614 1978 371 1517 371 
C 1101 371 794 538 486 787 
L 205 397 
C 531 122 1005 -83 1498 -83 
z
" transform="scale(0.015625)"/>
       <path id="NotoSansCJKjp-Regular-ff09" d="M 1952 2432 
C 1952 3680 1446 4698 678 5478 
L 294 5280 
C 1030 4518 1485 3571 1485 2432 
C 1485 1293 1030 346 294 -416 
L 678 -614 
C 1446 166 1952 1184 1952 2432 
z
" transform="scale(0.015625)"/>
      </defs>
      <use xlink:href="#NotoSansCJKjp-Regular-6a21"/>
      <use xlink:href="#NotoSansCJKjp-Regular-62df" x="99.999985"/>
      <use xlink:href="#NotoSansCJKjp-Regular-65f6" x="199.999969"/>
      <use xlink:href="#NotoSansCJKjp-Regular-95f4" x="299.999954"/>
      <use xlink:href="#NotoSansCJKjp-Regular-ff08" x="399.999939"/>
      <use xlink:href="#NotoSansCJKjp-Regular-73" x="499.999924"/>
      <use xlink:href="#NotoSansCJKjp-Regular-ff09" x="546.799911"/>
     </g>
    </g>
   </g>
   <g id="matplotlib.axis_2">
    <g id="ytick_1">
     <g id="line2d_17">
      <path d="M 52.00024 276.955068 
L 932.99976 276.955068 
" clip-path="url(#p2260b364f2)" style="fill: none; stroke: #d8dde3; stroke-width: 0.6; stroke-linecap: square"/>
     </g>
     <g id="line2d_18">
      <defs>
       <path id="mf8c7a6f285" d="M 0 0 
L -3.5 0 
" style="stroke: #000000; stroke-width: 0.8"/>
      </defs>
      <g>
       <use xlink:href="#mf8c7a6f285" x="52.00024" y="276.955068" style="stroke: #000000; stroke-width: 0.8"/>
      </g>
     </g>
     <g id="text_10">
      <!-- 0 -->
      <g transform="translate(39.45024 280.934755) scale(0.1 -0.1)">
       <use xlink:href="#NotoSansCJKjp-Regular-30"/>
      </g>
     </g>
    </g>
    <g id="ytick_2">
     <g id="line2d_19">
      <path d="M 52.00024 219.138321 
L 932.99976 219.138321 
" clip-path="url(#p2260b364f2)" style="fill: none; stroke: #d8dde3; stroke-width: 0.6; stroke-linecap: square"/>
     </g>
     <g id="line2d_20">
      <g>
       <use xlink:href="#mf8c7a6f285" x="52.00024" y="219.138321" style="stroke: #000000; stroke-width: 0.8"/>
      </g>
     </g>
     <g id="text_11">
      <!-- 5000 -->
      <g transform="translate(22.80024 223.118009) scale(0.1 -0.1)">
       <use xlink:href="#NotoSansCJKjp-Regular-35"/>
       <use xlink:href="#NotoSansCJKjp-Regular-30" x="55.499985"/>
       <use xlink:href="#NotoSansCJKjp-Regular-30" x="110.999969"/>
       <use xlink:href="#NotoSansCJKjp-Regular-30" x="166.499954"/>
      </g>
     </g>
    </g>
    <g id="ytick_3">
     <g id="line2d_21">
      <path d="M 52.00024 161.321575 
L 932.99976 161.321575 
" clip-path="url(#p2260b364f2)" style="fill: none; stroke: #d8dde3; stroke-width: 0.6; stroke-linecap: square"/>
     </g>
     <g id="line2d_22">
      <g>
       <use xlink:href="#mf8c7a6f285" x="52.00024" y="161.321575" style="stroke: #000000; stroke-width: 0.8"/>
      </g>
     </g>
     <g id="text_12">
      <!-- 10000 -->
      <g transform="translate(17.25024 165.301263) scale(0.1 -0.1)">
       <use xlink:href="#NotoSansCJKjp-Regular-31"/>
       <use xlink:href="#NotoSansCJKjp-Regular-30" x="55.499985"/>
       <use xlink:href="#NotoSansCJKjp-Regular-30" x="110.999969"/>
       <use xlink:href="#NotoSansCJKjp-Regular-30" x="166.499954"/>
       <use xlink:href="#NotoSansCJKjp-Regular-30" x="221.999939"/>
      </g>
     </g>
    </g>
    <g id="ytick_4">
     <g id="line2d_23">
      <path d="M 52.00024 103.504829 
L 932.99976 103.504829 
" clip-path="url(#p2260b364f2)" style="fill: none; stroke: #d8dde3; stroke-width: 0.6; stroke-linecap: square"/>
     </g>
     <g id="line2d_24">
      <g>
       <use xlink:href="#mf8c7a6f285" x="52.00024" y="103.504829" style="stroke: #000000; stroke-width: 0.8"/>
      </g>
     </g>
     <g id="text_13">
      <!-- 15000 -->
      <g transform="translate(17.25024 107.484517) scale(0.1 -0.1)">
       <use xlink:href="#NotoSansCJKjp-Regular-31"/>
       <use xlink:href="#NotoSansCJKjp-Regular-35" x="55.499985"/>
       <use xlink:href="#NotoSansCJKjp-Regular-30" x="110.999969"/>
       <use xlink:href="#NotoSansCJKjp-Regular-30" x="166.499954"/>
       <use xlink:href="#NotoSansCJKjp-Regular-30" x="221.999939"/>
      </g>
     </g>
    </g>
    <g id="ytick_5">
     <g id="line2d_25">
      <path d="M 52.00024 45.688083 
L 932.99976 45.688083 
" clip-path="url(#p2260b364f2)" style="fill: none; stroke: #d8dde3; stroke-width: 0.6; stroke-linecap: square"/>
     </g>
     <g id="line2d_26">
      <g>
       <use xlink:href="#mf8c7a6f285" x="52.00024" y="45.688083" style="stroke: #000000; stroke-width: 0.8"/>
      </g>
     </g>
     <g id="text_14">
      <!-- 20000 -->
      <g transform="translate(17.25024 49.66777) scale(0.1 -0.1)">
       <use xlink:href="#NotoSansCJKjp-Regular-32"/>
       <use xlink:href="#NotoSansCJKjp-Regular-30" x="55.499985"/>
       <use xlink:href="#NotoSansCJKjp-Regular-30" x="110.999969"/>
       <use xlink:href="#NotoSansCJKjp-Regular-30" x="166.499954"/>
       <use xlink:href="#NotoSansCJKjp-Regular-30" x="221.999939"/>
      </g>
     </g>
    </g>
    <g id="text_15">
     <!-- HRR（kW） -->
     <g transform="translate(10.959615 181.045589) rotate(-90) scale(0.1 -0.1)">
      <defs>
       <path id="NotoSansCJKjp-Regular-48" d="M 646 0 
L 1235 0 
L 1235 2214 
L 3424 2214 
L 3424 0 
L 4019 0 
L 4019 4691 
L 3424 4691 
L 3424 2726 
L 1235 2726 
L 1235 4691 
L 646 4691 
L 646 0 
z
" transform="scale(0.015625)"/>
       <path id="NotoSansCJKjp-Regular-52" d="M 1235 2464 
L 1235 4211 
L 2022 4211 
C 2758 4211 3162 3994 3162 3379 
C 3162 2765 2758 2464 2022 2464 
L 1235 2464 
z
M 3219 0 
L 3885 0 
L 2694 2054 
C 3328 2208 3750 2643 3750 3379 
C 3750 4352 3066 4691 2112 4691 
L 646 4691 
L 646 0 
L 1235 0 
L 1235 1990 
L 2080 1990 
L 3219 0 
z
" transform="scale(0.015625)"/>
       <path id="NotoSansCJKjp-Regular-6b" d="M 589 0 
L 1165 0 
L 1165 915 
L 1818 1677 
L 2835 0 
L 3469 0 
L 2157 2074 
L 3315 3475 
L 2662 3475 
L 1190 1645 
L 1165 1645 
L 1165 5094 
L 589 5094 
L 589 0 
z
" transform="scale(0.015625)"/>
       <path id="NotoSansCJKjp-Regular-57" d="M 1158 0 
L 1862 0 
L 2560 2829 
C 2637 3200 2726 3539 2797 3898 
L 2822 3898 
C 2899 3539 2970 3200 3053 2829 
L 3763 0 
L 4480 0 
L 5446 4691 
L 4883 4691 
L 4378 2138 
C 4294 1632 4205 1126 4122 614 
L 4083 614 
C 3968 1126 3866 1638 3750 2138 
L 3098 4691 
L 2554 4691 
L 1907 2138 
C 1792 1632 1677 1126 1574 614 
L 1549 614 
C 1453 1126 1363 1632 1267 2138 
L 774 4691 
L 166 4691 
L 1158 0 
z
" transform="scale(0.015625)"/>
      </defs>
      <use xlink:href="#NotoSansCJKjp-Regular-48"/>
      <use xlink:href="#NotoSansCJKjp-Regular-52" x="72.799988"/>
      <use xlink:href="#NotoSansCJKjp-Regular-52" x="136.299973"/>
      <use xlink:href="#NotoSansCJKjp-Regular-ff08" x="199.799957"/>
      <use xlink:href="#NotoSansCJKjp-Regular-6b" x="299.799942"/>
      <use xlink:href="#NotoSansCJKjp-Regular-57" x="354.999939"/>
      <use xlink:href="#NotoSansCJKjp-Regular-ff09" x="442.799927"/>
     </g>
    </g>
   </g>
   <g id="line2d_27">
    <path d="M 92.045673 276.955068 
L 93.781895 263.04394 
L 95.492611 229.058788 
L 97.213454 215.771077 
L 98.935713 210.341795 
L 100.658577 201.770889 
L 102.38065 192.860886 
L 104.103377 190.982342 
L 105.82672 192.673789 
L 107.548843 197.167809 
L 109.269728 195.76237 
L 110.994962 201.486605 
L 112.719093 216.796639 
L 114.436975 219.606058 
L 116.161715 217.783316 
L 117.888604 215.980956 
L 119.604932 212.433504 
L 121.328654 207.739053 
L 123.04896 202.596249 
L 124.772579 200.125583 
L 126.496766 191.786802 
L 128.220389 187.786075 
L 129.938483 183.779963 
L 131.662622 173.637956 
L 133.383031 150.698454 
L 135.105437 45.41979 
L 136.829327 139.718718 
L 138.551076 138.762892 
L 140.273163 111.901798 
L 141.998472 154.50793 
L 143.717339 175.968896 
L 145.440993 168.504515 
L 147.165747 182.598331 
L 148.884727 177.62328 
L 150.609494 176.514939 
L 152.330586 169.346734 
L 154.052413 171.205405 
L 155.774876 174.10854 
L 157.498245 167.190893 
L 159.220936 163.152318 
L 160.943105 157.87853 
L 162.666829 147.819145 
L 164.387825 151.579442 
L 166.111693 149.914297 
L 167.833403 145.293628 
L 169.55421 147.557408 
L 171.278468 146.752206 
L 173.001202 148.05513 
L 174.721423 145.700045 
L 176.443544 140.860934 
L 178.165779 139.001293 
L 179.890178 139.538723 
L 181.609978 133.208772 
L 183.335541 124.763781 
L 185.057023 123.056892 
L 186.778101 121.447771 
L 188.50152 120.393297 
L 190.222572 125.04891 
L 191.946173 119.927028 
L 193.667979 113.386231 
L 195.391922 121.931188 
L 197.11406 120.282486 
L 198.836401 112.657891 
L 200.557059 111.74249 
L 202.281844 120.351577 
L 204.000723 112.809024 
L 205.723466 102.720013 
L 207.446187 103.514508 
L 209.171235 104.425873 
L 210.891839 98.971626 
L 212.61575 106.248766 
L 214.337755 102.373147 
L 216.059117 101.199005 
L 217.781328 96.742027 
L 219.50509 99.66419 
L 221.226016 98.116713 
L 222.947148 90.364204 
L 224.671955 96.455198 
L 226.393719 86.66473 
L 228.116884 96.571202 
L 229.839141 94.286666 
L 231.560905 93.393813 
L 233.281796 79.090956 
L 235.00519 82.694177 
L 236.726277 85.530655 
L 238.448305 85.904394 
L 240.171665 86.648195 
L 241.89398 92.667369 
L 243.615732 87.281843 
L 245.338805 90.686995 
L 247.062498 90.783873 
L 248.782918 98.540649 
L 250.507254 95.299025 
L 252.229202 84.452766 
L 253.951459 76.411428 
L 255.672351 74.671941 
L 257.395768 79.845268 
L 259.117853 83.369557 
L 260.840157 81.914136 
L 262.564608 83.550293 
L 264.284971 89.972507 
L 266.009306 92.557032 
L 267.728935 87.471112 
L 269.45404 83.330936 
L 271.173875 93.824166 
L 272.896592 103.128754 
L 274.619458 92.927093 
L 276.341543 96.233032 
L 278.063824 96.183367 
L 279.787046 87.089961 
L 281.510325 89.436766 
L 283.23279 77.401609 
L 284.954508 77.787038 
L 286.676558 83.562503 
L 288.397874 78.312014 
L 290.122325 70.128274 
L 291.843664 74.196757 
L 293.564647 77.703921 
L 295.289408 79.82605 
L 297.010357 83.514157 
L 298.733039 89.433933 
L 300.456594 78.956197 
" clip-path="url(#p2260b364f2)" style="fill: none; stroke: #00796b; stroke-width: 1.4; stroke-linecap: square"/>
   </g>
   <g id="line2d_28">
    <path d="M 92.045673 276.955068 
L 93.771949 242.367445 
L 95.49131 182.62938 
L 97.21336 168.773849 
L 98.935324 159.314964 
L 100.658192 146.763608 
L 102.381427 141.045208 
L 104.103394 150.830912 
L 105.82559 148.662576 
L 107.548448 159.460315 
L 109.273809 175.246451 
L 110.996725 173.584981 
L 112.714598 166.170326 
L 114.437526 145.866118 
L 116.160035 135.73008 
L 117.881462 139.873817 
L 119.604764 150.616539 
L 121.328569 147.024511 
L 123.049619 147.607674 
L 124.772868 148.520959 
L 126.493708 159.885962 
L 128.217128 177.351913 
L 129.942311 178.278583 
L 131.66498 173.172887 
L 133.387915 169.480679 
L 135.109738 162.973818 
L 136.828364 161.535321 
L 138.553722 157.271686 
L 140.275707 156.675398 
L 141.997111 155.107535 
L 143.720383 148.402597 
L 145.442591 148.512032 
L 147.162019 143.792174 
L 148.885012 141.80699 
L 150.606805 135.417869 
L 152.332469 129.849631 
L 154.052541 129.43061 
L 155.777548 124.734329 
L 157.497448 123.144854 
L 159.221935 120.453889 
L 160.94261 124.699257 
L 162.664245 118.646272 
L 164.386401 120.207879 
L 166.111545 115.363645 
L 167.831143 111.286928 
L 169.553929 112.192628 
L 171.275639 106.77395 
L 172.99797 104.785562 
L 174.720836 110.995093 
L 176.44344 104.028429 
L 178.165402 103.715825 
L 179.889557 105.336845 
L 181.611371 103.436143 
L 183.333422 101.774906 
L 185.056497 97.688846 
L 186.779249 90.119674 
L 188.499987 89.60122 
L 190.222248 96.778718 
L 191.944027 94.054763 
L 193.669223 87.635959 
L 195.391248 85.514674 
L 197.112834 89.344883 
L 198.835507 91.975823 
L 200.555973 85.912199 
L 204.002292 87.734051 
L 205.725297 80.839624 
L 207.445819 79.204219 
L 209.170534 70.641744 
L 210.892321 74.742409 
L 212.613189 78.371982 
L 214.335286 80.529194 
L 217.782006 76.930032 
L 219.503758 79.003283 
L 221.227049 75.717361 
L 222.947447 76.96389 
L 224.670037 67.742281 
L 226.394454 73.360958 
L 228.114977 73.824857 
L 229.836718 71.09231 
L 231.560009 66.43768 
L 233.281417 75.02016 
L 235.004961 77.646682 
L 236.727264 73.337184 
L 238.449556 75.753554 
L 240.171814 74.109014 
L 241.895335 75.235158 
L 243.616846 74.635899 
L 245.340309 72.055317 
L 247.062383 76.326391 
L 248.783378 71.690459 
L 250.506267 75.142049 
L 252.229007 70.295179 
L 253.950196 69.633779 
L 255.674245 69.535791 
L 257.396388 69.947666 
L 259.118048 59.73739 
L 260.841052 67.399716 
L 262.564022 69.803482 
L 264.286785 60.663765 
L 266.007354 59.796271 
L 267.730427 69.873579 
L 269.451376 58.132895 
L 271.17407 64.410903 
L 272.896626 59.475399 
L 274.619664 63.582701 
L 276.341348 58.153315 
L 278.065006 60.567546 
L 279.78646 63.589789 
L 281.50881 60.666459 
L 283.23163 61.00641 
L 284.953933 61.698835 
L 286.675295 55.962188 
L 288.398747 67.918772 
L 290.120293 61.305438 
L 291.844479 59.632777 
L 293.565796 54.875499 
L 295.289029 51.327598 
L 297.00976 58.162728 
L 298.732545 67.098214 
L 300.456181 66.429413 
L 302.178576 59.678521 
L 303.900329 62.370596 
L 305.623505 57.931415 
L 307.344201 63.580654 
L 309.067848 62.992496 
L 310.788992 56.650207 
L 312.51172 63.245514 
L 314.23446 59.3203 
L 315.956316 47.969832 
L 317.680204 57.825194 
L 319.401853 52.178683 
L 321.124064 61.792937 
L 322.846724 66.114069 
L 324.569303 61.170737 
L 326.290194 62.033825 
L 328.014232 66.06711 
L 329.735042 58.062948 
L 331.459172 61.245228 
L 333.180786 59.394791 
L 334.903044 52.786615 
L 336.625026 48.058743 
L 338.348535 57.816151 
L 340.069346 55.259125 
L 341.791339 61.9008 
L 343.514722 55.819334 
L 345.238162 56.1534 
L 346.959214 58.702066 
L 348.68293 51.79633 
L 350.403753 60.075364 
L 352.12578 62.716444 
L 353.849852 48.55621 
L 357.293323 57.739833 
L 359.016809 60.974472 
L 360.737964 58.299719 
L 362.461336 56.76214 
L 364.18442 53.915938 
L 365.905277 55.224562 
L 367.628338 53.576426 
L 369.351422 55.920803 
L 371.072291 48.253701 
L 372.795352 57.783959 
L 374.518436 44.542271 
L 376.240809 61.53445 
L 377.96271 55.110605 
L 379.684428 59.249822 
L 381.408305 59.642837 
L 383.129024 49.55267 
L 384.852763 56.244415 
L 386.573746 62.376586 
L 388.296302 54.22402 
L 390.018548 43.149164 
L 391.740783 61.491701 
L 393.463029 54.853633 
L 395.185275 53.971789 
L 396.907693 44.101603 
L 398.630399 52.897369 
L 400.354528 63.123405 
L 402.07481 58.332513 
L 403.799548 69.905228 
L 405.520313 61.073686 
L 407.243466 56.387476 
L 408.964668 55.119879 
L 410.687993 61.355762 
L 412.409849 74.461639 
L 414.131773 67.175145 
L 415.85472 62.344764 
L 417.577425 64.662429 
L 419.299074 62.53431 
L 421.022675 55.461958 
L 422.744256 65.780038 
L 424.465836 58.297915 
L 426.189483 64.522512 
L 427.911063 67.813777 
L 429.63425 69.469683 
L 431.356106 66.32259 
L 433.079684 70.320815 
L 434.801747 61.903298 
L 436.523786 66.136455 
L 438.246239 54.461508 
L 439.968164 51.091081 
L 441.690134 50.057364 
L 443.412059 45.153405 
L 445.136016 48.438252 
L 446.857952 55.813183 
L 448.579911 48.781001 
L 450.301835 54.683374 
L 452.025804 49.756497 
L 453.747729 57.920164 
L 455.469699 53.957381 
L 457.191624 52.432718 
L 458.913583 59.238443 
L 460.637505 53.509706 
L 462.359476 58.938941 
L 464.0814 59.440941 
L 465.803371 66.393416 
L 467.527294 59.339773 
L 469.249253 64.01132 
L 470.971223 66.585009 
L 472.693573 60.945379 
L 474.415991 52.24826 
L 476.138444 60.933503 
L 477.860862 59.750942 
L 479.58328 61.94015 
L 481.305733 59.909939 
L 483.028152 68.113869 
L 484.75057 66.884535 
L 486.473023 63.774051 
L 488.195441 69.746348 
L 489.917859 65.823921 
L 491.640312 69.57277 
L 493.361858 57.729045 
L 495.084345 57.830791 
L 496.806798 62.985466 
L 498.529251 71.116986 
L 500.251715 57.893175 
L 501.974168 64.143963 
L 503.696655 60.242662 
L 505.419108 60.05063 
L 507.141561 65.104981 
L 508.864014 66.541138 
L 510.586501 52.199173 
L 512.308954 74.883886 
L 514.031406 58.406137 
L 515.752148 64.886584 
L 517.474601 56.04031 
L 519.197054 59.9402 
L 520.919507 55.358836 
L 522.642005 56.837568 
L 524.364458 53.745112 
L 526.086911 65.015654 
L 527.809364 69.206386 
L 529.531851 54.025026 
L 531.254304 53.655011 
L 532.976757 61.751067 
L 534.698337 50.604137 
L 536.421352 68.545448 
L 538.143874 58.640664 
L 539.865626 58.31245 
L 541.589101 61.628345 
L 543.310888 53.514828 
L 545.034317 61.09524 
L 546.756115 62.365104 
L 548.477867 59.9973 
L 550.201331 59.384477 
L 551.923083 65.712728 
L 553.64487 68.851009 
L 555.36831 59.135911 
L 557.090097 57.707213 
L 558.811849 56.035546 
L 560.535324 57.542852 
L 562.257076 60.339829 
L 563.979426 58.910969 
L 565.702016 57.984514 
L 567.424607 61.232497 
L 569.147175 72.514729 
L 570.869765 53.226612 
L 572.592356 63.546346 
L 574.31327 61.676205 
L 576.035826 63.268953 
L 577.758428 76.786161 
L 579.481019 53.299877 
L 581.203575 59.716542 
L 582.926177 53.020079 
L 584.648733 68.680785 
L 586.371324 72.952217 
L 588.092238 78.827798 
L 589.814829 79.111608 
L 591.537178 80.06836 
L 593.260412 79.19409 
L 594.98198 56.723334 
L 596.705214 69.000188 
L 598.426817 55.199157 
L 600.150051 56.008407 
L 601.871619 67.75019 
L 603.594853 69.268978 
L 605.316433 67.862274 
L 607.039655 63.539315 
L 608.76127 59.56978 
L 610.484492 58.377806 
L 612.206072 53.941458 
L 613.9281 46.391909 
L 615.650736 53.142361 
L 617.373361 65.614694 
L 619.095986 60.290535 
L 620.818623 63.075556 
L 622.541248 61.118771 
L 624.262403 61.409474 
L 625.985775 59.111351 
L 627.707803 73.536444 
L 629.429877 73.173551 
L 631.151905 74.471202 
L 632.875552 66.902053 
L 634.597579 65.880431 
L 636.319022 65.176582 
L 638.041831 68.004225 
L 639.764628 44.770543 
L 641.487437 65.987577 
L 643.20873 68.069836 
L 644.931538 67.472947 
L 646.654588 64.785925 
L 648.376272 60.841586 
L 651.820833 79.99395 
L 653.544365 74.612679 
L 655.26637 79.352519 
L 656.988329 72.668973 
L 658.710288 82.086188 
L 660.433866 70.912061 
L 662.155837 64.054625 
L 663.877796 62.388924 
L 665.599789 63.323393 
L 667.323333 53.050143 
L 669.045338 69.75864 
L 670.767297 52.656886 
L 672.489256 50.841833 
L 674.212834 74.455001 
L 675.934793 64.771402 
L 677.656798 66.96194 
L 679.378757 73.615942 
L 681.102301 82.576682 
L 682.82426 75.010285 
L 684.546299 65.058844 
L 686.268258 75.16003 
L 687.991837 75.244362 
L 689.713796 84.05679 
L 691.435766 73.039012 
L 693.157725 70.84867 
L 694.881303 59.723456 
L 696.603262 72.815087 
L 698.325233 59.105499 
L 700.047192 68.680831 
L 701.77077 68.519245 
L 703.492729 75.419489 
L 705.214768 77.844624 
L 706.938266 85.146659 
L 708.660306 65.497661 
L 710.382265 58.661282 
L 712.104235 63.89727 
L 713.827802 73.869029 
L 715.549772 52.700364 
L 717.271731 43.019158 
L 718.99369 30.856422 
L 720.716924 32.742532 
L 722.438883 61.153611 
L 724.160923 69.162029 
L 725.884351 71.1932 
L 727.60631 69.623198 
L 729.32835 70.492057 
L 731.050378 72.145303 
L 734.495777 61.809381 
L 736.217817 67.76964 
L 737.939776 79.066951 
L 739.663216 72.263053 
L 741.385244 61.965428 
L 743.107214 60.284475 
L 744.829242 66.333148 
L 746.552683 66.428291 
L 748.274642 73.628442 
L 749.996681 73.706945 
L 751.72011 63.493016 
L 753.442069 64.80275 
L 755.164108 74.050839 
L 756.886068 74.474347 
L 758.609508 71.151272 
L 760.331536 75.758307 
L 762.053506 69.521764 
L 763.775534 70.387663 
L 765.498975 71.733972 
L 767.220934 64.5722 
L 768.942973 68.536116 
L 770.665001 57.010475 
L 772.388372 69.920492 
L 774.1104 45.478104 
L 775.83244 47.191538 
L 777.5558 64.428676 
L 779.277828 75.901334 
L 780.999867 60.680069 
L 782.721826 72.109735 
L 784.445266 72.315597 
L 786.167294 68.665614 
L 787.889265 75.18244 
L 789.612062 70.474295 
L 791.334308 70.178019 
L 793.056554 67.285922 
L 794.778307 71.019623 
L 796.501667 47.605714 
L 798.223499 57.53189 
L 799.946859 56.641997 
L 801.668681 54.111636 
L 805.113942 70.029916 
L 806.835763 66.438525 
L 808.557654 65.207583 
L 810.280038 65.938942 
L 812.003409 71.605364 
L 813.725368 79.420662 
L 815.44727 75.312909 
L 817.17063 65.760669 
L 818.892589 68.606491 
L 820.61449 70.648069 
L 822.33785 59.851416 
L 824.059809 64.310949 
L 825.78178 77.051459 
L 827.50367 56.527485 
L 829.227041 57.650587 
L 830.949 72.333 
L 832.670891 64.715296 
L 834.394469 64.028653 
L 836.116853 51.417005 
L 837.838467 46.437677 
L 839.56162 66.763281 
L 841.283373 77.425256 
L 843.005125 78.839465 
L 844.728278 73.823828 
L 848.173184 67.402677 
L 849.894948 69.872955 
L 851.618101 63.417727 
L 853.339922 64.144553 
L 855.063007 61.908548 
L 856.784828 66.534651 
L 858.50658 81.142109 
L 860.229733 76.032948 
L 861.951486 65.862323 
L 863.674639 62.427499 
L 865.396403 67.669617 
L 867.119556 72.354565 
L 868.841309 63.651075 
L 870.564462 71.270351 
L 872.286214 75.280867 
L 874.007967 64.739163 
L 875.73112 67.315038 
L 877.452872 76.959415 
L 879.176025 67.262355 
L 880.897858 68.47986 
L 882.620942 67.381828 
L 884.342764 66.835552 
L 886.065848 66.060796 
L 887.787669 69.430414 
L 889.510823 62.208547 
L 891.232575 65.738549 
L 892.954327 66.547937 
L 892.954327 66.547937 
" clip-path="url(#p2260b364f2)" style="fill: none; stroke: #c85a17; stroke-width: 1.4; stroke-linecap: square"/>
   </g>
   <g id="line2d_29">
    <path d="M 92.045673 276.955068 
L 93.769775 237.724016 
L 95.491003 172.150355 
L 97.213571 151.92536 
L 98.935918 143.424089 
L 100.658291 133.584419 
L 102.38047 139.354773 
L 104.103276 142.32238 
L 105.825371 157.681167 
L 107.550903 162.53094 
L 109.270267 178.024678 
L 110.994406 165.572395 
L 112.716205 150.016713 
L 114.437588 135.607832 
L 116.159854 120.018332 
L 117.882045 146.11303 
L 119.605957 153.206602 
L 121.327358 153.852126 
L 123.048975 149.530601 
L 124.774409 157.818736 
L 126.495868 173.243551 
L 128.220179 173.884348 
L 129.941645 169.338007 
L 131.662653 165.156659 
L 135.107228 151.481685 
L 136.828828 153.137453 
L 138.552128 150.453449 
L 140.273237 148.009813 
L 141.996414 140.148366 
L 143.717567 139.265608 
L 145.439679 137.363865 
L 147.165137 133.823861 
L 148.885616 127.205081 
L 150.606883 126.197659 
L 152.332276 120.844846 
L 154.054494 116.468835 
L 155.774228 114.823324 
L 157.497777 116.094345 
L 159.220099 113.985872 
L 160.943898 114.284553 
L 164.387851 107.621347 
L 166.110686 102.908727 
L 167.833079 108.140194 
L 169.554595 101.155989 
L 171.275385 101.647154 
L 172.999802 97.405729 
L 174.722781 96.472867 
L 176.445243 94.232769 
L 178.166226 95.60971 
L 179.889083 91.980275 
L 181.610976 85.746473 
L 183.332563 95.091764 
L 185.055333 91.657565 
L 186.776823 87.924303 
L 188.502351 86.076954 
L 190.223071 79.632745 
L 191.944282 81.317329 
L 193.66712 83.254132 
L 195.389706 81.18176 
L 197.112344 82.53747 
L 198.834631 77.606245 
L 200.556226 83.127502 
L 202.280336 67.668923 
L 204.000863 71.138529 
L 205.724816 76.755553 
L 207.445785 70.275984 
L 209.16872 71.479058 
L 210.891977 76.590752 
L 212.612868 78.293906 
L 214.335757 71.087858 
L 216.059737 65.651824 
L 217.782167 66.138039 
L 219.503735 74.951023 
L 221.22713 68.40367 
L 222.949123 66.331957 
L 224.671059 74.196445 
L 226.392582 71.487499 
L 228.116114 65.004958 
L 229.838555 70.665796 
L 231.559228 66.856239 
L 233.283955 59.432603 
L 235.004341 63.674306 
L 236.726679 60.378647 
L 238.449453 62.109866 
L 240.172262 70.778273 
L 241.894841 54.714294 
L 243.617259 62.923405 
L 245.339184 61.347032 
L 247.06182 67.021595 
L 248.784331 69.463023 
L 250.506623 63.738136 
L 252.227686 68.543043 
L 253.951322 65.17709 
L 255.67444 63.948461 
L 257.396801 66.544641 
L 259.11922 67.742928 
L 260.839652 77.997526 
L 262.561806 68.414296 
L 264.284167 68.029537 
L 266.007251 69.585132 
L 267.729991 70.045445 
L 269.451525 68.405843 
L 271.175896 65.455258 
L 272.897659 64.802172 
L 274.620399 66.224383 
L 276.341612 67.419894 
L 278.063261 67.426301 
L 279.786253 59.832811 
L 281.509246 62.251979 
L 283.23225 68.105243 
L 284.953646 71.704613 
L 286.67541 60.443992 
L 288.398908 65.292227 
L 290.120729 67.75537 
L 291.843469 67.075827 
L 293.56699 78.812835 
L 295.289362 68.997193 
L 297.011758 67.69923 
L 298.733211 69.98113 
L 300.456652 69.967254 
L 302.177015 71.410059 
L 303.90057 59.750468 
L 305.623241 62.101043 
L 307.344419 55.07218 
L 309.067871 56.767483 
L 310.789037 61.216516 
L 312.512478 63.678145 
L 314.233426 63.000105 
L 315.957487 52.495773 
L 317.678986 59.942258 
L 319.402013 56.530133 
L 321.124799 60.679942 
L 322.845139 50.618464 
L 324.568292 59.429886 
L 326.291721 55.333882 
L 328.012968 56.404336 
L 329.736409 65.213515 
L 331.458942 66.982684 
L 333.179546 54.523118 
L 334.902079 63.963794 
L 336.625049 57.876015 
L 338.347593 59.870889 
L 340.071149 58.33915 
L 341.79251 52.180348 
L 343.513861 50.508427 
L 345.237439 51.340028 
L 346.95879 54.127894 
L 348.682368 53.353138 
L 350.403718 52.771074 
L 352.127285 57.023703 
L 353.848635 55.017335 
L 357.293564 48.323694 
L 359.016843 49.695327 
L 360.737689 53.063372 
L 362.461554 54.072031 
L 364.183295 58.178119 
L 365.905012 49.717355 
L 367.628889 57.903605 
L 369.350619 57.085163 
L 371.072336 60.167894 
L 372.796213 55.496185 
L 374.517942 45.682278 
L 376.23966 51.555754 
L 377.963204 54.337514 
L 379.685921 63.492761 
L 381.406801 49.524652 
L 383.129862 58.973839 
L 384.852946 60.285111 
L 386.574021 56.449572 
L 388.297071 54.488879 
L 390.018123 56.437164 
L 391.741207 55.720202 
L 393.464257 53.977235 
L 395.187135 49.760579 
L 396.908015 62.712837 
L 398.631731 70.598162 
L 400.353621 68.17475 
L 402.076946 56.738031 
L 403.798767 69.697978 
L 405.520416 69.677245 
L 407.242031 56.77656 
L 408.965609 64.881982 
L 410.687224 62.792034 
L 412.410802 54.979523 
L 414.132405 66.350123 
L 415.854019 64.303861 
L 417.577598 58.681957 
L 419.299212 62.47122 
L 421.02279 68.203369 
L 422.744405 64.854184 
L 424.466008 75.712712 
L 426.18962 71.022814 
L 427.911476 62.108686 
L 429.633481 66.30868 
L 431.355509 65.948944 
L 433.079581 57.948956 
L 434.800702 65.538815 
L 436.52343 58.217527 
L 438.246342 61.747066 
L 439.969254 46.006942 
L 441.690628 60.457995 
L 443.413632 59.892038 
L 445.135005 58.729748 
L 446.858021 62.629939 
L 448.580117 64.68914 
L 450.303489 60.036303 
L 452.024082 58.8683 
L 453.746569 70.203031 
L 455.46994 56.062188 
L 457.191371 64.197177 
L 458.914249 54.480079 
L 460.637092 61.32409 
L 462.35997 61.310387 
L 464.081573 51.985564 
L 465.804623 60.117663 
L 467.525755 65.118337 
L 469.24877 60.842546 
L 470.971809 63.793732 
L 472.693182 66.062484 
L 474.415922 61.701356 
L 476.13865 69.943468 
L 477.86139 60.15914 
L 479.582408 68.816169 
L 481.305136 67.667986 
L 483.027623 57.558427 
L 484.749594 61.526541 
L 486.473229 46.699656 
L 488.195028 67.262818 
L 489.916459 61.035307 
L 491.639681 58.30091 
L 493.361123 63.976514 
L 495.083507 57.587613 
L 496.80712 58.008843 
L 498.529079 56.607631 
L 500.251394 60.401577 
L 501.973353 51.443925 
L 503.697103 41.400682 
L 505.419073 63.801803 
L 507.141067 52.928809 
L 508.863038 67.656943 
L 510.585628 65.459965 
L 512.307736 76.821499 
L 514.029833 72.767944 
L 515.753618 63.736193 
L 517.475726 58.372661 
L 519.197823 54.552442 
L 520.919897 40.547885 
L 522.642005 60.490719 
L 524.364102 58.105894 
L 526.087887 67.927676 
L 527.809995 51.482917 
L 529.532092 45.175676 
L 531.254201 56.81702 
L 532.976309 56.190691 
L 534.698406 54.547632 
L 536.421146 65.8393 
L 538.143598 58.433438 
L 541.589101 66.217618 
L 543.311382 66.798607 
L 545.033662 61.993596 
L 546.755931 56.622779 
L 548.478246 53.835653 
L 550.200527 53.655069 
L 551.922807 73.020788 
L 553.645536 64.977692 
L 555.367116 47.879072 
L 557.090269 53.485342 
L 558.811849 48.428758 
L 560.534968 69.449702 
L 562.256548 54.626344 
L 563.979701 59.838072 
L 565.701282 69.529477 
L 567.424435 59.456736 
L 569.147554 60.26232 
L 570.869134 62.243249 
L 572.592287 62.062942 
L 574.313867 50.618903 
L 576.036986 56.343883 
L 577.758566 52.852942 
L 579.481719 66.075667 
L 581.203299 47.340393 
L 582.926453 53.608191 
L 584.648033 57.036724 
L 586.371152 58.602598 
L 588.092732 62.225973 
L 589.815885 58.947174 
L 591.537465 62.844855 
L 593.260618 50.113458 
L 594.982198 52.170705 
L 596.705317 51.774799 
L 598.426897 64.430711 
L 600.150051 57.155445 
L 601.871619 65.120361 
L 603.594784 70.224284 
L 605.316353 70.194416 
L 607.039483 65.623632 
L 608.761052 69.554315 
L 610.484205 60.713256 
L 612.206807 68.356861 
L 613.928353 77.551736 
L 615.65115 60.84324 
L 617.373993 66.564103 
L 619.095252 83.08363 
L 620.81806 86.542806 
L 622.540858 68.215962 
L 624.263701 86.385637 
L 625.984959 68.721754 
L 627.707768 67.769963 
L 629.430611 67.778393 
L 631.15187 64.896101 
L 632.874679 52.626613 
L 634.597476 77.353875 
L 636.320319 65.22021 
L 638.041578 48.696913 
L 639.764387 62.71175 
L 641.48723 61.157982 
L 643.210027 76.550627 
L 644.932101 71.735452 
L 646.653325 70.13076 
L 648.376065 61.901598 
L 650.098759 67.211107 
L 651.821499 56.305145 
L 653.544227 57.528791 
L 655.265451 59.398896 
L 656.988191 65.469793 
L 658.71092 66.866623 
L 660.433625 66.563039 
L 662.154849 70.601284 
L 663.877589 73.349846 
L 665.600318 75.398871 
L 667.323057 70.185443 
L 669.045751 81.691207 
L 670.766976 78.334875 
L 672.489715 89.034431 
L 674.212455 72.525321 
L 675.935184 62.254546 
L 677.656373 73.854297 
L 679.379113 66.860772 
L 681.101876 81.256217 
L 684.545806 64.425438 
L 686.268545 71.524525 
L 687.991274 69.924562 
L 689.714014 45.970714 
L 691.436673 39.814907 
L 693.157932 47.094336 
L 694.880672 62.602568 
L 696.6034 61.149102 
L 698.32614 70.843317 
L 700.04733 66.599984 
L 701.77007 77.244555 
L 703.492798 65.214463 
L 705.215538 74.917269 
L 706.936728 47.971405 
L 708.659467 46.424379 
L 710.382196 46.0732 
L 712.104936 56.113205 
L 713.827664 60.100722 
L 715.548854 49.72945 
L 717.271594 55.204395 
L 718.994322 44.99153 
L 720.717062 63.779382 
L 722.43832 41.316108 
L 724.160773 60.264922 
L 725.883226 68.842661 
L 727.60569 80.0532 
L 729.328212 78.116952 
L 731.050665 63.4088 
L 732.773118 75.576542 
L 734.49557 75.545714 
L 736.218023 70.59497 
L 737.940476 77.828123 
L 739.662929 68.470332 
L 741.385382 64.734376 
L 743.107915 72.914382 
L 746.55282 77.381026 
L 748.275273 70.3994 
L 749.996394 62.740404 
L 751.718847 71.885718 
L 753.4413 70.771069 
L 755.163753 61.787133 
L 756.886217 66.040595 
L 758.608738 76.417244 
L 760.331191 71.532689 
L 762.053644 73.825435 
L 763.776097 74.493797 
L 765.49855 70.703782 
L 767.221002 76.022275 
L 768.943455 69.645192 
L 770.665988 56.200913 
L 772.388441 65.115909 
L 774.110894 69.734449 
L 775.833347 76.128368 
L 777.5558 72.877125 
L 779.276921 76.290174 
L 780.999373 76.119442 
L 782.721826 67.049289 
L 784.444279 67.170126 
L 786.166812 64.193292 
L 787.889265 83.345136 
L 789.611718 60.371848 
L 791.334171 68.433341 
L 793.056623 65.715364 
L 794.779076 64.020004 
L 796.501529 79.491696 
L 798.224051 71.900634 
L 799.946515 60.895992 
L 801.668968 73.46393 
L 803.391421 68.827883 
L 805.113873 74.842108 
L 806.836326 81.644976 
L 808.558779 65.077796 
L 810.279762 76.759045 
L 812.002284 57.788769 
L 813.724736 73.077055 
L 815.447189 74.23857 
L 817.169654 70.165045 
L 818.892313 69.266145 
L 820.614272 52.277284 
L 822.337506 68.141598 
L 824.059396 70.37433 
L 825.781355 72.234769 
L 827.504577 71.685718 
L 829.226479 64.998356 
L 830.948438 69.890231 
L 832.67166 64.285082 
L 834.393561 70.610465 
L 836.116853 77.76582 
L 837.838743 64.41724 
L 839.560644 67.406666 
L 841.283866 73.093093 
L 843.005826 69.81219 
L 844.727716 71.6165 
L 846.450949 71.696761 
L 848.172908 77.006397 
L 849.894798 84.045875 
L 851.618032 79.041523 
L 853.339991 70.547457 
L 855.061881 69.098083 
L 858.507074 60.16047 
L 860.228964 70.300903 
L 861.952186 79.554011 
L 863.674157 68.694627 
L 863.674157 68.694627 
" clip-path="url(#p2260b364f2)" style="fill: none; stroke: #31557c; stroke-width: 1.4; stroke-linecap: square"/>
   </g>
   <g id="patch_3">
    <path d="M 52.00024 289.26 
L 52.00024 18.55149 
" style="fill: none; stroke: #000000; stroke-width: 0.8; stroke-linejoin: miter; stroke-linecap: square"/>
   </g>
   <g id="patch_4">
    <path d="M 932.99976 289.26 
L 932.99976 18.55149 
" style="fill: none; stroke: #000000; stroke-width: 0.8; stroke-linejoin: miter; stroke-linecap: square"/>
   </g>
   <g id="patch_5">
    <path d="M 52.00024 289.26 
L 932.99976 289.26 
" style="fill: none; stroke: #000000; stroke-width: 0.8; stroke-linejoin: miter; stroke-linecap: square"/>
   </g>
   <g id="patch_6">
    <path d="M 52.00024 18.55149 
L 932.99976 18.55149 
" style="fill: none; stroke: #000000; stroke-width: 0.8; stroke-linejoin: miter; stroke-linecap: square"/>
   </g>
   <g id="text_16">
    <!-- 全域热释放速率 -->
    <g transform="translate(450.5 12.55149) scale(0.12 -0.12)">
     <defs>
      <path id="NotoSansCJKjp-Regular-5168" d="M 3174 4909 
C 3750 4102 4877 3155 5862 2579 
C 5952 2720 6067 2880 6182 3002 
C 5184 3501 4064 4442 3392 5389 
L 2906 5389 
C 2413 4550 1344 3533 237 2925 
C 346 2829 480 2656 544 2547 
C 1619 3174 2656 4128 3174 4909 
z
M 486 102 
L 486 -333 
L 5946 -333 
L 5946 102 
L 3430 102 
L 3430 1158 
L 5376 1158 
L 5376 1587 
L 3430 1587 
L 3430 2586 
L 5133 2586 
L 5133 3014 
L 1299 3014 
L 1299 2586 
L 2931 2586 
L 2931 1587 
L 1011 1587 
L 1011 1158 
L 2931 1158 
L 2931 102 
L 486 102 
z
" transform="scale(0.015625)"/>
      <path id="NotoSansCJKjp-Regular-57df" d="M 1882 659 
L 2003 198 
C 2618 371 3430 608 4198 832 
L 4154 1235 
C 3315 1018 2451 787 1882 659 
z
M 2656 2995 
L 3494 2995 
L 3494 1914 
L 2656 1914 
L 2656 2995 
z
M 2285 3386 
L 2285 1523 
L 3885 1523 
L 3885 3386 
L 2285 3386 
z
M 230 826 
L 410 352 
C 915 595 1542 915 2131 1222 
L 1997 1651 
L 1402 1363 
L 1402 3360 
L 1984 3360 
L 1984 3814 
L 1402 3814 
L 1402 5299 
L 954 5299 
L 954 3814 
L 275 3814 
L 275 3360 
L 954 3360 
L 954 1152 
C 685 1024 435 909 230 826 
z
M 5517 3386 
C 5363 2778 5158 2221 4902 1728 
C 4813 2362 4749 3130 4717 3987 
L 6074 3987 
L 6074 4429 
L 5728 4429 
L 6016 4704 
C 5850 4896 5510 5171 5229 5363 
L 4954 5120 
C 5235 4915 5555 4627 5715 4429 
L 4704 4429 
L 4698 5370 
L 4237 5370 
L 4250 4429 
L 2093 4429 
L 2093 3987 
L 4262 3987 
C 4307 2893 4390 1907 4544 1133 
C 4186 621 3744 192 3226 -141 
C 3328 -211 3514 -371 3578 -454 
C 3987 -166 4352 186 4672 582 
C 4870 -96 5146 -506 5536 -506 
C 5939 -506 6074 -230 6150 621 
C 6048 666 5901 768 5805 870 
C 5779 205 5722 -51 5594 -51 
C 5363 -51 5165 365 5018 1069 
C 5421 1702 5728 2451 5952 3296 
L 5517 3386 
z
" transform="scale(0.015625)"/>
      <path id="NotoSansCJKjp-Regular-70ed" d="M 2195 710 
C 2272 326 2323 -173 2323 -474 
L 2797 -403 
C 2790 -109 2720 378 2637 755 
L 2195 710 
z
M 3514 723 
C 3680 346 3840 -154 3904 -461 
L 4378 -358 
C 4314 -58 4134 435 3962 806 
L 3514 723 
z
M 4838 755 
C 5158 358 5523 -192 5677 -538 
L 6131 -326 
C 5958 13 5581 550 5261 934 
L 4838 755 
z
M 1114 896 
C 902 454 563 -38 275 -339 
L 723 -525 
C 1018 -192 1344 326 1562 774 
L 1114 896 
z
M 1382 5370 
L 1382 4480 
L 422 4480 
L 422 4032 
L 1382 4032 
L 1382 3046 
L 294 2765 
L 410 2304 
L 1382 2579 
L 1382 1606 
C 1382 1530 1350 1504 1267 1504 
C 1190 1504 922 1498 627 1504 
C 691 1382 749 1203 768 1075 
C 1184 1075 1446 1082 1606 1158 
C 1773 1229 1830 1357 1830 1606 
L 1830 2707 
L 2650 2938 
L 2592 3373 
L 1830 3168 
L 1830 4032 
L 2579 4032 
L 2579 4480 
L 1830 4480 
L 1830 5370 
L 1382 5370 
z
M 3622 5382 
L 3610 4454 
L 2739 4454 
L 2739 4038 
L 3590 4038 
C 3571 3616 3533 3245 3462 2925 
L 2931 3238 
L 2694 2906 
C 2899 2790 3117 2650 3341 2509 
C 3162 2029 2861 1670 2355 1402 
C 2458 1325 2598 1158 2662 1056 
C 3194 1350 3526 1741 3731 2253 
C 4032 2048 4307 1843 4486 1690 
L 4736 2067 
C 4531 2240 4211 2458 3866 2675 
C 3968 3066 4019 3514 4045 4038 
L 4909 4038 
C 4890 2144 4883 1024 5645 1030 
C 6016 1030 6163 1235 6221 1971 
C 6106 2003 5939 2080 5843 2157 
C 5824 1632 5773 1453 5664 1453 
C 5318 1453 5318 2445 5370 4454 
L 4064 4454 
L 4083 5382 
L 3622 5382 
z
" transform="scale(0.015625)"/>
      <path id="NotoSansCJKjp-Regular-91ca" d="M 384 4262 
C 570 3974 755 3584 832 3334 
L 1178 3475 
C 1101 3718 902 4102 717 4384 
L 384 4262 
z
M 2438 4448 
C 2330 4166 2125 3738 1971 3482 
L 2298 3373 
C 2464 3616 2650 3987 2816 4326 
L 2438 4448 
z
M 2970 5043 
L 2970 4614 
L 3258 4614 
C 3475 4179 3763 3795 4109 3469 
C 3648 3181 3142 2957 2650 2816 
L 2650 3066 
L 1818 3066 
L 1818 4749 
C 2176 4800 2509 4870 2784 4947 
L 2528 5318 
C 1990 5158 1043 5037 262 4966 
C 314 4870 365 4710 384 4608 
C 698 4627 1037 4653 1376 4691 
L 1376 3066 
L 320 3066 
L 320 2650 
L 1293 2650 
C 1037 2010 602 1280 205 896 
C 282 774 397 563 442 422 
C 768 787 1114 1382 1376 1978 
L 1376 -518 
L 1818 -518 
L 1818 2080 
C 2061 1798 2342 1453 2470 1274 
L 2778 1606 
C 2637 1766 2035 2394 1818 2586 
L 1818 2650 
L 2650 2650 
L 2650 2797 
C 2733 2701 2842 2534 2893 2426 
C 3418 2605 3962 2854 4448 3181 
C 4896 2842 5414 2586 5984 2419 
C 6042 2541 6157 2726 6246 2822 
C 5722 2950 5229 3162 4813 3443 
C 5318 3840 5754 4333 6029 4909 
L 5741 5062 
L 5658 5043 
L 2970 5043 
z
M 5370 4614 
C 5133 4275 4819 3968 4454 3706 
C 4141 3968 3878 4275 3680 4614 
L 5370 4614 
z
M 4198 2618 
L 4198 2048 
L 3034 2048 
L 3034 1613 
L 4198 1613 
L 4198 954 
L 2778 954 
L 2778 525 
L 4198 525 
L 4198 -518 
L 4678 -518 
L 4678 525 
L 6086 525 
L 6086 954 
L 4678 954 
L 4678 1613 
L 5818 1613 
L 5818 2048 
L 4678 2048 
L 4678 2618 
L 4198 2618 
z
" transform="scale(0.015625)"/>
      <path id="NotoSansCJKjp-Regular-653e" d="M 1453 5363 
L 1453 4339 
L 282 4339 
L 282 3891 
L 1037 3891 
L 1037 2560 
C 1037 1651 941 640 160 -192 
C 275 -275 435 -403 518 -506 
C 1370 403 1498 1491 1498 2554 
L 1498 2592 
L 2374 2592 
C 2330 800 2285 166 2176 26 
C 2125 -51 2074 -64 1978 -64 
C 1882 -64 1638 -58 1370 -38 
C 1446 -160 1491 -352 1498 -486 
C 1773 -493 2042 -493 2195 -480 
C 2368 -461 2477 -410 2579 -269 
C 2752 -51 2784 678 2829 2816 
C 2835 2886 2835 3040 2835 3040 
L 1498 3040 
L 1498 3891 
L 3123 3891 
L 3123 4339 
L 1926 4339 
L 1926 5363 
L 1453 5363 
z
M 3974 3731 
L 5203 3731 
C 5069 2912 4870 2214 4570 1638 
C 4282 2221 4077 2899 3942 3635 
L 3974 3731 
z
M 3872 5382 
C 3686 4275 3354 3200 2848 2528 
C 2963 2451 3174 2298 3258 2214 
C 3405 2419 3533 2662 3654 2918 
C 3814 2272 4019 1683 4282 1171 
C 3898 627 3379 205 2688 -102 
C 2778 -205 2918 -416 2963 -525 
C 3629 -198 4141 218 4544 730 
C 4890 205 5325 -211 5869 -499 
C 5939 -371 6093 -186 6202 -90 
C 5632 179 5184 608 4832 1158 
C 5248 1850 5510 2694 5683 3731 
L 6157 3731 
L 6157 4179 
L 4109 4179 
C 4211 4538 4294 4922 4365 5306 
L 3872 5382 
z
" transform="scale(0.015625)"/>
      <path id="NotoSansCJKjp-Regular-901f" d="M 384 4934 
C 794 4646 1274 4218 1478 3904 
L 1862 4224 
C 1632 4531 1152 4947 730 5222 
L 384 4934 
z
M 1677 2848 
L 314 2848 
L 314 2400 
L 1210 2400 
L 1210 768 
C 890 499 518 230 230 32 
L 480 -461 
C 826 -173 1152 102 1459 378 
C 1869 -128 2445 -358 3283 -390 
C 3994 -416 5318 -403 6016 -371 
C 6035 -224 6118 6 6176 115 
C 5414 64 3981 45 3283 77 
C 2541 102 1978 326 1677 794 
L 1677 2848 
z
M 2752 3379 
L 3757 3379 
L 3757 2560 
L 2752 2560 
L 2752 3379 
z
M 4224 3379 
L 5286 3379 
L 5286 2560 
L 4224 2560 
L 4224 3379 
z
M 3757 5370 
L 3757 4710 
L 2035 4710 
L 2035 4294 
L 3757 4294 
L 3757 3763 
L 2304 3763 
L 2304 2176 
L 3501 2176 
C 3130 1638 2502 1120 1920 870 
C 2022 781 2163 621 2227 506 
C 2778 787 3360 1306 3757 1875 
L 3757 314 
L 4224 314 
L 4224 1850 
C 4640 1318 5235 800 5754 525 
C 5824 640 5971 806 6080 896 
C 5510 1146 4845 1658 4442 2176 
L 5754 2176 
L 5754 3763 
L 4224 3763 
L 4224 4294 
L 6048 4294 
L 6048 4710 
L 4224 4710 
L 4224 5370 
L 3757 5370 
z
" transform="scale(0.015625)"/>
      <path id="NotoSansCJKjp-Regular-7387" d="M 5376 4038 
C 5139 3782 4704 3437 4384 3226 
L 4736 3014 
C 5056 3226 5472 3520 5798 3821 
L 5376 4038 
z
M 320 1997 
L 557 1613 
C 986 1798 1517 2048 2022 2291 
L 1933 2656 
C 1338 2406 730 2150 320 1997 
z
M 544 3680 
C 902 3482 1344 3174 1555 2957 
L 1888 3258 
C 1670 3469 1222 3757 864 3949 
L 544 3680 
z
M 4262 2458 
C 4768 2202 5408 1811 5715 1542 
L 6067 1850 
C 5734 2112 5094 2490 4595 2733 
L 4262 2458 
z
M 3526 2707 
C 3654 2566 3782 2400 3904 2227 
L 2810 2176 
C 3264 2618 3763 3168 4147 3642 
L 3770 3827 
C 3590 3571 3347 3270 3091 2976 
C 2957 3098 2784 3226 2598 3347 
C 2810 3578 3046 3878 3251 4154 
L 3110 4211 
L 5882 4211 
L 5882 4659 
L 3424 4659 
L 3424 5376 
L 2938 5376 
L 2938 4659 
L 538 4659 
L 538 4211 
L 2771 4211 
C 2643 4000 2470 3750 2310 3546 
L 2131 3654 
L 1894 3373 
C 2202 3174 2579 2906 2822 2682 
C 2650 2490 2470 2310 2304 2150 
L 1811 2131 
L 1882 1715 
L 4128 1882 
C 4211 1747 4275 1626 4320 1517 
L 4691 1709 
C 4550 2035 4192 2515 3872 2874 
L 3526 2707 
z
M 346 1222 
L 346 774 
L 2938 774 
L 2938 -531 
L 3424 -531 
L 3424 774 
L 6061 774 
L 6061 1222 
L 3424 1222 
L 3424 1722 
L 2938 1722 
L 2938 1222 
L 346 1222 
z
" transform="scale(0.015625)"/>
     </defs>
     <use xlink:href="#NotoSansCJKjp-Regular-5168"/>
     <use xlink:href="#NotoSansCJKjp-Regular-57df" x="99.999985"/>
     <use xlink:href="#NotoSansCJKjp-Regular-70ed" x="199.999969"/>
     <use xlink:href="#NotoSansCJKjp-Regular-91ca" x="299.999954"/>
     <use xlink:href="#NotoSansCJKjp-Regular-653e" x="399.999939"/>
     <use xlink:href="#NotoSansCJKjp-Regular-901f" x="499.999924"/>
     <use xlink:href="#NotoSansCJKjp-Regular-7387" x="599.999908"/>
    </g>
   </g>
   <g id="legend_1">
    <g id="patch_7">
     <path d="M 57.60024 61.55149 
L 132.03274 61.55149 
Q 133.63274 61.55149 133.63274 59.95149 
L 133.63274 24.15149 
Q 133.63274 22.55149 132.03274 22.55149 
L 57.60024 22.55149 
Q 56.00024 22.55149 56.00024 24.15149 
L 56.00024 59.95149 
Q 56.00024 61.55149 57.60024 61.55149 
z
" style="fill: #ffffff; opacity: 0.8; stroke: #cccccc; stroke-linejoin: miter"/>
    </g>
    <g id="line2d_30">
     <path d="M 59.20024 29.31899 
L 67.20024 29.31899 
L 75.20024 29.31899 
" style="fill: none; stroke: #00796b; stroke-width: 1.4; stroke-linecap: square"/>
    </g>
    <g id="text_17">
     <!-- Q=50 J/cm2 -->
     <g transform="translate(81.60024 32.11899) scale(0.08 -0.08)">
      <defs>
       <path id="NotoSansCJKjp-Regular-51" d="M 2374 410 
C 1530 410 979 1165 979 2362 
C 979 3533 1530 4256 2374 4256 
C 3219 4256 3770 3533 3770 2362 
C 3770 1165 3219 410 2374 410 
z
M 3808 -1178 
C 4090 -1178 4339 -1133 4480 -1069 
L 4365 -614 
C 4243 -653 4083 -685 3872 -685 
C 3366 -685 2931 -474 2720 -58 
C 3712 115 4378 1011 4378 2362 
C 4378 3866 3552 4774 2374 4774 
C 1197 4774 371 3866 371 2362 
C 371 986 1062 77 2086 -64 
C 2349 -704 2944 -1178 3808 -1178 
z
" transform="scale(0.015625)"/>
       <path id="NotoSansCJKjp-Regular-3d" d="M 243 2912 
L 3315 2912 
L 3315 3347 
L 243 3347 
L 243 2912 
z
M 243 1376 
L 3315 1376 
L 3315 1811 
L 243 1811 
L 243 1376 
z
" transform="scale(0.015625)"/>
       <path id="NotoSansCJKjp-Regular-20" transform="scale(0.015625)"/>
       <path id="NotoSansCJKjp-Regular-4a" d="M 1517 -83 
C 2432 -83 2810 563 2810 1376 
L 2810 4691 
L 2214 4691 
L 2214 1434 
C 2214 723 1965 435 1459 435 
C 1120 435 858 589 646 966 
L 224 659 
C 499 173 922 -83 1517 -83 
z
" transform="scale(0.015625)"/>
       <path id="NotoSansCJKjp-Regular-2f" d="M 70 -1146 
L 499 -1146 
L 2413 5082 
L 1990 5082 
L 70 -1146 
z
" transform="scale(0.015625)"/>
       <path id="NotoSansCJKjp-Regular-63" d="M 1958 -83 
C 2374 -83 2771 83 3085 352 
L 2829 749 
C 2611 557 2330 403 2010 403 
C 1370 403 934 934 934 1734 
C 934 2534 1395 3072 2029 3072 
C 2298 3072 2522 2950 2720 2771 
L 3014 3155 
C 2771 3373 2458 3565 2003 3565 
C 1107 3565 333 2893 333 1734 
C 333 582 1037 -83 1958 -83 
z
" transform="scale(0.015625)"/>
       <path id="NotoSansCJKjp-Regular-6d" d="M 589 0 
L 1178 0 
L 1178 2522 
C 1491 2880 1786 3053 2048 3053 
C 2490 3053 2694 2778 2694 2125 
L 2694 0 
L 3277 0 
L 3277 2522 
C 3603 2880 3885 3053 4154 3053 
C 4595 3053 4800 2778 4800 2125 
L 4800 0 
L 5382 0 
L 5382 2202 
C 5382 3085 5043 3565 4333 3565 
C 3904 3565 3546 3290 3181 2899 
C 3040 3309 2758 3565 2221 3565 
C 1805 3565 1446 3302 1139 2970 
L 1126 2970 
L 1069 3475 
L 589 3475 
L 589 0 
z
" transform="scale(0.015625)"/>
      </defs>
      <use xlink:href="#NotoSansCJKjp-Regular-51"/>
      <use xlink:href="#NotoSansCJKjp-Regular-3d" x="74.199982"/>
      <use xlink:href="#NotoSansCJKjp-Regular-35" x="129.699966"/>
      <use xlink:href="#NotoSansCJKjp-Regular-30" x="185.199951"/>
      <use xlink:href="#NotoSansCJKjp-Regular-20" x="240.699936"/>
      <use xlink:href="#NotoSansCJKjp-Regular-4a" x="263.09993"/>
      <use xlink:href="#NotoSansCJKjp-Regular-2f" x="316.599915"/>
      <use xlink:href="#NotoSansCJKjp-Regular-63" x="355.799911"/>
      <use xlink:href="#NotoSansCJKjp-Regular-6d" x="406.799896"/>
      <use xlink:href="#NotoSansCJKjp-Regular-32" x="499.399887"/>
     </g>
    </g>
    <g id="line2d_31">
     <path d="M 59.20024 41.51899 
L 67.20024 41.51899 
L 75.20024 41.51899 
" style="fill: none; stroke: #c85a17; stroke-width: 1.4; stroke-linecap: square"/>
    </g>
    <g id="text_18">
     <!-- Q=200 J/cm2 -->
     <g transform="translate(81.60024 44.31899) scale(0.08 -0.08)">
      <use xlink:href="#NotoSansCJKjp-Regular-51"/>
      <use xlink:href="#NotoSansCJKjp-Regular-3d" x="74.199982"/>
      <use xlink:href="#NotoSansCJKjp-Regular-32" x="129.699966"/>
      <use xlink:href="#NotoSansCJKjp-Regular-30" x="185.199951"/>
      <use xlink:href="#NotoSansCJKjp-Regular-30" x="240.699936"/>
      <use xlink:href="#NotoSansCJKjp-Regular-20" x="296.199921"/>
      <use xlink:href="#NotoSansCJKjp-Regular-4a" x="318.599915"/>
      <use xlink:href="#NotoSansCJKjp-Regular-2f" x="372.099899"/>
      <use xlink:href="#NotoSansCJKjp-Regular-63" x="411.299896"/>
      <use xlink:href="#NotoSansCJKjp-Regular-6d" x="462.299881"/>
      <use xlink:href="#NotoSansCJKjp-Regular-32" x="554.899872"/>
     </g>
    </g>
    <g id="line2d_32">
     <path d="M 59.20024 53.71899 
L 67.20024 53.71899 
L 75.20024 53.71899 
" style="fill: none; stroke: #31557c; stroke-width: 1.4; stroke-linecap: square"/>
    </g>
    <g id="text_19">
     <!-- Q=400 J/cm2 -->
     <g transform="translate(81.60024 56.51899) scale(0.08 -0.08)">
      <use xlink:href="#NotoSansCJKjp-Regular-51"/>
      <use xlink:href="#NotoSansCJKjp-Regular-3d" x="74.199982"/>
      <use xlink:href="#NotoSansCJKjp-Regular-34" x="129.699966"/>
      <use xlink:href="#NotoSansCJKjp-Regular-30" x="185.199951"/>
      <use xlink:href="#NotoSansCJKjp-Regular-30" x="240.699936"/>
      <use xlink:href="#NotoSansCJKjp-Regular-20" x="296.199921"/>
      <use xlink:href="#NotoSansCJKjp-Regular-4a" x="318.599915"/>
      <use xlink:href="#NotoSansCJKjp-Regular-2f" x="372.099899"/>
      <use xlink:href="#NotoSansCJKjp-Regular-63" x="411.299896"/>
      <use xlink:href="#NotoSansCJKjp-Regular-6d" x="462.299881"/>
      <use xlink:href="#NotoSansCJKjp-Regular-32" x="554.899872"/>
     </g>
    </g>
   </g>
  </g>
  <g id="axes_2">
   <g id="patch_8">
    <path d="M 52.00024 613.49976 
L 932.99976 613.49976 
L 932.99976 342.79125 
L 52.00024 342.79125 
z
" style="fill: #ffffff"/>
   </g>
   <g id="matplotlib.axis_3">
    <g id="xtick_9">
     <g id="line2d_33">
      <path d="M 92.045673 613.49976 
L 92.045673 342.79125 
" clip-path="url(#p3b191d4575)" style="fill: none; stroke: #d8dde3; stroke-width: 0.6; stroke-linecap: square"/>
     </g>
     <g id="line2d_34">
      <g>
       <use xlink:href="#me1abad6496" x="92.045673" y="613.49976" style="stroke: #000000; stroke-width: 0.8"/>
      </g>
     </g>
     <g id="text_20">
      <!-- 0 -->
      <g transform="translate(89.270673 628.459135) scale(0.1 -0.1)">
       <use xlink:href="#NotoSansCJKjp-Regular-30"/>
      </g>
     </g>
    </g>
    <g id="xtick_10">
     <g id="line2d_35">
      <path d="M 226.20057 613.49976 
L 226.20057 342.79125 
" clip-path="url(#p3b191d4575)" style="fill: none; stroke: #d8dde3; stroke-width: 0.6; stroke-linecap: square"/>
     </g>
     <g id="line2d_36">
      <g>
       <use xlink:href="#me1abad6496" x="226.20057" y="613.49976" style="stroke: #000000; stroke-width: 0.8"/>
      </g>
     </g>
     <g id="text_21">
      <!-- 50 -->
      <g transform="translate(220.65057 628.459135) scale(0.1 -0.1)">
       <use xlink:href="#NotoSansCJKjp-Regular-35"/>
       <use xlink:href="#NotoSansCJKjp-Regular-30" x="55.499985"/>
      </g>
     </g>
    </g>
    <g id="xtick_11">
     <g id="line2d_37">
      <path d="M 360.355467 613.49976 
L 360.355467 342.79125 
" clip-path="url(#p3b191d4575)" style="fill: none; stroke: #d8dde3; stroke-width: 0.6; stroke-linecap: square"/>
     </g>
     <g id="line2d_38">
      <g>
       <use xlink:href="#me1abad6496" x="360.355467" y="613.49976" style="stroke: #000000; stroke-width: 0.8"/>
      </g>
     </g>
     <g id="text_22">
      <!-- 100 -->
      <g transform="translate(352.030467 628.459135) scale(0.1 -0.1)">
       <use xlink:href="#NotoSansCJKjp-Regular-31"/>
       <use xlink:href="#NotoSansCJKjp-Regular-30" x="55.499985"/>
       <use xlink:href="#NotoSansCJKjp-Regular-30" x="110.999969"/>
      </g>
     </g>
    </g>
    <g id="xtick_12">
     <g id="line2d_39">
      <path d="M 494.510365 613.49976 
L 494.510365 342.79125 
" clip-path="url(#p3b191d4575)" style="fill: none; stroke: #d8dde3; stroke-width: 0.6; stroke-linecap: square"/>
     </g>
     <g id="line2d_40">
      <g>
       <use xlink:href="#me1abad6496" x="494.510365" y="613.49976" style="stroke: #000000; stroke-width: 0.8"/>
      </g>
     </g>
     <g id="text_23">
      <!-- 150 -->
      <g transform="translate(486.185365 628.459135) scale(0.1 -0.1)">
       <use xlink:href="#NotoSansCJKjp-Regular-31"/>
       <use xlink:href="#NotoSansCJKjp-Regular-35" x="55.499985"/>
       <use xlink:href="#NotoSansCJKjp-Regular-30" x="110.999969"/>
      </g>
     </g>
    </g>
    <g id="xtick_13">
     <g id="line2d_41">
      <path d="M 628.665262 613.49976 
L 628.665262 342.79125 
" clip-path="url(#p3b191d4575)" style="fill: none; stroke: #d8dde3; stroke-width: 0.6; stroke-linecap: square"/>
     </g>
     <g id="line2d_42">
      <g>
       <use xlink:href="#me1abad6496" x="628.665262" y="613.49976" style="stroke: #000000; stroke-width: 0.8"/>
      </g>
     </g>
     <g id="text_24">
      <!-- 200 -->
      <g transform="translate(620.340262 628.459135) scale(0.1 -0.1)">
       <use xlink:href="#NotoSansCJKjp-Regular-32"/>
       <use xlink:href="#NotoSansCJKjp-Regular-30" x="55.499985"/>
       <use xlink:href="#NotoSansCJKjp-Regular-30" x="110.999969"/>
      </g>
     </g>
    </g>
    <g id="xtick_14">
     <g id="line2d_43">
      <path d="M 762.82016 613.49976 
L 762.82016 342.79125 
" clip-path="url(#p3b191d4575)" style="fill: none; stroke: #d8dde3; stroke-width: 0.6; stroke-linecap: square"/>
     </g>
     <g id="line2d_44">
      <g>
       <use xlink:href="#me1abad6496" x="762.82016" y="613.49976" style="stroke: #000000; stroke-width: 0.8"/>
      </g>
     </g>
     <g id="text_25">
      <!-- 250 -->
      <g transform="translate(754.49516 628.459135) scale(0.1 -0.1)">
       <use xlink:href="#NotoSansCJKjp-Regular-32"/>
       <use xlink:href="#NotoSansCJKjp-Regular-35" x="55.499985"/>
       <use xlink:href="#NotoSansCJKjp-Regular-30" x="110.999969"/>
      </g>
     </g>
    </g>
    <g id="xtick_15">
     <g id="line2d_45">
      <path d="M 896.975057 613.49976 
L 896.975057 342.79125 
" clip-path="url(#p3b191d4575)" style="fill: none; stroke: #d8dde3; stroke-width: 0.6; stroke-linecap: square"/>
     </g>
     <g id="line2d_46">
      <g>
       <use xlink:href="#me1abad6496" x="896.975057" y="613.49976" style="stroke: #000000; stroke-width: 0.8"/>
      </g>
     </g>
     <g id="text_26">
      <!-- 300 -->
      <g transform="translate(888.650057 628.459135) scale(0.1 -0.1)">
       <use xlink:href="#NotoSansCJKjp-Regular-33"/>
       <use xlink:href="#NotoSansCJKjp-Regular-30" x="55.499985"/>
       <use xlink:href="#NotoSansCJKjp-Regular-30" x="110.999969"/>
      </g>
     </g>
    </g>
    <g id="text_27">
     <!-- 模拟时间（s） -->
     <g transform="translate(460.160156 642.709135) scale(0.1 -0.1)">
      <use xlink:href="#NotoSansCJKjp-Regular-6a21"/>
      <use xlink:href="#NotoSansCJKjp-Regular-62df" x="99.999985"/>
      <use xlink:href="#NotoSansCJKjp-Regular-65f6" x="199.999969"/>
      <use xlink:href="#NotoSansCJKjp-Regular-95f4" x="299.999954"/>
      <use xlink:href="#NotoSansCJKjp-Regular-ff08" x="399.999939"/>
      <use xlink:href="#NotoSansCJKjp-Regular-73" x="499.999924"/>
      <use xlink:href="#NotoSansCJKjp-Regular-ff09" x="546.799911"/>
     </g>
    </g>
   </g>
   <g id="matplotlib.axis_4">
    <g id="ytick_6">
     <g id="line2d_47">
      <path d="M 52.00024 601.194828 
L 932.99976 601.194828 
" clip-path="url(#p3b191d4575)" style="fill: none; stroke: #d8dde3; stroke-width: 0.6; stroke-linecap: square"/>
     </g>
     <g id="line2d_48">
      <g>
       <use xlink:href="#mf8c7a6f285" x="52.00024" y="601.194828" style="stroke: #000000; stroke-width: 0.8"/>
      </g>
     </g>
     <g id="text_28">
      <!-- 0 -->
      <g transform="translate(39.45024 605.174515) scale(0.1 -0.1)">
       <use xlink:href="#NotoSansCJKjp-Regular-30"/>
      </g>
     </g>
    </g>
    <g id="ytick_7">
     <g id="line2d_49">
      <path d="M 52.00024 570.766548 
L 932.99976 570.766548 
" clip-path="url(#p3b191d4575)" style="fill: none; stroke: #d8dde3; stroke-width: 0.6; stroke-linecap: square"/>
     </g>
     <g id="line2d_50">
      <g>
       <use xlink:href="#mf8c7a6f285" x="52.00024" y="570.766548" style="stroke: #000000; stroke-width: 0.8"/>
      </g>
     </g>
     <g id="text_29">
      <!-- 2500 -->
      <g transform="translate(22.80024 574.746235) scale(0.1 -0.1)">
       <use xlink:href="#NotoSansCJKjp-Regular-32"/>
       <use xlink:href="#NotoSansCJKjp-Regular-35" x="55.499985"/>
       <use xlink:href="#NotoSansCJKjp-Regular-30" x="110.999969"/>
       <use xlink:href="#NotoSansCJKjp-Regular-30" x="166.499954"/>
      </g>
     </g>
    </g>
    <g id="ytick_8">
     <g id="line2d_51">
      <path d="M 52.00024 540.338268 
L 932.99976 540.338268 
" clip-path="url(#p3b191d4575)" style="fill: none; stroke: #d8dde3; stroke-width: 0.6; stroke-linecap: square"/>
     </g>
     <g id="line2d_52">
      <g>
       <use xlink:href="#mf8c7a6f285" x="52.00024" y="540.338268" style="stroke: #000000; stroke-width: 0.8"/>
      </g>
     </g>
     <g id="text_30">
      <!-- 5000 -->
      <g transform="translate(22.80024 544.317955) scale(0.1 -0.1)">
       <use xlink:href="#NotoSansCJKjp-Regular-35"/>
       <use xlink:href="#NotoSansCJKjp-Regular-30" x="55.499985"/>
       <use xlink:href="#NotoSansCJKjp-Regular-30" x="110.999969"/>
       <use xlink:href="#NotoSansCJKjp-Regular-30" x="166.499954"/>
      </g>
     </g>
    </g>
    <g id="ytick_9">
     <g id="line2d_53">
      <path d="M 52.00024 509.909988 
L 932.99976 509.909988 
" clip-path="url(#p3b191d4575)" style="fill: none; stroke: #d8dde3; stroke-width: 0.6; stroke-linecap: square"/>
     </g>
     <g id="line2d_54">
      <g>
       <use xlink:href="#mf8c7a6f285" x="52.00024" y="509.909988" style="stroke: #000000; stroke-width: 0.8"/>
      </g>
     </g>
     <g id="text_31">
      <!-- 7500 -->
      <g transform="translate(22.80024 513.889676) scale(0.1 -0.1)">
       <use xlink:href="#NotoSansCJKjp-Regular-37"/>
       <use xlink:href="#NotoSansCJKjp-Regular-35" x="55.499985"/>
       <use xlink:href="#NotoSansCJKjp-Regular-30" x="110.999969"/>
       <use xlink:href="#NotoSansCJKjp-Regular-30" x="166.499954"/>
      </g>
     </g>
    </g>
    <g id="ytick_10">
     <g id="line2d_55">
      <path d="M 52.00024 479.481708 
L 932.99976 479.481708 
" clip-path="url(#p3b191d4575)" style="fill: none; stroke: #d8dde3; stroke-width: 0.6; stroke-linecap: square"/>
     </g>
     <g id="line2d_56">
      <g>
       <use xlink:href="#mf8c7a6f285" x="52.00024" y="479.481708" style="stroke: #000000; stroke-width: 0.8"/>
      </g>
     </g>
     <g id="text_32">
      <!-- 10000 -->
      <g transform="translate(17.25024 483.461396) scale(0.1 -0.1)">
       <use xlink:href="#NotoSansCJKjp-Regular-31"/>
       <use xlink:href="#NotoSansCJKjp-Regular-30" x="55.499985"/>
       <use xlink:href="#NotoSansCJKjp-Regular-30" x="110.999969"/>
       <use xlink:href="#NotoSansCJKjp-Regular-30" x="166.499954"/>
       <use xlink:href="#NotoSansCJKjp-Regular-30" x="221.999939"/>
      </g>
     </g>
    </g>
    <g id="ytick_11">
     <g id="line2d_57">
      <path d="M 52.00024 449.053428 
L 932.99976 449.053428 
" clip-path="url(#p3b191d4575)" style="fill: none; stroke: #d8dde3; stroke-width: 0.6; stroke-linecap: square"/>
     </g>
     <g id="line2d_58">
      <g>
       <use xlink:href="#mf8c7a6f285" x="52.00024" y="449.053428" style="stroke: #000000; stroke-width: 0.8"/>
      </g>
     </g>
     <g id="text_33">
      <!-- 12500 -->
      <g transform="translate(17.25024 453.033116) scale(0.1 -0.1)">
       <use xlink:href="#NotoSansCJKjp-Regular-31"/>
       <use xlink:href="#NotoSansCJKjp-Regular-32" x="55.499985"/>
       <use xlink:href="#NotoSansCJKjp-Regular-35" x="110.999969"/>
       <use xlink:href="#NotoSansCJKjp-Regular-30" x="166.499954"/>
       <use xlink:href="#NotoSansCJKjp-Regular-30" x="221.999939"/>
      </g>
     </g>
    </g>
    <g id="ytick_12">
     <g id="line2d_59">
      <path d="M 52.00024 418.625148 
L 932.99976 418.625148 
" clip-path="url(#p3b191d4575)" style="fill: none; stroke: #d8dde3; stroke-width: 0.6; stroke-linecap: square"/>
     </g>
     <g id="line2d_60">
      <g>
       <use xlink:href="#mf8c7a6f285" x="52.00024" y="418.625148" style="stroke: #000000; stroke-width: 0.8"/>
      </g>
     </g>
     <g id="text_34">
      <!-- 15000 -->
      <g transform="translate(17.25024 422.604836) scale(0.1 -0.1)">
       <use xlink:href="#NotoSansCJKjp-Regular-31"/>
       <use xlink:href="#NotoSansCJKjp-Regular-35" x="55.499985"/>
       <use xlink:href="#NotoSansCJKjp-Regular-30" x="110.999969"/>
       <use xlink:href="#NotoSansCJKjp-Regular-30" x="166.499954"/>
       <use xlink:href="#NotoSansCJKjp-Regular-30" x="221.999939"/>
      </g>
     </g>
    </g>
    <g id="ytick_13">
     <g id="line2d_61">
      <path d="M 52.00024 388.196868 
L 932.99976 388.196868 
" clip-path="url(#p3b191d4575)" style="fill: none; stroke: #d8dde3; stroke-width: 0.6; stroke-linecap: square"/>
     </g>
     <g id="line2d_62">
      <g>
       <use xlink:href="#mf8c7a6f285" x="52.00024" y="388.196868" style="stroke: #000000; stroke-width: 0.8"/>
      </g>
     </g>
     <g id="text_35">
      <!-- 17500 -->
      <g transform="translate(17.25024 392.176556) scale(0.1 -0.1)">
       <use xlink:href="#NotoSansCJKjp-Regular-31"/>
       <use xlink:href="#NotoSansCJKjp-Regular-37" x="55.499985"/>
       <use xlink:href="#NotoSansCJKjp-Regular-35" x="110.999969"/>
       <use xlink:href="#NotoSansCJKjp-Regular-30" x="166.499954"/>
       <use xlink:href="#NotoSansCJKjp-Regular-30" x="221.999939"/>
      </g>
     </g>
    </g>
    <g id="ytick_14">
     <g id="line2d_63">
      <path d="M 52.00024 357.768589 
L 932.99976 357.768589 
" clip-path="url(#p3b191d4575)" style="fill: none; stroke: #d8dde3; stroke-width: 0.6; stroke-linecap: square"/>
     </g>
     <g id="line2d_64">
      <g>
       <use xlink:href="#mf8c7a6f285" x="52.00024" y="357.768589" style="stroke: #000000; stroke-width: 0.8"/>
      </g>
     </g>
     <g id="text_36">
      <!-- 20000 -->
      <g transform="translate(17.25024 361.748276) scale(0.1 -0.1)">
       <use xlink:href="#NotoSansCJKjp-Regular-32"/>
       <use xlink:href="#NotoSansCJKjp-Regular-30" x="55.499985"/>
       <use xlink:href="#NotoSansCJKjp-Regular-30" x="110.999969"/>
       <use xlink:href="#NotoSansCJKjp-Regular-30" x="166.499954"/>
       <use xlink:href="#NotoSansCJKjp-Regular-30" x="221.999939"/>
      </g>
     </g>
    </g>
    <g id="text_37">
     <!-- HRR（kW） -->
     <g transform="translate(10.959615 505.285349) rotate(-90) scale(0.1 -0.1)">
      <use xlink:href="#NotoSansCJKjp-Regular-48"/>
      <use xlink:href="#NotoSansCJKjp-Regular-52" x="72.799988"/>
      <use xlink:href="#NotoSansCJKjp-Regular-52" x="136.299973"/>
      <use xlink:href="#NotoSansCJKjp-Regular-ff08" x="199.799957"/>
      <use xlink:href="#NotoSansCJKjp-Regular-6b" x="299.799942"/>
      <use xlink:href="#NotoSansCJKjp-Regular-57" x="354.999939"/>
      <use xlink:href="#NotoSansCJKjp-Regular-ff09" x="442.799927"/>
     </g>
    </g>
   </g>
   <g id="line2d_65">
    <path d="M 92.045673 601.194828 
L 96.102654 586.552299 
L 100.100037 550.78032 
L 104.121085 536.793984 
L 108.145439 531.079249 
L 112.171209 522.057713 
L 116.195128 512.679251 
L 120.220578 510.70194 
L 124.247466 512.482318 
L 128.271504 517.212618 
L 132.292646 515.733287 
L 136.323953 521.758483 
L 140.352683 537.873468 
L 144.36681 540.830596 
L 148.396962 538.91202 
L 152.432138 537.014899 
L 156.442634 533.280934 
L 160.470407 528.339663 
L 164.490197 522.926467 
L 168.517731 520.325902 
L 172.546591 511.548696 
L 176.574133 507.337624 
L 180.588756 503.120884 
L 184.617505 492.445644 
L 188.637537 468.300058 
L 192.662235 357.48619 
L 196.690402 456.743044 
L 200.713565 455.736963 
L 204.737517 427.463602 
L 208.769001 472.309823 
L 212.785429 494.899137 
L 216.813044 487.042303 
L 220.843228 501.877125 
L 224.859923 496.640502 
L 228.890137 495.473888 
L 232.911765 487.928803 
L 236.935111 489.885197 
L 240.959943 492.940969 
L 244.986892 485.659615 
L 249.012255 481.408706 
L 253.036401 475.857639 
L 257.064179 465.269365 
L 261.085582 469.227366 
L 265.113698 467.474672 
L 269.13677 462.611065 
L 273.157733 464.993867 
L 277.186759 464.14633 
L 281.212224 465.517757 
L 285.231816 463.03885 
L 289.255848 457.945314 
L 293.280146 455.987899 
L 297.309502 456.553585 
L 301.328112 449.890827 
L 305.360189 441.001825 
L 309.382727 439.205194 
L 313.404323 437.51147 
L 317.431387 436.401556 
L 321.452922 441.301946 
L 325.480413 435.910773 
L 329.50371 429.026082 
L 333.532001 438.020304 
L 337.556073 436.284919 
L 341.580618 428.259448 
L 345.601233 427.295918 
L 349.63149 436.357642 
L 353.647948 428.418527 
L 357.673435 417.799069 
L 361.698868 418.635336 
L 365.729739 419.594618 
L 369.750228 413.853605 
L 373.778443 421.513352 
L 377.802205 417.433966 
L 381.824463 416.198091 
L 385.848708 411.506781 
L 389.876575 414.582581 
L 393.897814 412.953743 
L 397.919536 404.793633 
L 401.949845 411.204871 
L 405.973043 400.899653 
L 409.999514 411.326974 
L 414.023866 408.922325 
L 418.047064 407.982529 
L 422.068223 392.927675 
L 426.095231 396.720341 
L 430.116846 399.705951 
L 434.140661 400.09934 
L 438.167589 400.882248 
L 442.192074 407.21789 
L 446.215246 401.549211 
L 450.241502 405.133395 
L 454.269208 405.235366 
L 458.289267 413.399968 
L 462.318475 409.987911 
L 466.342102 398.57139 
L 470.366454 390.107265 
L 474.387613 388.276323 
L 478.414675 393.721646 
L 482.438624 397.431231 
L 486.463083 395.899288 
L 490.49256 397.621468 
L 494.512484 404.381342 
L 498.541693 407.101752 
L 502.5599 401.748432 
L 506.590906 397.390578 
L 510.609596 408.435509 
L 514.635021 418.229301 
L 518.660795 407.49127 
L 522.684745 410.971024 
L 526.70915 410.918748 
L 530.735756 401.347241 
L 534.762495 403.817433 
L 538.78733 391.149507 
L 542.810421 391.555201 
L 546.83429 397.634321 
L 550.856441 392.107779 
L 554.885918 383.493764 
L 558.908123 387.776155 
L 562.929497 391.467714 
L 566.959698 393.701417 
L 570.980991 397.583433 
L 575.006335 403.814451 
L 579.033719 392.78583 
" clip-path="url(#p3b191d4575)" style="fill: none; stroke: #00796b; stroke-width: 1.4; stroke-linecap: square"/>
   </g>
   <g id="line2d_66">
    <path d="M 92.045673 601.194828 
L 96.079415 564.788702 
L 100.096998 501.909807 
L 104.120865 487.325797 
L 108.144532 477.369596 
L 112.17031 464.158331 
L 116.196945 458.139276 
L 120.220616 468.43948 
L 124.244826 466.15714 
L 128.270581 477.522589 
L 132.302182 494.138708 
L 136.328074 492.389883 
L 140.342179 484.58539 
L 144.368098 463.213654 
L 148.393037 452.544696 
L 152.415449 456.906298 
L 156.44224 468.213836 
L 160.470208 464.432952 
L 164.491737 465.046776 
L 168.518407 466.008078 
L 172.539446 477.970615 
L 176.566513 496.354869 
L 180.597701 497.330259 
L 184.623013 491.956122 
L 188.648948 488.069791 
L 192.672286 481.220821 
L 196.688151 479.706692 
L 200.719747 475.218889 
L 204.743463 474.591251 
L 208.765818 472.940955 
L 212.792542 465.883492 
L 216.816778 465.998682 
L 220.834516 461.030669 
L 224.860588 458.94111 
L 228.883853 452.216071 
L 232.916166 446.355073 
L 236.935409 445.914021 
L 240.966187 440.970825 
L 244.98503 439.297781 
L 249.01459 436.465334 
L 253.035244 440.93391 
L 257.058142 434.562678 
L 261.082255 436.206389 
L 265.113352 431.107462 
L 269.13149 426.816405 
L 273.157076 427.769723 
L 277.180147 422.066149 
L 281.204671 419.973219 
L 285.230445 426.509225 
L 289.255604 419.176278 
L 293.279266 418.847238 
L 297.308051 420.553486 
L 301.331367 418.552851 
L 305.355236 416.804271 
L 309.381498 412.50338 
L 313.407006 404.536246 
L 317.427805 403.990533 
L 321.452165 411.5454 
L 325.475398 408.678229 
L 329.506616 401.921946 
L 333.530426 399.689131 
L 337.553208 403.72072 
L 341.578531 406.489985 
L 345.598694 400.107556 
L 353.651613 402.025195 
L 357.677712 394.768281 
L 361.698009 393.046893 
L 365.728103 384.034231 
L 369.751354 388.350495 
L 373.77246 392.170899 
L 377.796436 394.44153 
L 385.850291 390.653137 
L 389.873462 392.835392 
L 393.900229 389.376707 
L 397.920234 390.688774 
L 401.945364 380.982323 
L 405.97476 386.896412 
L 409.99506 387.384701 
L 414.018204 384.508486 
L 418.044971 379.609132 
L 422.067337 388.64285 
L 426.094694 391.407466 
L 430.119153 386.871388 
L 434.143586 389.414803 
L 438.167937 387.683799 
L 442.195241 388.869151 
L 446.217848 388.238385 
L 450.245017 385.522125 
L 454.26894 390.017758 
L 458.29034 385.138084 
L 462.316168 388.771147 
L 466.341646 383.669445 
L 470.363503 382.97327 
L 474.39204 382.87013 
L 478.416124 383.30366 
L 482.43908 372.556562 
L 486.465176 380.621748 
L 490.491191 383.151896 
L 494.516724 373.531643 
L 498.537131 372.618539 
L 502.563388 383.225679 
L 506.584681 370.867707 
L 510.610053 377.475793 
L 514.635102 372.280797 
L 518.661278 376.604047 
L 522.684288 370.889202 
L 526.711914 373.430365 
L 530.734387 376.611508 
L 534.758954 373.534478 
L 538.78462 373.892303 
L 542.809079 374.621133 
L 546.831338 368.582872 
L 550.85848 381.168094 
L 554.881169 374.207053 
L 558.910028 372.446448 
L 562.93218 367.439049 
L 566.958812 363.70461 
L 570.979595 370.899109 
L 575.005181 380.304393 
L 579.032753 379.600429 
L 583.057427 372.494598 
L 587.080598 375.328213 
L 591.107096 370.655635 
L 595.127799 376.601892 
L 599.155397 375.982811 
L 603.177146 369.307065 
L 607.202598 376.249131 
L 611.228077 372.117543 
L 615.25149 360.170305 
L 619.279651 370.543829 
L 623.302581 364.600443 
L 627.326826 374.720183 
L 631.352116 379.268505 
L 635.377219 374.065269 
L 639.398378 374.973736 
L 643.426889 379.219077 
L 647.44786 370.794083 
L 651.476585 374.143677 
L 655.499435 372.195951 
L 659.523786 365.240338 
L 663.547494 360.26389 
L 667.57477 370.534311 
L 671.595742 367.842844 
L 675.619476 374.833717 
L 679.646457 368.432508 
L 683.673573 368.784137 
L 687.695107 371.466804 
L 691.722867 364.197987 
L 695.743865 372.912305 
L 699.76768 375.692245 
L 703.796271 360.787512 
L 707.820703 365.718025 
L 711.842533 370.45398 
L 715.869755 373.858686 
L 719.891531 371.043303 
L 723.918486 369.424884 
L 727.944769 366.429037 
L 731.965848 367.806464 
L 735.992078 366.071675 
L 740.018361 368.539311 
L 744.039467 360.469098 
L 748.065697 370.500426 
L 752.09198 356.562533 
L 756.1166 374.448106 
L 760.14012 367.686516 
L 764.163211 372.043359 
L 768.191346 372.457037 
L 772.212102 361.836363 
L 776.239915 368.879937 
L 780.261289 375.334518 
L 784.286338 366.753317 
L 788.310663 355.096182 
L 792.334961 374.403108 
L 796.359286 367.416033 
L 800.383611 366.487824 
L 804.408339 356.098697 
L 808.433737 365.356915 
L 812.462462 376.120602 
L 816.482199 371.077821 
L 820.512346 383.258992 
L 824.53321 373.963116 
L 828.559655 369.030521 
L 832.581538 367.696277 
L 836.608385 374.260022 
L 840.631798 388.054963 
L 844.655371 380.385369 
L 848.681333 375.301023 
L 852.706731 377.740543 
L 856.729661 375.500535 
L 860.757152 368.056341 
L 864.779921 378.916913 
L 868.802689 371.041404 
L 872.830288 377.59327 
L 876.853056 381.057579 
L 880.879582 382.800547 
L 884.902994 379.48799 
L 888.930432 383.696428 
L 892.954327 374.836346 
L 892.954327 374.836346 
" clip-path="url(#p3b191d4575)" style="fill: none; stroke: #c85a17; stroke-width: 1.4; stroke-linecap: square"/>
   </g>
   <g id="line2d_67">
    <path d="M 92.045673 601.194828 
L 96.074335 559.901137 
L 100.096282 490.879829 
L 104.121357 469.59147 
L 108.145919 460.643231 
L 112.170541 450.286224 
L 116.194708 456.359964 
L 120.220342 459.483598 
L 124.244313 475.649899 
L 128.276317 480.754657 
L 132.293907 497.063005 
L 136.322654 483.956022 
L 140.345935 467.582474 
L 144.368243 452.416021 
L 148.392613 436.006877 
L 152.416809 463.473548 
L 156.445027 470.940076 
L 160.467378 471.61954 
L 164.490232 467.070804 
L 168.522008 475.794701 
L 172.544492 492.030502 
L 176.573642 492.70499 
L 180.596145 487.919617 
L 184.617577 483.518428 
L 192.66642 469.124469 
L 196.689235 470.867292 
L 200.716023 468.042172 
L 204.737692 465.470057 
L 208.76419 457.195281 
L 212.78596 456.266111 
L 216.809974 454.264381 
L 220.841804 450.538255 
L 224.861999 443.571482 
L 228.884036 442.511092 
L 232.915715 436.876846 
L 236.939973 432.270759 
L 240.958427 430.538733 
L 244.985797 431.876579 
L 249.010299 429.65725 
L 253.038255 429.971635 
L 261.085643 422.958099 
L 265.111345 417.997705 
L 269.136013 423.504226 
L 273.158632 416.152814 
L 277.179555 416.669803 
L 281.208951 412.205378 
L 285.23499 411.223469 
L 289.259819 408.865594 
L 293.281193 410.31493 
L 297.306945 406.494671 
L 301.330444 399.933117 
L 305.353229 409.769752 
L 309.378777 406.154994 
L 313.401337 402.22545 
L 317.43333 400.280973 
L 321.454089 393.497949 
L 325.475994 395.271103 
L 329.501703 397.309737 
L 333.526822 395.128406 
L 337.552062 396.555395 
L 341.576484 391.364903 
L 345.599287 397.176449 
L 349.627967 380.905108 
L 353.648275 384.557135 
L 357.676587 390.469484 
L 361.697929 383.64924 
L 365.723863 384.915568 
L 369.75055 390.296018 
L 373.771708 392.088718 
L 377.797536 384.5038 
L 381.825912 378.781957 
L 385.850667 379.293736 
L 389.873409 388.570077 
L 393.900417 381.678486 
L 397.924151 379.497849 
L 401.947752 387.775826 
L 405.970386 384.924453 
L 409.997716 378.101082 
L 414.022497 384.059547 
L 418.043147 380.049697 
L 422.073267 372.235751 
L 426.093245 376.700468 
L 430.117785 373.231534 
L 434.143344 375.053775 
L 438.168984 384.177938 
L 442.194087 367.269369 
L 446.218814 375.910087 
L 450.242388 374.250833 
L 454.267625 380.223746 
L 458.292567 382.793536 
L 462.316999 376.767654 
L 466.338561 381.825187 
L 470.366132 378.282264 
L 474.392496 376.989038 
L 478.41709 379.721716 
L 482.441817 380.983005 
L 486.461903 391.776756 
L 490.486013 381.689671 
L 494.510606 381.284683 
L 498.53689 382.922065 
L 502.562369 383.406581 
L 506.58503 381.680774 
L 510.614319 378.575057 
L 514.637517 377.887633 
L 518.662995 379.38462 
L 522.684906 380.642987 
L 526.707835 380.64973 
L 530.733904 372.657 
L 534.759973 375.20336 
L 538.786069 381.364369 
L 542.808408 385.152982 
L 546.831607 373.300315 
L 550.858856 378.403454 
L 554.882188 380.996101 
L 558.907667 380.28083 
L 562.93497 392.63493 
L 566.95959 382.303215 
L 570.984264 380.937009 
L 575.006738 383.338884 
L 579.033853 383.324278 
L 583.053778 384.842942 
L 587.081161 372.570328 
L 591.106479 375.044488 
L 595.128309 367.646071 
L 599.155451 369.430507 
L 603.177254 374.113456 
L 607.204369 376.704509 
L 611.225662 375.99082 
L 615.254226 364.934205 
L 619.276807 372.772201 
L 623.302957 369.180678 
L 627.328543 373.54867 
L 631.348414 362.958193 
L 635.374858 372.23289 
L 639.401947 367.921532 
L 643.423938 369.048267 
L 647.451053 378.320603 
L 651.476049 380.18279 
L 655.496537 367.06814 
L 659.521532 377.005177 
L 663.547548 370.597322 
L 667.57257 372.69708 
L 671.599954 371.084807 
L 675.622213 364.602196 
L 679.644445 362.84237 
L 683.671882 363.717695 
L 687.694115 366.652137 
L 691.721552 365.836647 
L 695.743784 365.22398 
L 699.771195 369.700199 
L 703.793427 367.588342 
L 707.817296 363.984818 
L 711.843096 360.542771 
L 715.869836 361.98652 
L 719.890887 365.531646 
L 723.918996 366.593337 
L 727.94214 370.915309 
L 731.965231 362.009707 
L 735.993366 370.626363 
L 740.016483 369.764889 
L 744.039574 373.0097 
L 748.067709 368.092368 
L 752.090826 357.762479 
L 756.113917 363.944763 
L 760.141274 366.872779 
L 764.166699 376.509378 
L 768.187831 361.806872 
L 772.214061 371.752866 
L 776.240345 373.133081 
L 780.261933 369.095881 
L 784.288136 367.032101 
L 788.309671 369.082821 
L 792.335954 368.328163 
L 796.362157 366.493557 
L 800.387958 362.055203 
L 804.40909 375.688448 
L 808.436849 383.988357 
L 812.460342 381.43753 
L 816.48719 369.399506 
L 820.510522 383.040845 
L 824.533451 383.019022 
L 828.556301 369.440061 
L 832.583738 377.97164 
L 836.606587 375.771809 
L 840.634025 367.548542 
L 844.656847 379.51697 
L 848.679696 377.363123 
L 852.707134 371.445638 
L 856.729983 375.434128 
L 860.75742 381.467654 
L 864.780269 377.94238 
L 868.803092 389.371814 
L 872.83061 384.435337 
L 876.854022 375.052533 
L 880.877784 379.473348 
L 884.901599 379.094699 
L 888.93019 370.674098 
L 892.951886 378.663007 
L 892.951886 378.663007 
" clip-path="url(#p3b191d4575)" style="fill: none; stroke: #31557c; stroke-width: 1.4; stroke-linecap: square"/>
   </g>
   <g id="patch_9">
    <path d="M 52.00024 613.49976 
L 52.00024 342.79125 
" style="fill: none; stroke: #000000; stroke-width: 0.8; stroke-linejoin: miter; stroke-linecap: square"/>
   </g>
   <g id="patch_10">
    <path d="M 932.99976 613.49976 
L 932.99976 342.79125 
" style="fill: none; stroke: #000000; stroke-width: 0.8; stroke-linejoin: miter; stroke-linecap: square"/>
   </g>
   <g id="patch_11">
    <path d="M 52.00024 613.49976 
L 932.99976 613.49976 
" style="fill: none; stroke: #000000; stroke-width: 0.8; stroke-linejoin: miter; stroke-linecap: square"/>
   </g>
   <g id="patch_12">
    <path d="M 52.00024 342.79125 
L 932.99976 342.79125 
" style="fill: none; stroke: #000000; stroke-width: 0.8; stroke-linejoin: miter; stroke-linecap: square"/>
   </g>
   <g id="text_38">
    <!-- 全域热释放速率：前 300 s -->
    <g transform="translate(423.013437 336.79125) scale(0.12 -0.12)">
     <defs>
      <path id="NotoSansCJKjp-Regular-ff1a" d="M 3200 3482 
C 3456 3482 3686 3667 3686 3962 
C 3686 4256 3456 4442 3200 4442 
C 2944 4442 2714 4256 2714 3962 
C 2714 3667 2944 3482 3200 3482 
z
M 3200 346 
C 3456 346 3686 538 3686 826 
C 3686 1120 3456 1312 3200 1312 
C 2944 1312 2714 1120 2714 826 
C 2714 538 2944 346 3200 346 
z
" transform="scale(0.015625)"/>
      <path id="NotoSansCJKjp-Regular-524d" d="M 3866 3290 
L 3866 666 
L 4314 666 
L 4314 3290 
L 3866 3290 
z
M 5165 3482 
L 5165 90 
C 5165 -6 5133 -32 5030 -32 
C 4922 -38 4576 -38 4186 -26 
C 4256 -154 4333 -358 4358 -486 
C 4851 -493 5178 -480 5370 -403 
C 5568 -326 5638 -192 5638 83 
L 5638 3482 
L 5165 3482 
z
M 4627 5408 
C 4486 5094 4243 4672 4026 4365 
L 2106 4365 
L 2419 4480 
C 2298 4736 2022 5114 1779 5382 
L 1331 5222 
C 1562 4960 1798 4614 1920 4365 
L 339 4365 
L 339 3923 
L 6061 3923 
L 6061 4365 
L 4570 4365 
C 4755 4627 4960 4947 5139 5242 
L 4627 5408 
z
M 2618 1926 
L 2618 1280 
L 1197 1280 
L 1197 1926 
L 2618 1926 
z
M 2618 2304 
L 1197 2304 
L 1197 2938 
L 2618 2938 
L 2618 2304 
z
M 742 3347 
L 742 -480 
L 1197 -480 
L 1197 902 
L 2618 902 
L 2618 45 
C 2618 -38 2592 -64 2502 -64 
C 2419 -70 2125 -70 1798 -58 
C 1862 -179 1933 -365 1965 -486 
C 2394 -486 2682 -480 2854 -403 
C 3034 -333 3085 -205 3085 38 
L 3085 3347 
L 742 3347 
z
" transform="scale(0.015625)"/>
     </defs>
     <use xlink:href="#NotoSansCJKjp-Regular-5168"/>
     <use xlink:href="#NotoSansCJKjp-Regular-57df" x="99.999985"/>
     <use xlink:href="#NotoSansCJKjp-Regular-70ed" x="199.999969"/>
     <use xlink:href="#NotoSansCJKjp-Regular-91ca" x="299.999954"/>
     <use xlink:href="#NotoSansCJKjp-Regular-653e" x="399.999939"/>
     <use xlink:href="#NotoSansCJKjp-Regular-901f" x="499.999924"/>
     <use xlink:href="#NotoSansCJKjp-Regular-7387" x="599.999908"/>
     <use xlink:href="#NotoSansCJKjp-Regular-ff1a" x="699.999893"/>
     <use xlink:href="#NotoSansCJKjp-Regular-524d" x="799.999878"/>
     <use xlink:href="#NotoSansCJKjp-Regular-20" x="899.999863"/>
     <use xlink:href="#NotoSansCJKjp-Regular-33" x="922.399857"/>
     <use xlink:href="#NotoSansCJKjp-Regular-30" x="977.899841"/>
     <use xlink:href="#NotoSansCJKjp-Regular-30" x="1033.399826"/>
     <use xlink:href="#NotoSansCJKjp-Regular-20" x="1088.899811"/>
     <use xlink:href="#NotoSansCJKjp-Regular-73" x="1111.299805"/>
    </g>
   </g>
   <g id="legend_2">
    <g id="patch_13">
     <path d="M 57.60024 385.79125 
L 132.03274 385.79125 
Q 133.63274 385.79125 133.63274 384.19125 
L 133.63274 348.39125 
Q 133.63274 346.79125 132.03274 346.79125 
L 57.60024 346.79125 
Q 56.00024 346.79125 56.00024 348.39125 
L 56.00024 384.19125 
Q 56.00024 385.79125 57.60024 385.79125 
z
" style="fill: #ffffff; opacity: 0.8; stroke: #cccccc; stroke-linejoin: miter"/>
    </g>
    <g id="line2d_68">
     <path d="M 59.20024 353.55875 
L 67.20024 353.55875 
L 75.20024 353.55875 
" style="fill: none; stroke: #00796b; stroke-width: 1.4; stroke-linecap: square"/>
    </g>
    <g id="text_39">
     <!-- Q=50 J/cm2 -->
     <g transform="translate(81.60024 356.35875) scale(0.08 -0.08)">
      <use xlink:href="#NotoSansCJKjp-Regular-51"/>
      <use xlink:href="#NotoSansCJKjp-Regular-3d" x="74.199982"/>
      <use xlink:href="#NotoSansCJKjp-Regular-35" x="129.699966"/>
      <use xlink:href="#NotoSansCJKjp-Regular-30" x="185.199951"/>
      <use xlink:href="#NotoSansCJKjp-Regular-20" x="240.699936"/>
      <use xlink:href="#NotoSansCJKjp-Regular-4a" x="263.09993"/>
      <use xlink:href="#NotoSansCJKjp-Regular-2f" x="316.599915"/>
      <use xlink:href="#NotoSansCJKjp-Regular-63" x="355.799911"/>
      <use xlink:href="#NotoSansCJKjp-Regular-6d" x="406.799896"/>
      <use xlink:href="#NotoSansCJKjp-Regular-32" x="499.399887"/>
     </g>
    </g>
    <g id="line2d_69">
     <path d="M 59.20024 365.75875 
L 67.20024 365.75875 
L 75.20024 365.75875 
" style="fill: none; stroke: #c85a17; stroke-width: 1.4; stroke-linecap: square"/>
    </g>
    <g id="text_40">
     <!-- Q=200 J/cm2 -->
     <g transform="translate(81.60024 368.55875) scale(0.08 -0.08)">
      <use xlink:href="#NotoSansCJKjp-Regular-51"/>
      <use xlink:href="#NotoSansCJKjp-Regular-3d" x="74.199982"/>
      <use xlink:href="#NotoSansCJKjp-Regular-32" x="129.699966"/>
      <use xlink:href="#NotoSansCJKjp-Regular-30" x="185.199951"/>
      <use xlink:href="#NotoSansCJKjp-Regular-30" x="240.699936"/>
      <use xlink:href="#NotoSansCJKjp-Regular-20" x="296.199921"/>
      <use xlink:href="#NotoSansCJKjp-Regular-4a" x="318.599915"/>
      <use xlink:href="#NotoSansCJKjp-Regular-2f" x="372.099899"/>
      <use xlink:href="#NotoSansCJKjp-Regular-63" x="411.299896"/>
      <use xlink:href="#NotoSansCJKjp-Regular-6d" x="462.299881"/>
      <use xlink:href="#NotoSansCJKjp-Regular-32" x="554.899872"/>
     </g>
    </g>
    <g id="line2d_70">
     <path d="M 59.20024 377.95875 
L 67.20024 377.95875 
L 75.20024 377.95875 
" style="fill: none; stroke: #31557c; stroke-width: 1.4; stroke-linecap: square"/>
    </g>
    <g id="text_41">
     <!-- Q=400 J/cm2 -->
     <g transform="translate(81.60024 380.75875) scale(0.08 -0.08)">
      <use xlink:href="#NotoSansCJKjp-Regular-51"/>
      <use xlink:href="#NotoSansCJKjp-Regular-3d" x="74.199982"/>
      <use xlink:href="#NotoSansCJKjp-Regular-34" x="129.699966"/>
      <use xlink:href="#NotoSansCJKjp-Regular-30" x="185.199951"/>
      <use xlink:href="#NotoSansCJKjp-Regular-30" x="240.699936"/>
      <use xlink:href="#NotoSansCJKjp-Regular-20" x="296.199921"/>
      <use xlink:href="#NotoSansCJKjp-Regular-4a" x="318.599915"/>
      <use xlink:href="#NotoSansCJKjp-Regular-2f" x="372.099899"/>
      <use xlink:href="#NotoSansCJKjp-Regular-63" x="411.299896"/>
      <use xlink:href="#NotoSansCJKjp-Regular-6d" x="462.299881"/>
      <use xlink:href="#NotoSansCJKjp-Regular-32" x="554.899872"/>
     </g>
    </g>
   </g>
  </g>
 </g>
 <defs>
  <clipPath id="p2260b364f2">
   <rect x="52.00024" y="18.55149" width="880.99952" height="270.70851"/>
  </clipPath>
  <clipPath id="p3b191d4575">
   <rect x="52.00024" y="342.79125" width="880.99952" height="270.70851"/>
  </clipPath>
 </defs>
</svg>
