<?xml version="1.0" encoding="utf-8" standalone="no"?>
<!DOCTYPE svg PUBLIC "-//W3C//DTD SVG 1.1//EN"
  "http://www.w3.org/Graphics/SVG/1.1/DTD/svg11.dtd">
<svg xmlns:xlink="http://www.w3.org/1999/xlink" width="936pt" height="648pt" viewBox="0 0 936 648" xmlns="http://www.w3.org/2000/svg" version="1.1">
 <metadata>
  <rdf:RDF xmlns:dc="http://purl.org/dc/elements/1.1/" xmlns:cc="http://creativecommons.org/ns#" xmlns:rdf="http://www.w3.org/1999/02/22-rdf-syntax-ns#">
   <cc:Work>
    <dc:type rdf:resource="http://purl.org/dc/dcmitype/StillImage"/>
    <dc:date>2026-07-22T21:24:33.741668</dc:date>
    <dc:format>image/svg+xml</dc:format>
    <dc:creator>
     <cc:Agent>
      <dc:title>Matplotlib v3.9.2, https://matplotlib.org/</dc:title>
     </cc:Agent>
    </dc:creator>
   </cc:Work>
  </rdf:RDF>
 </metadata>
 <defs>
  <style type="text/css">*{stroke-linejoin: round; stroke-linecap: butt}</style>
 </defs>
 <g id="figure_1">
  <g id="patch_1">
   <path d="M 0 648 
L 936 648 
L 936 0 
L 0 0 
z
" style="fill: #ffffff"/>
  </g>
  <g id="axes_1">
   <g id="patch_2">
    <path d="M 52.00024 289.26 
L 932.99976 289.26 
L 932.99976 18.55149 
L 52.00024 18.55149 
z
" style="fill: #ffffff"/>
   </g>
   <g id="matplotlib.axis_1">
    <g id="xtick_1">
     <g id="line2d_1">
      <path d="M 92.045673 289.26 
L 92.045673 18.55149 
" clip-path="url(#p68f7799c1d)" style="fill: none; stroke: #d8dde3; stroke-width: 0.6; stroke-linecap: square"/>
     </g>
     <g id="line2d_2">
      <defs>
       <path id="mf31ac69e22" d="M 0 0 
L 0 3.5 
" style="stroke: #000000; stroke-width: 0.8"/>
      </defs>
      <g>
       <use xlink:href="#mf31ac69e22" x="92.045673" y="289.26" style="stroke: #000000; stroke-width: 0.8"/>
      </g>
     </g>
     <g id="text_1">
      <!-- 0 -->
      <g transform="translate(89.270673 304.219375) scale(0.1 -0.1)">
       <defs>
        <path id="NotoSansCJKjp-Regular-30" d="M 1779 -83 
C 2669 -83 3238 723 3238 2362 
C 3238 3987 2669 4774 1779 4774 
C 883 4774 320 3987 320 2362 
C 320 723 883 -83 1779 -83 
z
M 1779 390 
C 1248 390 883 986 883 2362 
C 883 3731 1248 4314 1779 4314 
C 2310 4314 2675 3731 2675 2362 
C 2675 986 2310 390 1779 390 
z
" transform="scale(0.015625)"/>
       </defs>
       <use xlink:href="#NotoSansCJKjp-Regular-30"/>
      </g>
     </g>
    </g>
    <g id="xtick_2">
     <g id="line2d_3">
      <path d="M 205.649708 289.26 
L 205.649708 18.55149 
" clip-path="url(#p68f7799c1d)" style="fill: none; stroke: #d8dde3; stroke-width: 0.6; stroke-linecap: square"/>
     </g>
     <g id="line2d_4">
      <g>
       <use xlink:href="#mf31ac69e22" x="205.649708" y="289.26" style="stroke: #000000; stroke-width: 0.8"/>
      </g>
     </g>
     <g id="text_2">
      <!-- 100 -->
      <g transform="translate(197.324708 304.219375) scale(0.1 -0.1)">
       <defs>
        <path id="NotoSansCJKjp-Regular-31" d="M 563 0 
L 3136 0 
L 3136 486 
L 2195 486 
L 2195 4691 
L 1747 4691 
C 1491 4544 1190 4435 774 4358 
L 774 3987 
L 1613 3987 
L 1613 486 
L 563 486 
L 563 0 
z
" transform="scale(0.015625)"/>
       </defs>
       <use xlink:href="#NotoSansCJKjp-Regular-31"/>
       <use xlink:href="#NotoSansCJKjp-Regular-30" x="55.499985"/>
       <use xlink:href="#NotoSansCJKjp-Regular-30" x="110.999969"/>
      </g>
     </g>
    </g>
    <g id="xtick_3">
     <g id="line2d_5">
      <path d="M 319.253744 289.26 
L 319.253744 18.55149 
" clip-path="url(#p68f7799c1d)" style="fill: none; stroke: #d8dde3; stroke-width: 0.6; stroke-linecap: square"/>
     </g>
     <g id="line2d_6">
      <g>
       <use xlink:href="#mf31ac69e22" x="319.253744" y="289.26" style="stroke: #000000; stroke-width: 0.8"/>
      </g>
     </g>
     <g id="text_3">
      <!-- 200 -->
      <g transform="translate(310.928744 304.219375) scale(0.1 -0.1)">
       <defs>
        <path id="NotoSansCJKjp-Regular-32" d="M 282 0 
L 3232 0 
L 3232 506 
L 1933 506 
C 1696 506 1408 480 1165 461 
C 2266 1504 3008 2458 3008 3398 
C 3008 4230 2477 4774 1638 4774 
C 1043 4774 634 4506 256 4090 
L 595 3757 
C 858 4070 1184 4301 1568 4301 
C 2150 4301 2432 3910 2432 3373 
C 2432 2566 1754 1632 282 346 
L 282 0 
z
" transform="scale(0.015625)"/>
       </defs>
       <use xlink:href="#NotoSansCJKjp-Regular-32"/>
       <use xlink:href="#NotoSansCJKjp-Regular-30" x="55.499985"/>
       <use xlink:href="#NotoSansCJKjp-Regular-30" x="110.999969"/>
      </g>
     </g>
    </g>
    <g id="xtick_4">
     <g id="line2d_7">
      <path d="M 432.857779 289.26 
L 432.857779 18.55149 
" clip-path="url(#p68f7799c1d)" style="fill: none; stroke: #d8dde3; stroke-width: 0.6; stroke-linecap: square"/>
     </g>
     <g id="line2d_8">
      <g>
       <use xlink:href="#mf31ac69e22" x="432.857779" y="289.26" style="stroke: #000000; stroke-width: 0.8"/>
      </g>
     </g>
     <g id="text_4">
      <!-- 300 -->
      <g transform="translate(424.532779 304.219375) scale(0.1 -0.1)">
       <defs>
        <path id="NotoSansCJKjp-Regular-33" d="M 1683 -83 
C 2522 -83 3194 416 3194 1254 
C 3194 1901 2752 2310 2202 2445 
L 2202 2477 
C 2701 2650 3034 3034 3034 3603 
C 3034 4346 2458 4774 1664 4774 
C 1126 4774 710 4538 358 4218 
L 672 3846 
C 941 4115 1267 4301 1645 4301 
C 2138 4301 2438 4006 2438 3558 
C 2438 3053 2112 2662 1139 2662 
L 1139 2214 
C 2227 2214 2598 1843 2598 1274 
C 2598 736 2208 403 1645 403 
C 1114 403 762 659 486 941 
L 186 563 
C 493 224 954 -83 1683 -83 
z
" transform="scale(0.015625)"/>
       </defs>
       <use xlink:href="#NotoSansCJKjp-Regular-33"/>
       <use xlink:href="#NotoSansCJKjp-Regular-30" x="55.499985"/>
       <use xlink:href="#NotoSansCJKjp-Regular-30" x="110.999969"/>
      </g>
     </g>
    </g>
    <g id="xtick_5">
     <g id="line2d_9">
      <path d="M 546.461815 289.26 
L 546.461815 18.55149 
" clip-path="url(#p68f7799c1d)" style="fill: none; stroke: #d8dde3; stroke-width: 0.6; stroke-linecap: square"/>
     </g>
     <g id="line2d_10">
      <g>
       <use xlink:href="#mf31ac69e22" x="546.461815" y="289.26" style="stroke: #000000; stroke-width: 0.8"/>
      </g>
     </g>
     <g id="text_5">
      <!-- 400 -->
      <g transform="translate(538.136815 304.219375) scale(0.1 -0.1)">
       <defs>
        <path id="NotoSansCJKjp-Regular-34" d="M 2176 0 
L 2726 0 
L 2726 1293 
L 3354 1293 
L 3354 1760 
L 2726 1760 
L 2726 4691 
L 2080 4691 
L 128 1677 
L 128 1293 
L 2176 1293 
L 2176 0 
z
M 2176 1760 
L 736 1760 
L 1805 3360 
C 1939 3590 2067 3827 2182 4051 
L 2208 4051 
C 2195 3814 2176 3430 2176 3200 
L 2176 1760 
z
" transform="scale(0.015625)"/>
       </defs>
       <use xlink:href="#NotoSansCJKjp-Regular-34"/>
       <use xlink:href="#NotoSansCJKjp-Regular-30" x="55.499985"/>
       <use xlink:href="#NotoSansCJKjp-Regular-30" x="110.999969"/>
      </g>
     </g>
    </g>
    <g id="xtick_6">
     <g id="line2d_11">
      <path d="M 660.06585 289.26 
L 660.06585 18.55149 
" clip-path="url(#p68f7799c1d)" style="fill: none; stroke: #d8dde3; stroke-width: 0.6; stroke-linecap: square"/>
     </g>
     <g id="line2d_12">
      <g>
       <use xlink:href="#mf31ac69e22" x="660.06585" y="289.26" style="stroke: #000000; stroke-width: 0.8"/>
      </g>
     </g>
     <g id="text_6">
      <!-- 500 -->
      <g transform="translate(651.74085 304.219375) scale(0.1 -0.1)">
       <defs>
        <path id="NotoSansCJKjp-Regular-35" d="M 1677 -83 
C 2464 -83 3213 499 3213 1523 
C 3213 2560 2573 3021 1798 3021 
C 1517 3021 1306 2950 1094 2835 
L 1216 4192 
L 2982 4192 
L 2982 4691 
L 704 4691 
L 550 2502 
L 864 2304 
C 1133 2483 1331 2579 1645 2579 
C 2234 2579 2618 2182 2618 1510 
C 2618 826 2176 403 1619 403 
C 1075 403 730 653 467 922 
L 173 538 
C 493 224 941 -83 1677 -83 
z
" transform="scale(0.015625)"/>
       </defs>
       <use xlink:href="#NotoSansCJKjp-Regular-35"/>
       <use xlink:href="#NotoSansCJKjp-Regular-30" x="55.499985"/>
       <use xlink:href="#NotoSansCJKjp-Regular-30" x="110.999969"/>
      </g>
     </g>
    </g>
    <g id="xtick_7">
     <g id="line2d_13">
      <path d="M 773.669886 289.26 
L 773.669886 18.55149 
" clip-path="url(#p68f7799c1d)" style="fill: none; stroke: #d8dde3; stroke-width: 0.6; stroke-linecap: square"/>
     </g>
     <g id="line2d_14">
      <g>
       <use xlink:href="#mf31ac69e22" x="773.669886" y="289.26" style="stroke: #000000; stroke-width: 0.8"/>
      </g>
     </g>
     <g id="text_7">
      <!-- 600 -->
      <g transform="translate(765.344886 304.219375) scale(0.1 -0.1)">
       <defs>
        <path id="NotoSansCJKjp-Regular-36" d="M 1926 -83 
C 2656 -83 3277 531 3277 1440 
C 3277 2426 2765 2912 1971 2912 
C 1606 2912 1197 2701 909 2349 
C 934 3802 1466 4294 2118 4294 
C 2400 4294 2682 4154 2861 3936 
L 3194 4294 
C 2931 4576 2579 4774 2093 4774 
C 1184 4774 358 4077 358 2240 
C 358 691 1030 -83 1926 -83 
z
M 922 1882 
C 1229 2317 1587 2477 1875 2477 
C 2445 2477 2720 2074 2720 1440 
C 2720 800 2374 378 1926 378 
C 1338 378 986 909 922 1882 
z
" transform="scale(0.015625)"/>
       </defs>
       <use xlink:href="#NotoSansCJKjp-Regular-36"/>
       <use xlink:href="#NotoSansCJKjp-Regular-30" x="55.499985"/>
       <use xlink:href="#NotoSansCJKjp-Regular-30" x="110.999969"/>
      </g>
     </g>
    </g>
    <g id="xtick_8">
     <g id="line2d_15">
      <path d="M 887.273921 289.26 
L 887.273921 18.55149 
" clip-path="url(#p68f7799c1d)" style="fill: none; stroke: #d8dde3; stroke-width: 0.6; stroke-linecap: square"/>
     </g>
     <g id="line2d_16">
      <g>
       <use xlink:href="#mf31ac69e22" x="887.273921" y="289.26" style="stroke: #000000; stroke-width: 0.8"/>
      </g>
     </g>
     <g id="text_8">
      <!-- 700 -->
      <g transform="translate(878.948921 304.219375) scale(0.1 -0.1)">
       <defs>
        <path id="NotoSansCJKjp-Regular-37" d="M 1267 0 
L 1875 0 
C 1952 1837 2150 2931 3251 4339 
L 3251 4691 
L 314 4691 
L 314 4192 
L 2592 4192 
C 1670 2912 1350 1779 1267 0 
z
" transform="scale(0.015625)"/>
       </defs>
       <use xlink:href="#NotoSansCJKjp-Regular-37"/>
       <use xlink:href="#NotoSansCJKjp-Regular-30" x="55.499985"/>
       <use xlink:href="#NotoSansCJKjp-Regular-30" x="110.999969"/>
      </g>
     </g>
    </g>
    <g id="text_9">
     <!-- 模拟时间（s） -->
     <g transform="translate(460.160156 318.469375) scale(0.1 -0.1)">
      <defs>
       <path id="NotoSansCJKjp-Regular-6a21" d="M 3021 2669 
L 5248 2669 
L 5248 2208 
L 3021 2208 
L 3021 2669 
z
M 3021 3469 
L 5248 3469 
L 5248 3021 
L 3021 3021 
L 3021 3469 
z
M 4685 5376 
L 4685 4845 
L 3699 4845 
L 3699 5376 
L 3245 5376 
L 3245 4845 
L 2304 4845 
L 2304 4435 
L 3245 4435 
L 3245 3955 
L 3699 3955 
L 3699 4435 
L 4685 4435 
L 4685 3955 
L 5152 3955 
L 5152 4435 
L 6048 4435 
L 6048 4845 
L 5152 4845 
L 5152 5376 
L 4685 5376 
z
M 2573 3834 
L 2573 1850 
L 3878 1850 
C 3853 1658 3827 1485 3782 1318 
L 2176 1318 
L 2176 909 
L 3642 909 
C 3398 416 2938 77 1997 -128 
C 2086 -224 2208 -403 2253 -512 
C 3366 -243 3885 218 4141 896 
C 4461 192 5056 -288 5888 -512 
C 5952 -390 6080 -211 6182 -115 
C 5459 38 4909 390 4602 909 
L 6035 909 
L 6035 1318 
L 4262 1318 
C 4294 1485 4326 1664 4346 1850 
L 5715 1850 
L 5715 3834 
L 2573 3834 
z
M 1120 5376 
L 1120 4141 
L 320 4141 
L 320 3693 
L 1120 3693 
L 1120 3686 
C 947 2816 576 1798 205 1261 
C 288 1146 403 934 461 794 
C 704 1171 934 1754 1120 2381 
L 1120 -506 
L 1581 -506 
L 1581 2790 
C 1754 2451 1952 2042 2035 1830 
L 2342 2176 
C 2234 2374 1747 3174 1581 3424 
L 1581 3693 
L 2240 3693 
L 2240 4141 
L 1581 4141 
L 1581 5376 
L 1120 5376 
z
" transform="scale(0.015625)"/>
       <path id="NotoSansCJKjp-Regular-62df" d="M 3494 4134 
C 3789 3693 4077 3104 4179 2726 
L 4589 2918 
C 4480 3296 4173 3866 3878 4301 
L 3494 4134 
z
M 2675 5075 
L 2675 1158 
C 2413 1043 2176 934 1978 858 
L 2195 397 
C 2765 672 3488 1037 4173 1382 
L 4058 1798 
L 3130 1363 
L 3130 5075 
L 2675 5075 
z
M 5248 5126 
C 5229 2112 4922 614 2701 -102 
C 2803 -205 2957 -429 3008 -531 
C 3904 -198 4506 243 4915 851 
C 5254 378 5587 -154 5741 -518 
L 6163 -224 
C 5978 186 5562 794 5165 1286 
C 5600 2208 5715 3443 5741 5133 
L 5248 5126 
z
M 1178 5376 
L 1178 4083 
L 294 4083 
L 294 3629 
L 1178 3629 
L 1178 2259 
L 179 1984 
L 320 1517 
L 1178 1773 
L 1178 51 
C 1178 -38 1139 -64 1056 -70 
C 973 -70 704 -70 416 -64 
C 474 -192 544 -384 563 -499 
C 986 -499 1242 -486 1414 -416 
C 1574 -339 1638 -211 1638 58 
L 1638 1914 
L 2419 2150 
L 2355 2598 
L 1638 2387 
L 1638 3629 
L 2336 3629 
L 2336 4083 
L 1638 4083 
L 1638 5376 
L 1178 5376 
z
" transform="scale(0.015625)"/>
       <path id="NotoSansCJKjp-Regular-65f6" d="M 3034 2893 
C 3373 2400 3808 1722 4013 1331 
L 4435 1574 
C 4218 1965 3776 2618 3430 3104 
L 3034 2893 
z
M 2074 2573 
L 2074 1114 
L 979 1114 
L 979 2573 
L 2074 2573 
z
M 2074 3002 
L 979 3002 
L 979 4403 
L 2074 4403 
L 2074 3002 
z
M 518 4838 
L 518 160 
L 979 160 
L 979 678 
L 2522 678 
L 2522 4838 
L 518 4838 
z
M 4890 5344 
L 4890 4096 
L 2816 4096 
L 2816 3622 
L 4890 3622 
L 4890 211 
C 4890 83 4838 38 4710 38 
C 4570 26 4096 26 3597 45 
C 3667 -96 3744 -314 3776 -448 
C 4416 -448 4826 -442 5056 -358 
C 5286 -282 5376 -141 5376 211 
L 5376 3622 
L 6157 3622 
L 6157 4096 
L 5376 4096 
L 5376 5344 
L 4890 5344 
z
" transform="scale(0.015625)"/>
       <path id="NotoSansCJKjp-Regular-95f4" d="M 582 3936 
L 582 -512 
L 1075 -512 
L 1075 3936 
L 582 3936 
z
M 678 5062 
C 973 4781 1306 4378 1453 4122 
L 1850 4378 
C 1696 4646 1350 5024 1050 5293 
L 678 5062 
z
M 2426 1888 
L 3962 1888 
L 3962 1024 
L 2426 1024 
L 2426 1888 
z
M 2426 3142 
L 3962 3142 
L 3962 2291 
L 2426 2291 
L 2426 3142 
z
M 1990 3546 
L 1990 627 
L 4416 627 
L 4416 3546 
L 1990 3546 
z
M 2253 5018 
L 2253 4563 
L 5350 4563 
L 5350 70 
C 5350 -13 5325 -38 5242 -45 
C 5158 -45 4896 -51 4627 -38 
C 4691 -160 4755 -365 4781 -480 
C 5171 -480 5446 -480 5619 -403 
C 5786 -320 5843 -198 5843 70 
L 5843 5018 
L 2253 5018 
z
" transform="scale(0.015625)"/>
       <path id="NotoSansCJKjp-Regular-ff08" d="M 4448 2432 
C 4448 1184 4954 166 5722 -614 
L 6106 -416 
C 5370 346 4915 1293 4915 2432 
C 4915 3571 5370 4518 6106 5280 
L 5722 5478 
C 4954 4698 4448 3680 4448 2432 
z
" transform="scale(0.015625)"/>
       <path id="NotoSansCJKjp-Regular-73" d="M 1498 -83 
C 2317 -83 2758 384 2758 947 
C 2758 1606 2208 1811 1702 2003 
C 1312 2150 954 2278 954 2605 
C 954 2880 1158 3110 1600 3110 
C 1907 3110 2150 2976 2387 2803 
L 2669 3168 
C 2406 3386 2022 3565 1594 3565 
C 832 3565 397 3130 397 2579 
C 397 1984 922 1754 1408 1574 
C 1792 1434 2202 1267 2202 915 
C 2202 614 1978 371 1517 371 
C 1101 371 794 538 486 787 
L 205 397 
C 531 122 1005 -83 1498 -83 
z
" transform="scale(0.015625)"/>
       <path id="NotoSansCJKjp-Regular-ff09" d="M 1952 2432 
C 1952 3680 1446 4698 678 5478 
L 294 5280 
C 1030 4518 1485 3571 1485 2432 
C 1485 1293 1030 346 294 -416 
L 678 -614 
C 1446 166 1952 1184 1952 2432 
z
" transform="scale(0.015625)"/>
      </defs>
      <use xlink:href="#NotoSansCJKjp-Regular-6a21"/>
      <use xlink:href="#NotoSansCJKjp-Regular-62df" x="99.999985"/>
      <use xlink:href="#NotoSansCJKjp-Regular-65f6" x="199.999969"/>
      <use xlink:href="#NotoSansCJKjp-Regular-95f4" x="299.999954"/>
      <use xlink:href="#NotoSansCJKjp-Regular-ff08" x="399.999939"/>
      <use xlink:href="#NotoSansCJKjp-Regular-73" x="499.999924"/>
      <use xlink:href="#NotoSansCJKjp-Regular-ff09" x="546.799911"/>
     </g>
    </g>
   </g>
   <g id="matplotlib.axis_2">
    <g id="ytick_1">
     <g id="line2d_17">
      <path d="M 52.00024 276.955068 
L 932.99976 276.955068 
" clip-path="url(#p68f7799c1d)" style="fill: none; stroke: #d8dde3; stroke-width: 0.6; stroke-linecap: square"/>
     </g>
     <g id="line2d_18">
      <defs>
       <path id="mede87f1437" d="M 0 0 
L -3.5 0 
" style="stroke: #000000; stroke-width: 0.8"/>
      </defs>
      <g>
       <use xlink:href="#mede87f1437" x="52.00024" y="276.955068" style="stroke: #000000; stroke-width: 0.8"/>
      </g>
     </g>
     <g id="text_10">
      <!-- 0 -->
      <g transform="translate(39.45024 280.934755) scale(0.1 -0.1)">
       <use xlink:href="#NotoSansCJKjp-Regular-30"/>
      </g>
     </g>
    </g>
    <g id="ytick_2">
     <g id="line2d_19">
      <path d="M 52.00024 219.138321 
L 932.99976 219.138321 
" clip-path="url(#p68f7799c1d)" style="fill: none; stroke: #d8dde3; stroke-width: 0.6; stroke-linecap: square"/>
     </g>
     <g id="line2d_20">
      <g>
       <use xlink:href="#mede87f1437" x="52.00024" y="219.138321" style="stroke: #000000; stroke-width: 0.8"/>
      </g>
     </g>
     <g id="text_11">
      <!-- 5000 -->
      <g transform="translate(22.80024 223.118009) scale(0.1 -0.1)">
       <use xlink:href="#NotoSansCJKjp-Regular-35"/>
       <use xlink:href="#NotoSansCJKjp-Regular-30" x="55.499985"/>
       <use xlink:href="#NotoSansCJKjp-Regular-30" x="110.999969"/>
       <use xlink:href="#NotoSansCJKjp-Regular-30" x="166.499954"/>
      </g>
     </g>
    </g>
    <g id="ytick_3">
     <g id="line2d_21">
      <path d="M 52.00024 161.321575 
L 932.99976 161.321575 
" clip-path="url(#p68f7799c1d)" style="fill: none; stroke: #d8dde3; stroke-width: 0.6; stroke-linecap: square"/>
     </g>
     <g id="line2d_22">
      <g>
       <use xlink:href="#mede87f1437" x="52.00024" y="161.321575" style="stroke: #000000; stroke-width: 0.8"/>
      </g>
     </g>
     <g id="text_12">
      <!-- 10000 -->
      <g transform="translate(17.25024 165.301263) scale(0.1 -0.1)">
       <use xlink:href="#NotoSansCJKjp-Regular-31"/>
       <use xlink:href="#NotoSansCJKjp-Regular-30" x="55.499985"/>
       <use xlink:href="#NotoSansCJKjp-Regular-30" x="110.999969"/>
       <use xlink:href="#NotoSansCJKjp-Regular-30" x="166.499954"/>
       <use xlink:href="#NotoSansCJKjp-Regular-30" x="221.999939"/>
      </g>
     </g>
    </g>
    <g id="ytick_4">
     <g id="line2d_23">
      <path d="M 52.00024 103.504829 
L 932.99976 103.504829 
" clip-path="url(#p68f7799c1d)" style="fill: none; stroke: #d8dde3; stroke-width: 0.6; stroke-linecap: square"/>
     </g>
     <g id="line2d_24">
      <g>
       <use xlink:href="#mede87f1437" x="52.00024" y="103.504829" style="stroke: #000000; stroke-width: 0.8"/>
      </g>
     </g>
     <g id="text_13">
      <!-- 15000 -->
      <g transform="translate(17.25024 107.484517) scale(0.1 -0.1)">
       <use xlink:href="#NotoSansCJKjp-Regular-31"/>
       <use xlink:href="#NotoSansCJKjp-Regular-35" x="55.499985"/>
       <use xlink:href="#NotoSansCJKjp-Regular-30" x="110.999969"/>
       <use xlink:href="#NotoSansCJKjp-Regular-30" x="166.499954"/>
       <use xlink:href="#NotoSansCJKjp-Regular-30" x="221.999939"/>
      </g>
     </g>
    </g>
    <g id="ytick_5">
     <g id="line2d_25">
      <path d="M 52.00024 45.688083 
L 932.99976 45.688083 
" clip-path="url(#p68f7799c1d)" style="fill: none; stroke: #d8dde3; stroke-width: 0.6; stroke-linecap: square"/>
     </g>
     <g id="line2d_26">
      <g>
       <use xlink:href="#mede87f1437" x="52.00024" y="45.688083" style="stroke: #000000; stroke-width: 0.8"/>
      </g>
     </g>
     <g id="text_14">
      <!-- 20000 -->
      <g transform="translate(17.25024 49.66777) scale(0.1 -0.1)">
       <use xlink:href="#NotoSansCJKjp-Regular-32"/>
       <use xlink:href="#NotoSansCJKjp-Regular-30" x="55.499985"/>
       <use xlink:href="#NotoSansCJKjp-Regular-30" x="110.999969"/>
       <use xlink:href="#NotoSansCJKjp-Regular-30" x="166.499954"/>
       <use xlink:href="#NotoSansCJKjp-Regular-30" x="221.999939"/>
      </g>
     </g>
    </g>
    <g id="text_15">
     <!-- HRR（kW） -->
     <g transform="translate(10.959615 181.045589) rotate(-90) scale(0.1 -0.1)">
      <defs>
       <path id="NotoSansCJKjp-Regular-48" d="M 646 0 
L 1235 0 
L 1235 2214 
L 3424 2214 
L 3424 0 
L 4019 0 
L 4019 4691 
L 3424 4691 
L 3424 2726 
L 1235 2726 
L 1235 4691 
L 646 4691 
L 646 0 
z
" transform="scale(0.015625)"/>
       <path id="NotoSansCJKjp-Regular-52" d="M 1235 2464 
L 1235 4211 
L 2022 4211 
C 2758 4211 3162 3994 3162 3379 
C 3162 2765 2758 2464 2022 2464 
L 1235 2464 
z
M 3219 0 
L 3885 0 
L 2694 2054 
C 3328 2208 3750 2643 3750 3379 
C 3750 4352 3066 4691 2112 4691 
L 646 4691 
L 646 0 
L 1235 0 
L 1235 1990 
L 2080 1990 
L 3219 0 
z
" transform="scale(0.015625)"/>
       <path id="NotoSansCJKjp-Regular-6b" d="M 589 0 
L 1165 0 
L 1165 915 
L 1818 1677 
L 2835 0 
L 3469 0 
L 2157 2074 
L 3315 3475 
L 2662 3475 
L 1190 1645 
L 1165 1645 
L 1165 5094 
L 589 5094 
L 589 0 
z
" transform="scale(0.015625)"/>
       <path id="NotoSansCJKjp-Regular-57" d="M 1158 0 
L 1862 0 
L 2560 2829 
C 2637 3200 2726 3539 2797 3898 
L 2822 3898 
C 2899 3539 2970 3200 3053 2829 
L 3763 0 
L 4480 0 
L 5446 4691 
L 4883 4691 
L 4378 2138 
C 4294 1632 4205 1126 4122 614 
L 4083 614 
C 3968 1126 3866 1638 3750 2138 
L 3098 4691 
L 2554 4691 
L 1907 2138 
C 1792 1632 1677 1126 1574 614 
L 1549 614 
C 1453 1126 1363 1632 1267 2138 
L 774 4691 
L 166 4691 
L 1158 0 
z
" transform="scale(0.015625)"/>
      </defs>
      <use xlink:href="#NotoSansCJKjp-Regular-48"/>
      <use xlink:href="#NotoSansCJKjp-Regular-52" x="72.799988"/>
      <use xlink:href="#NotoSansCJKjp-Regular-52" x="136.299973"/>
      <use xlink:href="#NotoSansCJKjp-Regular-ff08" x="199.799957"/>
      <use xlink:href="#NotoSansCJKjp-Regular-6b" x="299.799942"/>
      <use xlink:href="#NotoSansCJKjp-Regular-57" x="354.999939"/>
      <use xlink:href="#NotoSansCJKjp-Regular-ff09" x="442.799927"/>
     </g>
    </g>
   </g>
   <g id="line2d_27">
    <path d="M 92.045673 276.955068 
L 93.763424 263.04394 
L 95.455941 229.058788 
L 97.158477 215.771077 
L 98.862414 210.341795 
L 100.56695 201.770889 
L 102.270702 192.860886 
L 103.975103 190.982342 
L 105.680112 192.673789 
L 107.383915 197.167809 
L 109.086492 195.76237 
L 110.793372 201.486605 
L 112.499161 216.796639 
L 114.198768 219.606058 
L 115.905159 217.783316 
L 117.613678 215.980956 
L 119.311747 212.433504 
L 121.017131 207.739053 
L 122.719135 202.596249 
L 124.424418 200.125583 
L 126.130262 191.786802 
L 127.835548 187.786075 
L 129.535365 183.779963 
L 131.241162 173.637956 
L 132.943269 150.698454 
L 134.647351 45.41979 
L 136.352902 139.718718 
L 138.056334 138.762892 
L 139.7601 111.901798 
L 141.467056 154.50793 
L 143.167636 175.968896 
L 144.872953 168.504515 
L 146.579359 182.598331 
L 148.280052 177.62328 
L 149.98647 176.514939 
L 151.689252 169.346734 
L 153.392762 171.205405 
L 155.096901 174.10854 
L 156.801936 167.190893 
L 158.5063 163.152318 
L 160.210148 157.87853 
L 161.915534 147.819145 
L 163.618221 151.579442 
L 165.323751 149.914297 
L 167.027144 145.293628 
L 168.729645 147.557408 
L 170.43556 146.752206 
L 172.139967 148.05513 
L 173.841887 145.700045 
L 175.545687 140.860934 
L 177.2496 139.001293 
L 178.955654 139.538723 
L 180.657159 133.208772 
L 182.364365 124.763781 
L 184.067533 123.056892 
L 185.770302 121.447771 
L 187.475386 120.393297 
L 189.178128 125.04891 
L 190.883393 119.927028 
L 192.586882 113.386231 
L 194.292486 121.931188 
L 195.996303 120.282486 
L 197.70032 112.657891 
L 199.402673 111.74249 
L 201.109109 120.351577 
L 202.809703 112.809024 
L 204.514119 102.720013 
L 206.218512 103.514508 
L 207.925208 104.425873 
L 209.627508 98.971626 
L 211.33308 106.248766 
L 213.036765 102.373147 
L 214.739815 101.199005 
L 216.443705 96.742027 
L 218.149129 99.66419 
L 219.851746 98.116713 
L 221.554569 90.364204 
L 223.261026 96.455198 
L 224.964473 86.66473 
L 226.669306 96.571202 
L 228.373242 94.286666 
L 230.076689 93.393813 
L 231.779273 79.090956 
L 233.484333 82.694177 
L 235.18711 85.530655 
L 236.890818 85.904394 
L 238.595844 86.648195 
L 240.299836 92.667369 
L 242.003272 87.281843 
L 243.708014 90.686995 
L 245.41337 90.783873 
L 247.115488 98.540649 
L 248.82148 95.299025 
L 250.525109 84.452766 
L 252.229044 76.411428 
L 253.931628 74.671941 
L 255.636711 79.845268 
L 257.340476 83.369557 
L 259.044457 81.914136 
L 260.750562 83.550293 
L 262.452623 89.972507 
L 264.158615 92.557032 
L 265.859949 87.471112 
L 267.566702 83.330936 
L 269.268241 93.824166 
L 270.972631 103.128754 
L 272.677168 92.927093 
L 274.380934 96.233032 
L 276.084892 96.183367 
L 277.789782 87.089961 
L 279.494728 89.436766 
L 281.198868 77.401609 
L 282.90227 77.787038 
L 284.606001 83.562503 
L 286.309005 78.312014 
L 288.01511 70.128274 
L 289.718137 74.196757 
L 291.420812 77.703921 
L 293.127224 79.82605 
L 294.829864 83.514157 
L 296.53422 89.433933 
L 298.23944 78.956197 
L 299.942103 78.285904 
L 301.645982 83.980854 
" clip-path="url(#p68f7799c1d)" style="fill: none; stroke: #00796b; stroke-width: 1.4; stroke-linecap: square"/>
   </g>
   <g id="line2d_28">
    <path d="M 92.045673 276.955068 
L 93.753584 242.367445 
L 95.454654 182.62938 
L 97.158384 168.773849 
L 98.86203 159.314964 
L 100.566569 146.763608 
L 102.271471 141.045208 
L 103.975119 150.830912 
L 105.678994 148.662576 
L 107.383524 159.460315 
L 109.090529 175.246451 
L 110.795117 173.584981 
L 112.494714 166.170326 
L 114.199313 145.866118 
L 115.903497 135.73008 
L 117.606611 139.873817 
L 119.31158 150.616539 
L 121.017047 147.024511 
L 122.719787 147.607674 
L 124.424704 148.520959 
L 126.127237 159.885962 
L 127.832322 177.351913 
L 129.539152 178.278583 
L 131.243494 173.172887 
L 132.9481 169.480679 
L 134.651606 162.973818 
L 136.351949 161.535321 
L 138.058952 157.271686 
L 139.762618 156.675398 
L 141.465708 155.107535 
L 143.170648 148.402597 
L 144.874535 148.512032 
L 146.57567 143.792174 
L 148.280334 141.80699 
L 149.983809 135.417869 
L 151.691115 129.849631 
L 153.392888 129.43061 
L 155.099544 124.734329 
L 156.801148 123.144854 
L 158.507288 120.453889 
L 160.209658 124.699257 
L 161.912978 118.646272 
L 163.616813 120.207879 
L 165.323604 115.363645 
L 167.024909 111.286928 
L 168.729367 112.192628 
L 170.432761 106.77395 
L 172.136769 104.785562 
L 173.841306 110.995093 
L 175.545584 104.028429 
L 177.249228 103.715825 
L 178.95504 105.336845 
L 180.658537 103.436143 
L 182.362268 101.774906 
L 184.067012 97.688846 
L 185.771438 90.119674 
L 187.473869 89.60122 
L 189.177808 96.778718 
L 190.88127 94.054763 
L 192.588113 87.635959 
L 194.291819 85.514674 
L 195.99509 89.344883 
L 197.699437 91.975823 
L 199.401599 85.912199 
L 202.811255 87.734051 
L 204.51593 80.839624 
L 206.218149 79.204219 
L 207.924515 70.641744 
L 209.627985 74.742409 
L 211.330546 78.371982 
L 213.034323 80.529194 
L 216.444375 76.930032 
L 218.147811 79.003283 
L 219.852769 75.717361 
L 221.554864 76.96389 
L 223.259129 67.742281 
L 224.9652 73.360958 
L 226.66742 73.824857 
L 228.370845 71.09231 
L 230.075803 66.43768 
L 231.778898 75.02016 
L 233.484106 77.646682 
L 235.188087 73.337184 
L 236.892056 75.753554 
L 238.595992 74.109014 
L 240.301177 75.235158 
L 242.004374 74.635899 
L 243.709503 72.055317 
L 245.413256 76.326391 
L 247.115942 71.690459 
L 248.820503 75.142049 
L 250.524915 70.295179 
L 252.227794 69.633779 
L 253.933502 69.535791 
L 255.637324 69.947666 
L 257.340669 59.73739 
L 259.045343 67.399716 
L 260.749983 69.803482 
L 262.454418 60.663765 
L 264.156684 59.796271 
L 265.861426 69.873579 
L 267.564067 58.132895 
L 269.268434 64.410903 
L 270.972665 59.475399 
L 272.677373 63.582701 
L 274.38074 58.153315 
L 276.086062 60.567546 
L 277.789202 63.589789 
L 279.493229 60.666459 
L 281.197721 61.00641 
L 282.901702 61.698835 
L 284.604751 55.962188 
L 286.309868 67.918772 
L 288.0131 61.305438 
L 289.718944 59.632777 
L 291.421948 54.875499 
L 293.126849 51.327598 
L 294.829274 58.162728 
L 296.533732 67.098214 
L 298.239031 66.429413 
L 299.943103 59.678521 
L 301.646538 62.370596 
L 303.351383 57.931415 
L 305.053773 63.580654 
L 306.759083 62.992496 
L 308.461917 56.650207 
L 310.166318 63.245514 
L 311.870731 59.3203 
L 313.574269 47.969832 
L 315.279818 57.825194 
L 316.983151 52.178683 
L 318.687041 61.792937 
L 320.391374 66.114069 
L 322.095628 61.170737 
L 323.798212 62.033825 
L 325.503908 66.06711 
L 327.206412 58.062948 
L 328.9122 61.245228 
L 330.615499 59.394791 
L 332.319435 52.786615 
L 334.023098 48.058743 
L 335.728271 57.816151 
L 337.430776 55.259125 
L 339.13445 61.9008 
L 340.839499 55.819334 
L 342.544604 56.1534 
L 344.247347 58.702066 
L 345.952726 51.79633 
L 347.655241 60.075364 
L 349.358949 62.716444 
L 351.06468 48.55621 
L 354.471517 57.739833 
L 356.176668 60.974472 
L 357.879513 58.299719 
L 359.584551 56.76214 
L 361.289304 53.915938 
L 362.991854 55.224562 
L 364.696585 53.576426 
L 366.401338 55.920803 
L 368.103899 48.253701 
L 369.80863 57.783959 
L 371.513384 44.542271 
L 373.217433 61.53445 
L 374.921016 55.110605 
L 376.624418 59.249822 
L 378.329955 59.642837 
L 380.032368 49.55267 
L 381.737769 56.244415 
L 383.440444 62.376586 
L 385.144675 54.22402 
L 386.848599 43.149164 
L 388.552512 61.491701 
L 390.256436 54.853633 
L 391.96036 53.971789 
L 393.664455 44.101603 
L 395.368834 52.897369 
L 397.074621 63.123405 
L 398.776603 58.332513 
L 400.482992 69.905228 
L 402.185451 61.073686 
L 403.890272 56.387476 
L 405.593163 55.119879 
L 407.298155 61.355762 
L 409.001693 74.461639 
L 410.705299 67.175145 
L 412.409916 62.344764 
L 414.114295 64.662429 
L 415.817628 62.53431 
L 417.522893 55.461958 
L 419.226158 65.780038 
L 420.929424 58.297915 
L 422.634734 64.522512 
L 424.337999 67.813777 
L 426.042855 69.469683 
L 427.746393 66.32259 
L 429.451635 70.320815 
L 431.155377 61.903298 
L 432.859097 66.136455 
L 434.563226 54.461508 
L 436.266832 51.091081 
L 437.970483 50.057364 
L 439.674089 45.153405 
L 441.379706 48.438252 
L 443.083324 55.813183 
L 444.786964 48.781001 
L 446.49057 54.683374 
L 448.196198 49.756497 
L 449.899805 57.920164 
L 451.603456 53.957381 
L 453.307062 52.432718 
L 455.010702 59.238443 
L 456.716285 53.509706 
L 458.419937 58.938941 
L 460.123543 59.440941 
L 461.827194 66.393416 
L 463.532777 59.339773 
L 465.236417 64.01132 
L 466.940069 66.585009 
L 468.644095 60.945379 
L 470.34819 52.24826 
L 472.052319 60.933503 
L 473.756413 59.750942 
L 475.460508 61.94015 
L 477.164637 59.909939 
L 478.868731 68.113869 
L 480.572826 66.884535 
L 482.276955 63.774051 
L 483.981049 69.746348 
L 485.685144 65.823921 
L 487.389273 69.57277 
L 489.092504 57.729045 
L 490.796667 57.830791 
L 492.500795 62.985466 
L 494.204924 71.116986 
L 495.909064 57.893175 
L 497.613193 64.143963 
L 499.317355 60.242662 
L 501.021484 60.05063 
L 502.725613 65.104981 
L 504.429742 66.541138 
L 506.133904 52.199173 
L 507.838033 74.883886 
L 509.542162 58.406137 
L 511.244598 64.886584 
L 512.948726 56.04031 
L 514.652855 59.9402 
L 516.356984 55.358836 
L 518.061158 56.837568 
L 519.765287 53.745112 
L 521.469415 65.015654 
L 523.173544 69.206386 
L 524.877707 54.025026 
L 526.581835 53.655011 
L 528.285964 61.751067 
L 529.989229 50.604137 
L 531.693915 68.545448 
L 533.398112 58.640664 
L 535.101547 58.31245 
L 536.806687 61.628345 
L 538.510157 53.514828 
L 540.215251 61.09524 
L 541.918732 62.365104 
L 543.622168 59.9973 
L 545.327297 59.384477 
L 547.030732 65.712728 
L 548.734202 68.851009 
L 550.439308 59.135911 
L 552.142778 57.707213 
L 553.846213 56.035546 
L 555.551353 57.542852 
L 557.254789 60.339829 
L 558.958815 58.910969 
L 560.66308 57.984514 
L 562.367345 61.232497 
L 564.071588 72.514729 
L 565.775853 53.226612 
L 567.480118 63.546346 
L 569.182724 61.676205 
L 570.886955 63.268953 
L 572.591231 76.786161 
L 574.295496 53.299877 
L 575.999727 59.716542 
L 577.704004 53.020079 
L 579.408235 68.680785 
L 581.1125 72.952217 
L 582.815106 78.827798 
L 584.519371 79.111608 
L 586.223397 80.06836 
L 587.928299 79.19409 
L 589.631553 56.723334 
L 591.336454 69.000188 
L 593.039742 55.199157 
L 594.744643 56.008407 
L 596.447897 67.75019 
L 598.152798 69.268978 
L 599.856063 67.862274 
L 601.560953 63.539315 
L 603.264253 59.56978 
L 604.969143 58.377806 
L 606.672408 53.941458 
L 608.376116 46.391909 
L 610.080427 53.142361 
L 611.784726 65.614694 
L 613.489025 60.290535 
L 615.193335 63.075556 
L 616.897634 61.118771 
L 618.600479 61.409474 
L 620.305517 59.111351 
L 622.009225 73.536444 
L 623.712979 73.173551 
L 625.416687 74.471202 
L 627.121998 66.902053 
L 628.825706 65.880431 
L 630.528835 65.176582 
L 632.233316 68.004225 
L 633.937785 44.770543 
L 635.642266 65.987577 
L 637.345247 68.069836 
L 639.049728 67.472947 
L 640.754448 64.785925 
L 642.457815 60.841586 
L 645.865732 79.99395 
L 647.570928 74.612679 
L 649.274614 79.352519 
L 650.978254 72.668973 
L 652.681894 82.086188 
L 654.387137 70.912061 
L 656.090788 64.054625 
L 657.794428 62.388924 
L 659.498103 63.323393 
L 661.20331 53.050143 
L 662.906996 69.75864 
L 664.610636 52.656886 
L 666.314277 50.841833 
L 668.019519 74.455001 
L 669.723159 64.771402 
L 671.426844 66.96194 
L 673.130485 73.615942 
L 674.835692 82.576682 
L 676.539333 75.010285 
L 678.243052 65.058844 
L 679.946693 75.16003 
L 681.651935 75.244362 
L 683.355575 84.05679 
L 685.059226 73.039012 
L 686.762867 70.84867 
L 688.468109 59.723456 
L 690.171749 72.815087 
L 691.8754 59.105499 
L 693.579041 68.680831 
L 695.284283 68.519245 
L 696.987923 75.419489 
L 698.691642 77.844624 
L 700.396805 85.146659 
L 702.100525 65.497661 
L 703.804165 58.661282 
L 705.507816 63.89727 
L 707.213047 73.869029 
L 708.916699 52.700364 
L 710.620339 43.019158 
L 712.323979 30.856422 
L 714.02888 32.742532 
L 715.73252 61.153611 
L 717.43624 69.162029 
L 719.141334 71.1932 
L 720.844975 69.623198 
L 722.548694 70.492057 
L 724.252403 72.145303 
L 727.661149 61.809381 
L 729.364868 67.76964 
L 731.068509 79.066951 
L 732.773614 72.263053 
L 734.477323 61.965428 
L 736.180974 60.284475 
L 737.884683 66.333148 
L 739.589788 66.428291 
L 741.293428 73.628442 
L 742.997148 73.706945 
L 744.702242 63.493016 
L 746.405883 64.80275 
L 748.109602 74.050839 
L 749.813243 74.474347 
L 751.518348 71.151272 
L 753.222057 75.758307 
L 754.925708 69.521764 
L 756.629417 70.387663 
L 758.334522 71.733972 
L 760.038162 64.5722 
L 761.741882 68.536116 
L 763.445591 57.010475 
L 765.150628 69.920492 
L 766.854336 45.478104 
L 768.558056 47.191538 
L 770.263082 64.428676 
L 771.966791 75.901334 
L 773.67051 60.680069 
L 775.374151 72.109735 
L 777.079256 72.315597 
L 778.782965 68.665614 
L 780.486616 75.18244 
L 782.191086 70.474295 
L 783.89501 70.178019 
L 785.598934 67.285922 
L 787.30237 71.019623 
L 789.007396 47.605714 
L 790.710911 57.53189 
L 792.415937 56.641997 
L 794.119441 54.111636 
L 797.528051 70.029916 
L 799.231555 66.438525 
L 800.935127 65.207583 
L 802.639187 65.938942 
L 804.344225 71.605364 
L 806.047865 79.420662 
L 807.751448 75.312909 
L 809.456475 65.760669 
L 811.160115 68.606491 
L 812.863698 70.648069 
L 814.568724 59.851416 
L 816.272364 64.310949 
L 817.976016 77.051459 
L 819.679588 56.527485 
L 821.384626 57.650587 
L 823.088266 72.333 
L 824.791838 64.715296 
L 826.49708 64.028653 
L 828.20114 51.417005 
L 829.90444 46.437677 
L 831.609261 66.763281 
L 833.312697 77.425256 
L 835.016133 78.839465 
L 836.720955 73.823828 
L 840.129212 67.402677 
L 841.832659 69.872955 
L 843.537481 63.417727 
L 845.240985 64.144553 
L 846.945738 61.908548 
L 848.649242 66.534651 
L 850.352678 81.142109 
L 852.057499 76.032948 
L 853.760935 65.862323 
L 855.465757 62.427499 
L 857.169204 67.669617 
L 858.874025 72.354565 
L 860.577461 63.651075 
L 862.282283 71.270351 
L 863.985719 75.280867 
L 865.689154 64.739163 
L 867.393976 67.315038 
L 869.097412 76.959415 
L 870.802233 67.262355 
L 872.505749 68.47986 
L 874.210502 67.381828 
L 875.914006 66.835552 
L 877.618759 66.060796 
L 879.322263 69.430414 
L 881.027085 62.208547 
L 882.730521 65.738549 
L 884.433956 66.547937 
L 886.138778 71.739511 
L 887.842214 70.110674 
L 889.547047 69.495839 
L 891.250619 58.851499 
L 892.954327 64.512348 
L 892.954327 64.512348 
" clip-path="url(#p68f7799c1d)" style="fill: none; stroke: #c85a17; stroke-width: 1.4; stroke-linecap: square"/>
   </g>
   <g id="line2d_29">
    <path d="M 92.045673 276.955068 
L 93.751433 237.724016 
L 95.454351 172.150355 
L 97.158593 151.92536 
L 98.862617 143.424089 
L 100.566667 133.584419 
L 102.270525 139.354773 
L 103.975003 142.32238 
L 105.678777 157.681167 
L 107.385953 162.53094 
L 109.087026 178.024678 
L 110.792822 165.572395 
L 112.496304 150.016713 
L 114.199374 135.607832 
L 115.903318 120.018332 
L 117.607187 146.11303 
L 119.31276 153.206602 
L 121.015848 153.852126 
L 122.71915 149.530601 
L 124.426229 157.818736 
L 126.129374 173.243551 
L 127.83534 173.884348 
L 129.538493 169.338007 
L 131.241193 165.156659 
L 134.649123 151.481685 
L 136.352408 153.137453 
L 138.057375 150.453449 
L 139.760174 148.009813 
L 141.465019 140.148366 
L 143.167861 139.265608 
L 144.871654 137.363865 
L 146.578755 133.823861 
L 148.280931 127.205081 
L 149.983886 126.197659 
L 151.690925 120.844846 
L 153.39482 116.468835 
L 155.096259 114.823324 
L 156.801473 116.094345 
L 158.505472 113.985872 
L 160.210933 114.284553 
L 163.618247 107.621347 
L 165.322754 102.908727 
L 167.026824 108.140194 
L 168.730026 101.155989 
L 170.432509 101.647154 
L 172.138581 97.405729 
L 173.843231 96.472867 
L 175.547369 94.232769 
L 177.250043 95.60971 
L 178.954572 91.980275 
L 180.658146 85.746473 
L 182.361418 95.091764 
L 184.065861 91.657565 
L 185.769037 87.924303 
L 187.476208 86.076954 
L 189.178623 79.632745 
L 190.881522 81.317329 
L 192.586033 83.254132 
L 194.290293 81.18176 
L 195.994605 82.53747 
L 197.69857 77.606245 
L 199.40185 83.127502 
L 201.107618 67.668923 
L 202.809841 71.138529 
L 204.515454 76.755553 
L 206.218115 70.275984 
L 207.92272 71.479058 
L 209.627644 76.590752 
L 211.330228 78.293906 
L 213.034788 71.087858 
L 214.740428 65.651824 
L 216.444534 66.138039 
L 218.147788 74.951023 
L 219.852848 68.40367 
L 221.556523 66.331957 
L 223.26014 74.196445 
L 224.963349 71.487499 
L 226.668545 65.004958 
L 228.372662 70.665796 
L 230.07503 66.856239 
L 231.781408 59.432603 
L 233.483492 63.674306 
L 235.187507 60.378647 
L 236.891954 62.109866 
L 238.596435 70.778273 
L 240.300689 54.714294 
L 242.004783 62.923405 
L 243.708389 61.347032 
L 245.4127 67.021595 
L 247.116885 69.463023 
L 248.820855 63.738136 
L 250.523609 68.543043 
L 252.228908 65.17709 
L 253.933695 63.948461 
L 255.637733 66.544641 
L 257.341828 67.742928 
L 259.043957 77.997526 
L 260.74779 68.414296 
L 262.451828 68.029537 
L 264.156582 69.585132 
L 265.860994 70.045445 
L 267.564214 68.405843 
L 269.27024 65.455258 
L 270.973687 64.802172 
L 272.6781 66.224383 
L 274.381002 67.419894 
L 276.084335 67.426301 
L 277.788998 59.832811 
L 279.49366 62.251979 
L 281.198334 68.105243 
L 282.901418 71.704613 
L 284.604865 60.443992 
L 286.310028 65.292227 
L 288.013531 67.75537 
L 289.717944 67.075827 
L 291.423129 78.812835 
L 293.127178 68.997193 
L 294.83125 67.69923 
L 296.534391 69.98113 
L 298.239496 69.967254 
L 299.941557 71.410059 
L 301.646777 59.750468 
L 303.351121 62.101043 
L 305.053989 55.07218 
L 306.759106 56.767483 
L 308.461962 61.216516 
L 310.167068 63.678145 
L 311.869709 63.000105 
L 313.575428 52.495773 
L 315.278614 59.942258 
L 316.98331 56.530133 
L 318.687768 60.679942 
L 320.389807 50.618464 
L 322.094628 59.429886 
L 323.799723 55.333882 
L 325.502659 56.404336 
L 327.207764 65.213515 
L 328.911973 66.982684 
L 330.614272 54.523118 
L 332.31848 63.963794 
L 334.02312 57.876015 
L 335.72734 59.870889 
L 337.432559 58.33915 
L 339.135609 52.180348 
L 340.838647 50.508427 
L 342.543889 51.340028 
L 344.246927 54.127894 
L 345.952169 53.353138 
L 347.655207 52.771074 
L 349.360438 57.023703 
L 351.063476 55.017335 
L 354.471756 48.323694 
L 356.176702 49.695327 
L 357.879241 53.063372 
L 359.584767 54.072031 
L 361.288191 58.178119 
L 362.991593 49.717355 
L 364.69713 57.903605 
L 366.400543 57.085163 
L 368.103945 60.167894 
L 369.809482 55.496185 
L 371.512895 45.682278 
L 373.216297 51.555754 
L 374.921505 54.337514 
L 376.625895 63.492761 
L 378.328467 49.524652 
L 380.033198 58.973839 
L 381.737951 60.285111 
L 383.440717 56.449572 
L 385.145436 54.488879 
L 386.848179 56.437164 
L 388.552932 55.720202 
L 390.257652 53.977235 
L 391.962201 49.760579 
L 393.664773 62.712837 
L 395.370151 70.598162 
L 397.073724 68.17475 
L 398.778716 56.738031 
L 400.482219 69.697978 
L 402.185553 69.677245 
L 403.888852 56.77656 
L 405.594094 64.881982 
L 407.297394 62.792034 
L 409.002636 54.979523 
L 410.705924 66.350123 
L 412.409223 64.303861 
L 414.114465 58.681957 
L 415.817765 62.47122 
L 417.523007 68.203369 
L 419.226306 64.854184 
L 420.929594 75.712712 
L 422.63487 71.022814 
L 424.338408 62.108686 
L 426.042094 66.30868 
L 427.745802 65.948944 
L 429.451533 57.948956 
L 431.154343 65.538815 
L 432.858745 58.217527 
L 434.563328 61.747066 
L 436.267911 46.006942 
L 437.970972 60.457995 
L 439.675646 59.892038 
L 441.378707 58.729748 
L 443.083392 62.629939 
L 444.787168 64.68914 
L 446.492206 60.036303 
L 448.194494 58.8683 
L 449.898657 70.203031 
L 451.603695 56.062188 
L 453.306812 64.197177 
L 455.011361 54.480079 
L 456.715876 61.32409 
L 458.420425 61.310387 
L 460.123713 51.985564 
L 461.828433 60.117663 
L 463.531255 65.118337 
L 465.23594 60.842546 
L 466.940648 63.793732 
L 468.643709 66.062484 
L 470.348122 61.701356 
L 472.052523 69.943468 
L 473.756936 60.15914 
L 475.459645 68.816169 
L 477.164046 67.667986 
L 478.868209 57.558427 
L 480.57186 61.526541 
L 482.277159 46.699656 
L 483.98064 67.262818 
L 485.683758 61.035307 
L 487.388648 58.30091 
L 489.091777 63.976514 
L 490.795837 57.587613 
L 492.501113 58.008843 
L 494.204754 56.607631 
L 495.908746 60.401577 
L 497.612386 51.443925 
L 499.317799 41.400682 
L 501.02145 63.801803 
L 502.725124 52.928809 
L 504.428776 67.656943 
L 506.133041 65.459965 
L 507.836829 76.821499 
L 509.540605 72.767944 
L 511.246052 63.736193 
L 512.94984 58.372661 
L 514.653616 54.552442 
L 516.35737 40.547885 
L 518.061158 60.490719 
L 519.764934 58.105894 
L 521.470381 67.927676 
L 523.174169 51.482917 
L 524.877945 45.175676 
L 526.581733 56.81702 
L 528.285521 56.190691 
L 529.989298 54.547632 
L 531.69371 65.8393 
L 533.397839 58.433438 
L 536.806687 66.217618 
L 538.510645 66.798607 
L 540.214604 61.993596 
L 541.918551 56.622779 
L 543.622543 53.835653 
L 545.326501 53.655069 
L 547.03046 73.020788 
L 548.734861 64.977692 
L 550.438126 47.879072 
L 552.142948 53.485342 
L 553.846213 48.428758 
L 555.551001 69.449702 
L 557.254266 54.626344 
L 558.959088 59.838072 
L 560.662353 69.529477 
L 562.367175 59.456736 
L 564.071962 60.26232 
L 565.775228 62.243249 
L 567.480049 62.062942 
L 569.183315 50.618903 
L 570.888102 56.343883 
L 572.591368 52.852942 
L 574.296189 66.075667 
L 575.999455 47.340393 
L 577.704276 53.608191 
L 579.407542 57.036724 
L 581.112329 58.602598 
L 582.815594 62.225973 
L 584.520416 58.947174 
L 586.223681 62.844855 
L 587.928503 50.113458 
L 589.631768 52.170705 
L 591.336556 51.774799 
L 593.039821 64.430711 
L 594.744643 57.155445 
L 596.447897 65.120361 
L 598.15273 70.224284 
L 599.855984 70.194416 
L 601.560783 65.623632 
L 603.264037 69.554315 
L 604.968859 60.713256 
L 606.673135 68.356861 
L 608.376366 77.551736 
L 610.080836 60.84324 
L 611.785351 66.564103 
L 613.488298 83.08363 
L 615.192779 86.542806 
L 616.897248 68.215962 
L 618.601763 86.385637 
L 620.30471 68.721754 
L 622.009191 67.769963 
L 623.713706 67.778393 
L 625.416653 64.896101 
L 627.121134 52.626613 
L 628.825604 77.353875 
L 630.530119 65.22021 
L 632.233066 48.696913 
L 633.937547 62.71175 
L 635.642062 61.157982 
L 637.346531 76.550627 
L 639.050285 71.735452 
L 640.753198 70.13076 
L 642.457611 61.901598 
L 644.161978 67.211107 
L 645.866391 56.305145 
L 647.570792 57.528791 
L 649.273705 59.398896 
L 650.978118 65.469793 
L 652.682519 66.866623 
L 654.386898 66.563039 
L 656.089811 70.601284 
L 657.794224 73.349846 
L 659.498625 75.398871 
L 661.203038 70.185443 
L 662.907405 81.691207 
L 664.610318 78.334875 
L 666.314731 89.034431 
L 668.019144 72.525321 
L 669.723545 62.254546 
L 671.426424 73.854297 
L 673.130837 66.860772 
L 674.835272 81.256217 
L 678.242564 64.425438 
L 679.946977 71.524525 
L 681.651378 69.924562 
L 683.355791 45.970714 
L 685.060124 39.814907 
L 686.763071 47.094336 
L 688.467484 62.602568 
L 690.171885 61.149102 
L 691.876298 70.843317 
L 693.579177 66.599984 
L 695.28359 77.244555 
L 696.987991 65.214463 
L 698.692404 74.917269 
L 700.395283 47.971405 
L 702.099695 46.424379 
L 703.804097 46.0732 
L 705.508509 56.113205 
L 707.212911 60.100722 
L 708.91579 49.72945 
L 710.620203 55.204395 
L 712.324604 44.99153 
L 714.029017 63.779382 
L 715.731964 41.316108 
L 717.436092 60.264922 
L 719.140221 68.842661 
L 720.844361 80.0532 
L 722.548558 78.116952 
L 724.252687 63.4088 
L 725.956815 75.576542 
L 727.660944 75.545714 
L 729.365073 70.59497 
L 731.069202 77.828123 
L 732.77333 68.470332 
L 734.477459 64.734376 
L 736.181667 72.914382 
L 739.589925 77.381026 
L 741.294053 70.3994 
L 742.996864 62.740404 
L 744.700993 71.885718 
L 746.405122 70.771069 
L 748.10925 61.787133 
L 749.81339 66.040595 
L 751.517587 76.417244 
L 753.221716 71.532689 
L 754.925845 73.825435 
L 756.629973 74.493797 
L 758.334102 70.703782 
L 760.038231 76.022275 
L 761.742359 69.645192 
L 763.446568 56.200913 
L 765.150696 65.115909 
L 766.854825 69.734449 
L 768.558954 76.128368 
L 770.263082 72.877125 
L 771.965893 76.290174 
L 773.670022 76.119442 
L 775.374151 67.049289 
L 777.078279 67.170126 
L 778.782487 64.193292 
L 780.486616 83.345136 
L 782.190745 60.371848 
L 783.894874 68.433341 
L 785.599002 65.715364 
L 787.303131 64.020004 
L 789.00726 79.491696 
L 790.711456 71.900634 
L 792.415597 60.895992 
L 794.119725 73.46393 
L 795.823854 68.827883 
L 797.527983 74.842108 
L 799.232111 81.644976 
L 800.93624 65.077796 
L 802.638915 76.759045 
L 804.343111 57.788769 
L 806.04724 73.077055 
L 807.751369 74.23857 
L 809.455509 70.165045 
L 811.159842 69.266145 
L 812.863482 52.277284 
L 814.568383 68.141598 
L 816.271956 70.37433 
L 817.975596 72.234769 
L 819.680486 71.685718 
L 821.384069 64.998356 
L 823.087709 69.890231 
L 824.792599 64.285082 
L 826.496182 70.610465 
L 828.20114 77.76582 
L 829.904712 64.41724 
L 831.608296 67.406666 
L 833.313186 73.093093 
L 835.016826 69.81219 
L 836.720398 71.6165 
L 838.425299 71.696761 
L 840.128939 77.006397 
L 841.832511 84.045875 
L 843.537413 79.041523 
L 845.241053 70.547457 
L 846.944625 69.098083 
L 850.353166 60.16047 
L 852.056738 70.300903 
L 853.761628 79.554011 
L 855.46528 68.694627 
L 857.169897 70.863703 
L 858.874162 73.65905 
L 860.578359 66.583772 
L 862.281794 68.770794 
L 863.985094 64.318442 
L 863.985094 64.318442 
" clip-path="url(#p68f7799c1d)" style="fill: none; stroke: #31557c; stroke-width: 1.4; stroke-linecap: square"/>
   </g>
   <g id="patch_3">
    <path d="M 52.00024 289.26 
L 52.00024 18.55149 
" style="fill: none; stroke: #000000; stroke-width: 0.8; stroke-linejoin: miter; stroke-linecap: square"/>
   </g>
   <g id="patch_4">
    <path d="M 932.99976 289.26 
L 932.99976 18.55149 
" style="fill: none; stroke: #000000; stroke-width: 0.8; stroke-linejoin: miter; stroke-linecap: square"/>
   </g>
   <g id="patch_5">
    <path d="M 52.00024 289.26 
L 932.99976 289.26 
" style="fill: none; stroke: #000000; stroke-width: 0.8; stroke-linejoin: miter; stroke-linecap: square"/>
   </g>
   <g id="patch_6">
    <path d="M 52.00024 18.55149 
L 932.99976 18.55149 
" style="fill: none; stroke: #000000; stroke-width: 0.8; stroke-linejoin: miter; stroke-linecap: square"/>
   </g>
   <g id="text_16">
    <!-- 全域热释放速率 -->
    <g transform="translate(450.5 12.55149) scale(0.12 -0.12)">
     <defs>
      <path id="NotoSansCJKjp-Regular-5168" d="M 3174 4909 
C 3750 4102 4877 3155 5862 2579 
C 5952 2720 6067 2880 6182 3002 
C 5184 3501 4064 4442 3392 5389 
L 2906 5389 
C 2413 4550 1344 3533 237 2925 
C 346 2829 480 2656 544 2547 
C 1619 3174 2656 4128 3174 4909 
z
M 486 102 
L 486 -333 
L 5946 -333 
L 5946 102 
L 3430 102 
L 3430 1158 
L 5376 1158 
L 5376 1587 
L 3430 1587 
L 3430 2586 
L 5133 2586 
L 5133 3014 
L 1299 3014 
L 1299 2586 
L 2931 2586 
L 2931 1587 
L 1011 1587 
L 1011 1158 
L 2931 1158 
L 2931 102 
L 486 102 
z
" transform="scale(0.015625)"/>
      <path id="NotoSansCJKjp-Regular-57df" d="M 1882 659 
L 2003 198 
C 2618 371 3430 608 4198 832 
L 4154 1235 
C 3315 1018 2451 787 1882 659 
z
M 2656 2995 
L 3494 2995 
L 3494 1914 
L 2656 1914 
L 2656 2995 
z
M 2285 3386 
L 2285 1523 
L 3885 1523 
L 3885 3386 
L 2285 3386 
z
M 230 826 
L 410 352 
C 915 595 1542 915 2131 1222 
L 1997 1651 
L 1402 1363 
L 1402 3360 
L 1984 3360 
L 1984 3814 
L 1402 3814 
L 1402 5299 
L 954 5299 
L 954 3814 
L 275 3814 
L 275 3360 
L 954 3360 
L 954 1152 
C 685 1024 435 909 230 826 
z
M 5517 3386 
C 5363 2778 5158 2221 4902 1728 
C 4813 2362 4749 3130 4717 3987 
L 6074 3987 
L 6074 4429 
L 5728 4429 
L 6016 4704 
C 5850 4896 5510 5171 5229 5363 
L 4954 5120 
C 5235 4915 5555 4627 5715 4429 
L 4704 4429 
L 4698 5370 
L 4237 5370 
L 4250 4429 
L 2093 4429 
L 2093 3987 
L 4262 3987 
C 4307 2893 4390 1907 4544 1133 
C 4186 621 3744 192 3226 -141 
C 3328 -211 3514 -371 3578 -454 
C 3987 -166 4352 186 4672 582 
C 4870 -96 5146 -506 5536 -506 
C 5939 -506 6074 -230 6150 621 
C 6048 666 5901 768 5805 870 
C 5779 205 5722 -51 5594 -51 
C 5363 -51 5165 365 5018 1069 
C 5421 1702 5728 2451 5952 3296 
L 5517 3386 
z
" transform="scale(0.015625)"/>
      <path id="NotoSansCJKjp-Regular-70ed" d="M 2195 710 
C 2272 326 2323 -173 2323 -474 
L 2797 -403 
C 2790 -109 2720 378 2637 755 
L 2195 710 
z
M 3514 723 
C 3680 346 3840 -154 3904 -461 
L 4378 -358 
C 4314 -58 4134 435 3962 806 
L 3514 723 
z
M 4838 755 
C 5158 358 5523 -192 5677 -538 
L 6131 -326 
C 5958 13 5581 550 5261 934 
L 4838 755 
z
M 1114 896 
C 902 454 563 -38 275 -339 
L 723 -525 
C 1018 -192 1344 326 1562 774 
L 1114 896 
z
M 1382 5370 
L 1382 4480 
L 422 4480 
L 422 4032 
L 1382 4032 
L 1382 3046 
L 294 2765 
L 410 2304 
L 1382 2579 
L 1382 1606 
C 1382 1530 1350 1504 1267 1504 
C 1190 1504 922 1498 627 1504 
C 691 1382 749 1203 768 1075 
C 1184 1075 1446 1082 1606 1158 
C 1773 1229 1830 1357 1830 1606 
L 1830 2707 
L 2650 2938 
L 2592 3373 
L 1830 3168 
L 1830 4032 
L 2579 4032 
L 2579 4480 
L 1830 4480 
L 1830 5370 
L 1382 5370 
z
M 3622 5382 
L 3610 4454 
L 2739 4454 
L 2739 4038 
L 3590 4038 
C 3571 3616 3533 3245 3462 2925 
L 2931 3238 
L 2694 2906 
C 2899 2790 3117 2650 3341 2509 
C 3162 2029 2861 1670 2355 1402 
C 2458 1325 2598 1158 2662 1056 
C 3194 1350 3526 1741 3731 2253 
C 4032 2048 4307 1843 4486 1690 
L 4736 2067 
C 4531 2240 4211 2458 3866 2675 
C 3968 3066 4019 3514 4045 4038 
L 4909 4038 
C 4890 2144 4883 1024 5645 1030 
C 6016 1030 6163 1235 6221 1971 
C 6106 2003 5939 2080 5843 2157 
C 5824 1632 5773 1453 5664 1453 
C 5318 1453 5318 2445 5370 4454 
L 4064 4454 
L 4083 5382 
L 3622 5382 
z
" transform="scale(0.015625)"/>
      <path id="NotoSansCJKjp-Regular-91ca" d="M 384 4262 
C 570 3974 755 3584 832 3334 
L 1178 3475 
C 1101 3718 902 4102 717 4384 
L 384 4262 
z
M 2438 4448 
C 2330 4166 2125 3738 1971 3482 
L 2298 3373 
C 2464 3616 2650 3987 2816 4326 
L 2438 4448 
z
M 2970 5043 
L 2970 4614 
L 3258 4614 
C 3475 4179 3763 3795 4109 3469 
C 3648 3181 3142 2957 2650 2816 
L 2650 3066 
L 1818 3066 
L 1818 4749 
C 2176 4800 2509 4870 2784 4947 
L 2528 5318 
C 1990 5158 1043 5037 262 4966 
C 314 4870 365 4710 384 4608 
C 698 4627 1037 4653 1376 4691 
L 1376 3066 
L 320 3066 
L 320 2650 
L 1293 2650 
C 1037 2010 602 1280 205 896 
C 282 774 397 563 442 422 
C 768 787 1114 1382 1376 1978 
L 1376 -518 
L 1818 -518 
L 1818 2080 
C 2061 1798 2342 1453 2470 1274 
L 2778 1606 
C 2637 1766 2035 2394 1818 2586 
L 1818 2650 
L 2650 2650 
L 2650 2797 
C 2733 2701 2842 2534 2893 2426 
C 3418 2605 3962 2854 4448 3181 
C 4896 2842 5414 2586 5984 2419 
C 6042 2541 6157 2726 6246 2822 
C 5722 2950 5229 3162 4813 3443 
C 5318 3840 5754 4333 6029 4909 
L 5741 5062 
L 5658 5043 
L 2970 5043 
z
M 5370 4614 
C 5133 4275 4819 3968 4454 3706 
C 4141 3968 3878 4275 3680 4614 
L 5370 4614 
z
M 4198 2618 
L 4198 2048 
L 3034 2048 
L 3034 1613 
L 4198 1613 
L 4198 954 
L 2778 954 
L 2778 525 
L 4198 525 
L 4198 -518 
L 4678 -518 
L 4678 525 
L 6086 525 
L 6086 954 
L 4678 954 
L 4678 1613 
L 5818 1613 
L 5818 2048 
L 4678 2048 
L 4678 2618 
L 4198 2618 
z
" transform="scale(0.015625)"/>
      <path id="NotoSansCJKjp-Regular-653e" d="M 1453 5363 
L 1453 4339 
L 282 4339 
L 282 3891 
L 1037 3891 
L 1037 2560 
C 1037 1651 941 640 160 -192 
C 275 -275 435 -403 518 -506 
C 1370 403 1498 1491 1498 2554 
L 1498 2592 
L 2374 2592 
C 2330 800 2285 166 2176 26 
C 2125 -51 2074 -64 1978 -64 
C 1882 -64 1638 -58 1370 -38 
C 1446 -160 1491 -352 1498 -486 
C 1773 -493 2042 -493 2195 -480 
C 2368 -461 2477 -410 2579 -269 
C 2752 -51 2784 678 2829 2816 
C 2835 2886 2835 3040 2835 3040 
L 1498 3040 
L 1498 3891 
L 3123 3891 
L 3123 4339 
L 1926 4339 
L 1926 5363 
L 1453 5363 
z
M 3974 3731 
L 5203 3731 
C 5069 2912 4870 2214 4570 1638 
C 4282 2221 4077 2899 3942 3635 
L 3974 3731 
z
M 3872 5382 
C 3686 4275 3354 3200 2848 2528 
C 2963 2451 3174 2298 3258 2214 
C 3405 2419 3533 2662 3654 2918 
C 3814 2272 4019 1683 4282 1171 
C 3898 627 3379 205 2688 -102 
C 2778 -205 2918 -416 2963 -525 
C 3629 -198 4141 218 4544 730 
C 4890 205 5325 -211 5869 -499 
C 5939 -371 6093 -186 6202 -90 
C 5632 179 5184 608 4832 1158 
C 5248 1850 5510 2694 5683 3731 
L 6157 3731 
L 6157 4179 
L 4109 4179 
C 4211 4538 4294 4922 4365 5306 
L 3872 5382 
z
" transform="scale(0.015625)"/>
      <path id="NotoSansCJKjp-Regular-901f" d="M 384 4934 
C 794 4646 1274 4218 1478 3904 
L 1862 4224 
C 1632 4531 1152 4947 730 5222 
L 384 4934 
z
M 1677 2848 
L 314 2848 
L 314 2400 
L 1210 2400 
L 1210 768 
C 890 499 518 230 230 32 
L 480 -461 
C 826 -173 1152 102 1459 378 
C 1869 -128 2445 -358 3283 -390 
C 3994 -416 5318 -403 6016 -371 
C 6035 -224 6118 6 6176 115 
C 5414 64 3981 45 3283 77 
C 2541 102 1978 326 1677 794 
L 1677 2848 
z
M 2752 3379 
L 3757 3379 
L 3757 2560 
L 2752 2560 
L 2752 3379 
z
M 4224 3379 
L 5286 3379 
L 5286 2560 
L 4224 2560 
L 4224 3379 
z
M 3757 5370 
L 3757 4710 
L 2035 4710 
L 2035 4294 
L 3757 4294 
L 3757 3763 
L 2304 3763 
L 2304 2176 
L 3501 2176 
C 3130 1638 2502 1120 1920 870 
C 2022 781 2163 621 2227 506 
C 2778 787 3360 1306 3757 1875 
L 3757 314 
L 4224 314 
L 4224 1850 
C 4640 1318 5235 800 5754 525 
C 5824 640 5971 806 6080 896 
C 5510 1146 4845 1658 4442 2176 
L 5754 2176 
L 5754 3763 
L 4224 3763 
L 4224 4294 
L 6048 4294 
L 6048 4710 
L 4224 4710 
L 4224 5370 
L 3757 5370 
z
" transform="scale(0.015625)"/>
      <path id="NotoSansCJKjp-Regular-7387" d="M 5376 4038 
C 5139 3782 4704 3437 4384 3226 
L 4736 3014 
C 5056 3226 5472 3520 5798 3821 
L 5376 4038 
z
M 320 1997 
L 557 1613 
C 986 1798 1517 2048 2022 2291 
L 1933 2656 
C 1338 2406 730 2150 320 1997 
z
M 544 3680 
C 902 3482 1344 3174 1555 2957 
L 1888 3258 
C 1670 3469 1222 3757 864 3949 
L 544 3680 
z
M 4262 2458 
C 4768 2202 5408 1811 5715 1542 
L 6067 1850 
C 5734 2112 5094 2490 4595 2733 
L 4262 2458 
z
M 3526 2707 
C 3654 2566 3782 2400 3904 2227 
L 2810 2176 
C 3264 2618 3763 3168 4147 3642 
L 3770 3827 
C 3590 3571 3347 3270 3091 2976 
C 2957 3098 2784 3226 2598 3347 
C 2810 3578 3046 3878 3251 4154 
L 3110 4211 
L 5882 4211 
L 5882 4659 
L 3424 4659 
L 3424 5376 
L 2938 5376 
L 2938 4659 
L 538 4659 
L 538 4211 
L 2771 4211 
C 2643 4000 2470 3750 2310 3546 
L 2131 3654 
L 1894 3373 
C 2202 3174 2579 2906 2822 2682 
C 2650 2490 2470 2310 2304 2150 
L 1811 2131 
L 1882 1715 
L 4128 1882 
C 4211 1747 4275 1626 4320 1517 
L 4691 1709 
C 4550 2035 4192 2515 3872 2874 
L 3526 2707 
z
M 346 1222 
L 346 774 
L 2938 774 
L 2938 -531 
L 3424 -531 
L 3424 774 
L 6061 774 
L 6061 1222 
L 3424 1222 
L 3424 1722 
L 2938 1722 
L 2938 1222 
L 346 1222 
z
" transform="scale(0.015625)"/>
     </defs>
     <use xlink:href="#NotoSansCJKjp-Regular-5168"/>
     <use xlink:href="#NotoSansCJKjp-Regular-57df" x="99.999985"/>
     <use xlink:href="#NotoSansCJKjp-Regular-70ed" x="199.999969"/>
     <use xlink:href="#NotoSansCJKjp-Regular-91ca" x="299.999954"/>
     <use xlink:href="#NotoSansCJKjp-Regular-653e" x="399.999939"/>
     <use xlink:href="#NotoSansCJKjp-Regular-901f" x="499.999924"/>
     <use xlink:href="#NotoSansCJKjp-Regular-7387" x="599.999908"/>
    </g>
   </g>
   <g id="legend_1">
    <g id="patch_7">
     <path d="M 57.60024 61.55149 
L 132.03274 61.55149 
Q 133.63274 61.55149 133.63274 59.95149 
L 133.63274 24.15149 
Q 133.63274 22.55149 132.03274 22.55149 
L 57.60024 22.55149 
Q 56.00024 22.55149 56.00024 24.15149 
L 56.00024 59.95149 
Q 56.00024 61.55149 57.60024 61.55149 
z
" style="fill: #ffffff; opacity: 0.8; stroke: #cccccc; stroke-linejoin: miter"/>
    </g>
    <g id="line2d_30">
     <path d="M 59.20024 29.31899 
L 67.20024 29.31899 
L 75.20024 29.31899 
" style="fill: none; stroke: #00796b; stroke-width: 1.4; stroke-linecap: square"/>
    </g>
    <g id="text_17">
     <!-- Q=50 J/cm2 -->
     <g transform="translate(81.60024 32.11899) scale(0.08 -0.08)">
      <defs>
       <path id="NotoSansCJKjp-Regular-51" d="M 2374 410 
C 1530 410 979 1165 979 2362 
C 979 3533 1530 4256 2374 4256 
C 3219 4256 3770 3533 3770 2362 
C 3770 1165 3219 410 2374 410 
z
M 3808 -1178 
C 4090 -1178 4339 -1133 4480 -1069 
L 4365 -614 
C 4243 -653 4083 -685 3872 -685 
C 3366 -685 2931 -474 2720 -58 
C 3712 115 4378 1011 4378 2362 
C 4378 3866 3552 4774 2374 4774 
C 1197 4774 371 3866 371 2362 
C 371 986 1062 77 2086 -64 
C 2349 -704 2944 -1178 3808 -1178 
z
" transform="scale(0.015625)"/>
       <path id="NotoSansCJKjp-Regular-3d" d="M 243 2912 
L 3315 2912 
L 3315 3347 
L 243 3347 
L 243 2912 
z
M 243 1376 
L 3315 1376 
L 3315 1811 
L 243 1811 
L 243 1376 
z
" transform="scale(0.015625)"/>
       <path id="NotoSansCJKjp-Regular-20" transform="scale(0.015625)"/>
       <path id="NotoSansCJKjp-Regular-4a" d="M 1517 -83 
C 2432 -83 2810 563 2810 1376 
L 2810 4691 
L 2214 4691 
L 2214 1434 
C 2214 723 1965 435 1459 435 
C 1120 435 858 589 646 966 
L 224 659 
C 499 173 922 -83 1517 -83 
z
" transform="scale(0.015625)"/>
       <path id="NotoSansCJKjp-Regular-2f" d="M 70 -1146 
L 499 -1146 
L 2413 5082 
L 1990 5082 
L 70 -1146 
z
" transform="scale(0.015625)"/>
       <path id="NotoSansCJKjp-Regular-63" d="M 1958 -83 
C 2374 -83 2771 83 3085 352 
L 2829 749 
C 2611 557 2330 403 2010 403 
C 1370 403 934 934 934 1734 
C 934 2534 1395 3072 2029 3072 
C 2298 3072 2522 2950 2720 2771 
L 3014 3155 
C 2771 3373 2458 3565 2003 3565 
C 1107 3565 333 2893 333 1734 
C 333 582 1037 -83 1958 -83 
z
" transform="scale(0.015625)"/>
       <path id="NotoSansCJKjp-Regular-6d" d="M 589 0 
L 1178 0 
L 1178 2522 
C 1491 2880 1786 3053 2048 3053 
C 2490 3053 2694 2778 2694 2125 
L 2694 0 
L 3277 0 
L 3277 2522 
C 3603 2880 3885 3053 4154 3053 
C 4595 3053 4800 2778 4800 2125 
L 4800 0 
L 5382 0 
L 5382 2202 
C 5382 3085 5043 3565 4333 3565 
C 3904 3565 3546 3290 3181 2899 
C 3040 3309 2758 3565 2221 3565 
C 1805 3565 1446 3302 1139 2970 
L 1126 2970 
L 1069 3475 
L 589 3475 
L 589 0 
z
" transform="scale(0.015625)"/>
      </defs>
      <use xlink:href="#NotoSansCJKjp-Regular-51"/>
      <use xlink:href="#NotoSansCJKjp-Regular-3d" x="74.199982"/>
      <use xlink:href="#NotoSansCJKjp-Regular-35" x="129.699966"/>
      <use xlink:href="#NotoSansCJKjp-Regular-30" x="185.199951"/>
      <use xlink:href="#NotoSansCJKjp-Regular-20" x="240.699936"/>
      <use xlink:href="#NotoSansCJKjp-Regular-4a" x="263.09993"/>
      <use xlink:href="#NotoSansCJKjp-Regular-2f" x="316.599915"/>
      <use xlink:href="#NotoSansCJKjp-Regular-63" x="355.799911"/>
      <use xlink:href="#NotoSansCJKjp-Regular-6d" x="406.799896"/>
      <use xlink:href="#NotoSansCJKjp-Regular-32" x="499.399887"/>
     </g>
    </g>
    <g id="line2d_31">
     <path d="M 59.20024 41.51899 
L 67.20024 41.51899 
L 75.20024 41.51899 
" style="fill: none; stroke: #c85a17; stroke-width: 1.4; stroke-linecap: square"/>
    </g>
    <g id="text_18">
     <!-- Q=200 J/cm2 -->
     <g transform="translate(81.60024 44.31899) scale(0.08 -0.08)">
      <use xlink:href="#NotoSansCJKjp-Regular-51"/>
      <use xlink:href="#NotoSansCJKjp-Regular-3d" x="74.199982"/>
      <use xlink:href="#NotoSansCJKjp-Regular-32" x="129.699966"/>
      <use xlink:href="#NotoSansCJKjp-Regular-30" x="185.199951"/>
      <use xlink:href="#NotoSansCJKjp-Regular-30" x="240.699936"/>
      <use xlink:href="#NotoSansCJKjp-Regular-20" x="296.199921"/>
      <use xlink:href="#NotoSansCJKjp-Regular-4a" x="318.599915"/>
      <use xlink:href="#NotoSansCJKjp-Regular-2f" x="372.099899"/>
      <use xlink:href="#NotoSansCJKjp-Regular-63" x="411.299896"/>
      <use xlink:href="#NotoSansCJKjp-Regular-6d" x="462.299881"/>
      <use xlink:href="#NotoSansCJKjp-Regular-32" x="554.899872"/>
     </g>
    </g>
    <g id="line2d_32">
     <path d="M 59.20024 53.71899 
L 67.20024 53.71899 
L 75.20024 53.71899 
" style="fill: none; stroke: #31557c; stroke-width: 1.4; stroke-linecap: square"/>
    </g>
    <g id="text_19">
     <!-- Q=400 J/cm2 -->
     <g transform="translate(81.60024 56.51899) scale(0.08 -0.08)">
      <use xlink:href="#NotoSansCJKjp-Regular-51"/>
      <use xlink:href="#NotoSansCJKjp-Regular-3d" x="74.199982"/>
      <use xlink:href="#NotoSansCJKjp-Regular-34" x="129.699966"/>
      <use xlink:href="#NotoSansCJKjp-Regular-30" x="185.199951"/>
      <use xlink:href="#NotoSansCJKjp-Regular-30" x="240.699936"/>
      <use xlink:href="#NotoSansCJKjp-Regular-20" x="296.199921"/>
      <use xlink:href="#NotoSansCJKjp-Regular-4a" x="318.599915"/>
      <use xlink:href="#NotoSansCJKjp-Regular-2f" x="372.099899"/>
      <use xlink:href="#NotoSansCJKjp-Regular-63" x="411.299896"/>
      <use xlink:href="#NotoSansCJKjp-Regular-6d" x="462.299881"/>
      <use xlink:href="#NotoSansCJKjp-Regular-32" x="554.899872"/>
     </g>
    </g>
   </g>
  </g>
  <g id="axes_2">
   <g id="patch_8">
    <path d="M 52.00024 613.49976 
L 932.99976 613.49976 
L 932.99976 342.79125 
L 52.00024 342.79125 
z
" style="fill: #ffffff"/>
   </g>
   <g id="matplotlib.axis_3">
    <g id="xtick_9">
     <g id="line2d_33">
      <path d="M 92.045673 613.49976 
L 92.045673 342.79125 
" clip-path="url(#p478a90a097)" style="fill: none; stroke: #d8dde3; stroke-width: 0.6; stroke-linecap: square"/>
     </g>
     <g id="line2d_34">
      <g>
       <use xlink:href="#mf31ac69e22" x="92.045673" y="613.49976" style="stroke: #000000; stroke-width: 0.8"/>
      </g>
     </g>
     <g id="text_20">
      <!-- 0 -->
      <g transform="translate(89.270673 628.459135) scale(0.1 -0.1)">
       <use xlink:href="#NotoSansCJKjp-Regular-30"/>
      </g>
     </g>
    </g>
    <g id="xtick_10">
     <g id="line2d_35">
      <path d="M 226.20057 613.49976 
L 226.20057 342.79125 
" clip-path="url(#p478a90a097)" style="fill: none; stroke: #d8dde3; stroke-width: 0.6; stroke-linecap: square"/>
     </g>
     <g id="line2d_36">
      <g>
       <use xlink:href="#mf31ac69e22" x="226.20057" y="613.49976" style="stroke: #000000; stroke-width: 0.8"/>
      </g>
     </g>
     <g id="text_21">
      <!-- 50 -->
      <g transform="translate(220.65057 628.459135) scale(0.1 -0.1)">
       <use xlink:href="#NotoSansCJKjp-Regular-35"/>
       <use xlink:href="#NotoSansCJKjp-Regular-30" x="55.499985"/>
      </g>
     </g>
    </g>
    <g id="xtick_11">
     <g id="line2d_37">
      <path d="M 360.355467 613.49976 
L 360.355467 342.79125 
" clip-path="url(#p478a90a097)" style="fill: none; stroke: #d8dde3; stroke-width: 0.6; stroke-linecap: square"/>
     </g>
     <g id="line2d_38">
      <g>
       <use xlink:href="#mf31ac69e22" x="360.355467" y="613.49976" style="stroke: #000000; stroke-width: 0.8"/>
      </g>
     </g>
     <g id="text_22">
      <!-- 100 -->
      <g transform="translate(352.030467 628.459135) scale(0.1 -0.1)">
       <use xlink:href="#NotoSansCJKjp-Regular-31"/>
       <use xlink:href="#NotoSansCJKjp-Regular-30" x="55.499985"/>
       <use xlink:href="#NotoSansCJKjp-Regular-30" x="110.999969"/>
      </g>
     </g>
    </g>
    <g id="xtick_12">
     <g id="line2d_39">
      <path d="M 494.510365 613.49976 
L 494.510365 342.79125 
" clip-path="url(#p478a90a097)" style="fill: none; stroke: #d8dde3; stroke-width: 0.6; stroke-linecap: square"/>
     </g>
     <g id="line2d_40">
      <g>
       <use xlink:href="#mf31ac69e22" x="494.510365" y="613.49976" style="stroke: #000000; stroke-width: 0.8"/>
      </g>
     </g>
     <g id="text_23">
      <!-- 150 -->
      <g transform="translate(486.185365 628.459135) scale(0.1 -0.1)">
       <use xlink:href="#NotoSansCJKjp-Regular-31"/>
       <use xlink:href="#NotoSansCJKjp-Regular-35" x="55.499985"/>
       <use xlink:href="#NotoSansCJKjp-Regular-30" x="110.999969"/>
      </g>
     </g>
    </g>
    <g id="xtick_13">
     <g id="line2d_41">
      <path d="M 628.665262 613.49976 
L 628.665262 342.79125 
" clip-path="url(#p478a90a097)" style="fill: none; stroke: #d8dde3; stroke-width: 0.6; stroke-linecap: square"/>
     </g>
     <g id="line2d_42">
      <g>
       <use xlink:href="#mf31ac69e22" x="628.665262" y="613.49976" style="stroke: #000000; stroke-width: 0.8"/>
      </g>
     </g>
     <g id="text_24">
      <!-- 200 -->
      <g transform="translate(620.340262 628.459135) scale(0.1 -0.1)">
       <use xlink:href="#NotoSansCJKjp-Regular-32"/>
       <use xlink:href="#NotoSansCJKjp-Regular-30" x="55.499985"/>
       <use xlink:href="#NotoSansCJKjp-Regular-30" x="110.999969"/>
      </g>
     </g>
    </g>
    <g id="xtick_14">
     <g id="line2d_43">
      <path d="M 762.82016 613.49976 
L 762.82016 342.79125 
" clip-path="url(#p478a90a097)" style="fill: none; stroke: #d8dde3; stroke-width: 0.6; stroke-linecap: square"/>
     </g>
     <g id="line2d_44">
      <g>
       <use xlink:href="#mf31ac69e22" x="762.82016" y="613.49976" style="stroke: #000000; stroke-width: 0.8"/>
      </g>
     </g>
     <g id="text_25">
      <!-- 250 -->
      <g transform="translate(754.49516 628.459135) scale(0.1 -0.1)">
       <use xlink:href="#NotoSansCJKjp-Regular-32"/>
       <use xlink:href="#NotoSansCJKjp-Regular-35" x="55.499985"/>
       <use xlink:href="#NotoSansCJKjp-Regular-30" x="110.999969"/>
      </g>
     </g>
    </g>
    <g id="xtick_15">
     <g id="line2d_45">
      <path d="M 896.975057 613.49976 
L 896.975057 342.79125 
" clip-path="url(#p478a90a097)" style="fill: none; stroke: #d8dde3; stroke-width: 0.6; stroke-linecap: square"/>
     </g>
     <g id="line2d_46">
      <g>
       <use xlink:href="#mf31ac69e22" x="896.975057" y="613.49976" style="stroke: #000000; stroke-width: 0.8"/>
      </g>
     </g>
     <g id="text_26">
      <!-- 300 -->
      <g transform="translate(888.650057 628.459135) scale(0.1 -0.1)">
       <use xlink:href="#NotoSansCJKjp-Regular-33"/>
       <use xlink:href="#NotoSansCJKjp-Regular-30" x="55.499985"/>
       <use xlink:href="#NotoSansCJKjp-Regular-30" x="110.999969"/>
      </g>
     </g>
    </g>
    <g id="text_27">
     <!-- 模拟时间（s） -->
     <g transform="translate(460.160156 642.709135) scale(0.1 -0.1)">
      <use xlink:href="#NotoSansCJKjp-Regular-6a21"/>
      <use xlink:href="#NotoSansCJKjp-Regular-62df" x="99.999985"/>
      <use xlink:href="#NotoSansCJKjp-Regular-65f6" x="199.999969"/>
      <use xlink:href="#NotoSansCJKjp-Regular-95f4" x="299.999954"/>
      <use xlink:href="#NotoSansCJKjp-Regular-ff08" x="399.999939"/>
      <use xlink:href="#NotoSansCJKjp-Regular-73" x="499.999924"/>
      <use xlink:href="#NotoSansCJKjp-Regular-ff09" x="546.799911"/>
     </g>
    </g>
   </g>
   <g id="matplotlib.axis_4">
    <g id="ytick_6">
     <g id="line2d_47">
      <path d="M 52.00024 601.194828 
L 932.99976 601.194828 
" clip-path="url(#p478a90a097)" style="fill: none; stroke: #d8dde3; stroke-width: 0.6; stroke-linecap: square"/>
     </g>
     <g id="line2d_48">
      <g>
       <use xlink:href="#mede87f1437" x="52.00024" y="601.194828" style="stroke: #000000; stroke-width: 0.8"/>
      </g>
     </g>
     <g id="text_28">
      <!-- 0 -->
      <g transform="translate(39.45024 605.174515) scale(0.1 -0.1)">
       <use xlink:href="#NotoSansCJKjp-Regular-30"/>
      </g>
     </g>
    </g>
    <g id="ytick_7">
     <g id="line2d_49">
      <path d="M 52.00024 570.766548 
L 932.99976 570.766548 
" clip-path="url(#p478a90a097)" style="fill: none; stroke: #d8dde3; stroke-width: 0.6; stroke-linecap: square"/>
     </g>
     <g id="line2d_50">
      <g>
       <use xlink:href="#mede87f1437" x="52.00024" y="570.766548" style="stroke: #000000; stroke-width: 0.8"/>
      </g>
     </g>
     <g id="text_29">
      <!-- 2500 -->
      <g transform="translate(22.80024 574.746235) scale(0.1 -0.1)">
       <use xlink:href="#NotoSansCJKjp-Regular-32"/>
       <use xlink:href="#NotoSansCJKjp-Regular-35" x="55.499985"/>
       <use xlink:href="#NotoSansCJKjp-Regular-30" x="110.999969"/>
       <use xlink:href="#NotoSansCJKjp-Regular-30" x="166.499954"/>
      </g>
     </g>
    </g>
    <g id="ytick_8">
     <g id="line2d_51">
      <path d="M 52.00024 540.338268 
L 932.99976 540.338268 
" clip-path="url(#p478a90a097)" style="fill: none; stroke: #d8dde3; stroke-width: 0.6; stroke-linecap: square"/>
     </g>
     <g id="line2d_52">
      <g>
       <use xlink:href="#mede87f1437" x="52.00024" y="540.338268" style="stroke: #000000; stroke-width: 0.8"/>
      </g>
     </g>
     <g id="text_30">
      <!-- 5000 -->
      <g transform="translate(22.80024 544.317955) scale(0.1 -0.1)">
       <use xlink:href="#NotoSansCJKjp-Regular-35"/>
       <use xlink:href="#NotoSansCJKjp-Regular-30" x="55.499985"/>
       <use xlink:href="#NotoSansCJKjp-Regular-30" x="110.999969"/>
       <use xlink:href="#NotoSansCJKjp-Regular-30" x="166.499954"/>
      </g>
     </g>
    </g>
    <g id="ytick_9">
     <g id="line2d_53">
      <path d="M 52.00024 509.909988 
L 932.99976 509.909988 
" clip-path="url(#p478a90a097)" style="fill: none; stroke: #d8dde3; stroke-width: 0.6; stroke-linecap: square"/>
     </g>
     <g id="line2d_54">
      <g>
       <use xlink:href="#mede87f1437" x="52.00024" y="509.909988" style="stroke: #000000; stroke-width: 0.8"/>
      </g>
     </g>
     <g id="text_31">
      <!-- 7500 -->
      <g transform="translate(22.80024 513.889676) scale(0.1 -0.1)">
       <use xlink:href="#NotoSansCJKjp-Regular-37"/>
       <use xlink:href="#NotoSansCJKjp-Regular-35" x="55.499985"/>
       <use xlink:href="#NotoSansCJKjp-Regular-30" x="110.999969"/>
       <use xlink:href="#NotoSansCJKjp-Regular-30" x="166.499954"/>
      </g>
     </g>
    </g>
    <g id="ytick_10">
     <g id="line2d_55">
      <path d="M 52.00024 479.481708 
L 932.99976 479.481708 
" clip-path="url(#p478a90a097)" style="fill: none; stroke: #d8dde3; stroke-width: 0.6; stroke-linecap: square"/>
     </g>
     <g id="line2d_56">
      <g>
       <use xlink:href="#mede87f1437" x="52.00024" y="479.481708" style="stroke: #000000; stroke-width: 0.8"/>
      </g>
     </g>
     <g id="text_32">
      <!-- 10000 -->
      <g transform="translate(17.25024 483.461396) scale(0.1 -0.1)">
       <use xlink:href="#NotoSansCJKjp-Regular-31"/>
       <use xlink:href="#NotoSansCJKjp-Regular-30" x="55.499985"/>
       <use xlink:href="#NotoSansCJKjp-Regular-30" x="110.999969"/>
       <use xlink:href="#NotoSansCJKjp-Regular-30" x="166.499954"/>
       <use xlink:href="#NotoSansCJKjp-Regular-30" x="221.999939"/>
      </g>
     </g>
    </g>
    <g id="ytick_11">
     <g id="line2d_57">
      <path d="M 52.00024 449.053428 
L 932.99976 449.053428 
" clip-path="url(#p478a90a097)" style="fill: none; stroke: #d8dde3; stroke-width: 0.6; stroke-linecap: square"/>
     </g>
     <g id="line2d_58">
      <g>
       <use xlink:href="#mede87f1437" x="52.00024" y="449.053428" style="stroke: #000000; stroke-width: 0.8"/>
      </g>
     </g>
     <g id="text_33">
      <!-- 12500 -->
      <g transform="translate(17.25024 453.033116) scale(0.1 -0.1)">
       <use xlink:href="#NotoSansCJKjp-Regular-31"/>
       <use xlink:href="#NotoSansCJKjp-Regular-32" x="55.499985"/>
       <use xlink:href="#NotoSansCJKjp-Regular-35" x="110.999969"/>
       <use xlink:href="#NotoSansCJKjp-Regular-30" x="166.499954"/>
       <use xlink:href="#NotoSansCJKjp-Regular-30" x="221.999939"/>
      </g>
     </g>
    </g>
    <g id="ytick_12">
     <g id="line2d_59">
      <path d="M 52.00024 418.625148 
L 932.99976 418.625148 
" clip-path="url(#p478a90a097)" style="fill: none; stroke: #d8dde3; stroke-width: 0.6; stroke-linecap: square"/>
     </g>
     <g id="line2d_60">
      <g>
       <use xlink:href="#mede87f1437" x="52.00024" y="418.625148" style="stroke: #000000; stroke-width: 0.8"/>
      </g>
     </g>
     <g id="text_34">
      <!-- 15000 -->
      <g transform="translate(17.25024 422.604836) scale(0.1 -0.1)">
       <use xlink:href="#NotoSansCJKjp-Regular-31"/>
       <use xlink:href="#NotoSansCJKjp-Regular-35" x="55.499985"/>
       <use xlink:href="#NotoSansCJKjp-Regular-30" x="110.999969"/>
       <use xlink:href="#NotoSansCJKjp-Regular-30" x="166.499954"/>
       <use xlink:href="#NotoSansCJKjp-Regular-30" x="221.999939"/>
      </g>
     </g>
    </g>
    <g id="ytick_13">
     <g id="line2d_61">
      <path d="M 52.00024 388.196868 
L 932.99976 388.196868 
" clip-path="url(#p478a90a097)" style="fill: none; stroke: #d8dde3; stroke-width: 0.6; stroke-linecap: square"/>
     </g>
     <g id="line2d_62">
      <g>
       <use xlink:href="#mede87f1437" x="52.00024" y="388.196868" style="stroke: #000000; stroke-width: 0.8"/>
      </g>
     </g>
     <g id="text_35">
      <!-- 17500 -->
      <g transform="translate(17.25024 392.176556) scale(0.1 -0.1)">
       <use xlink:href="#NotoSansCJKjp-Regular-31"/>
       <use xlink:href="#NotoSansCJKjp-Regular-37" x="55.499985"/>
       <use xlink:href="#NotoSansCJKjp-Regular-35" x="110.999969"/>
       <use xlink:href="#NotoSansCJKjp-Regular-30" x="166.499954"/>
       <use xlink:href="#NotoSansCJKjp-Regular-30" x="221.999939"/>
      </g>
     </g>
    </g>
    <g id="ytick_14">
     <g id="line2d_63">
      <path d="M 52.00024 357.768589 
L 932.99976 357.768589 
" clip-path="url(#p478a90a097)" style="fill: none; stroke: #d8dde3; stroke-width: 0.6; stroke-linecap: square"/>
     </g>
     <g id="line2d_64">
      <g>
       <use xlink:href="#mede87f1437" x="52.00024" y="357.768589" style="stroke: #000000; stroke-width: 0.8"/>
      </g>
     </g>
     <g id="text_36">
      <!-- 20000 -->
      <g transform="translate(17.25024 361.748276) scale(0.1 -0.1)">
       <use xlink:href="#NotoSansCJKjp-Regular-32"/>
       <use xlink:href="#NotoSansCJKjp-Regular-30" x="55.499985"/>
       <use xlink:href="#NotoSansCJKjp-Regular-30" x="110.999969"/>
       <use xlink:href="#NotoSansCJKjp-Regular-30" x="166.499954"/>
       <use xlink:href="#NotoSansCJKjp-Regular-30" x="221.999939"/>
      </g>
     </g>
    </g>
    <g id="text_37">
     <!-- HRR（kW） -->
     <g transform="translate(10.959615 505.285349) rotate(-90) scale(0.1 -0.1)">
      <use xlink:href="#NotoSansCJKjp-Regular-48"/>
      <use xlink:href="#NotoSansCJKjp-Regular-52" x="72.799988"/>
      <use xlink:href="#NotoSansCJKjp-Regular-52" x="136.299973"/>
      <use xlink:href="#NotoSansCJKjp-Regular-ff08" x="199.799957"/>
      <use xlink:href="#NotoSansCJKjp-Regular-6b" x="299.799942"/>
      <use xlink:href="#NotoSansCJKjp-Regular-57" x="354.999939"/>
      <use xlink:href="#NotoSansCJKjp-Regular-ff09" x="442.799927"/>
     </g>
    </g>
   </g>
   <g id="line2d_65">
    <path d="M 92.045673 601.194828 
L 96.102654 586.552299 
L 100.100037 550.78032 
L 104.121085 536.793984 
L 108.145439 531.079249 
L 112.171209 522.057713 
L 116.195128 512.679251 
L 120.220578 510.70194 
L 124.247466 512.482318 
L 128.271504 517.212618 
L 132.292646 515.733287 
L 136.323953 521.758483 
L 140.352683 537.873468 
L 144.36681 540.830596 
L 148.396962 538.91202 
L 152.432138 537.014899 
L 156.442634 533.280934 
L 160.470407 528.339663 
L 164.490197 522.926467 
L 168.517731 520.325902 
L 172.546591 511.548696 
L 176.574133 507.337624 
L 180.588756 503.120884 
L 184.617505 492.445644 
L 188.637537 468.300058 
L 192.662235 357.48619 
L 196.690402 456.743044 
L 200.713565 455.736963 
L 204.737517 427.463602 
L 208.769001 472.309823 
L 212.785429 494.899137 
L 216.813044 487.042303 
L 220.843228 501.877125 
L 224.859923 496.640502 
L 228.890137 495.473888 
L 232.911765 487.928803 
L 236.935111 489.885197 
L 240.959943 492.940969 
L 244.986892 485.659615 
L 249.012255 481.408706 
L 253.036401 475.857639 
L 257.064179 465.269365 
L 261.085582 469.227366 
L 265.113698 467.474672 
L 269.13677 462.611065 
L 273.157733 464.993867 
L 277.186759 464.14633 
L 281.212224 465.517757 
L 285.231816 463.03885 
L 289.255848 457.945314 
L 293.280146 455.987899 
L 297.309502 456.553585 
L 301.328112 449.890827 
L 305.360189 441.001825 
L 309.382727 439.205194 
L 313.404323 437.51147 
L 317.431387 436.401556 
L 321.452922 441.301946 
L 325.480413 435.910773 
L 329.50371 429.026082 
L 333.532001 438.020304 
L 337.556073 436.284919 
L 341.580618 428.259448 
L 345.601233 427.295918 
L 349.63149 436.357642 
L 353.647948 428.418527 
L 357.673435 417.799069 
L 361.698868 418.635336 
L 365.729739 419.594618 
L 369.750228 413.853605 
L 373.778443 421.513352 
L 377.802205 417.433966 
L 381.824463 416.198091 
L 385.848708 411.506781 
L 389.876575 414.582581 
L 393.897814 412.953743 
L 397.919536 404.793633 
L 401.949845 411.204871 
L 405.973043 400.899653 
L 409.999514 411.326974 
L 414.023866 408.922325 
L 418.047064 407.982529 
L 422.068223 392.927675 
L 426.095231 396.720341 
L 430.116846 399.705951 
L 434.140661 400.09934 
L 438.167589 400.882248 
L 442.192074 407.21789 
L 446.215246 401.549211 
L 450.241502 405.133395 
L 454.269208 405.235366 
L 458.289267 413.399968 
L 462.318475 409.987911 
L 466.342102 398.57139 
L 470.366454 390.107265 
L 474.387613 388.276323 
L 478.414675 393.721646 
L 482.438624 397.431231 
L 486.463083 395.899288 
L 490.49256 397.621468 
L 494.512484 404.381342 
L 498.541693 407.101752 
L 502.5599 401.748432 
L 506.590906 397.390578 
L 510.609596 408.435509 
L 514.635021 418.229301 
L 518.660795 407.49127 
L 522.684745 410.971024 
L 526.70915 410.918748 
L 530.735756 401.347241 
L 534.762495 403.817433 
L 538.78733 391.149507 
L 542.810421 391.555201 
L 546.83429 397.634321 
L 550.856441 392.107779 
L 554.885918 383.493764 
L 558.908123 387.776155 
L 562.929497 391.467714 
L 566.959698 393.701417 
L 570.980991 397.583433 
L 575.006335 403.814451 
L 579.033719 392.78583 
L 583.055066 392.080296 
L 587.079283 398.074667 
" clip-path="url(#p478a90a097)" style="fill: none; stroke: #00796b; stroke-width: 1.4; stroke-linecap: square"/>
   </g>
   <g id="line2d_66">
    <path d="M 92.045673 601.194828 
L 96.079415 564.788702 
L 100.096998 501.909807 
L 104.120865 487.325797 
L 108.144532 477.369596 
L 112.17031 464.158331 
L 116.196945 458.139276 
L 120.220616 468.43948 
L 124.244826 466.15714 
L 128.270581 477.522589 
L 132.302182 494.138708 
L 136.328074 492.389883 
L 140.342179 484.58539 
L 144.368098 463.213654 
L 148.393037 452.544696 
L 152.415449 456.906298 
L 156.44224 468.213836 
L 160.470208 464.432952 
L 164.491737 465.046776 
L 168.518407 466.008078 
L 172.539446 477.970615 
L 176.566513 496.354869 
L 180.597701 497.330259 
L 184.623013 491.956122 
L 188.648948 488.069791 
L 192.672286 481.220821 
L 196.688151 479.706692 
L 200.719747 475.218889 
L 204.743463 474.591251 
L 208.765818 472.940955 
L 212.792542 465.883492 
L 216.816778 465.998682 
L 220.834516 461.030669 
L 224.860588 458.94111 
L 228.883853 452.216071 
L 232.916166 446.355073 
L 236.935409 445.914021 
L 240.966187 440.970825 
L 244.98503 439.297781 
L 249.01459 436.465334 
L 253.035244 440.93391 
L 257.058142 434.562678 
L 261.082255 436.206389 
L 265.113352 431.107462 
L 269.13149 426.816405 
L 273.157076 427.769723 
L 277.180147 422.066149 
L 281.204671 419.973219 
L 285.230445 426.509225 
L 289.255604 419.176278 
L 293.279266 418.847238 
L 297.308051 420.553486 
L 301.331367 418.552851 
L 305.355236 416.804271 
L 309.381498 412.50338 
L 313.407006 404.536246 
L 317.427805 403.990533 
L 321.452165 411.5454 
L 325.475398 408.678229 
L 329.506616 401.921946 
L 333.530426 399.689131 
L 337.553208 403.72072 
L 341.578531 406.489985 
L 345.598694 400.107556 
L 353.651613 402.025195 
L 357.677712 394.768281 
L 361.698009 393.046893 
L 365.728103 384.034231 
L 369.751354 388.350495 
L 373.77246 392.170899 
L 377.796436 394.44153 
L 385.850291 390.653137 
L 389.873462 392.835392 
L 393.900229 389.376707 
L 397.920234 390.688774 
L 401.945364 380.982323 
L 405.97476 386.896412 
L 409.99506 387.384701 
L 414.018204 384.508486 
L 418.044971 379.609132 
L 422.067337 388.64285 
L 426.094694 391.407466 
L 430.119153 386.871388 
L 434.143586 389.414803 
L 438.167937 387.683799 
L 442.195241 388.869151 
L 446.217848 388.238385 
L 450.245017 385.522125 
L 454.26894 390.017758 
L 458.29034 385.138084 
L 462.316168 388.771147 
L 466.341646 383.669445 
L 470.363503 382.97327 
L 474.39204 382.87013 
L 478.416124 383.30366 
L 482.43908 372.556562 
L 486.465176 380.621748 
L 490.491191 383.151896 
L 494.516724 373.531643 
L 498.537131 372.618539 
L 502.563388 383.225679 
L 506.584681 370.867707 
L 510.610053 377.475793 
L 514.635102 372.280797 
L 518.661278 376.604047 
L 522.684288 370.889202 
L 526.711914 373.430365 
L 530.734387 376.611508 
L 534.758954 373.534478 
L 538.78462 373.892303 
L 542.809079 374.621133 
L 546.831338 368.582872 
L 550.85848 381.168094 
L 554.881169 374.207053 
L 558.910028 372.446448 
L 562.93218 367.439049 
L 566.958812 363.70461 
L 570.979595 370.899109 
L 575.005181 380.304393 
L 579.032753 379.600429 
L 583.057427 372.494598 
L 587.080598 375.328213 
L 591.107096 370.655635 
L 595.127799 376.601892 
L 599.155397 375.982811 
L 603.177146 369.307065 
L 607.202598 376.249131 
L 611.228077 372.117543 
L 615.25149 360.170305 
L 619.279651 370.543829 
L 623.302581 364.600443 
L 627.326826 374.720183 
L 631.352116 379.268505 
L 635.377219 374.065269 
L 639.398378 374.973736 
L 643.426889 379.219077 
L 647.44786 370.794083 
L 651.476585 374.143677 
L 655.499435 372.195951 
L 659.523786 365.240338 
L 663.547494 360.26389 
L 667.57477 370.534311 
L 671.595742 367.842844 
L 675.619476 374.833717 
L 679.646457 368.432508 
L 683.673573 368.784137 
L 687.695107 371.466804 
L 691.722867 364.197987 
L 695.743865 372.912305 
L 699.76768 375.692245 
L 703.796271 360.787512 
L 707.820703 365.718025 
L 711.842533 370.45398 
L 715.869755 373.858686 
L 719.891531 371.043303 
L 723.918486 369.424884 
L 727.944769 366.429037 
L 731.965848 367.806464 
L 735.992078 366.071675 
L 740.018361 368.539311 
L 744.039467 360.469098 
L 748.065697 370.500426 
L 752.09198 356.562533 
L 756.1166 374.448106 
L 760.14012 367.686516 
L 764.163211 372.043359 
L 768.191346 372.457037 
L 772.212102 361.836363 
L 776.239915 368.879937 
L 780.261289 375.334518 
L 784.286338 366.753317 
L 788.310663 355.096182 
L 792.334961 374.403108 
L 796.359286 367.416033 
L 800.383611 366.487824 
L 804.408339 356.098697 
L 808.433737 365.356915 
L 812.462462 376.120602 
L 816.482199 371.077821 
L 820.512346 383.258992 
L 824.53321 373.963116 
L 828.559655 369.030521 
L 832.581538 367.696277 
L 836.608385 374.260022 
L 840.631798 388.054963 
L 844.655371 380.385369 
L 848.681333 375.301023 
L 852.706731 377.740543 
L 856.729661 375.500535 
L 860.757152 368.056341 
L 864.779921 378.916913 
L 868.802689 371.041404 
L 872.830288 377.59327 
L 876.853056 381.057579 
L 880.879582 382.800547 
L 884.902994 379.48799 
L 888.930432 383.696428 
L 892.954327 374.836346 
L 892.954327 374.836346 
" clip-path="url(#p478a90a097)" style="fill: none; stroke: #c85a17; stroke-width: 1.4; stroke-linecap: square"/>
   </g>
   <g id="line2d_67">
    <path d="M 92.045673 601.194828 
L 96.074335 559.901137 
L 100.096282 490.879829 
L 104.121357 469.59147 
L 108.145919 460.643231 
L 112.170541 450.286224 
L 116.194708 456.359964 
L 120.220342 459.483598 
L 124.244313 475.649899 
L 128.276317 480.754657 
L 132.293907 497.063005 
L 136.322654 483.956022 
L 140.345935 467.582474 
L 144.368243 452.416021 
L 148.392613 436.006877 
L 152.416809 463.473548 
L 156.445027 470.940076 
L 160.467378 471.61954 
L 164.490232 467.070804 
L 168.522008 475.794701 
L 172.544492 492.030502 
L 176.573642 492.70499 
L 180.596145 487.919617 
L 184.617577 483.518428 
L 192.66642 469.124469 
L 196.689235 470.867292 
L 200.716023 468.042172 
L 204.737692 465.470057 
L 208.76419 457.195281 
L 212.78596 456.266111 
L 216.809974 454.264381 
L 220.841804 450.538255 
L 224.861999 443.571482 
L 228.884036 442.511092 
L 232.915715 436.876846 
L 236.939973 432.270759 
L 240.958427 430.538733 
L 244.985797 431.876579 
L 249.010299 429.65725 
L 253.038255 429.971635 
L 261.085643 422.958099 
L 265.111345 417.997705 
L 269.136013 423.504226 
L 273.158632 416.152814 
L 277.179555 416.669803 
L 281.208951 412.205378 
L 285.23499 411.223469 
L 289.259819 408.865594 
L 293.281193 410.31493 
L 297.306945 406.494671 
L 301.330444 399.933117 
L 305.353229 409.769752 
L 309.378777 406.154994 
L 313.401337 402.22545 
L 317.43333 400.280973 
L 321.454089 393.497949 
L 325.475994 395.271103 
L 329.501703 397.309737 
L 333.526822 395.128406 
L 337.552062 396.555395 
L 341.576484 391.364903 
L 345.599287 397.176449 
L 349.627967 380.905108 
L 353.648275 384.557135 
L 357.676587 390.469484 
L 361.697929 383.64924 
L 365.723863 384.915568 
L 369.75055 390.296018 
L 373.771708 392.088718 
L 377.797536 384.5038 
L 381.825912 378.781957 
L 385.850667 379.293736 
L 389.873409 388.570077 
L 393.900417 381.678486 
L 397.924151 379.497849 
L 401.947752 387.775826 
L 405.970386 384.924453 
L 409.997716 378.101082 
L 414.022497 384.059547 
L 418.043147 380.049697 
L 422.073267 372.235751 
L 426.093245 376.700468 
L 430.117785 373.231534 
L 434.143344 375.053775 
L 438.168984 384.177938 
L 442.194087 367.269369 
L 446.218814 375.910087 
L 450.242388 374.250833 
L 454.267625 380.223746 
L 458.292567 382.793536 
L 462.316999 376.767654 
L 466.338561 381.825187 
L 470.366132 378.282264 
L 474.392496 376.989038 
L 478.41709 379.721716 
L 482.441817 380.983005 
L 486.461903 391.776756 
L 490.486013 381.689671 
L 494.510606 381.284683 
L 498.53689 382.922065 
L 502.562369 383.406581 
L 506.58503 381.680774 
L 510.614319 378.575057 
L 514.637517 377.887633 
L 518.662995 379.38462 
L 522.684906 380.642987 
L 526.707835 380.64973 
L 530.733904 372.657 
L 534.759973 375.20336 
L 538.786069 381.364369 
L 542.808408 385.152982 
L 546.831607 373.300315 
L 550.858856 378.403454 
L 554.882188 380.996101 
L 558.907667 380.28083 
L 562.93497 392.63493 
L 566.95959 382.303215 
L 570.984264 380.937009 
L 575.006738 383.338884 
L 579.033853 383.324278 
L 583.053778 384.842942 
L 587.081161 372.570328 
L 591.106479 375.044488 
L 595.128309 367.646071 
L 599.155451 369.430507 
L 603.177254 374.113456 
L 607.204369 376.704509 
L 611.225662 375.99082 
L 615.254226 364.934205 
L 619.276807 372.772201 
L 623.302957 369.180678 
L 627.328543 373.54867 
L 631.348414 362.958193 
L 635.374858 372.23289 
L 639.401947 367.921532 
L 643.423938 369.048267 
L 647.451053 378.320603 
L 651.476049 380.18279 
L 655.496537 367.06814 
L 659.521532 377.005177 
L 663.547548 370.597322 
L 667.57257 372.69708 
L 671.599954 371.084807 
L 675.622213 364.602196 
L 679.644445 362.84237 
L 683.671882 363.717695 
L 687.694115 366.652137 
L 691.721552 365.836647 
L 695.743784 365.22398 
L 699.771195 369.700199 
L 703.793427 367.588342 
L 707.817296 363.984818 
L 711.843096 360.542771 
L 715.869836 361.98652 
L 719.890887 365.531646 
L 723.918996 366.593337 
L 727.94214 370.915309 
L 731.965231 362.009707 
L 735.993366 370.626363 
L 740.016483 369.764889 
L 744.039574 373.0097 
L 748.067709 368.092368 
L 752.090826 357.762479 
L 756.113917 363.944763 
L 760.141274 366.872779 
L 764.166699 376.509378 
L 768.187831 361.806872 
L 772.214061 371.752866 
L 776.240345 373.133081 
L 780.261933 369.095881 
L 784.288136 367.032101 
L 788.309671 369.082821 
L 792.335954 368.328163 
L 796.362157 366.493557 
L 800.387958 362.055203 
L 804.40909 375.688448 
L 808.436849 383.988357 
L 812.460342 381.43753 
L 816.48719 369.399506 
L 820.510522 383.040845 
L 824.533451 383.019022 
L 828.556301 369.440061 
L 832.583738 377.97164 
L 836.606587 375.771809 
L 840.634025 367.548542 
L 844.656847 379.51697 
L 848.679696 377.363123 
L 852.707134 371.445638 
L 856.729983 375.434128 
L 860.75742 381.467654 
L 864.780269 377.94238 
L 868.803092 389.371814 
L 872.83061 384.435337 
L 876.854022 375.052533 
L 880.877784 379.473348 
L 884.901599 379.094699 
L 888.93019 370.674098 
L 892.951886 378.663007 
L 892.951886 378.663007 
" clip-path="url(#p478a90a097)" style="fill: none; stroke: #31557c; stroke-width: 1.4; stroke-linecap: square"/>
   </g>
   <g id="patch_9">
    <path d="M 52.00024 613.49976 
L 52.00024 342.79125 
" style="fill: none; stroke: #000000; stroke-width: 0.8; stroke-linejoin: miter; stroke-linecap: square"/>
   </g>
   <g id="patch_10">
    <path d="M 932.99976 613.49976 
L 932.99976 342.79125 
" style="fill: none; stroke: #000000; stroke-width: 0.8; stroke-linejoin: miter; stroke-linecap: square"/>
   </g>
   <g id="patch_11">
    <path d="M 52.00024 613.49976 
L 932.99976 613.49976 
" style="fill: none; stroke: #000000; stroke-width: 0.8; stroke-linejoin: miter; stroke-linecap: square"/>
   </g>
   <g id="patch_12">
    <path d="M 52.00024 342.79125 
L 932.99976 342.79125 
" style="fill: none; stroke: #000000; stroke-width: 0.8; stroke-linejoin: miter; stroke-linecap: square"/>
   </g>
   <g id="text_38">
    <!-- 全域热释放速率：前 300 s -->
    <g transform="translate(423.013437 336.79125) scale(0.12 -0.12)">
     <defs>
      <path id="NotoSansCJKjp-Regular-ff1a" d="M 3200 3482 
C 3456 3482 3686 3667 3686 3962 
C 3686 4256 3456 4442 3200 4442 
C 2944 4442 2714 4256 2714 3962 
C 2714 3667 2944 3482 3200 3482 
z
M 3200 346 
C 3456 346 3686 538 3686 826 
C 3686 1120 3456 1312 3200 1312 
C 2944 1312 2714 1120 2714 826 
C 2714 538 2944 346 3200 346 
z
" transform="scale(0.015625)"/>
      <path id="NotoSansCJKjp-Regular-524d" d="M 3866 3290 
L 3866 666 
L 4314 666 
L 4314 3290 
L 3866 3290 
z
M 5165 3482 
L 5165 90 
C 5165 -6 5133 -32 5030 -32 
C 4922 -38 4576 -38 4186 -26 
C 4256 -154 4333 -358 4358 -486 
C 4851 -493 5178 -480 5370 -403 
C 5568 -326 5638 -192 5638 83 
L 5638 3482 
L 5165 3482 
z
M 4627 5408 
C 4486 5094 4243 4672 4026 4365 
L 2106 4365 
L 2419 4480 
C 2298 4736 2022 5114 1779 5382 
L 1331 5222 
C 1562 4960 1798 4614 1920 4365 
L 339 4365 
L 339 3923 
L 6061 3923 
L 6061 4365 
L 4570 4365 
C 4755 4627 4960 4947 5139 5242 
L 4627 5408 
z
M 2618 1926 
L 2618 1280 
L 1197 1280 
L 1197 1926 
L 2618 1926 
z
M 2618 2304 
L 1197 2304 
L 1197 2938 
L 2618 2938 
L 2618 2304 
z
M 742 3347 
L 742 -480 
L 1197 -480 
L 1197 902 
L 2618 902 
L 2618 45 
C 2618 -38 2592 -64 2502 -64 
C 2419 -70 2125 -70 1798 -58 
C 1862 -179 1933 -365 1965 -486 
C 2394 -486 2682 -480 2854 -403 
C 3034 -333 3085 -205 3085 38 
L 3085 3347 
L 742 3347 
z
" transform="scale(0.015625)"/>
     </defs>
     <use xlink:href="#NotoSansCJKjp-Regular-5168"/>
     <use xlink:href="#NotoSansCJKjp-Regular-57df" x="99.999985"/>
     <use xlink:href="#NotoSansCJKjp-Regular-70ed" x="199.999969"/>
     <use xlink:href="#NotoSansCJKjp-Regular-91ca" x="299.999954"/>
     <use xlink:href="#NotoSansCJKjp-Regular-653e" x="399.999939"/>
     <use xlink:href="#NotoSansCJKjp-Regular-901f" x="499.999924"/>
     <use xlink:href="#NotoSansCJKjp-Regular-7387" x="599.999908"/>
     <use xlink:href="#NotoSansCJKjp-Regular-ff1a" x="699.999893"/>
     <use xlink:href="#NotoSansCJKjp-Regular-524d" x="799.999878"/>
     <use xlink:href="#NotoSansCJKjp-Regular-20" x="899.999863"/>
     <use xlink:href="#NotoSansCJKjp-Regular-33" x="922.399857"/>
     <use xlink:href="#NotoSansCJKjp-Regular-30" x="977.899841"/>
     <use xlink:href="#NotoSansCJKjp-Regular-30" x="1033.399826"/>
     <use xlink:href="#NotoSansCJKjp-Regular-20" x="1088.899811"/>
     <use xlink:href="#NotoSansCJKjp-Regular-73" x="1111.299805"/>
    </g>
   </g>
   <g id="legend_2">
    <g id="patch_13">
     <path d="M 57.60024 385.79125 
L 132.03274 385.79125 
Q 133.63274 385.79125 133.63274 384.19125 
L 133.63274 348.39125 
Q 133.63274 346.79125 132.03274 346.79125 
L 57.60024 346.79125 
Q 56.00024 346.79125 56.00024 348.39125 
L 56.00024 384.19125 
Q 56.00024 385.79125 57.60024 385.79125 
z
" style="fill: #ffffff; opacity: 0.8; stroke: #cccccc; stroke-linejoin: miter"/>
    </g>
    <g id="line2d_68">
     <path d="M 59.20024 353.55875 
L 67.20024 353.55875 
L 75.20024 353.55875 
" style="fill: none; stroke: #00796b; stroke-width: 1.4; stroke-linecap: square"/>
    </g>
    <g id="text_39">
     <!-- Q=50 J/cm2 -->
     <g transform="translate(81.60024 356.35875) scale(0.08 -0.08)">
      <use xlink:href="#NotoSansCJKjp-Regular-51"/>
      <use xlink:href="#NotoSansCJKjp-Regular-3d" x="74.199982"/>
      <use xlink:href="#NotoSansCJKjp-Regular-35" x="129.699966"/>
      <use xlink:href="#NotoSansCJKjp-Regular-30" x="185.199951"/>
      <use xlink:href="#NotoSansCJKjp-Regular-20" x="240.699936"/>
      <use xlink:href="#NotoSansCJKjp-Regular-4a" x="263.09993"/>
      <use xlink:href="#NotoSansCJKjp-Regular-2f" x="316.599915"/>
      <use xlink:href="#NotoSansCJKjp-Regular-63" x="355.799911"/>
      <use xlink:href="#NotoSansCJKjp-Regular-6d" x="406.799896"/>
      <use xlink:href="#NotoSansCJKjp-Regular-32" x="499.399887"/>
     </g>
    </g>
    <g id="line2d_69">
     <path d="M 59.20024 365.75875 
L 67.20024 365.75875 
L 75.20024 365.75875 
" style="fill: none; stroke: #c85a17; stroke-width: 1.4; stroke-linecap: square"/>
    </g>
    <g id="text_40">
     <!-- Q=200 J/cm2 -->
     <g transform="translate(81.60024 368.55875) scale(0.08 -0.08)">
      <use xlink:href="#NotoSansCJKjp-Regular-51"/>
      <use xlink:href="#NotoSansCJKjp-Regular-3d" x="74.199982"/>
      <use xlink:href="#NotoSansCJKjp-Regular-32" x="129.699966"/>
      <use xlink:href="#NotoSansCJKjp-Regular-30" x="185.199951"/>
      <use xlink:href="#NotoSansCJKjp-Regular-30" x="240.699936"/>
      <use xlink:href="#NotoSansCJKjp-Regular-20" x="296.199921"/>
      <use xlink:href="#NotoSansCJKjp-Regular-4a" x="318.599915"/>
      <use xlink:href="#NotoSansCJKjp-Regular-2f" x="372.099899"/>
      <use xlink:href="#NotoSansCJKjp-Regular-63" x="411.299896"/>
      <use xlink:href="#NotoSansCJKjp-Regular-6d" x="462.299881"/>
      <use xlink:href="#NotoSansCJKjp-Regular-32" x="554.899872"/>
     </g>
    </g>
    <g id="line2d_70">
     <path d="M 59.20024 377.95875 
L 67.20024 377.95875 
L 75.20024 377.95875 
" style="fill: none; stroke: #31557c; stroke-width: 1.4; stroke-linecap: square"/>
    </g>
    <g id="text_41">
     <!-- Q=400 J/cm2 -->
     <g transform="translate(81.60024 380.75875) scale(0.08 -0.08)">
      <use xlink:href="#NotoSansCJKjp-Regular-51"/>
      <use xlink:href="#NotoSansCJKjp-Regular-3d" x="74.199982"/>
      <use xlink:href="#NotoSansCJKjp-Regular-34" x="129.699966"/>
      <use xlink:href="#NotoSansCJKjp-Regular-30" x="185.199951"/>
      <use xlink:href="#NotoSansCJKjp-Regular-30" x="240.699936"/>
      <use xlink:href="#NotoSansCJKjp-Regular-20" x="296.199921"/>
      <use xlink:href="#NotoSansCJKjp-Regular-4a" x="318.599915"/>
      <use xlink:href="#NotoSansCJKjp-Regular-2f" x="372.099899"/>
      <use xlink:href="#NotoSansCJKjp-Regular-63" x="411.299896"/>
      <use xlink:href="#NotoSansCJKjp-Regular-6d" x="462.299881"/>
      <use xlink:href="#NotoSansCJKjp-Regular-32" x="554.899872"/>
     </g>
    </g>
   </g>
  </g>
 </g>
 <defs>
  <clipPath id="p68f7799c1d">
   <rect x="52.00024" y="18.55149" width="880.99952" height="270.70851"/>
  </clipPath>
  <clipPath id="p478a90a097">
   <rect x="52.00024" y="342.79125" width="880.99952" height="270.70851"/>
  </clipPath>
 </defs>
</svg>
