<?xml version="1.0" encoding="utf-8" standalone="no"?>
<!DOCTYPE svg PUBLIC "-//W3C//DTD SVG 1.1//EN"
  "http://www.w3.org/Graphics/SVG/1.1/DTD/svg11.dtd">
<svg xmlns:xlink="http://www.w3.org/1999/xlink" width="892.8pt" height="388.8pt" viewBox="0 0 892.8 388.8" xmlns="http://www.w3.org/2000/svg" version="1.1">
 <metadata>
  <rdf:RDF xmlns:dc="http://purl.org/dc/elements/1.1/" xmlns:cc="http://creativecommons.org/ns#" xmlns:rdf="http://www.w3.org/1999/02/22-rdf-syntax-ns#">
   <cc:Work>
    <dc:type rdf:resource="http://purl.org/dc/dcmitype/StillImage"/>
    <dc:date>2026-07-20T23:20:29.977017</dc:date>
    <dc:format>image/svg+xml</dc:format>
    <dc:creator>
     <cc:Agent>
      <dc:title>Matplotlib v3.5.2, https://matplotlib.org/</dc:title>
     </cc:Agent>
    </dc:creator>
   </cc:Work>
  </rdf:RDF>
 </metadata>
 <defs>
  <style type="text/css">*{stroke-linejoin: round; stroke-linecap: butt}</style>
 </defs>
 <g id="figure_1">
  <g id="patch_1">
   <path d="M 0 388.8 
L 892.8 388.8 
L 892.8 0 
L 0 0 
z
" style="fill: #ffffff"/>
  </g>
  <g id="axes_1">
   <g id="patch_2">
    <path d="M 37.991178 356.411322 
L 439.072875 356.411322 
L 439.072875 39.798845 
L 37.991178 39.798845 
z
" style="fill: #ffffff"/>
   </g>
   <g id="matplotlib.axis_1">
    <g id="xtick_1">
     <g id="line2d_1">
      <path d="M 37.991178 356.411322 
L 37.991178 39.798845 
" clip-path="url(#pdef2c487fb)" style="fill: none; stroke: #d7dce2; stroke-opacity: 0.8; stroke-width: 0.8; stroke-linecap: square"/>
     </g>
     <g id="line2d_2">
      <defs>
       <path id="m8c694dafad" d="M 0 0 
L 0 3.5 
" style="stroke: #000000; stroke-width: 0.8"/>
      </defs>
      <g>
       <use xlink:href="#m8c694dafad" x="37.991178" y="356.411322" style="stroke: #000000; stroke-width: 0.8"/>
      </g>
     </g>
     <g id="text_1">
      <!-- 0 -->
      <g transform="translate(35.128053 370.249916)scale(0.09 -0.09)">
       <defs>
        <path id="DejaVuSans-30" d="M 2034 4250 
Q 1547 4250 1301 3770 
Q 1056 3291 1056 2328 
Q 1056 1369 1301 889 
Q 1547 409 2034 409 
Q 2525 409 2770 889 
Q 3016 1369 3016 2328 
Q 3016 3291 2770 3770 
Q 2525 4250 2034 4250 
z
M 2034 4750 
Q 2819 4750 3233 4129 
Q 3647 3509 3647 2328 
Q 3647 1150 3233 529 
Q 2819 -91 2034 -91 
Q 1250 -91 836 529 
Q 422 1150 422 2328 
Q 422 3509 836 4129 
Q 1250 4750 2034 4750 
z
" transform="scale(0.015625)"/>
       </defs>
       <use xlink:href="#DejaVuSans-30"/>
      </g>
     </g>
    </g>
    <g id="xtick_2">
     <g id="line2d_3">
      <path d="M 98.775792 356.411322 
L 98.775792 39.798845 
" clip-path="url(#pdef2c487fb)" style="fill: none; stroke: #d7dce2; stroke-opacity: 0.8; stroke-width: 0.8; stroke-linecap: square"/>
     </g>
     <g id="line2d_4">
      <g>
       <use xlink:href="#m8c694dafad" x="98.775792" y="356.411322" style="stroke: #000000; stroke-width: 0.8"/>
      </g>
     </g>
     <g id="text_2">
      <!-- 2 -->
      <g transform="translate(95.912667 370.249916)scale(0.09 -0.09)">
       <defs>
        <path id="DejaVuSans-32" d="M 1228 531 
L 3431 531 
L 3431 0 
L 469 0 
L 469 531 
Q 828 903 1448 1529 
Q 2069 2156 2228 2338 
Q 2531 2678 2651 2914 
Q 2772 3150 2772 3378 
Q 2772 3750 2511 3984 
Q 2250 4219 1831 4219 
Q 1534 4219 1204 4116 
Q 875 4013 500 3803 
L 500 4441 
Q 881 4594 1212 4672 
Q 1544 4750 1819 4750 
Q 2544 4750 2975 4387 
Q 3406 4025 3406 3419 
Q 3406 3131 3298 2873 
Q 3191 2616 2906 2266 
Q 2828 2175 2409 1742 
Q 1991 1309 1228 531 
z
" transform="scale(0.015625)"/>
       </defs>
       <use xlink:href="#DejaVuSans-32"/>
      </g>
     </g>
    </g>
    <g id="xtick_3">
     <g id="line2d_5">
      <path d="M 159.560406 356.411322 
L 159.560406 39.798845 
" clip-path="url(#pdef2c487fb)" style="fill: none; stroke: #d7dce2; stroke-opacity: 0.8; stroke-width: 0.8; stroke-linecap: square"/>
     </g>
     <g id="line2d_6">
      <g>
       <use xlink:href="#m8c694dafad" x="159.560406" y="356.411322" style="stroke: #000000; stroke-width: 0.8"/>
      </g>
     </g>
     <g id="text_3">
      <!-- 4 -->
      <g transform="translate(156.697281 370.249916)scale(0.09 -0.09)">
       <defs>
        <path id="DejaVuSans-34" d="M 2419 4116 
L 825 1625 
L 2419 1625 
L 2419 4116 
z
M 2253 4666 
L 3047 4666 
L 3047 1625 
L 3713 1625 
L 3713 1100 
L 3047 1100 
L 3047 0 
L 2419 0 
L 2419 1100 
L 313 1100 
L 313 1709 
L 2253 4666 
z
" transform="scale(0.015625)"/>
       </defs>
       <use xlink:href="#DejaVuSans-34"/>
      </g>
     </g>
    </g>
    <g id="xtick_4">
     <g id="line2d_7">
      <path d="M 220.345021 356.411322 
L 220.345021 39.798845 
" clip-path="url(#pdef2c487fb)" style="fill: none; stroke: #d7dce2; stroke-opacity: 0.8; stroke-width: 0.8; stroke-linecap: square"/>
     </g>
     <g id="line2d_8">
      <g>
       <use xlink:href="#m8c694dafad" x="220.345021" y="356.411322" style="stroke: #000000; stroke-width: 0.8"/>
      </g>
     </g>
     <g id="text_4">
      <!-- 6 -->
      <g transform="translate(217.481896 370.249916)scale(0.09 -0.09)">
       <defs>
        <path id="DejaVuSans-36" d="M 2113 2584 
Q 1688 2584 1439 2293 
Q 1191 2003 1191 1497 
Q 1191 994 1439 701 
Q 1688 409 2113 409 
Q 2538 409 2786 701 
Q 3034 994 3034 1497 
Q 3034 2003 2786 2293 
Q 2538 2584 2113 2584 
z
M 3366 4563 
L 3366 3988 
Q 3128 4100 2886 4159 
Q 2644 4219 2406 4219 
Q 1781 4219 1451 3797 
Q 1122 3375 1075 2522 
Q 1259 2794 1537 2939 
Q 1816 3084 2150 3084 
Q 2853 3084 3261 2657 
Q 3669 2231 3669 1497 
Q 3669 778 3244 343 
Q 2819 -91 2113 -91 
Q 1303 -91 875 529 
Q 447 1150 447 2328 
Q 447 3434 972 4092 
Q 1497 4750 2381 4750 
Q 2619 4750 2861 4703 
Q 3103 4656 3366 4563 
z
" transform="scale(0.015625)"/>
       </defs>
       <use xlink:href="#DejaVuSans-36"/>
      </g>
     </g>
    </g>
    <g id="xtick_5">
     <g id="line2d_9">
      <path d="M 281.129635 356.411322 
L 281.129635 39.798845 
" clip-path="url(#pdef2c487fb)" style="fill: none; stroke: #d7dce2; stroke-opacity: 0.8; stroke-width: 0.8; stroke-linecap: square"/>
     </g>
     <g id="line2d_10">
      <g>
       <use xlink:href="#m8c694dafad" x="281.129635" y="356.411322" style="stroke: #000000; stroke-width: 0.8"/>
      </g>
     </g>
     <g id="text_5">
      <!-- 8 -->
      <g transform="translate(278.26651 370.249916)scale(0.09 -0.09)">
       <defs>
        <path id="DejaVuSans-38" d="M 2034 2216 
Q 1584 2216 1326 1975 
Q 1069 1734 1069 1313 
Q 1069 891 1326 650 
Q 1584 409 2034 409 
Q 2484 409 2743 651 
Q 3003 894 3003 1313 
Q 3003 1734 2745 1975 
Q 2488 2216 2034 2216 
z
M 1403 2484 
Q 997 2584 770 2862 
Q 544 3141 544 3541 
Q 544 4100 942 4425 
Q 1341 4750 2034 4750 
Q 2731 4750 3128 4425 
Q 3525 4100 3525 3541 
Q 3525 3141 3298 2862 
Q 3072 2584 2669 2484 
Q 3125 2378 3379 2068 
Q 3634 1759 3634 1313 
Q 3634 634 3220 271 
Q 2806 -91 2034 -91 
Q 1263 -91 848 271 
Q 434 634 434 1313 
Q 434 1759 690 2068 
Q 947 2378 1403 2484 
z
M 1172 3481 
Q 1172 3119 1398 2916 
Q 1625 2713 2034 2713 
Q 2441 2713 2670 2916 
Q 2900 3119 2900 3481 
Q 2900 3844 2670 4047 
Q 2441 4250 2034 4250 
Q 1625 4250 1398 4047 
Q 1172 3844 1172 3481 
z
" transform="scale(0.015625)"/>
       </defs>
       <use xlink:href="#DejaVuSans-38"/>
      </g>
     </g>
    </g>
    <g id="xtick_6">
     <g id="line2d_11">
      <path d="M 341.91425 356.411322 
L 341.91425 39.798845 
" clip-path="url(#pdef2c487fb)" style="fill: none; stroke: #d7dce2; stroke-opacity: 0.8; stroke-width: 0.8; stroke-linecap: square"/>
     </g>
     <g id="line2d_12">
      <g>
       <use xlink:href="#m8c694dafad" x="341.91425" y="356.411322" style="stroke: #000000; stroke-width: 0.8"/>
      </g>
     </g>
     <g id="text_6">
      <!-- 10 -->
      <g transform="translate(336.188 370.249916)scale(0.09 -0.09)">
       <defs>
        <path id="DejaVuSans-31" d="M 794 531 
L 1825 531 
L 1825 4091 
L 703 3866 
L 703 4441 
L 1819 4666 
L 2450 4666 
L 2450 531 
L 3481 531 
L 3481 0 
L 794 0 
L 794 531 
z
" transform="scale(0.015625)"/>
       </defs>
       <use xlink:href="#DejaVuSans-31"/>
       <use xlink:href="#DejaVuSans-30" x="63.623047"/>
      </g>
     </g>
    </g>
    <g id="xtick_7">
     <g id="line2d_13">
      <path d="M 402.698864 356.411322 
L 402.698864 39.798845 
" clip-path="url(#pdef2c487fb)" style="fill: none; stroke: #d7dce2; stroke-opacity: 0.8; stroke-width: 0.8; stroke-linecap: square"/>
     </g>
     <g id="line2d_14">
      <g>
       <use xlink:href="#m8c694dafad" x="402.698864" y="356.411322" style="stroke: #000000; stroke-width: 0.8"/>
      </g>
     </g>
     <g id="text_7">
      <!-- 12 -->
      <g transform="translate(396.972614 370.249916)scale(0.09 -0.09)">
       <use xlink:href="#DejaVuSans-31"/>
       <use xlink:href="#DejaVuSans-32" x="63.623047"/>
      </g>
     </g>
    </g>
    <g id="text_8">
     <!-- Time, $t$ (s) -->
     <g transform="translate(212.882026 383.720073)scale(0.1 -0.1)">
      <defs>
       <path id="DejaVuSans-54" d="M -19 4666 
L 3928 4666 
L 3928 4134 
L 2272 4134 
L 2272 0 
L 1638 0 
L 1638 4134 
L -19 4134 
L -19 4666 
z
" transform="scale(0.015625)"/>
       <path id="DejaVuSans-69" d="M 603 3500 
L 1178 3500 
L 1178 0 
L 603 0 
L 603 3500 
z
M 603 4863 
L 1178 4863 
L 1178 4134 
L 603 4134 
L 603 4863 
z
" transform="scale(0.015625)"/>
       <path id="DejaVuSans-6d" d="M 3328 2828 
Q 3544 3216 3844 3400 
Q 4144 3584 4550 3584 
Q 5097 3584 5394 3201 
Q 5691 2819 5691 2113 
L 5691 0 
L 5113 0 
L 5113 2094 
Q 5113 2597 4934 2840 
Q 4756 3084 4391 3084 
Q 3944 3084 3684 2787 
Q 3425 2491 3425 1978 
L 3425 0 
L 2847 0 
L 2847 2094 
Q 2847 2600 2669 2842 
Q 2491 3084 2119 3084 
Q 1678 3084 1418 2786 
Q 1159 2488 1159 1978 
L 1159 0 
L 581 0 
L 581 3500 
L 1159 3500 
L 1159 2956 
Q 1356 3278 1631 3431 
Q 1906 3584 2284 3584 
Q 2666 3584 2933 3390 
Q 3200 3197 3328 2828 
z
" transform="scale(0.015625)"/>
       <path id="DejaVuSans-65" d="M 3597 1894 
L 3597 1613 
L 953 1613 
Q 991 1019 1311 708 
Q 1631 397 2203 397 
Q 2534 397 2845 478 
Q 3156 559 3463 722 
L 3463 178 
Q 3153 47 2828 -22 
Q 2503 -91 2169 -91 
Q 1331 -91 842 396 
Q 353 884 353 1716 
Q 353 2575 817 3079 
Q 1281 3584 2069 3584 
Q 2775 3584 3186 3129 
Q 3597 2675 3597 1894 
z
M 3022 2063 
Q 3016 2534 2758 2815 
Q 2500 3097 2075 3097 
Q 1594 3097 1305 2825 
Q 1016 2553 972 2059 
L 3022 2063 
z
" transform="scale(0.015625)"/>
       <path id="DejaVuSans-2c" d="M 750 794 
L 1409 794 
L 1409 256 
L 897 -744 
L 494 -744 
L 750 256 
L 750 794 
z
" transform="scale(0.015625)"/>
       <path id="DejaVuSans-20" transform="scale(0.015625)"/>
       <path id="DejaVuSans-Oblique-74" d="M 2706 3500 
L 2619 3053 
L 1472 3053 
L 1100 1153 
Q 1081 1047 1072 975 
Q 1063 903 1063 863 
Q 1063 663 1183 572 
Q 1303 481 1569 481 
L 2150 481 
L 2053 0 
L 1503 0 
Q 991 0 739 200 
Q 488 400 488 806 
Q 488 878 497 964 
Q 506 1050 525 1153 
L 897 3053 
L 409 3053 
L 500 3500 
L 978 3500 
L 1172 4494 
L 1747 4494 
L 1556 3500 
L 2706 3500 
z
" transform="scale(0.015625)"/>
       <path id="DejaVuSans-28" d="M 1984 4856 
Q 1566 4138 1362 3434 
Q 1159 2731 1159 2009 
Q 1159 1288 1364 580 
Q 1569 -128 1984 -844 
L 1484 -844 
Q 1016 -109 783 600 
Q 550 1309 550 2009 
Q 550 2706 781 3412 
Q 1013 4119 1484 4856 
L 1984 4856 
z
" transform="scale(0.015625)"/>
       <path id="DejaVuSans-73" d="M 2834 3397 
L 2834 2853 
Q 2591 2978 2328 3040 
Q 2066 3103 1784 3103 
Q 1356 3103 1142 2972 
Q 928 2841 928 2578 
Q 928 2378 1081 2264 
Q 1234 2150 1697 2047 
L 1894 2003 
Q 2506 1872 2764 1633 
Q 3022 1394 3022 966 
Q 3022 478 2636 193 
Q 2250 -91 1575 -91 
Q 1294 -91 989 -36 
Q 684 19 347 128 
L 347 722 
Q 666 556 975 473 
Q 1284 391 1588 391 
Q 1994 391 2212 530 
Q 2431 669 2431 922 
Q 2431 1156 2273 1281 
Q 2116 1406 1581 1522 
L 1381 1569 
Q 847 1681 609 1914 
Q 372 2147 372 2553 
Q 372 3047 722 3315 
Q 1072 3584 1716 3584 
Q 2034 3584 2315 3537 
Q 2597 3491 2834 3397 
z
" transform="scale(0.015625)"/>
       <path id="DejaVuSans-29" d="M 513 4856 
L 1013 4856 
Q 1481 4119 1714 3412 
Q 1947 2706 1947 2009 
Q 1947 1309 1714 600 
Q 1481 -109 1013 -844 
L 513 -844 
Q 928 -128 1133 580 
Q 1338 1288 1338 2009 
Q 1338 2731 1133 3434 
Q 928 4138 513 4856 
z
" transform="scale(0.015625)"/>
      </defs>
      <use xlink:href="#DejaVuSans-54" transform="translate(0 0.015625)"/>
      <use xlink:href="#DejaVuSans-69" transform="translate(61.083984 0.015625)"/>
      <use xlink:href="#DejaVuSans-6d" transform="translate(88.867188 0.015625)"/>
      <use xlink:href="#DejaVuSans-65" transform="translate(186.279297 0.015625)"/>
      <use xlink:href="#DejaVuSans-2c" transform="translate(247.802734 0.015625)"/>
      <use xlink:href="#DejaVuSans-20" transform="translate(279.589844 0.015625)"/>
      <use xlink:href="#DejaVuSans-Oblique-74" transform="translate(311.376953 0.015625)"/>
      <use xlink:href="#DejaVuSans-20" transform="translate(350.585938 0.015625)"/>
      <use xlink:href="#DejaVuSans-28" transform="translate(382.373047 0.015625)"/>
      <use xlink:href="#DejaVuSans-73" transform="translate(421.386719 0.015625)"/>
      <use xlink:href="#DejaVuSans-29" transform="translate(473.486328 0.015625)"/>
     </g>
    </g>
   </g>
   <g id="matplotlib.axis_2">
    <g id="ytick_1">
     <g id="line2d_15">
      <path d="M 37.991178 356.411322 
L 439.072875 356.411322 
" clip-path="url(#pdef2c487fb)" style="fill: none; stroke: #d7dce2; stroke-opacity: 0.8; stroke-width: 0.8; stroke-linecap: square"/>
     </g>
     <g id="line2d_16">
      <defs>
       <path id="m83267eda84" d="M 0 0 
L -3.5 0 
" style="stroke: #000000; stroke-width: 0.8"/>
      </defs>
      <g>
       <use xlink:href="#m83267eda84" x="37.991178" y="356.411322" style="stroke: #000000; stroke-width: 0.8"/>
      </g>
     </g>
     <g id="text_9">
      <!-- 0.0 -->
      <g transform="translate(16.678365 359.830619)scale(0.09 -0.09)">
       <defs>
        <path id="DejaVuSans-2e" d="M 684 794 
L 1344 794 
L 1344 0 
L 684 0 
L 684 794 
z
" transform="scale(0.015625)"/>
       </defs>
       <use xlink:href="#DejaVuSans-30"/>
       <use xlink:href="#DejaVuSans-2e" x="63.623047"/>
       <use xlink:href="#DejaVuSans-30" x="95.410156"/>
      </g>
     </g>
    </g>
    <g id="ytick_2">
     <g id="line2d_17">
      <path d="M 37.991178 297.779382 
L 439.072875 297.779382 
" clip-path="url(#pdef2c487fb)" style="fill: none; stroke: #d7dce2; stroke-opacity: 0.8; stroke-width: 0.8; stroke-linecap: square"/>
     </g>
     <g id="line2d_18">
      <g>
       <use xlink:href="#m83267eda84" x="37.991178" y="297.779382" style="stroke: #000000; stroke-width: 0.8"/>
      </g>
     </g>
     <g id="text_10">
      <!-- 0.2 -->
      <g transform="translate(16.678365 301.198679)scale(0.09 -0.09)">
       <use xlink:href="#DejaVuSans-30"/>
       <use xlink:href="#DejaVuSans-2e" x="63.623047"/>
       <use xlink:href="#DejaVuSans-32" x="95.410156"/>
      </g>
     </g>
    </g>
    <g id="ytick_3">
     <g id="line2d_19">
      <path d="M 37.991178 239.147442 
L 439.072875 239.147442 
" clip-path="url(#pdef2c487fb)" style="fill: none; stroke: #d7dce2; stroke-opacity: 0.8; stroke-width: 0.8; stroke-linecap: square"/>
     </g>
     <g id="line2d_20">
      <g>
       <use xlink:href="#m83267eda84" x="37.991178" y="239.147442" style="stroke: #000000; stroke-width: 0.8"/>
      </g>
     </g>
     <g id="text_11">
      <!-- 0.4 -->
      <g transform="translate(16.678365 242.566739)scale(0.09 -0.09)">
       <use xlink:href="#DejaVuSans-30"/>
       <use xlink:href="#DejaVuSans-2e" x="63.623047"/>
       <use xlink:href="#DejaVuSans-34" x="95.410156"/>
      </g>
     </g>
    </g>
    <g id="ytick_4">
     <g id="line2d_21">
      <path d="M 37.991178 180.515502 
L 439.072875 180.515502 
" clip-path="url(#pdef2c487fb)" style="fill: none; stroke: #d7dce2; stroke-opacity: 0.8; stroke-width: 0.8; stroke-linecap: square"/>
     </g>
     <g id="line2d_22">
      <g>
       <use xlink:href="#m83267eda84" x="37.991178" y="180.515502" style="stroke: #000000; stroke-width: 0.8"/>
      </g>
     </g>
     <g id="text_12">
      <!-- 0.6 -->
      <g transform="translate(16.678365 183.934799)scale(0.09 -0.09)">
       <use xlink:href="#DejaVuSans-30"/>
       <use xlink:href="#DejaVuSans-2e" x="63.623047"/>
       <use xlink:href="#DejaVuSans-36" x="95.410156"/>
      </g>
     </g>
    </g>
    <g id="ytick_5">
     <g id="line2d_23">
      <path d="M 37.991178 121.883561 
L 439.072875 121.883561 
" clip-path="url(#pdef2c487fb)" style="fill: none; stroke: #d7dce2; stroke-opacity: 0.8; stroke-width: 0.8; stroke-linecap: square"/>
     </g>
     <g id="line2d_24">
      <g>
       <use xlink:href="#m83267eda84" x="37.991178" y="121.883561" style="stroke: #000000; stroke-width: 0.8"/>
      </g>
     </g>
     <g id="text_13">
      <!-- 0.8 -->
      <g transform="translate(16.678365 125.302858)scale(0.09 -0.09)">
       <use xlink:href="#DejaVuSans-30"/>
       <use xlink:href="#DejaVuSans-2e" x="63.623047"/>
       <use xlink:href="#DejaVuSans-38" x="95.410156"/>
      </g>
     </g>
    </g>
    <g id="ytick_6">
     <g id="line2d_25">
      <path d="M 37.991178 63.251621 
L 439.072875 63.251621 
" clip-path="url(#pdef2c487fb)" style="fill: none; stroke: #d7dce2; stroke-opacity: 0.8; stroke-width: 0.8; stroke-linecap: square"/>
     </g>
     <g id="line2d_26">
      <g>
       <use xlink:href="#m83267eda84" x="37.991178" y="63.251621" style="stroke: #000000; stroke-width: 0.8"/>
      </g>
     </g>
     <g id="text_14">
      <!-- 1.0 -->
      <g transform="translate(16.678365 66.670918)scale(0.09 -0.09)">
       <use xlink:href="#DejaVuSans-31"/>
       <use xlink:href="#DejaVuSans-2e" x="63.623047"/>
       <use xlink:href="#DejaVuSans-30" x="95.410156"/>
      </g>
     </g>
    </g>
    <g id="text_15">
     <!-- Normalized irradiance, $F(t)$ -->
     <g transform="translate(10.598678 265.255084)rotate(-90)scale(0.1 -0.1)">
      <defs>
       <path id="DejaVuSans-4e" d="M 628 4666 
L 1478 4666 
L 3547 763 
L 3547 4666 
L 4159 4666 
L 4159 0 
L 3309 0 
L 1241 3903 
L 1241 0 
L 628 0 
L 628 4666 
z
" transform="scale(0.015625)"/>
       <path id="DejaVuSans-6f" d="M 1959 3097 
Q 1497 3097 1228 2736 
Q 959 2375 959 1747 
Q 959 1119 1226 758 
Q 1494 397 1959 397 
Q 2419 397 2687 759 
Q 2956 1122 2956 1747 
Q 2956 2369 2687 2733 
Q 2419 3097 1959 3097 
z
M 1959 3584 
Q 2709 3584 3137 3096 
Q 3566 2609 3566 1747 
Q 3566 888 3137 398 
Q 2709 -91 1959 -91 
Q 1206 -91 779 398 
Q 353 888 353 1747 
Q 353 2609 779 3096 
Q 1206 3584 1959 3584 
z
" transform="scale(0.015625)"/>
       <path id="DejaVuSans-72" d="M 2631 2963 
Q 2534 3019 2420 3045 
Q 2306 3072 2169 3072 
Q 1681 3072 1420 2755 
Q 1159 2438 1159 1844 
L 1159 0 
L 581 0 
L 581 3500 
L 1159 3500 
L 1159 2956 
Q 1341 3275 1631 3429 
Q 1922 3584 2338 3584 
Q 2397 3584 2469 3576 
Q 2541 3569 2628 3553 
L 2631 2963 
z
" transform="scale(0.015625)"/>
       <path id="DejaVuSans-61" d="M 2194 1759 
Q 1497 1759 1228 1600 
Q 959 1441 959 1056 
Q 959 750 1161 570 
Q 1363 391 1709 391 
Q 2188 391 2477 730 
Q 2766 1069 2766 1631 
L 2766 1759 
L 2194 1759 
z
M 3341 1997 
L 3341 0 
L 2766 0 
L 2766 531 
Q 2569 213 2275 61 
Q 1981 -91 1556 -91 
Q 1019 -91 701 211 
Q 384 513 384 1019 
Q 384 1609 779 1909 
Q 1175 2209 1959 2209 
L 2766 2209 
L 2766 2266 
Q 2766 2663 2505 2880 
Q 2244 3097 1772 3097 
Q 1472 3097 1187 3025 
Q 903 2953 641 2809 
L 641 3341 
Q 956 3463 1253 3523 
Q 1550 3584 1831 3584 
Q 2591 3584 2966 3190 
Q 3341 2797 3341 1997 
z
" transform="scale(0.015625)"/>
       <path id="DejaVuSans-6c" d="M 603 4863 
L 1178 4863 
L 1178 0 
L 603 0 
L 603 4863 
z
" transform="scale(0.015625)"/>
       <path id="DejaVuSans-7a" d="M 353 3500 
L 3084 3500 
L 3084 2975 
L 922 459 
L 3084 459 
L 3084 0 
L 275 0 
L 275 525 
L 2438 3041 
L 353 3041 
L 353 3500 
z
" transform="scale(0.015625)"/>
       <path id="DejaVuSans-64" d="M 2906 2969 
L 2906 4863 
L 3481 4863 
L 3481 0 
L 2906 0 
L 2906 525 
Q 2725 213 2448 61 
Q 2172 -91 1784 -91 
Q 1150 -91 751 415 
Q 353 922 353 1747 
Q 353 2572 751 3078 
Q 1150 3584 1784 3584 
Q 2172 3584 2448 3432 
Q 2725 3281 2906 2969 
z
M 947 1747 
Q 947 1113 1208 752 
Q 1469 391 1925 391 
Q 2381 391 2643 752 
Q 2906 1113 2906 1747 
Q 2906 2381 2643 2742 
Q 2381 3103 1925 3103 
Q 1469 3103 1208 2742 
Q 947 2381 947 1747 
z
" transform="scale(0.015625)"/>
       <path id="DejaVuSans-6e" d="M 3513 2113 
L 3513 0 
L 2938 0 
L 2938 2094 
Q 2938 2591 2744 2837 
Q 2550 3084 2163 3084 
Q 1697 3084 1428 2787 
Q 1159 2491 1159 1978 
L 1159 0 
L 581 0 
L 581 3500 
L 1159 3500 
L 1159 2956 
Q 1366 3272 1645 3428 
Q 1925 3584 2291 3584 
Q 2894 3584 3203 3211 
Q 3513 2838 3513 2113 
z
" transform="scale(0.015625)"/>
       <path id="DejaVuSans-63" d="M 3122 3366 
L 3122 2828 
Q 2878 2963 2633 3030 
Q 2388 3097 2138 3097 
Q 1578 3097 1268 2742 
Q 959 2388 959 1747 
Q 959 1106 1268 751 
Q 1578 397 2138 397 
Q 2388 397 2633 464 
Q 2878 531 3122 666 
L 3122 134 
Q 2881 22 2623 -34 
Q 2366 -91 2075 -91 
Q 1284 -91 818 406 
Q 353 903 353 1747 
Q 353 2603 823 3093 
Q 1294 3584 2113 3584 
Q 2378 3584 2631 3529 
Q 2884 3475 3122 3366 
z
" transform="scale(0.015625)"/>
       <path id="DejaVuSans-Oblique-46" d="M 1081 4666 
L 3756 4666 
L 3653 4134 
L 1606 4134 
L 1338 2759 
L 3188 2759 
L 3084 2228 
L 1234 2228 
L 800 0 
L 172 0 
L 1081 4666 
z
" transform="scale(0.015625)"/>
      </defs>
      <use xlink:href="#DejaVuSans-4e" transform="translate(0 0.015625)"/>
      <use xlink:href="#DejaVuSans-6f" transform="translate(74.804688 0.015625)"/>
      <use xlink:href="#DejaVuSans-72" transform="translate(135.986328 0.015625)"/>
      <use xlink:href="#DejaVuSans-6d" transform="translate(177.099609 0.015625)"/>
      <use xlink:href="#DejaVuSans-61" transform="translate(274.511719 0.015625)"/>
      <use xlink:href="#DejaVuSans-6c" transform="translate(335.791016 0.015625)"/>
      <use xlink:href="#DejaVuSans-69" transform="translate(363.574219 0.015625)"/>
      <use xlink:href="#DejaVuSans-7a" transform="translate(391.357422 0.015625)"/>
      <use xlink:href="#DejaVuSans-65" transform="translate(443.847656 0.015625)"/>
      <use xlink:href="#DejaVuSans-64" transform="translate(505.371094 0.015625)"/>
      <use xlink:href="#DejaVuSans-20" transform="translate(568.847656 0.015625)"/>
      <use xlink:href="#DejaVuSans-69" transform="translate(600.634766 0.015625)"/>
      <use xlink:href="#DejaVuSans-72" transform="translate(628.417969 0.015625)"/>
      <use xlink:href="#DejaVuSans-72" transform="translate(669.53125 0.015625)"/>
      <use xlink:href="#DejaVuSans-61" transform="translate(710.644531 0.015625)"/>
      <use xlink:href="#DejaVuSans-64" transform="translate(771.923828 0.015625)"/>
      <use xlink:href="#DejaVuSans-69" transform="translate(835.400391 0.015625)"/>
      <use xlink:href="#DejaVuSans-61" transform="translate(863.183594 0.015625)"/>
      <use xlink:href="#DejaVuSans-6e" transform="translate(924.462891 0.015625)"/>
      <use xlink:href="#DejaVuSans-63" transform="translate(987.841797 0.015625)"/>
      <use xlink:href="#DejaVuSans-65" transform="translate(1042.822266 0.015625)"/>
      <use xlink:href="#DejaVuSans-2c" transform="translate(1104.345703 0.015625)"/>
      <use xlink:href="#DejaVuSans-20" transform="translate(1136.132812 0.015625)"/>
      <use xlink:href="#DejaVuSans-Oblique-46" transform="translate(1167.919922 0.015625)"/>
      <use xlink:href="#DejaVuSans-28" transform="translate(1225.439453 0.015625)"/>
      <use xlink:href="#DejaVuSans-Oblique-74" transform="translate(1264.453125 0.015625)"/>
      <use xlink:href="#DejaVuSans-29" transform="translate(1303.662109 0.015625)"/>
     </g>
    </g>
   </g>
   <g id="line2d_27">
    <path d="M 37.991178 356.411322 
L 38.124903 348.78917 
L 38.258629 324.163755 
L 38.39235 288.984591 
L 38.526076 245.010636 
L 38.659806 190.776091 
L 38.793527 140.938942 
L 38.927266 105.759778 
L 39.060988 79.375405 
L 39.194713 69.114815 
L 39.328439 63.251621 
L 39.595886 82.307002 
L 39.863337 123.34936 
L 40.130789 171.720711 
L 40.39824 203.968278 
L 40.665696 230.352651 
L 40.933148 249.114872 
L 41.200599 262.600218 
L 41.468046 274.326606 
L 41.735497 284.587196 
L 42.002953 292.502508 
L 42.2704 299.245181 
L 42.53786 305.108375 
L 42.805308 310.09209 
L 43.072759 315.368964 
L 43.340215 319.4732 
L 44.008834 327.681672 
L 44.677472 332.372227 
L 45.346096 336.769623 
L 46.014733 338.528581 
L 46.683362 341.167018 
L 47.351982 342.925976 
L 48.689243 345.564414 
L 50.026505 347.323372 
L 51.363762 347.909691 
L 52.701019 348.496011 
L 54.03828 349.08233 
L 55.375538 349.37549 
L 56.712799 349.668649 
L 58.961822 356.411322 
L 58.982681 356.411322 
" clip-path="url(#pdef2c487fb)" style="fill: none; stroke: #295f98; stroke-width: 2.2; stroke-linecap: square"/>
   </g>
   <g id="line2d_28">
    <path d="M 37.991178 356.411322 
L 38.461773 348.78917 
L 38.932368 324.163755 
L 39.402948 288.984591 
L 39.873543 245.010636 
L 40.344154 190.776091 
L 40.814733 140.938942 
L 41.285375 105.759778 
L 41.755955 79.375405 
L 42.22655 69.114815 
L 42.697145 63.251621 
L 43.63832 82.307002 
L 44.579511 123.34936 
L 45.520701 171.720711 
L 46.461892 203.968278 
L 47.403097 230.352651 
L 48.344288 249.114872 
L 49.285478 262.600218 
L 50.226653 274.326606 
L 51.167844 284.587196 
L 52.10905 292.502508 
L 53.050225 299.245181 
L 53.991446 305.108375 
L 54.932621 310.09209 
L 55.873811 315.368964 
L 56.815017 319.4732 
L 59.167963 327.681672 
L 61.52097 332.372227 
L 63.87393 336.769623 
L 66.226937 338.528581 
L 68.579914 341.167018 
L 70.932859 342.925976 
L 75.638826 345.564414 
L 80.344794 347.323372 
L 85.050746 347.909691 
L 89.756699 348.496011 
L 94.462666 349.08233 
L 99.168618 349.37549 
L 103.874586 349.668649 
L 111.789141 356.411322 
L 111.862546 356.411322 
" clip-path="url(#pdef2c487fb)" style="fill: none; stroke: #16877a; stroke-width: 2.2; stroke-linecap: square"/>
   </g>
   <g id="line2d_29">
    <path d="M 37.991178 356.411322 
L 38.916333 348.78917 
L 39.841489 324.163755 
L 40.766615 288.984591 
L 41.691771 245.010636 
L 42.616957 190.776091 
L 43.542082 140.938942 
L 44.46733 105.759778 
L 45.392455 79.375405 
L 46.317611 69.114815 
L 47.242767 63.251621 
L 49.093048 82.307002 
L 50.94336 123.34936 
L 52.793672 171.720711 
L 54.643983 203.968278 
L 56.494326 230.352651 
L 58.344637 249.114872 
L 60.194949 262.600218 
L 62.045231 274.326606 
L 63.895542 284.587196 
L 65.745885 292.502508 
L 67.596166 299.245181 
L 69.446539 305.108375 
L 71.29682 310.09209 
L 73.147132 315.368964 
L 74.997474 319.4732 
L 79.623192 327.681672 
L 84.249033 332.372227 
L 88.874782 336.769623 
L 93.500622 338.528581 
L 98.126402 341.167018 
L 102.75212 342.925976 
L 112.003709 345.564414 
L 121.255299 347.323372 
L 130.506857 347.909691 
L 139.758416 348.496011 
L 149.010006 349.08233 
L 158.261565 349.37549 
L 167.513154 349.668649 
L 183.072591 356.411322 
L 183.2169 356.411322 
" clip-path="url(#pdef2c487fb)" style="fill: none; stroke: #d17a16; stroke-width: 2.2; stroke-linecap: square"/>
   </g>
   <g id="line2d_30">
    <path d="M 37.991178 356.411322 
L 40.424585 348.78917 
L 42.857993 324.163755 
L 45.291321 288.984591 
L 47.724729 245.010636 
L 50.158217 190.776091 
L 52.591545 140.938942 
L 55.025193 105.759778 
L 57.458521 79.375405 
L 59.891929 69.114815 
L 62.325337 63.251621 
L 67.192072 82.307002 
L 72.058888 123.34936 
L 76.925704 171.720711 
L 81.79252 203.968278 
L 86.659416 230.352651 
L 91.526232 249.114872 
L 96.393048 262.600218 
L 101.259783 274.326606 
L 106.126599 284.587196 
L 110.993495 292.502508 
L 115.860231 299.245181 
L 120.727207 305.108375 
L 125.593943 310.09209 
L 130.460758 315.368964 
L 135.327654 319.4732 
L 147.494534 327.681672 
L 159.661734 332.372227 
L 171.828693 336.769623 
L 183.995893 338.528581 
L 196.162932 341.167018 
L 208.329812 342.925976 
L 232.663971 345.564414 
L 256.99813 347.323372 
L 281.332209 347.909691 
L 305.666288 348.496011 
L 330.000448 349.08233 
L 354.334527 349.37549 
L 378.668686 349.668649 
L 419.594176 356.411322 
L 419.973747 356.411322 
" clip-path="url(#pdef2c487fb)" style="fill: none; stroke: #b33a3a; stroke-width: 2.2; stroke-linecap: square"/>
   </g>
   <g id="patch_3">
    <path d="M 37.991178 356.411322 
L 37.991178 39.798845 
" style="fill: none; stroke: #000000; stroke-width: 0.8; stroke-linejoin: miter; stroke-linecap: square"/>
   </g>
   <g id="patch_4">
    <path d="M 37.991178 356.411322 
L 439.072875 356.411322 
" style="fill: none; stroke: #000000; stroke-width: 0.8; stroke-linejoin: miter; stroke-linecap: square"/>
   </g>
   <g id="PathCollection_1">
    <defs>
     <path id="md1feeffc6b" d="M 0 2.645751 
C 0.701661 2.645751 1.374679 2.366978 1.870829 1.870829 
C 2.366978 1.374679 2.645751 0.701661 2.645751 0 
C 2.645751 -0.701661 2.366978 -1.374679 1.870829 -1.870829 
C 1.374679 -2.366978 0.701661 -2.645751 0 -2.645751 
C -0.701661 -2.645751 -1.374679 -2.366978 -1.870829 -1.870829 
C -2.366978 -1.374679 -2.645751 -0.701661 -2.645751 0 
C -2.645751 0.701661 -2.366978 1.374679 -1.870829 1.870829 
C -1.374679 2.366978 -0.701661 2.645751 0 2.645751 
z
" style="stroke: #295f98"/>
    </defs>
    <g clip-path="url(#pdef2c487fb)">
     <use xlink:href="#md1feeffc6b" x="39.328439" y="63.251621" style="fill: #295f98; stroke: #295f98"/>
    </g>
   </g>
   <g id="PathCollection_2">
    <defs>
     <path id="mced8aab20d" d="M 0 2.645751 
C 0.701661 2.645751 1.374679 2.366978 1.870829 1.870829 
C 2.366978 1.374679 2.645751 0.701661 2.645751 0 
C 2.645751 -0.701661 2.366978 -1.374679 1.870829 -1.870829 
C 1.374679 -2.366978 0.701661 -2.645751 0 -2.645751 
C -0.701661 -2.645751 -1.374679 -2.366978 -1.870829 -1.870829 
C -2.366978 -1.374679 -2.645751 -0.701661 -2.645751 0 
C -2.645751 0.701661 -2.366978 1.374679 -1.870829 1.870829 
C -1.374679 2.366978 -0.701661 2.645751 0 2.645751 
z
" style="stroke: #16877a"/>
    </defs>
    <g clip-path="url(#pdef2c487fb)">
     <use xlink:href="#mced8aab20d" x="42.697145" y="63.251621" style="fill: #16877a; stroke: #16877a"/>
    </g>
   </g>
   <g id="PathCollection_3">
    <defs>
     <path id="m3f523c5248" d="M 0 2.645751 
C 0.701661 2.645751 1.374679 2.366978 1.870829 1.870829 
C 2.366978 1.374679 2.645751 0.701661 2.645751 0 
C 2.645751 -0.701661 2.366978 -1.374679 1.870829 -1.870829 
C 1.374679 -2.366978 0.701661 -2.645751 0 -2.645751 
C -0.701661 -2.645751 -1.374679 -2.366978 -1.870829 -1.870829 
C -2.366978 -1.374679 -2.645751 -0.701661 -2.645751 0 
C -2.645751 0.701661 -2.366978 1.374679 -1.870829 1.870829 
C -1.374679 2.366978 -0.701661 2.645751 0 2.645751 
z
" style="stroke: #d17a16"/>
    </defs>
    <g clip-path="url(#pdef2c487fb)">
     <use xlink:href="#m3f523c5248" x="47.242767" y="63.251621" style="fill: #d17a16; stroke: #d17a16"/>
    </g>
   </g>
   <g id="PathCollection_4">
    <defs>
     <path id="m0dcdec6c2e" d="M 0 2.645751 
C 0.701661 2.645751 1.374679 2.366978 1.870829 1.870829 
C 2.366978 1.374679 2.645751 0.701661 2.645751 0 
C 2.645751 -0.701661 2.366978 -1.374679 1.870829 -1.870829 
C 1.374679 -2.366978 0.701661 -2.645751 0 -2.645751 
C -0.701661 -2.645751 -1.374679 -2.366978 -1.870829 -1.870829 
C -2.366978 -1.374679 -2.645751 -0.701661 -2.645751 0 
C -2.645751 0.701661 -2.366978 1.374679 -1.870829 1.870829 
C -1.374679 2.366978 -0.701661 2.645751 0 2.645751 
z
" style="stroke: #b33a3a"/>
    </defs>
    <g clip-path="url(#pdef2c487fb)">
     <use xlink:href="#m0dcdec6c2e" x="62.325337" y="63.251621" style="fill: #b33a3a; stroke: #b33a3a"/>
    </g>
   </g>
   <g id="text_16">
    <!-- Physical-time pulse broadening -->
    <g transform="translate(144.424839 33.798845)scale(0.12 -0.12)">
     <defs>
      <path id="DejaVuSans-50" d="M 1259 4147 
L 1259 2394 
L 2053 2394 
Q 2494 2394 2734 2622 
Q 2975 2850 2975 3272 
Q 2975 3691 2734 3919 
Q 2494 4147 2053 4147 
L 1259 4147 
z
M 628 4666 
L 2053 4666 
Q 2838 4666 3239 4311 
Q 3641 3956 3641 3272 
Q 3641 2581 3239 2228 
Q 2838 1875 2053 1875 
L 1259 1875 
L 1259 0 
L 628 0 
L 628 4666 
z
" transform="scale(0.015625)"/>
      <path id="DejaVuSans-68" d="M 3513 2113 
L 3513 0 
L 2938 0 
L 2938 2094 
Q 2938 2591 2744 2837 
Q 2550 3084 2163 3084 
Q 1697 3084 1428 2787 
Q 1159 2491 1159 1978 
L 1159 0 
L 581 0 
L 581 4863 
L 1159 4863 
L 1159 2956 
Q 1366 3272 1645 3428 
Q 1925 3584 2291 3584 
Q 2894 3584 3203 3211 
Q 3513 2838 3513 2113 
z
" transform="scale(0.015625)"/>
      <path id="DejaVuSans-79" d="M 2059 -325 
Q 1816 -950 1584 -1140 
Q 1353 -1331 966 -1331 
L 506 -1331 
L 506 -850 
L 844 -850 
Q 1081 -850 1212 -737 
Q 1344 -625 1503 -206 
L 1606 56 
L 191 3500 
L 800 3500 
L 1894 763 
L 2988 3500 
L 3597 3500 
L 2059 -325 
z
" transform="scale(0.015625)"/>
      <path id="DejaVuSans-2d" d="M 313 2009 
L 1997 2009 
L 1997 1497 
L 313 1497 
L 313 2009 
z
" transform="scale(0.015625)"/>
      <path id="DejaVuSans-74" d="M 1172 4494 
L 1172 3500 
L 2356 3500 
L 2356 3053 
L 1172 3053 
L 1172 1153 
Q 1172 725 1289 603 
Q 1406 481 1766 481 
L 2356 481 
L 2356 0 
L 1766 0 
Q 1100 0 847 248 
Q 594 497 594 1153 
L 594 3053 
L 172 3053 
L 172 3500 
L 594 3500 
L 594 4494 
L 1172 4494 
z
" transform="scale(0.015625)"/>
      <path id="DejaVuSans-70" d="M 1159 525 
L 1159 -1331 
L 581 -1331 
L 581 3500 
L 1159 3500 
L 1159 2969 
Q 1341 3281 1617 3432 
Q 1894 3584 2278 3584 
Q 2916 3584 3314 3078 
Q 3713 2572 3713 1747 
Q 3713 922 3314 415 
Q 2916 -91 2278 -91 
Q 1894 -91 1617 61 
Q 1341 213 1159 525 
z
M 3116 1747 
Q 3116 2381 2855 2742 
Q 2594 3103 2138 3103 
Q 1681 3103 1420 2742 
Q 1159 2381 1159 1747 
Q 1159 1113 1420 752 
Q 1681 391 2138 391 
Q 2594 391 2855 752 
Q 3116 1113 3116 1747 
z
" transform="scale(0.015625)"/>
      <path id="DejaVuSans-75" d="M 544 1381 
L 544 3500 
L 1119 3500 
L 1119 1403 
Q 1119 906 1312 657 
Q 1506 409 1894 409 
Q 2359 409 2629 706 
Q 2900 1003 2900 1516 
L 2900 3500 
L 3475 3500 
L 3475 0 
L 2900 0 
L 2900 538 
Q 2691 219 2414 64 
Q 2138 -91 1772 -91 
Q 1169 -91 856 284 
Q 544 659 544 1381 
z
M 1991 3584 
L 1991 3584 
z
" transform="scale(0.015625)"/>
      <path id="DejaVuSans-62" d="M 3116 1747 
Q 3116 2381 2855 2742 
Q 2594 3103 2138 3103 
Q 1681 3103 1420 2742 
Q 1159 2381 1159 1747 
Q 1159 1113 1420 752 
Q 1681 391 2138 391 
Q 2594 391 2855 752 
Q 3116 1113 3116 1747 
z
M 1159 2969 
Q 1341 3281 1617 3432 
Q 1894 3584 2278 3584 
Q 2916 3584 3314 3078 
Q 3713 2572 3713 1747 
Q 3713 922 3314 415 
Q 2916 -91 2278 -91 
Q 1894 -91 1617 61 
Q 1341 213 1159 525 
L 1159 0 
L 581 0 
L 581 4863 
L 1159 4863 
L 1159 2969 
z
" transform="scale(0.015625)"/>
      <path id="DejaVuSans-67" d="M 2906 1791 
Q 2906 2416 2648 2759 
Q 2391 3103 1925 3103 
Q 1463 3103 1205 2759 
Q 947 2416 947 1791 
Q 947 1169 1205 825 
Q 1463 481 1925 481 
Q 2391 481 2648 825 
Q 2906 1169 2906 1791 
z
M 3481 434 
Q 3481 -459 3084 -895 
Q 2688 -1331 1869 -1331 
Q 1566 -1331 1297 -1286 
Q 1028 -1241 775 -1147 
L 775 -588 
Q 1028 -725 1275 -790 
Q 1522 -856 1778 -856 
Q 2344 -856 2625 -561 
Q 2906 -266 2906 331 
L 2906 616 
Q 2728 306 2450 153 
Q 2172 0 1784 0 
Q 1141 0 747 490 
Q 353 981 353 1791 
Q 353 2603 747 3093 
Q 1141 3584 1784 3584 
Q 2172 3584 2450 3431 
Q 2728 3278 2906 2969 
L 2906 3500 
L 3481 3500 
L 3481 434 
z
" transform="scale(0.015625)"/>
     </defs>
     <use xlink:href="#DejaVuSans-50"/>
     <use xlink:href="#DejaVuSans-68" x="60.302734"/>
     <use xlink:href="#DejaVuSans-79" x="123.681641"/>
     <use xlink:href="#DejaVuSans-73" x="182.861328"/>
     <use xlink:href="#DejaVuSans-69" x="234.960938"/>
     <use xlink:href="#DejaVuSans-63" x="262.744141"/>
     <use xlink:href="#DejaVuSans-61" x="317.724609"/>
     <use xlink:href="#DejaVuSans-6c" x="379.003906"/>
     <use xlink:href="#DejaVuSans-2d" x="406.787109"/>
     <use xlink:href="#DejaVuSans-74" x="442.871094"/>
     <use xlink:href="#DejaVuSans-69" x="482.080078"/>
     <use xlink:href="#DejaVuSans-6d" x="509.863281"/>
     <use xlink:href="#DejaVuSans-65" x="607.275391"/>
     <use xlink:href="#DejaVuSans-20" x="668.798828"/>
     <use xlink:href="#DejaVuSans-70" x="700.585938"/>
     <use xlink:href="#DejaVuSans-75" x="764.0625"/>
     <use xlink:href="#DejaVuSans-6c" x="827.441406"/>
     <use xlink:href="#DejaVuSans-73" x="855.224609"/>
     <use xlink:href="#DejaVuSans-65" x="907.324219"/>
     <use xlink:href="#DejaVuSans-20" x="968.847656"/>
     <use xlink:href="#DejaVuSans-62" x="1000.634766"/>
     <use xlink:href="#DejaVuSans-72" x="1064.111328"/>
     <use xlink:href="#DejaVuSans-6f" x="1102.974609"/>
     <use xlink:href="#DejaVuSans-61" x="1164.15625"/>
     <use xlink:href="#DejaVuSans-64" x="1225.435547"/>
     <use xlink:href="#DejaVuSans-65" x="1288.912109"/>
     <use xlink:href="#DejaVuSans-6e" x="1350.435547"/>
     <use xlink:href="#DejaVuSans-69" x="1413.814453"/>
     <use xlink:href="#DejaVuSans-6e" x="1441.597656"/>
     <use xlink:href="#DejaVuSans-67" x="1504.976562"/>
    </g>
   </g>
   <g id="legend_1">
    <g id="line2d_31">
     <path d="M 300.382875 51.587439 
L 309.382875 51.587439 
L 318.382875 51.587439 
" style="fill: none; stroke: #295f98; stroke-width: 2.2; stroke-linecap: square"/>
    </g>
    <g id="text_17">
     <!-- 1 kt  ($t_{max}$=0.044 s) -->
     <g transform="translate(325.582875 54.737439)scale(0.09 -0.09)">
      <defs>
       <path id="DejaVuSans-6b" d="M 581 4863 
L 1159 4863 
L 1159 1991 
L 2875 3500 
L 3609 3500 
L 1753 1863 
L 3688 0 
L 2938 0 
L 1159 1709 
L 1159 0 
L 581 0 
L 581 4863 
z
" transform="scale(0.015625)"/>
       <path id="DejaVuSans-Oblique-6d" d="M 5747 2113 
L 5338 0 
L 4763 0 
L 5166 2094 
Q 5191 2228 5203 2325 
Q 5216 2422 5216 2491 
Q 5216 2772 5059 2928 
Q 4903 3084 4622 3084 
Q 4203 3084 3875 2770 
Q 3547 2456 3450 1953 
L 3066 0 
L 2491 0 
L 2900 2094 
Q 2925 2209 2937 2307 
Q 2950 2406 2950 2484 
Q 2950 2769 2794 2926 
Q 2638 3084 2363 3084 
Q 1938 3084 1609 2770 
Q 1281 2456 1184 1953 
L 800 0 
L 225 0 
L 909 3500 
L 1484 3500 
L 1375 2956 
Q 1609 3263 1923 3423 
Q 2238 3584 2597 3584 
Q 2978 3584 3223 3384 
Q 3469 3184 3519 2828 
Q 3781 3197 4126 3390 
Q 4472 3584 4856 3584 
Q 5306 3584 5551 3325 
Q 5797 3066 5797 2591 
Q 5797 2488 5784 2364 
Q 5772 2241 5747 2113 
z
" transform="scale(0.015625)"/>
       <path id="DejaVuSans-Oblique-61" d="M 3438 1997 
L 3047 0 
L 2472 0 
L 2578 531 
Q 2325 219 2001 64 
Q 1678 -91 1281 -91 
Q 834 -91 548 182 
Q 263 456 263 884 
Q 263 1497 752 1853 
Q 1241 2209 2100 2209 
L 2900 2209 
L 2931 2363 
Q 2938 2388 2941 2417 
Q 2944 2447 2944 2509 
Q 2944 2788 2717 2942 
Q 2491 3097 2081 3097 
Q 1800 3097 1504 3025 
Q 1209 2953 897 2809 
L 997 3341 
Q 1322 3463 1633 3523 
Q 1944 3584 2234 3584 
Q 2853 3584 3176 3315 
Q 3500 3047 3500 2534 
Q 3500 2431 3484 2292 
Q 3469 2153 3438 1997 
z
M 2816 1759 
L 2241 1759 
Q 1534 1759 1195 1570 
Q 856 1381 856 984 
Q 856 709 1029 553 
Q 1203 397 1509 397 
Q 1978 397 2328 733 
Q 2678 1069 2791 1631 
L 2816 1759 
z
" transform="scale(0.015625)"/>
       <path id="DejaVuSans-Oblique-78" d="M 3841 3500 
L 2234 1784 
L 3219 0 
L 2559 0 
L 1819 1388 
L 531 0 
L -166 0 
L 1556 1844 
L 641 3500 
L 1300 3500 
L 1972 2234 
L 3144 3500 
L 3841 3500 
z
" transform="scale(0.015625)"/>
       <path id="DejaVuSans-3d" d="M 678 2906 
L 4684 2906 
L 4684 2381 
L 678 2381 
L 678 2906 
z
M 678 1631 
L 4684 1631 
L 4684 1100 
L 678 1100 
L 678 1631 
z
" transform="scale(0.015625)"/>
      </defs>
      <use xlink:href="#DejaVuSans-31" transform="translate(0 0.015625)"/>
      <use xlink:href="#DejaVuSans-20" transform="translate(63.623047 0.015625)"/>
      <use xlink:href="#DejaVuSans-6b" transform="translate(95.410156 0.015625)"/>
      <use xlink:href="#DejaVuSans-74" transform="translate(153.320312 0.015625)"/>
      <use xlink:href="#DejaVuSans-20" transform="translate(192.529297 0.015625)"/>
      <use xlink:href="#DejaVuSans-20" transform="translate(224.316406 0.015625)"/>
      <use xlink:href="#DejaVuSans-28" transform="translate(256.103516 0.015625)"/>
      <use xlink:href="#DejaVuSans-Oblique-74" transform="translate(295.117188 0.015625)"/>
      <use xlink:href="#DejaVuSans-Oblique-6d" transform="translate(334.326172 -16.390625)scale(0.7)"/>
      <use xlink:href="#DejaVuSans-Oblique-61" transform="translate(402.514648 -16.390625)scale(0.7)"/>
      <use xlink:href="#DejaVuSans-Oblique-78" transform="translate(445.410156 -16.390625)scale(0.7)"/>
      <use xlink:href="#DejaVuSans-3d" transform="translate(489.570312 0.015625)"/>
      <use xlink:href="#DejaVuSans-30" transform="translate(573.359375 0.015625)"/>
      <use xlink:href="#DejaVuSans-2e" transform="translate(636.982422 0.015625)"/>
      <use xlink:href="#DejaVuSans-30" transform="translate(668.769531 0.015625)"/>
      <use xlink:href="#DejaVuSans-34" transform="translate(732.392578 0.015625)"/>
      <use xlink:href="#DejaVuSans-34" transform="translate(796.015625 0.015625)"/>
      <use xlink:href="#DejaVuSans-20" transform="translate(859.638672 0.015625)"/>
      <use xlink:href="#DejaVuSans-73" transform="translate(891.425781 0.015625)"/>
      <use xlink:href="#DejaVuSans-29" transform="translate(943.525391 0.015625)"/>
     </g>
    </g>
    <g id="line2d_32">
     <path d="M 300.382875 64.797751 
L 309.382875 64.797751 
L 318.382875 64.797751 
" style="fill: none; stroke: #16877a; stroke-width: 2.2; stroke-linecap: square"/>
    </g>
    <g id="text_18">
     <!-- 20 kt  ($t_{max}$=0.155 s) -->
     <g transform="translate(325.582875 67.947751)scale(0.09 -0.09)">
      <defs>
       <path id="DejaVuSans-35" d="M 691 4666 
L 3169 4666 
L 3169 4134 
L 1269 4134 
L 1269 2991 
Q 1406 3038 1543 3061 
Q 1681 3084 1819 3084 
Q 2600 3084 3056 2656 
Q 3513 2228 3513 1497 
Q 3513 744 3044 326 
Q 2575 -91 1722 -91 
Q 1428 -91 1123 -41 
Q 819 9 494 109 
L 494 744 
Q 775 591 1075 516 
Q 1375 441 1709 441 
Q 2250 441 2565 725 
Q 2881 1009 2881 1497 
Q 2881 1984 2565 2268 
Q 2250 2553 1709 2553 
Q 1456 2553 1204 2497 
Q 953 2441 691 2322 
L 691 4666 
z
" transform="scale(0.015625)"/>
      </defs>
      <use xlink:href="#DejaVuSans-32" transform="translate(0 0.015625)"/>
      <use xlink:href="#DejaVuSans-30" transform="translate(63.623047 0.015625)"/>
      <use xlink:href="#DejaVuSans-20" transform="translate(127.246094 0.015625)"/>
      <use xlink:href="#DejaVuSans-6b" transform="translate(159.033203 0.015625)"/>
      <use xlink:href="#DejaVuSans-74" transform="translate(216.943359 0.015625)"/>
      <use xlink:href="#DejaVuSans-20" transform="translate(256.152344 0.015625)"/>
      <use xlink:href="#DejaVuSans-20" transform="translate(287.939453 0.015625)"/>
      <use xlink:href="#DejaVuSans-28" transform="translate(319.726562 0.015625)"/>
      <use xlink:href="#DejaVuSans-Oblique-74" transform="translate(358.740234 0.015625)"/>
      <use xlink:href="#DejaVuSans-Oblique-6d" transform="translate(397.949219 -16.390625)scale(0.7)"/>
      <use xlink:href="#DejaVuSans-Oblique-61" transform="translate(466.137695 -16.390625)scale(0.7)"/>
      <use xlink:href="#DejaVuSans-Oblique-78" transform="translate(509.033203 -16.390625)scale(0.7)"/>
      <use xlink:href="#DejaVuSans-3d" transform="translate(553.193359 0.015625)"/>
      <use xlink:href="#DejaVuSans-30" transform="translate(636.982422 0.015625)"/>
      <use xlink:href="#DejaVuSans-2e" transform="translate(700.605469 0.015625)"/>
      <use xlink:href="#DejaVuSans-31" transform="translate(732.392578 0.015625)"/>
      <use xlink:href="#DejaVuSans-35" transform="translate(796.015625 0.015625)"/>
      <use xlink:href="#DejaVuSans-35" transform="translate(859.638672 0.015625)"/>
      <use xlink:href="#DejaVuSans-20" transform="translate(923.261719 0.015625)"/>
      <use xlink:href="#DejaVuSans-73" transform="translate(955.048828 0.015625)"/>
      <use xlink:href="#DejaVuSans-29" transform="translate(1007.148438 0.015625)"/>
     </g>
    </g>
    <g id="line2d_33">
     <path d="M 300.382875 78.008064 
L 309.382875 78.008064 
L 318.382875 78.008064 
" style="fill: none; stroke: #d17a16; stroke-width: 2.2; stroke-linecap: square"/>
    </g>
    <g id="text_19">
     <!-- 100 kt  ($t_{max}$=0.304 s) -->
     <g transform="translate(325.582875 81.158064)scale(0.09 -0.09)">
      <defs>
       <path id="DejaVuSans-33" d="M 2597 2516 
Q 3050 2419 3304 2112 
Q 3559 1806 3559 1356 
Q 3559 666 3084 287 
Q 2609 -91 1734 -91 
Q 1441 -91 1130 -33 
Q 819 25 488 141 
L 488 750 
Q 750 597 1062 519 
Q 1375 441 1716 441 
Q 2309 441 2620 675 
Q 2931 909 2931 1356 
Q 2931 1769 2642 2001 
Q 2353 2234 1838 2234 
L 1294 2234 
L 1294 2753 
L 1863 2753 
Q 2328 2753 2575 2939 
Q 2822 3125 2822 3475 
Q 2822 3834 2567 4026 
Q 2313 4219 1838 4219 
Q 1578 4219 1281 4162 
Q 984 4106 628 3988 
L 628 4550 
Q 988 4650 1302 4700 
Q 1616 4750 1894 4750 
Q 2613 4750 3031 4423 
Q 3450 4097 3450 3541 
Q 3450 3153 3228 2886 
Q 3006 2619 2597 2516 
z
" transform="scale(0.015625)"/>
      </defs>
      <use xlink:href="#DejaVuSans-31" transform="translate(0 0.015625)"/>
      <use xlink:href="#DejaVuSans-30" transform="translate(63.623047 0.015625)"/>
      <use xlink:href="#DejaVuSans-30" transform="translate(127.246094 0.015625)"/>
      <use xlink:href="#DejaVuSans-20" transform="translate(190.869141 0.015625)"/>
      <use xlink:href="#DejaVuSans-6b" transform="translate(222.65625 0.015625)"/>
      <use xlink:href="#DejaVuSans-74" transform="translate(280.566406 0.015625)"/>
      <use xlink:href="#DejaVuSans-20" transform="translate(319.775391 0.015625)"/>
      <use xlink:href="#DejaVuSans-20" transform="translate(351.5625 0.015625)"/>
      <use xlink:href="#DejaVuSans-28" transform="translate(383.349609 0.015625)"/>
      <use xlink:href="#DejaVuSans-Oblique-74" transform="translate(422.363281 0.015625)"/>
      <use xlink:href="#DejaVuSans-Oblique-6d" transform="translate(461.572266 -16.390625)scale(0.7)"/>
      <use xlink:href="#DejaVuSans-Oblique-61" transform="translate(529.760742 -16.390625)scale(0.7)"/>
      <use xlink:href="#DejaVuSans-Oblique-78" transform="translate(572.65625 -16.390625)scale(0.7)"/>
      <use xlink:href="#DejaVuSans-3d" transform="translate(616.816406 0.015625)"/>
      <use xlink:href="#DejaVuSans-30" transform="translate(700.605469 0.015625)"/>
      <use xlink:href="#DejaVuSans-2e" transform="translate(764.228516 0.015625)"/>
      <use xlink:href="#DejaVuSans-33" transform="translate(796.015625 0.015625)"/>
      <use xlink:href="#DejaVuSans-30" transform="translate(859.638672 0.015625)"/>
      <use xlink:href="#DejaVuSans-34" transform="translate(923.261719 0.015625)"/>
      <use xlink:href="#DejaVuSans-20" transform="translate(986.884766 0.015625)"/>
      <use xlink:href="#DejaVuSans-73" transform="translate(1018.671875 0.015625)"/>
      <use xlink:href="#DejaVuSans-29" transform="translate(1070.771484 0.015625)"/>
     </g>
    </g>
    <g id="line2d_34">
     <path d="M 300.382875 91.218376 
L 309.382875 91.218376 
L 318.382875 91.218376 
" style="fill: none; stroke: #b33a3a; stroke-width: 2.2; stroke-linecap: square"/>
    </g>
    <g id="text_20">
     <!-- 1000 kt  ($t_{max}$=0.801 s) -->
     <g transform="translate(325.582875 94.368376)scale(0.09 -0.09)">
      <use xlink:href="#DejaVuSans-31" transform="translate(0 0.015625)"/>
      <use xlink:href="#DejaVuSans-30" transform="translate(63.623047 0.015625)"/>
      <use xlink:href="#DejaVuSans-30" transform="translate(127.246094 0.015625)"/>
      <use xlink:href="#DejaVuSans-30" transform="translate(190.869141 0.015625)"/>
      <use xlink:href="#DejaVuSans-20" transform="translate(254.492188 0.015625)"/>
      <use xlink:href="#DejaVuSans-6b" transform="translate(286.279297 0.015625)"/>
      <use xlink:href="#DejaVuSans-74" transform="translate(344.189453 0.015625)"/>
      <use xlink:href="#DejaVuSans-20" transform="translate(383.398438 0.015625)"/>
      <use xlink:href="#DejaVuSans-20" transform="translate(415.185547 0.015625)"/>
      <use xlink:href="#DejaVuSans-28" transform="translate(446.972656 0.015625)"/>
      <use xlink:href="#DejaVuSans-Oblique-74" transform="translate(485.986328 0.015625)"/>
      <use xlink:href="#DejaVuSans-Oblique-6d" transform="translate(525.195312 -16.390625)scale(0.7)"/>
      <use xlink:href="#DejaVuSans-Oblique-61" transform="translate(593.383789 -16.390625)scale(0.7)"/>
      <use xlink:href="#DejaVuSans-Oblique-78" transform="translate(636.279297 -16.390625)scale(0.7)"/>
      <use xlink:href="#DejaVuSans-3d" transform="translate(680.439453 0.015625)"/>
      <use xlink:href="#DejaVuSans-30" transform="translate(764.228516 0.015625)"/>
      <use xlink:href="#DejaVuSans-2e" transform="translate(827.851562 0.015625)"/>
      <use xlink:href="#DejaVuSans-38" transform="translate(857.013672 0.015625)"/>
      <use xlink:href="#DejaVuSans-30" transform="translate(920.636719 0.015625)"/>
      <use xlink:href="#DejaVuSans-31" transform="translate(984.259766 0.015625)"/>
      <use xlink:href="#DejaVuSans-20" transform="translate(1047.882812 0.015625)"/>
      <use xlink:href="#DejaVuSans-73" transform="translate(1079.669922 0.015625)"/>
      <use xlink:href="#DejaVuSans-29" transform="translate(1131.769531 0.015625)"/>
     </g>
    </g>
   </g>
  </g>
  <g id="axes_2">
   <g id="patch_5">
    <path d="M 482.991812 356.411322 
L 884.07351 356.411322 
L 884.07351 39.798845 
L 482.991812 39.798845 
z
" style="fill: #ffffff"/>
   </g>
   <g id="matplotlib.axis_3">
    <g id="xtick_8">
     <g id="line2d_35">
      <path d="M 482.991812 356.411322 
L 482.991812 39.798845 
" clip-path="url(#p6dafa903fd)" style="fill: none; stroke: #d7dce2; stroke-opacity: 0.8; stroke-width: 0.8; stroke-linecap: square"/>
     </g>
     <g id="line2d_36">
      <g>
       <use xlink:href="#m8c694dafad" x="482.991812" y="356.411322" style="stroke: #000000; stroke-width: 0.8"/>
      </g>
     </g>
     <g id="text_21">
      <!-- 0 -->
      <g transform="translate(480.128687 370.249916)scale(0.09 -0.09)">
       <use xlink:href="#DejaVuSans-30"/>
      </g>
     </g>
    </g>
    <g id="xtick_9">
     <g id="line2d_37">
      <path d="M 533.127025 356.411322 
L 533.127025 39.798845 
" clip-path="url(#p6dafa903fd)" style="fill: none; stroke: #d7dce2; stroke-opacity: 0.8; stroke-width: 0.8; stroke-linecap: square"/>
     </g>
     <g id="line2d_38">
      <g>
       <use xlink:href="#m8c694dafad" x="533.127025" y="356.411322" style="stroke: #000000; stroke-width: 0.8"/>
      </g>
     </g>
     <g id="text_22">
      <!-- 2 -->
      <g transform="translate(530.2639 370.249916)scale(0.09 -0.09)">
       <use xlink:href="#DejaVuSans-32"/>
      </g>
     </g>
    </g>
    <g id="xtick_10">
     <g id="line2d_39">
      <path d="M 583.262237 356.411322 
L 583.262237 39.798845 
" clip-path="url(#p6dafa903fd)" style="fill: none; stroke: #d7dce2; stroke-opacity: 0.8; stroke-width: 0.8; stroke-linecap: square"/>
     </g>
     <g id="line2d_40">
      <g>
       <use xlink:href="#m8c694dafad" x="583.262237" y="356.411322" style="stroke: #000000; stroke-width: 0.8"/>
      </g>
     </g>
     <g id="text_23">
      <!-- 4 -->
      <g transform="translate(580.399112 370.249916)scale(0.09 -0.09)">
       <use xlink:href="#DejaVuSans-34"/>
      </g>
     </g>
    </g>
    <g id="xtick_11">
     <g id="line2d_41">
      <path d="M 633.397449 356.411322 
L 633.397449 39.798845 
" clip-path="url(#p6dafa903fd)" style="fill: none; stroke: #d7dce2; stroke-opacity: 0.8; stroke-width: 0.8; stroke-linecap: square"/>
     </g>
     <g id="line2d_42">
      <g>
       <use xlink:href="#m8c694dafad" x="633.397449" y="356.411322" style="stroke: #000000; stroke-width: 0.8"/>
      </g>
     </g>
     <g id="text_24">
      <!-- 6 -->
      <g transform="translate(630.534324 370.249916)scale(0.09 -0.09)">
       <use xlink:href="#DejaVuSans-36"/>
      </g>
     </g>
    </g>
    <g id="xtick_12">
     <g id="line2d_43">
      <path d="M 683.532661 356.411322 
L 683.532661 39.798845 
" clip-path="url(#p6dafa903fd)" style="fill: none; stroke: #d7dce2; stroke-opacity: 0.8; stroke-width: 0.8; stroke-linecap: square"/>
     </g>
     <g id="line2d_44">
      <g>
       <use xlink:href="#m8c694dafad" x="683.532661" y="356.411322" style="stroke: #000000; stroke-width: 0.8"/>
      </g>
     </g>
     <g id="text_25">
      <!-- 8 -->
      <g transform="translate(680.669536 370.249916)scale(0.09 -0.09)">
       <use xlink:href="#DejaVuSans-38"/>
      </g>
     </g>
    </g>
    <g id="xtick_13">
     <g id="line2d_45">
      <path d="M 733.667873 356.411322 
L 733.667873 39.798845 
" clip-path="url(#p6dafa903fd)" style="fill: none; stroke: #d7dce2; stroke-opacity: 0.8; stroke-width: 0.8; stroke-linecap: square"/>
     </g>
     <g id="line2d_46">
      <g>
       <use xlink:href="#m8c694dafad" x="733.667873" y="356.411322" style="stroke: #000000; stroke-width: 0.8"/>
      </g>
     </g>
     <g id="text_26">
      <!-- 10 -->
      <g transform="translate(727.941623 370.249916)scale(0.09 -0.09)">
       <use xlink:href="#DejaVuSans-31"/>
       <use xlink:href="#DejaVuSans-30" x="63.623047"/>
      </g>
     </g>
    </g>
    <g id="xtick_14">
     <g id="line2d_47">
      <path d="M 783.803086 356.411322 
L 783.803086 39.798845 
" clip-path="url(#p6dafa903fd)" style="fill: none; stroke: #d7dce2; stroke-opacity: 0.8; stroke-width: 0.8; stroke-linecap: square"/>
     </g>
     <g id="line2d_48">
      <g>
       <use xlink:href="#m8c694dafad" x="783.803086" y="356.411322" style="stroke: #000000; stroke-width: 0.8"/>
      </g>
     </g>
     <g id="text_27">
      <!-- 12 -->
      <g transform="translate(778.076836 370.249916)scale(0.09 -0.09)">
       <use xlink:href="#DejaVuSans-31"/>
       <use xlink:href="#DejaVuSans-32" x="63.623047"/>
      </g>
     </g>
    </g>
    <g id="xtick_15">
     <g id="line2d_49">
      <path d="M 833.938298 356.411322 
L 833.938298 39.798845 
" clip-path="url(#p6dafa903fd)" style="fill: none; stroke: #d7dce2; stroke-opacity: 0.8; stroke-width: 0.8; stroke-linecap: square"/>
     </g>
     <g id="line2d_50">
      <g>
       <use xlink:href="#m8c694dafad" x="833.938298" y="356.411322" style="stroke: #000000; stroke-width: 0.8"/>
      </g>
     </g>
     <g id="text_28">
      <!-- 14 -->
      <g transform="translate(828.212048 370.249916)scale(0.09 -0.09)">
       <use xlink:href="#DejaVuSans-31"/>
       <use xlink:href="#DejaVuSans-34" x="63.623047"/>
      </g>
     </g>
    </g>
    <g id="xtick_16">
     <g id="line2d_51">
      <path d="M 884.07351 356.411322 
L 884.07351 39.798845 
" clip-path="url(#p6dafa903fd)" style="fill: none; stroke: #d7dce2; stroke-opacity: 0.8; stroke-width: 0.8; stroke-linecap: square"/>
     </g>
     <g id="line2d_52">
      <g>
       <use xlink:href="#m8c694dafad" x="884.07351" y="356.411322" style="stroke: #000000; stroke-width: 0.8"/>
      </g>
     </g>
     <g id="text_29">
      <!-- 16 -->
      <g transform="translate(878.34726 370.249916)scale(0.09 -0.09)">
       <use xlink:href="#DejaVuSans-31"/>
       <use xlink:href="#DejaVuSans-36" x="63.623047"/>
      </g>
     </g>
    </g>
    <g id="text_30">
     <!-- Normalized time, $\tau=t/t_{max}$ -->
     <g transform="translate(616.482661 383.720073)scale(0.1 -0.1)">
      <defs>
       <path id="DejaVuSans-Oblique-3c4" d="M 2103 638 
Q 2188 488 2525 488 
L 2800 488 
L 2706 0 
L 2363 0 
Q 1800 0 1600 300 
Q 1403 606 1534 1269 
L 1856 2925 
L 541 2925 
L 653 3500 
L 3881 3500 
L 3769 2925 
L 2444 2925 
L 2113 1234 
Q 2025 781 2103 638 
z
" transform="scale(0.015625)"/>
       <path id="DejaVuSans-2f" d="M 1625 4666 
L 2156 4666 
L 531 -594 
L 0 -594 
L 1625 4666 
z
" transform="scale(0.015625)"/>
      </defs>
      <use xlink:href="#DejaVuSans-4e" transform="translate(0 0.015625)"/>
      <use xlink:href="#DejaVuSans-6f" transform="translate(74.804688 0.015625)"/>
      <use xlink:href="#DejaVuSans-72" transform="translate(135.986328 0.015625)"/>
      <use xlink:href="#DejaVuSans-6d" transform="translate(177.099609 0.015625)"/>
      <use xlink:href="#DejaVuSans-61" transform="translate(274.511719 0.015625)"/>
      <use xlink:href="#DejaVuSans-6c" transform="translate(335.791016 0.015625)"/>
      <use xlink:href="#DejaVuSans-69" transform="translate(363.574219 0.015625)"/>
      <use xlink:href="#DejaVuSans-7a" transform="translate(391.357422 0.015625)"/>
      <use xlink:href="#DejaVuSans-65" transform="translate(443.847656 0.015625)"/>
      <use xlink:href="#DejaVuSans-64" transform="translate(505.371094 0.015625)"/>
      <use xlink:href="#DejaVuSans-20" transform="translate(568.847656 0.015625)"/>
      <use xlink:href="#DejaVuSans-74" transform="translate(600.634766 0.015625)"/>
      <use xlink:href="#DejaVuSans-69" transform="translate(639.84375 0.015625)"/>
      <use xlink:href="#DejaVuSans-6d" transform="translate(667.626953 0.015625)"/>
      <use xlink:href="#DejaVuSans-65" transform="translate(765.039062 0.015625)"/>
      <use xlink:href="#DejaVuSans-2c" transform="translate(826.5625 0.015625)"/>
      <use xlink:href="#DejaVuSans-20" transform="translate(858.349609 0.015625)"/>
      <use xlink:href="#DejaVuSans-Oblique-3c4" transform="translate(890.136719 0.015625)"/>
      <use xlink:href="#DejaVuSans-3d" transform="translate(969.824219 0.015625)"/>
      <use xlink:href="#DejaVuSans-Oblique-74" transform="translate(1073.095703 0.015625)"/>
      <use xlink:href="#DejaVuSans-2f" transform="translate(1112.304688 0.015625)"/>
      <use xlink:href="#DejaVuSans-Oblique-74" transform="translate(1145.996094 0.015625)"/>
      <use xlink:href="#DejaVuSans-Oblique-6d" transform="translate(1185.205078 -16.390625)scale(0.7)"/>
      <use xlink:href="#DejaVuSans-Oblique-61" transform="translate(1253.393555 -16.390625)scale(0.7)"/>
      <use xlink:href="#DejaVuSans-Oblique-78" transform="translate(1296.289062 -16.390625)scale(0.7)"/>
     </g>
    </g>
   </g>
   <g id="matplotlib.axis_4">
    <g id="ytick_7">
     <g id="line2d_53">
      <path d="M 482.991812 356.411322 
L 884.07351 356.411322 
" clip-path="url(#p6dafa903fd)" style="fill: none; stroke: #d7dce2; stroke-opacity: 0.8; stroke-width: 0.8; stroke-linecap: square"/>
     </g>
     <g id="line2d_54">
      <g>
       <use xlink:href="#m83267eda84" x="482.991812" y="356.411322" style="stroke: #000000; stroke-width: 0.8"/>
      </g>
     </g>
     <g id="text_31">
      <!-- 0.0 -->
      <g transform="translate(461.679 359.830619)scale(0.09 -0.09)">
       <use xlink:href="#DejaVuSans-30"/>
       <use xlink:href="#DejaVuSans-2e" x="63.623047"/>
       <use xlink:href="#DejaVuSans-30" x="95.410156"/>
      </g>
     </g>
    </g>
    <g id="ytick_8">
     <g id="line2d_55">
      <path d="M 482.991812 297.779382 
L 884.07351 297.779382 
" clip-path="url(#p6dafa903fd)" style="fill: none; stroke: #d7dce2; stroke-opacity: 0.8; stroke-width: 0.8; stroke-linecap: square"/>
     </g>
     <g id="line2d_56">
      <g>
       <use xlink:href="#m83267eda84" x="482.991812" y="297.779382" style="stroke: #000000; stroke-width: 0.8"/>
      </g>
     </g>
     <g id="text_32">
      <!-- 0.2 -->
      <g transform="translate(461.679 301.198679)scale(0.09 -0.09)">
       <use xlink:href="#DejaVuSans-30"/>
       <use xlink:href="#DejaVuSans-2e" x="63.623047"/>
       <use xlink:href="#DejaVuSans-32" x="95.410156"/>
      </g>
     </g>
    </g>
    <g id="ytick_9">
     <g id="line2d_57">
      <path d="M 482.991812 239.147442 
L 884.07351 239.147442 
" clip-path="url(#p6dafa903fd)" style="fill: none; stroke: #d7dce2; stroke-opacity: 0.8; stroke-width: 0.8; stroke-linecap: square"/>
     </g>
     <g id="line2d_58">
      <g>
       <use xlink:href="#m83267eda84" x="482.991812" y="239.147442" style="stroke: #000000; stroke-width: 0.8"/>
      </g>
     </g>
     <g id="text_33">
      <!-- 0.4 -->
      <g transform="translate(461.679 242.566739)scale(0.09 -0.09)">
       <use xlink:href="#DejaVuSans-30"/>
       <use xlink:href="#DejaVuSans-2e" x="63.623047"/>
       <use xlink:href="#DejaVuSans-34" x="95.410156"/>
      </g>
     </g>
    </g>
    <g id="ytick_10">
     <g id="line2d_59">
      <path d="M 482.991812 180.515502 
L 884.07351 180.515502 
" clip-path="url(#p6dafa903fd)" style="fill: none; stroke: #d7dce2; stroke-opacity: 0.8; stroke-width: 0.8; stroke-linecap: square"/>
     </g>
     <g id="line2d_60">
      <g>
       <use xlink:href="#m83267eda84" x="482.991812" y="180.515502" style="stroke: #000000; stroke-width: 0.8"/>
      </g>
     </g>
     <g id="text_34">
      <!-- 0.6 -->
      <g transform="translate(461.679 183.934799)scale(0.09 -0.09)">
       <use xlink:href="#DejaVuSans-30"/>
       <use xlink:href="#DejaVuSans-2e" x="63.623047"/>
       <use xlink:href="#DejaVuSans-36" x="95.410156"/>
      </g>
     </g>
    </g>
    <g id="ytick_11">
     <g id="line2d_61">
      <path d="M 482.991812 121.883561 
L 884.07351 121.883561 
" clip-path="url(#p6dafa903fd)" style="fill: none; stroke: #d7dce2; stroke-opacity: 0.8; stroke-width: 0.8; stroke-linecap: square"/>
     </g>
     <g id="line2d_62">
      <g>
       <use xlink:href="#m83267eda84" x="482.991812" y="121.883561" style="stroke: #000000; stroke-width: 0.8"/>
      </g>
     </g>
     <g id="text_35">
      <!-- 0.8 -->
      <g transform="translate(461.679 125.302858)scale(0.09 -0.09)">
       <use xlink:href="#DejaVuSans-30"/>
       <use xlink:href="#DejaVuSans-2e" x="63.623047"/>
       <use xlink:href="#DejaVuSans-38" x="95.410156"/>
      </g>
     </g>
    </g>
    <g id="ytick_12">
     <g id="line2d_63">
      <path d="M 482.991812 63.251621 
L 884.07351 63.251621 
" clip-path="url(#p6dafa903fd)" style="fill: none; stroke: #d7dce2; stroke-opacity: 0.8; stroke-width: 0.8; stroke-linecap: square"/>
     </g>
     <g id="line2d_64">
      <g>
       <use xlink:href="#m83267eda84" x="482.991812" y="63.251621" style="stroke: #000000; stroke-width: 0.8"/>
      </g>
     </g>
     <g id="text_36">
      <!-- 1.0 -->
      <g transform="translate(461.679 66.670918)scale(0.09 -0.09)">
       <use xlink:href="#DejaVuSans-31"/>
       <use xlink:href="#DejaVuSans-2e" x="63.623047"/>
       <use xlink:href="#DejaVuSans-30" x="95.410156"/>
      </g>
     </g>
    </g>
    <g id="text_37">
     <!-- $F(\tau)$ -->
     <g transform="translate(455.599312 207.905084)rotate(-90)scale(0.1 -0.1)">
      <use xlink:href="#DejaVuSans-Oblique-46" transform="translate(0 0.125)"/>
      <use xlink:href="#DejaVuSans-28" transform="translate(57.519531 0.125)"/>
      <use xlink:href="#DejaVuSans-Oblique-3c4" transform="translate(96.533203 0.125)"/>
      <use xlink:href="#DejaVuSans-29" transform="translate(156.738281 0.125)"/>
     </g>
    </g>
   </g>
   <g id="line2d_65">
    <path d="M 482.991812 356.411322 
L 485.498565 348.78917 
L 488.005317 324.163755 
L 490.511987 288.984591 
L 493.018739 245.010636 
L 495.525574 190.776091 
L 498.032244 140.938942 
L 500.539244 105.759778 
L 503.045914 79.375405 
L 505.552666 69.114815 
L 508.059419 63.251621 
L 513.072841 82.307002 
L 518.086345 123.34936 
L 523.09985 171.720711 
L 528.113355 203.968278 
L 533.126942 230.352651 
L 538.140447 249.114872 
L 543.153951 262.600218 
L 548.167374 274.326606 
L 553.180878 284.587196 
L 558.194466 292.502508 
L 563.207888 299.245181 
L 568.221558 305.108375 
L 573.23498 310.09209 
L 578.248484 315.368964 
L 583.262072 319.4732 
L 595.795668 327.681672 
L 608.329595 332.372227 
L 620.863274 336.769623 
L 633.397201 338.528581 
L 645.930963 341.167018 
L 658.464559 342.925976 
L 683.532166 345.564414 
L 708.599772 347.323372 
L 733.667295 347.909691 
L 758.734819 348.496011 
L 783.802425 349.08233 
L 808.869948 349.37549 
L 833.937554 349.668649 
L 876.096564 356.411322 
L 876.487575 356.411322 
" clip-path="url(#p6dafa903fd)" style="fill: none; stroke: #295f98; stroke-width: 2.2; stroke-linecap: square"/>
   </g>
   <g id="line2d_66">
    <path d="M 482.991812 356.411322 
L 485.498565 348.78917 
L 488.005317 324.163755 
L 490.511987 288.984591 
L 493.018739 245.010636 
L 495.525574 190.776091 
L 498.032244 140.938942 
L 500.539244 105.759778 
L 503.045914 79.375405 
L 505.552666 69.114815 
L 508.059419 63.251621 
L 513.072841 82.307002 
L 518.086345 123.34936 
L 523.09985 171.720711 
L 528.113355 203.968278 
L 533.126942 230.352651 
L 538.140447 249.114872 
L 543.153951 262.600218 
L 548.167374 274.326606 
L 553.180878 284.587196 
L 558.194466 292.502508 
L 563.207888 299.245181 
L 568.221558 305.108375 
L 573.23498 310.09209 
L 578.248484 315.368964 
L 583.262072 319.4732 
L 595.795668 327.681672 
L 608.329595 332.372227 
L 620.863274 336.769623 
L 633.397201 338.528581 
L 645.930963 341.167018 
L 658.464559 342.925976 
L 683.532166 345.564414 
L 708.599772 347.323372 
L 733.667295 347.909691 
L 758.734819 348.496011 
L 783.802425 349.08233 
L 808.869948 349.37549 
L 833.937554 349.668649 
L 876.096564 356.411322 
L 876.487575 356.411322 
" clip-path="url(#p6dafa903fd)" style="fill: none; stroke: #16877a; stroke-width: 2.2; stroke-linecap: square"/>
   </g>
   <g id="line2d_67">
    <path d="M 482.991812 356.411322 
L 485.498565 348.78917 
L 488.005317 324.163755 
L 490.511987 288.984591 
L 493.018739 245.010636 
L 495.525574 190.776091 
L 498.032244 140.938942 
L 500.539244 105.759778 
L 503.045914 79.375405 
L 505.552666 69.114815 
L 508.059419 63.251621 
L 513.072841 82.307002 
L 518.086345 123.34936 
L 523.09985 171.720711 
L 528.113355 203.968278 
L 533.126942 230.352651 
L 538.140447 249.114872 
L 543.153951 262.600218 
L 548.167374 274.326606 
L 553.180878 284.587196 
L 558.194466 292.502508 
L 563.207888 299.245181 
L 568.221558 305.108375 
L 573.23498 310.09209 
L 578.248484 315.368964 
L 583.262072 319.4732 
L 595.795668 327.681672 
L 608.329595 332.372227 
L 620.863274 336.769623 
L 633.397201 338.528581 
L 645.930963 341.167018 
L 658.464559 342.925976 
L 683.532166 345.564414 
L 708.599772 347.323372 
L 733.667295 347.909691 
L 758.734819 348.496011 
L 783.802425 349.08233 
L 808.869948 349.37549 
L 833.937554 349.668649 
L 876.096564 356.411322 
L 876.487575 356.411322 
" clip-path="url(#p6dafa903fd)" style="fill: none; stroke: #d17a16; stroke-width: 2.2; stroke-linecap: square"/>
   </g>
   <g id="line2d_68">
    <path d="M 482.991812 356.411322 
L 485.498565 348.78917 
L 488.005317 324.163755 
L 490.511987 288.984591 
L 493.018739 245.010636 
L 495.525574 190.776091 
L 498.032244 140.938942 
L 500.539244 105.759778 
L 503.045914 79.375405 
L 505.552666 69.114815 
L 508.059419 63.251621 
L 513.072841 82.307002 
L 518.086345 123.34936 
L 523.09985 171.720711 
L 528.113355 203.968278 
L 533.126942 230.352651 
L 538.140447 249.114872 
L 543.153951 262.600218 
L 548.167374 274.326606 
L 553.180878 284.587196 
L 558.194466 292.502508 
L 563.207888 299.245181 
L 568.221558 305.108375 
L 573.23498 310.09209 
L 578.248484 315.368964 
L 583.262072 319.4732 
L 595.795668 327.681672 
L 608.329595 332.372227 
L 620.863274 336.769623 
L 633.397201 338.528581 
L 645.930963 341.167018 
L 658.464559 342.925976 
L 683.532166 345.564414 
L 708.599772 347.323372 
L 733.667295 347.909691 
L 758.734819 348.496011 
L 783.802425 349.08233 
L 808.869948 349.37549 
L 833.937554 349.668649 
L 876.096564 356.411322 
L 876.487575 356.411322 
" clip-path="url(#p6dafa903fd)" style="fill: none; stroke: #b33a3a; stroke-width: 2.2; stroke-linecap: square"/>
   </g>
   <g id="patch_6">
    <path d="M 482.991812 356.411322 
L 482.991812 39.798845 
" style="fill: none; stroke: #000000; stroke-width: 0.8; stroke-linejoin: miter; stroke-linecap: square"/>
   </g>
   <g id="patch_7">
    <path d="M 482.991812 356.411322 
L 884.07351 356.411322 
" style="fill: none; stroke: #000000; stroke-width: 0.8; stroke-linejoin: miter; stroke-linecap: square"/>
   </g>
   <g id="text_38">
    <!-- $\int F(\tau)d\tau=2.1764$ -->
    <g transform="translate(785.441059 69.595594)scale(0.1 -0.1)">
     <defs>
      <path id="DejaVuSansDisplay-222b" d="M 2134 5525 
Q 2172 6263 2528 6556 
Q 2884 6850 3218 6850 
Q 3553 6850 3833 6575 
Q 4113 6300 4200 5678 
L 3544 5613 
Q 3469 6188 3219 6188 
Q 2906 6188 2869 5413 
L 2581 -597 
Q 2547 -1334 2187 -1628 
Q 1828 -1922 1497 -1922 
Q 1163 -1922 883 -1647 
Q 603 -1372 516 -750 
L 1172 -684 
Q 1247 -1259 1497 -1259 
Q 1809 -1259 1847 -488 
L 2134 5525 
z
" transform="scale(0.015625)"/>
      <path id="DejaVuSans-Oblique-64" d="M 2675 525 
Q 2444 222 2128 65 
Q 1813 -91 1428 -91 
Q 903 -91 598 267 
Q 294 625 294 1247 
Q 294 1766 478 2236 
Q 663 2706 1013 3078 
Q 1244 3325 1534 3454 
Q 1825 3584 2144 3584 
Q 2481 3584 2739 3421 
Q 2997 3259 3138 2956 
L 3513 4863 
L 4091 4863 
L 3144 0 
L 2566 0 
L 2675 525 
z
M 891 1350 
Q 891 897 1095 644 
Q 1300 391 1663 391 
Q 1931 391 2161 520 
Q 2391 650 2566 903 
Q 2750 1166 2856 1509 
Q 2963 1853 2963 2188 
Q 2963 2622 2758 2865 
Q 2553 3109 2194 3109 
Q 1922 3109 1687 2981 
Q 1453 2853 1288 2613 
Q 1106 2353 998 2009 
Q 891 1666 891 1350 
z
" transform="scale(0.015625)"/>
      <path id="DejaVuSans-37" d="M 525 4666 
L 3525 4666 
L 3525 4397 
L 1831 0 
L 1172 0 
L 2766 4134 
L 525 4134 
L 525 4666 
z
" transform="scale(0.015625)"/>
     </defs>
     <use xlink:href="#DejaVuSansDisplay-222b" transform="translate(0 0.96875)"/>
     <use xlink:href="#DejaVuSans-Oblique-46" transform="translate(73.632812 0.96875)"/>
     <use xlink:href="#DejaVuSans-28" transform="translate(131.152344 0.96875)"/>
     <use xlink:href="#DejaVuSans-Oblique-3c4" transform="translate(170.166016 0.96875)"/>
     <use xlink:href="#DejaVuSans-29" transform="translate(230.371094 0.96875)"/>
     <use xlink:href="#DejaVuSans-Oblique-64" transform="translate(269.384766 0.96875)"/>
     <use xlink:href="#DejaVuSans-Oblique-3c4" transform="translate(332.861328 0.96875)"/>
     <use xlink:href="#DejaVuSans-3d" transform="translate(412.548828 0.96875)"/>
     <use xlink:href="#DejaVuSans-32" transform="translate(515.820312 0.96875)"/>
     <use xlink:href="#DejaVuSans-2e" transform="translate(579.443359 0.96875)"/>
     <use xlink:href="#DejaVuSans-31" transform="translate(611.230469 0.96875)"/>
     <use xlink:href="#DejaVuSans-37" transform="translate(674.853516 0.96875)"/>
     <use xlink:href="#DejaVuSans-36" transform="translate(738.476562 0.96875)"/>
     <use xlink:href="#DejaVuSans-34" transform="translate(802.099609 0.96875)"/>
    </g>
   </g>
   <g id="text_39">
    <!-- Common dimensionless pulse shape -->
    <g transform="translate(573.895786 33.798845)scale(0.12 -0.12)">
     <defs>
      <path id="DejaVuSans-43" d="M 4122 4306 
L 4122 3641 
Q 3803 3938 3442 4084 
Q 3081 4231 2675 4231 
Q 1875 4231 1450 3742 
Q 1025 3253 1025 2328 
Q 1025 1406 1450 917 
Q 1875 428 2675 428 
Q 3081 428 3442 575 
Q 3803 722 4122 1019 
L 4122 359 
Q 3791 134 3420 21 
Q 3050 -91 2638 -91 
Q 1578 -91 968 557 
Q 359 1206 359 2328 
Q 359 3453 968 4101 
Q 1578 4750 2638 4750 
Q 3056 4750 3426 4639 
Q 3797 4528 4122 4306 
z
" transform="scale(0.015625)"/>
     </defs>
     <use xlink:href="#DejaVuSans-43"/>
     <use xlink:href="#DejaVuSans-6f" x="69.824219"/>
     <use xlink:href="#DejaVuSans-6d" x="131.005859"/>
     <use xlink:href="#DejaVuSans-6d" x="228.417969"/>
     <use xlink:href="#DejaVuSans-6f" x="325.830078"/>
     <use xlink:href="#DejaVuSans-6e" x="387.011719"/>
     <use xlink:href="#DejaVuSans-20" x="450.390625"/>
     <use xlink:href="#DejaVuSans-64" x="482.177734"/>
     <use xlink:href="#DejaVuSans-69" x="545.654297"/>
     <use xlink:href="#DejaVuSans-6d" x="573.4375"/>
     <use xlink:href="#DejaVuSans-65" x="670.849609"/>
     <use xlink:href="#DejaVuSans-6e" x="732.373047"/>
     <use xlink:href="#DejaVuSans-73" x="795.751953"/>
     <use xlink:href="#DejaVuSans-69" x="847.851562"/>
     <use xlink:href="#DejaVuSans-6f" x="875.634766"/>
     <use xlink:href="#DejaVuSans-6e" x="936.816406"/>
     <use xlink:href="#DejaVuSans-6c" x="1000.195312"/>
     <use xlink:href="#DejaVuSans-65" x="1027.978516"/>
     <use xlink:href="#DejaVuSans-73" x="1089.501953"/>
     <use xlink:href="#DejaVuSans-73" x="1141.601562"/>
     <use xlink:href="#DejaVuSans-20" x="1193.701172"/>
     <use xlink:href="#DejaVuSans-70" x="1225.488281"/>
     <use xlink:href="#DejaVuSans-75" x="1288.964844"/>
     <use xlink:href="#DejaVuSans-6c" x="1352.34375"/>
     <use xlink:href="#DejaVuSans-73" x="1380.126953"/>
     <use xlink:href="#DejaVuSans-65" x="1432.226562"/>
     <use xlink:href="#DejaVuSans-20" x="1493.75"/>
     <use xlink:href="#DejaVuSans-73" x="1525.537109"/>
     <use xlink:href="#DejaVuSans-68" x="1577.636719"/>
     <use xlink:href="#DejaVuSans-61" x="1641.015625"/>
     <use xlink:href="#DejaVuSans-70" x="1702.294922"/>
     <use xlink:href="#DejaVuSans-65" x="1765.771484"/>
    </g>
   </g>
  </g>
  <g id="text_40">
   <!-- Nuclear thermal-pulse history by yield: $t_{max}=0.044W^{0.42}$ -->
   <g transform="translate(247.04 15.74024)scale(0.14 -0.14)">
    <defs>
     <path id="DejaVuSans-3a" d="M 750 794 
L 1409 794 
L 1409 0 
L 750 0 
L 750 794 
z
M 750 3309 
L 1409 3309 
L 1409 2516 
L 750 2516 
L 750 3309 
z
" transform="scale(0.015625)"/>
     <path id="DejaVuSans-Oblique-57" d="M 616 4666 
L 1228 4666 
L 1453 697 
L 3213 4666 
L 3916 4666 
L 4147 697 
L 5888 4666 
L 6528 4666 
L 4453 0 
L 3659 0 
L 3444 3891 
L 1697 0 
L 903 0 
L 616 4666 
z
" transform="scale(0.015625)"/>
    </defs>
    <use xlink:href="#DejaVuSans-4e" transform="translate(0 0.765625)"/>
    <use xlink:href="#DejaVuSans-75" transform="translate(74.804688 0.765625)"/>
    <use xlink:href="#DejaVuSans-63" transform="translate(138.183594 0.765625)"/>
    <use xlink:href="#DejaVuSans-6c" transform="translate(193.164062 0.765625)"/>
    <use xlink:href="#DejaVuSans-65" transform="translate(220.947266 0.765625)"/>
    <use xlink:href="#DejaVuSans-61" transform="translate(282.470703 0.765625)"/>
    <use xlink:href="#DejaVuSans-72" transform="translate(343.75 0.765625)"/>
    <use xlink:href="#DejaVuSans-20" transform="translate(384.863281 0.765625)"/>
    <use xlink:href="#DejaVuSans-74" transform="translate(416.650391 0.765625)"/>
    <use xlink:href="#DejaVuSans-68" transform="translate(455.859375 0.765625)"/>
    <use xlink:href="#DejaVuSans-65" transform="translate(519.238281 0.765625)"/>
    <use xlink:href="#DejaVuSans-72" transform="translate(580.761719 0.765625)"/>
    <use xlink:href="#DejaVuSans-6d" transform="translate(621.875 0.765625)"/>
    <use xlink:href="#DejaVuSans-61" transform="translate(719.287109 0.765625)"/>
    <use xlink:href="#DejaVuSans-6c" transform="translate(780.566406 0.765625)"/>
    <use xlink:href="#DejaVuSans-2d" transform="translate(808.349609 0.765625)"/>
    <use xlink:href="#DejaVuSans-70" transform="translate(844.433594 0.765625)"/>
    <use xlink:href="#DejaVuSans-75" transform="translate(907.910156 0.765625)"/>
    <use xlink:href="#DejaVuSans-6c" transform="translate(971.289062 0.765625)"/>
    <use xlink:href="#DejaVuSans-73" transform="translate(999.072266 0.765625)"/>
    <use xlink:href="#DejaVuSans-65" transform="translate(1051.171875 0.765625)"/>
    <use xlink:href="#DejaVuSans-20" transform="translate(1112.695312 0.765625)"/>
    <use xlink:href="#DejaVuSans-68" transform="translate(1144.482422 0.765625)"/>
    <use xlink:href="#DejaVuSans-69" transform="translate(1207.861328 0.765625)"/>
    <use xlink:href="#DejaVuSans-73" transform="translate(1235.644531 0.765625)"/>
    <use xlink:href="#DejaVuSans-74" transform="translate(1287.744141 0.765625)"/>
    <use xlink:href="#DejaVuSans-6f" transform="translate(1326.953125 0.765625)"/>
    <use xlink:href="#DejaVuSans-72" transform="translate(1388.134766 0.765625)"/>
    <use xlink:href="#DejaVuSans-79" transform="translate(1429.248047 0.765625)"/>
    <use xlink:href="#DejaVuSans-20" transform="translate(1488.427734 0.765625)"/>
    <use xlink:href="#DejaVuSans-62" transform="translate(1520.214844 0.765625)"/>
    <use xlink:href="#DejaVuSans-79" transform="translate(1583.691406 0.765625)"/>
    <use xlink:href="#DejaVuSans-20" transform="translate(1642.871094 0.765625)"/>
    <use xlink:href="#DejaVuSans-79" transform="translate(1674.658203 0.765625)"/>
    <use xlink:href="#DejaVuSans-69" transform="translate(1733.837891 0.765625)"/>
    <use xlink:href="#DejaVuSans-65" transform="translate(1761.621094 0.765625)"/>
    <use xlink:href="#DejaVuSans-6c" transform="translate(1823.144531 0.765625)"/>
    <use xlink:href="#DejaVuSans-64" transform="translate(1850.927734 0.765625)"/>
    <use xlink:href="#DejaVuSans-3a" transform="translate(1914.404297 0.765625)"/>
    <use xlink:href="#DejaVuSans-20" transform="translate(1948.095703 0.765625)"/>
    <use xlink:href="#DejaVuSans-Oblique-74" transform="translate(1979.882812 0.765625)"/>
    <use xlink:href="#DejaVuSans-Oblique-6d" transform="translate(2019.091797 -15.640625)scale(0.7)"/>
    <use xlink:href="#DejaVuSans-Oblique-61" transform="translate(2087.280273 -15.640625)scale(0.7)"/>
    <use xlink:href="#DejaVuSans-Oblique-78" transform="translate(2130.175781 -15.640625)scale(0.7)"/>
    <use xlink:href="#DejaVuSans-3d" transform="translate(2193.818359 0.765625)"/>
    <use xlink:href="#DejaVuSans-30" transform="translate(2297.089844 0.765625)"/>
    <use xlink:href="#DejaVuSans-2e" transform="translate(2360.712891 0.765625)"/>
    <use xlink:href="#DejaVuSans-30" transform="translate(2392.5 0.765625)"/>
    <use xlink:href="#DejaVuSans-34" transform="translate(2456.123047 0.765625)"/>
    <use xlink:href="#DejaVuSans-34" transform="translate(2519.746094 0.765625)"/>
    <use xlink:href="#DejaVuSans-Oblique-57" transform="translate(2583.369141 0.765625)"/>
    <use xlink:href="#DejaVuSans-30" transform="translate(2689.262865 39.046875)scale(0.7)"/>
    <use xlink:href="#DejaVuSans-2e" transform="translate(2733.798997 39.046875)scale(0.7)"/>
    <use xlink:href="#DejaVuSans-34" transform="translate(2756.049974 39.046875)scale(0.7)"/>
    <use xlink:href="#DejaVuSans-32" transform="translate(2800.586107 39.046875)scale(0.7)"/>
   </g>
  </g>
 </g>
 <defs>
  <clipPath id="pdef2c487fb">
   <rect x="37.991178" y="39.798845" width="401.081697" height="316.612477"/>
  </clipPath>
  <clipPath id="p6dafa903fd">
   <rect x="482.991812" y="39.798845" width="401.081698" height="316.612477"/>
  </clipPath>
 </defs>
</svg>
